<?xml version="1.0" encoding="UTF-8" standalone="no"?>
<!-- Generator: Adobe Illustrator 14.0.0, SVG Export Plug-In . SVG Version: 6.00 Build 43363)  -->

<svg
   xmlns:ns="&amp;ns_sfw;"
   xmlns:dc="http://purl.org/dc/elements/1.1/"
   xmlns:cc="http://creativecommons.org/ns#"
   xmlns:rdf="http://www.w3.org/1999/02/22-rdf-syntax-ns#"
   xmlns:svg="http://www.w3.org/2000/svg"
   xmlns="http://www.w3.org/2000/svg"
   xmlns:sodipodi="http://sodipodi.sourceforge.net/DTD/sodipodi-0.dtd"
   xmlns:inkscape="http://www.inkscape.org/namespaces/inkscape"
   version="1.1"
   id="Calque_1"
   x="0px"
   y="0px"
   width="163.58846"
   height="152.38675"
   viewBox="0 0 163.58845 152.38675"
   enable-background="new 0 0 226.77 226.77"
   xml:space="preserve"
   sodipodi:docname="click-and-collect.svg"
   inkscape:version="0.92.3 (2405546, 2018-03-11)"><defs
   id="defs19" /><sodipodi:namedview
   pagecolor="#ffffff"
   bordercolor="#666666"
   borderopacity="1"
   objecttolerance="10"
   gridtolerance="10"
   guidetolerance="10"
   inkscape:pageopacity="0"
   inkscape:pageshadow="2"
   inkscape:window-width="807"
   inkscape:window-height="480"
   id="namedview17"
   showgrid="false"
   inkscape:zoom="1.040702"
   inkscape:cx="81.767002"
   inkscape:cy="77.581744"
   inkscape:window-x="0"
   inkscape:window-y="0"
   inkscape:window-maximized="0"
   inkscape:current-layer="Calque_1" />
<metadata
   id="metadata2">
	<ns:sfw>
		<ns:slices />
		<ns:sliceSourceBounds
   height="152.387"
   width="163.588"
   x="31.619"
   y="35.802"
   bottomLeftOrigin="true" />
	</ns:sfw>
<rdf:RDF><cc:Work
     rdf:about=""><dc:format>image/svg+xml</dc:format><dc:type
       rdf:resource="http://purl.org/dc/dcmitype/StillImage" /></cc:Work></rdf:RDF></metadata>
<g
   id="g14"
   transform="translate(-31.618,-38.58)">
	
		<path
   d="m 169.807,128.067 c 0.352,33.076 -23.309,60.144 -52.847,60.456 -29.535,0.313 -53.763,-26.246 -54.114,-59.321"
   id="path4"
   inkscape:connector-curvature="0"
   style="fill:none;stroke:#39a1f6;stroke-width:4.88199997;stroke-linecap:round;stroke-linejoin:round;stroke-dasharray:9.764, 9.764" />
	<path
   d="M 94.911,71.272 C 94.911,53.216 80.741,38.58 63.265,38.58 45.786,38.58 31.619,53.217 31.619,71.272 V 88.575 H 94.912 V 71.272 Z"
   id="path6"
   inkscape:connector-curvature="0"
   style="fill:#39a1f6" />
	<path
   d="m 60.324,124.972 c 0,1.565 -1.27,2.835 -2.835,2.835 H 34.453 c -1.565,0 -2.835,-1.27 -2.835,-2.835 V 97.164 c 0,-1.565 1.27,-2.835 2.835,-2.835 h 23.036 c 1.565,0 2.835,1.27 2.835,2.835 z"
   id="path8"
   inkscape:connector-curvature="0"
   style="fill:#39a1f6" />
	<path
   d="m 94.911,125.232 c 0,1.565 -1.27,2.835 -2.835,2.835 H 69.04 c -1.565,0 -2.835,-1.27 -2.835,-2.835 V 97.425 c 0,-1.565 1.27,-2.835 2.835,-2.835 h 23.036 c 1.565,0 2.835,1.27 2.835,2.835 z"
   id="path10"
   inkscape:connector-curvature="0"
   style="fill:#39a1f6" />
	<path
   d="m 195.202,66.109 c 0,-13.723 -11.705,-25.919 -25.428,-25.919 -13.723,0 -25.66,11.101 -25.66,24.823 0,0 -0.146,4.445 0.813,8.131 1.273,4.889 21.33,47.885 21.33,47.885 0,0 0.785,2.093 3.662,1.831 2.877,-0.262 3.139,-3.139 3.139,-3.139 0,0 20.833,-42.961 21.562,-45.792 0.676,-2.617 0.582,-7.82 0.582,-7.82 z m -25.544,13.847 c -7.662,0 -13.873,-6.211 -13.873,-13.873 0,-7.662 6.211,-13.873 13.873,-13.873 7.662,0 13.873,6.211 13.873,13.873 0,7.662 -6.211,13.873 -13.873,13.873 z"
   id="path12"
   inkscape:connector-curvature="0"
   style="fill:#39a1f6" />
</g>
</svg>