<?xml version="1.0" encoding="UTF-8" standalone="no"?>
<!-- Generator: Adobe Illustrator 14.0.0, SVG Export Plug-In . SVG Version: 6.00 Build 43363)  -->

<svg
   xmlns:ns="&amp;ns_sfw;"
   xmlns:dc="http://purl.org/dc/elements/1.1/"
   xmlns:cc="http://creativecommons.org/ns#"
   xmlns:rdf="http://www.w3.org/1999/02/22-rdf-syntax-ns#"
   xmlns:svg="http://www.w3.org/2000/svg"
   xmlns="http://www.w3.org/2000/svg"
   xmlns:sodipodi="http://sodipodi.sourceforge.net/DTD/sodipodi-0.dtd"
   xmlns:inkscape="http://www.inkscape.org/namespaces/inkscape"
   version="1.1"
   id="Calque_1"
   x="0px"
   y="0px"
   width="127.66277"
   height="123.71577"
   viewBox="0 0 127.66276 123.71576"
   enable-background="new 0 0 226.77 226.77"
   xml:space="preserve"
   sodipodi:docname="confirmation.svg"
   inkscape:version="0.92.3 (2405546, 2018-03-11)"><defs
   id="defs13" /><sodipodi:namedview
   pagecolor="#ffffff"
   bordercolor="#666666"
   borderopacity="1"
   objecttolerance="10"
   gridtolerance="10"
   guidetolerance="10"
   inkscape:pageopacity="0"
   inkscape:pageshadow="2"
   inkscape:window-width="807"
   inkscape:window-height="480"
   id="namedview11"
   showgrid="false"
   inkscape:zoom="1.040702"
   inkscape:cx="63.970002"
   inkscape:cy="62.719716"
   inkscape:window-x="0"
   inkscape:window-y="0"
   inkscape:window-maximized="0"
   inkscape:current-layer="Calque_1" />
<metadata
   id="metadata2">
	<ns:sfw>
		<ns:slices />
		<ns:sliceSourceBounds
   height="123.714"
   width="127.665"
   x="49.414"
   y="50.668"
   bottomLeftOrigin="true" />
	</ns:sfw>
<rdf:RDF><cc:Work
     rdf:about=""><dc:format>image/svg+xml</dc:format><dc:type
       rdf:resource="http://purl.org/dc/dcmitype/StillImage" /></cc:Work></rdf:RDF></metadata>
<g
   id="g8"
   transform="translate(-49.415,-52.388948)">
	<path
   d="m 77.914,104.255 h -22.83 c -3.131,0 -5.669,2.618 -5.669,5.847 v 50.354 c 0,3.229 2.538,5.847 5.669,5.847 h 22.83 c 3.131,0 5.669,-2.618 5.669,-5.847 v -50.354 c 0,-3.229 -2.539,-5.847 -5.669,-5.847 z m -13.826,51.987 c -2.895,0 -5.241,-2.347 -5.241,-5.241 0,-2.894 2.346,-5.241 5.241,-5.241 2.895,0 5.241,2.347 5.241,5.241 0,2.894 -2.347,5.241 -5.241,5.241 z"
   id="path4"
   inkscape:connector-curvature="0"
   style="fill:#39a1f6" />
	<path
   d="m 87.985,109.915 c 0,0 2.306,-4.82 4.821,-5.659 2.515,-0.839 11.046,-10.902 15.795,-17.4 4.749,-6.498 5.377,-5.241 8.103,-8.175 2.726,-2.935 3.983,-17.189 6.079,-20.753 2.096,-3.564 4.821,-4.821 4.821,-4.821 0,0 4.928,-2.522 10.69,1.887 2.836,2.169 11.111,11.529 8.386,23.268 -2.725,11.739 -6.708,15.722 -6.708,15.722 l 25.365,0.629 c 0,0 11.949,3.354 11.738,14.045 -0.209,10.691 -4.192,13.207 -4.192,13.207 0,0 1.886,2.307 1.468,7.337 -0.42,5.03 -3.564,9.224 -3.564,9.224 0,0 1.259,3.145 0.42,8.176 -0.839,5.03 -5.24,8.594 -5.24,8.594 0,0 0.629,4.821 -0.839,9.853 -1.468,5.032 -6.918,9.643 -14.884,10.69 -7.966,1.049 -29.621,0.001 -41.643,-5.24 -12.021,-5.24 -15.375,-4.192 -15.375,-4.192 0,0 -5.241,-1.048 -5.241,-2.515 0,-5.862 0,-5.862 0,-53.877 z"
   id="path6"
   inkscape:connector-curvature="0"
   style="fill:#39a1f6" />
</g>
</svg>