<?xml version="1.0" encoding="UTF-8" standalone="no"?>
<!-- Generator: Adobe Illustrator 14.0.0, SVG Export Plug-In . SVG Version: 6.00 Build 43363)  -->

<svg
   xmlns:ns="&amp;ns_sfw;"
   xmlns:dc="http://purl.org/dc/elements/1.1/"
   xmlns:cc="http://creativecommons.org/ns#"
   xmlns:rdf="http://www.w3.org/1999/02/22-rdf-syntax-ns#"
   xmlns:svg="http://www.w3.org/2000/svg"
   xmlns="http://www.w3.org/2000/svg"
   xmlns:sodipodi="http://sodipodi.sourceforge.net/DTD/sodipodi-0.dtd"
   xmlns:inkscape="http://www.inkscape.org/namespaces/inkscape"
   version="1.1"
   id="Calque_1"
   x="0px"
   y="0px"
   width="104.49444"
   height="122.932"
   viewBox="0 0 104.49444 122.932"
   enable-background="new 0 0 226.77 226.77"
   xml:space="preserve"
   sodipodi:docname="espace-securise.svg"
   inkscape:version="0.92.3 (2405546, 2018-03-11)"><defs
   id="defs9" /><sodipodi:namedview
   pagecolor="#ffffff"
   bordercolor="#666666"
   borderopacity="1"
   objecttolerance="10"
   gridtolerance="10"
   guidetolerance="10"
   inkscape:pageopacity="0"
   inkscape:pageshadow="2"
   inkscape:window-width="807"
   inkscape:window-height="480"
   id="namedview7"
   showgrid="false"
   inkscape:zoom="1.040702"
   inkscape:cx="52.58644"
   inkscape:cy="62.988998"
   inkscape:window-x="0"
   inkscape:window-y="0"
   inkscape:window-maximized="0"
   inkscape:current-layer="Calque_1" />
<metadata
   id="metadata2">
	<ns:sfw>
		<ns:slices />
		<ns:sliceSourceBounds
   height="122.932"
   width="104.495"
   x="60.798"
   y="50.395"
   bottomLeftOrigin="true" />
	</ns:sfw>
<rdf:RDF><cc:Work
     rdf:about=""><dc:format>image/svg+xml</dc:format><dc:type
       rdf:resource="http://purl.org/dc/dcmitype/StillImage" /></cc:Work></rdf:RDF></metadata>
<path
   d="m 92.852438,55.081 c -4.673,-0.493 -4.698,0 -4.698,0 l 0.385,-20.562 c 0,-19.065 -15.541,-34.519 -34.713,-34.519 -19.17,0 -34.711,15.454 -34.711,34.519 v 18.705 c -0.94,0 -2.508,-0.059 -5.015,0 -10.8110004,0.253 -14.24200042,5.679 -14.09600042,16.2 0.045,3.261 0,31.582 0,38.954 0,7.372 0.74,14.554 14.55400042,14.554 13.813,0 65.881,0 77.452,0 11.571002,0 12.484002,-8.099 12.484002,-12.483 0,-4.384 0,-41.308 0,-43.725 0,-2.417 0,-10.413 -11.642002,-11.643 z m -30.155,41.836 v 6.834 h -18.513 v -6.83 c -3.446,-2.733 -5.662,-6.946 -5.662,-11.685 0,-8.236 6.678,-14.915 14.915,-14.915 8.237,0 14.916,6.679 14.916,14.915 0,4.737 -2.214,8.948 -5.656,11.681 z m 10.331,-43.692 h -39.181 V 35.868 c 0,-10.762 8.769,-19.483 19.592,-19.483 10.82,0 19.589,8.722 19.589,19.483 z"
   id="path4"
   inkscape:connector-curvature="0"
   style="fill:#39a1f6" />
</svg>