<?xml version="1.0" encoding="UTF-8" standalone="no"?>
<!-- Generator: Adobe Illustrator 14.0.0, SVG Export Plug-In . SVG Version: 6.00 Build 43363)  -->

<svg
   xmlns:ns="&amp;ns_sfw;"
   xmlns:dc="http://purl.org/dc/elements/1.1/"
   xmlns:cc="http://creativecommons.org/ns#"
   xmlns:rdf="http://www.w3.org/1999/02/22-rdf-syntax-ns#"
   xmlns:svg="http://www.w3.org/2000/svg"
   xmlns="http://www.w3.org/2000/svg"
   xmlns:sodipodi="http://sodipodi.sourceforge.net/DTD/sodipodi-0.dtd"
   xmlns:inkscape="http://www.inkscape.org/namespaces/inkscape"
   version="1.1"
   id="Calque_1"
   x="0px"
   y="0px"
   width="209.88432"
   height="125.509"
   viewBox="0 0 209.88432 125.509"
   enable-background="new 0 0 226.77 226.77"
   xml:space="preserve"
   sodipodi:docname="expedition-a-domicile.svg"
   inkscape:version="0.92.3 (2405546, 2018-03-11)"><defs
   id="defs9" /><sodipodi:namedview
   pagecolor="#ffffff"
   bordercolor="#666666"
   borderopacity="1"
   objecttolerance="10"
   gridtolerance="10"
   guidetolerance="10"
   inkscape:pageopacity="0"
   inkscape:pageshadow="2"
   inkscape:window-width="807"
   inkscape:window-height="480"
   id="namedview7"
   showgrid="false"
   inkscape:zoom="1.040702"
   inkscape:cx="105.573"
   inkscape:cy="63.668998"
   inkscape:window-x="0"
   inkscape:window-y="0"
   inkscape:window-maximized="0"
   inkscape:current-layer="Calque_1" />
<metadata
   id="metadata2">
	<ns:sfw>
		<ns:slices />
		<ns:sliceSourceBounds
   height="125.51"
   width="209.884"
   x="7.812"
   y="49.715"
   bottomLeftOrigin="true" />
	</ns:sfw>
<rdf:RDF><cc:Work
     rdf:about=""><dc:format>image/svg+xml</dc:format><dc:type
       rdf:resource="http://purl.org/dc/dcmitype/StillImage" /></cc:Work></rdf:RDF></metadata>
<path
   d="m 207.995,92.04 -2.789,-1.858 c 0,0 0,-29.442 0,-34.4 0,-4.958 -2.48,-10.227 -2.48,-10.227 0,0 -17.045,-17.355 -19.523,-19.523 -2.479,-2.17 -8.986,-3.72 -8.986,-3.72 H 158.721 V 6.562 C 158.721,2.937 155.852,0 152.311,0 H 62.906 c -3.541,0 -6.41,2.938 -6.41,6.562 V 18.625 L 5.622,25.042 52.8,32.62 0,38.487 49.133,45.82 0,53.642 56.496,59.407 v 35.677 c 0,3.625 2.87,6.562 6.41,6.562 h 4.597 c -0.022,0.412 -0.063,0.821 -0.063,1.24 0,12.494 10.128,22.623 22.623,22.623 12.495,0 22.623,-10.129 22.623,-22.623 0,-0.419 -0.041,-0.828 -0.063,-1.24 h 34.073 c -0.021,0.412 -0.062,0.821 -0.062,1.24 0,12.494 10.128,22.623 22.622,22.623 12.494,0 22.623,-10.129 22.623,-22.623 0,-0.025 -0.004,-0.051 -0.004,-0.076 l 2.174,0.076 12.396,-1.24 c 0,0 3.099,-0.619 3.409,-4.028 0.31,-3.409 -1.859,-5.578 -1.859,-5.578 z M 91.023,115.064 c -6.7,0 -12.132,-5.432 -12.132,-12.132 0,-6.7 5.432,-12.132 12.132,-12.132 6.7,0 12.132,5.432 12.132,12.132 0,6.7 -5.432,12.132 -12.132,12.132 z m 78.853,0 c -6.699,0 -12.131,-5.432 -12.131,-12.132 0,-6.7 5.432,-12.132 12.131,-12.132 6.701,0 12.133,5.432 12.133,12.132 0,6.7 -5.432,12.132 -12.133,12.132 z M 192.499,56.092 H 158.72 V 34.088 h 15.496 l 18.283,18.594 z"
   id="path4"
   inkscape:connector-curvature="0"
   style="fill:#39a1f6" />
</svg>