<?xml version="1.0" encoding="UTF-8" standalone="no"?>
<!-- Generator: Adobe Illustrator 14.0.0, SVG Export Plug-In . SVG Version: 6.00 Build 43363)  -->

<svg
   xmlns:ns="&amp;ns_sfw;"
   xmlns:dc="http://purl.org/dc/elements/1.1/"
   xmlns:cc="http://creativecommons.org/ns#"
   xmlns:rdf="http://www.w3.org/1999/02/22-rdf-syntax-ns#"
   xmlns:svg="http://www.w3.org/2000/svg"
   xmlns="http://www.w3.org/2000/svg"
   xmlns:sodipodi="http://sodipodi.sourceforge.net/DTD/sodipodi-0.dtd"
   xmlns:inkscape="http://www.inkscape.org/namespaces/inkscape"
   version="1.1"
   id="Calque_1"
   x="0px"
   y="0px"
   width="120.21233"
   height="128.65401"
   viewBox="0 0 120.21232 128.654"
   enable-background="new 0 0 226.77 226.77"
   xml:space="preserve"
   sodipodi:docname="informations-personnalisees.svg"
   inkscape:version="0.92.3 (2405546, 2018-03-11)"><defs
   id="defs11" /><sodipodi:namedview
   pagecolor="#ffffff"
   bordercolor="#666666"
   borderopacity="1"
   objecttolerance="10"
   gridtolerance="10"
   guidetolerance="10"
   inkscape:pageopacity="0"
   inkscape:pageshadow="2"
   inkscape:window-width="807"
   inkscape:window-height="480"
   id="namedview9"
   showgrid="false"
   inkscape:zoom="1.040702"
   inkscape:cx="60.080166"
   inkscape:cy="66.045998"
   inkscape:window-x="0"
   inkscape:window-y="0"
   inkscape:window-maximized="0"
   inkscape:current-layer="Calque_1" />
<metadata
   id="metadata2">
	<ns:sfw>
		<ns:slices />
		<ns:sliceSourceBounds
   height="128.654"
   width="120.212"
   x="53.305"
   y="47.34"
   bottomLeftOrigin="true" />
	</ns:sfw>
<rdf:RDF><cc:Work
     rdf:about=""><dc:format>image/svg+xml</dc:format><dc:type
       rdf:resource="http://purl.org/dc/dcmitype/StillImage" /></cc:Work></rdf:RDF></metadata>
<circle
   cx="59.953167"
   cy="31.221001"
   r="31.221001"
   id="circle4"
   style="fill:#39a1f6" />
<path
   d="m 94.788164,60.426 c -0.911,-0.095 -1.807,-0.103 -2.682,-0.031 l -3.719,-0.041 c -6.915,7.642 -16.91,12.443 -28.028,12.443 -11.416,0 -21.641,-5.068 -28.57,-13.069 l -4.522,-0.05 c -0.031,-10e-4 -0.062,0 -0.093,-10e-4 l -0.334,-0.003 -0.001,0.007 c -0.468,0.003 -0.938,0.022 -1.415,0.072 -25.72900041,2.682 -25.42400040842,41.274 -25.42400040842,50.435 0,9.826 7.96600000842,17.791 17.79200040842,17.791 0.492,0 0.977,-0.034 1.459,-0.073 l -0.083,0.747 82.317996,-0.024 -0.003,-0.022 c 0.312,0.016 0.62,0.047 0.937,0.047 9.826,0 17.792,-7.966 17.792,-17.792 0,-9.162 0.304,-47.754 -25.423996,-50.436 z"
   id="path6"
   inkscape:connector-curvature="0"
   style="fill:#39a1f6" />
</svg>