<?xml version="1.0" encoding="UTF-8" standalone="no"?>
<!-- Generator: Adobe Illustrator 14.0.0, SVG Export Plug-In . SVG Version: 6.00 Build 43363)  -->

<svg
   xmlns:ns="&amp;ns_sfw;"
   xmlns:dc="http://purl.org/dc/elements/1.1/"
   xmlns:cc="http://creativecommons.org/ns#"
   xmlns:rdf="http://www.w3.org/1999/02/22-rdf-syntax-ns#"
   xmlns:svg="http://www.w3.org/2000/svg"
   xmlns="http://www.w3.org/2000/svg"
   xmlns:sodipodi="http://sodipodi.sourceforge.net/DTD/sodipodi-0.dtd"
   xmlns:inkscape="http://www.inkscape.org/namespaces/inkscape"
   version="1.1"
   id="Calque_1"
   x="0px"
   y="0px"
   width="145.3566"
   height="118.939"
   viewBox="0 0 145.3566 118.939"
   enable-background="new 0 0 226.77 226.77"
   xml:space="preserve"
   sodipodi:docname="livraison.svg"
   inkscape:version="0.92.3 (2405546, 2018-03-11)"><defs
   id="defs9" /><sodipodi:namedview
   pagecolor="#ffffff"
   bordercolor="#666666"
   borderopacity="1"
   objecttolerance="10"
   gridtolerance="10"
   guidetolerance="10"
   inkscape:pageopacity="0"
   inkscape:pageshadow="2"
   inkscape:window-width="807"
   inkscape:window-height="480"
   id="namedview7"
   showgrid="false"
   inkscape:zoom="1.040702"
   inkscape:cx="73.002002"
   inkscape:cy="60.287998"
   inkscape:window-x="0"
   inkscape:window-y="0"
   inkscape:window-maximized="0"
   inkscape:current-layer="Calque_1" />
<metadata
   id="metadata2">
	<ns:sfw>
		<ns:slices />
		<ns:sliceSourceBounds
   height="118.938"
   width="145.357"
   x="40.383"
   y="53.097"
   bottomLeftOrigin="true" />
	</ns:sfw>
<rdf:RDF><cc:Work
     rdf:about=""><dc:format>image/svg+xml</dc:format><dc:type
       rdf:resource="http://purl.org/dc/dcmitype/StillImage" /></cc:Work></rdf:RDF></metadata>
<path
   d="m 143.566,87.222 -2.643,-1.763 c 0,0 0,-27.899 0,-32.598 0,-4.699 -2.35,-9.691 -2.35,-9.691 0,0 -16.152,-16.446 -18.502,-18.501 -2.349,-2.056 -8.516,-3.524 -8.516,-3.524 H 95.562 v 11.16 h 15.993 l 17.326,17.621 v 3.23 H 96.87 V 6.219 C 96.87,2.784 94.15,0 90.796,0 H 6.075 C 2.72,0 0,2.784 0,6.219 v 83.887 c 0,3.436 2.719,6.22 6.075,6.22 h 4.356 c -0.021,0.392 -0.06,0.778 -0.06,1.175 0,11.84 9.598,21.438 21.438,21.438 11.84,0 21.438,-9.598 21.438,-21.438 0,-0.396 -0.038,-0.783 -0.06,-1.175 h 32.29 c -0.021,0.392 -0.059,0.778 -0.059,1.175 0,11.84 9.598,21.438 21.438,21.438 11.84,0 21.438,-9.598 21.438,-21.438 0,-0.024 -0.003,-0.048 -0.003,-0.072 l 2.06,0.072 11.747,-1.175 c 0,0 2.937,-0.587 3.23,-3.817 0.293,-3.23 -1.762,-5.287 -1.762,-5.287 z M 32.72,109.041 c -6.349,0 -11.497,-5.148 -11.497,-11.498 0,-6.349 5.147,-11.496 11.497,-11.496 6.35,0 11.497,5.147 11.497,11.496 0,6.35 -5.148,11.498 -11.497,11.498 z m 74.724,0 c -6.349,0 -11.497,-5.148 -11.497,-11.498 0,-6.349 5.148,-11.496 11.497,-11.496 6.35,0 11.497,5.147 11.497,11.496 0,6.35 -5.147,11.498 -11.497,11.498 z"
   id="path4"
   inkscape:connector-curvature="0"
   style="fill:#39a1f6" />
</svg>