<?xml version="1.0" encoding="UTF-8" standalone="no"?>
<!-- Generator: Adobe Illustrator 14.0.0, SVG Export Plug-In . SVG Version: 6.00 Build 43363)  -->

<svg
   xmlns:ns="&amp;ns_sfw;"
   xmlns:dc="http://purl.org/dc/elements/1.1/"
   xmlns:cc="http://creativecommons.org/ns#"
   xmlns:rdf="http://www.w3.org/1999/02/22-rdf-syntax-ns#"
   xmlns:svg="http://www.w3.org/2000/svg"
   xmlns="http://www.w3.org/2000/svg"
   xmlns:sodipodi="http://sodipodi.sourceforge.net/DTD/sodipodi-0.dtd"
   xmlns:inkscape="http://www.inkscape.org/namespaces/inkscape"
   version="1.1"
   id="Calque_1"
   x="0px"
   y="0px"
   width="150.86301"
   height="157.80701"
   viewBox="0 0 150.863 157.807"
   enable-background="new 0 0 226.77 226.77"
   xml:space="preserve"
   sodipodi:docname="paiement-retrait-en-magasin-clair.svg"
   inkscape:version="0.92.3 (2405546, 2018-03-11)"><defs
   id="defs63" /><sodipodi:namedview
   pagecolor="#ffffff"
   bordercolor="#666666"
   borderopacity="1"
   objecttolerance="10"
   gridtolerance="10"
   guidetolerance="10"
   inkscape:pageopacity="0"
   inkscape:pageshadow="2"
   inkscape:window-width="807"
   inkscape:window-height="480"
   id="namedview61"
   showgrid="false"
   inkscape:zoom="1.040702"
   inkscape:cx="75.988002"
   inkscape:cy="79.993998"
   inkscape:window-x="0"
   inkscape:window-y="0"
   inkscape:window-maximized="0"
   inkscape:current-layer="Calque_1" />
<metadata
   id="metadata2">
	<ns:sfw>
		<ns:slices />
		<ns:sliceSourceBounds
   height="157.808"
   width="150.862"
   x="37.397"
   y="33.39"
   bottomLeftOrigin="true" />
	</ns:sfw>
<rdf:RDF><cc:Work
     rdf:about=""><dc:format>image/svg+xml</dc:format><dc:type
       rdf:resource="http://purl.org/dc/dcmitype/StillImage" /></cc:Work></rdf:RDF></metadata>
<g
   id="g26"
   transform="translate(-37.397,-35.572)">
	<polygon
   points="60.492,71.854 74.732,35.572 57.26,35.572 37.397,71.854 "
   id="polygon4"
   style="fill:#a4d9f7" />
	<polygon
   points="92.739,71.854 97.942,35.572 81.242,35.572 69.325,71.854 "
   id="polygon6"
   style="fill:#a4d9f7" />
	<polygon
   points="124.377,71.854 121.104,35.686 104.74,35.572 101.383,71.854 "
   id="polygon8"
   style="fill:#a4d9f7" />
	<polygon
   points="156.385,71.854 144.51,35.755 127.635,35.755 133.135,71.854 "
   id="polygon10"
   style="fill:#a4d9f7" />
	<polygon
   points="188.26,71.854 167.885,35.755 150.947,35.755 164.947,71.854 "
   id="polygon12"
   style="fill:#a4d9f7" />
	<path
   d="m 101.278,80.763 c 2.175,4.19 6.554,7.055 11.602,7.055 5.08,0 9.482,-2.9 11.642,-7.134 v -5.116 h -23.244 z"
   id="path14"
   inkscape:connector-curvature="0"
   style="fill:#a4d9f7" />
	<path
   d="m 37.397,80.763 c 2.175,4.19 6.554,7.055 11.602,7.055 5.08,0 9.482,-2.9 11.642,-7.134 V 75.568 H 37.397 Z"
   id="path16"
   inkscape:connector-curvature="0"
   style="fill:#a4d9f7" />
	<path
   d="m 69.325,80.763 c 2.175,4.19 6.554,7.055 11.602,7.055 5.08,0 9.482,-2.9 11.642,-7.134 V 75.568 H 69.325 Z"
   id="path18"
   inkscape:connector-curvature="0"
   style="fill:#a4d9f7" />
	<path
   d="m 164.877,80.763 c 2.175,4.19 6.555,7.055 11.602,7.055 5.08,0 9.482,-2.9 11.643,-7.134 v -5.116 h -23.244 v 5.195 z"
   id="path20"
   inkscape:connector-curvature="0"
   style="fill:#a4d9f7" />
	<path
   d="m 132.924,80.763 c 2.175,4.19 6.555,7.055 11.602,7.055 5.08,0 9.482,-2.9 11.643,-7.134 v -5.116 h -23.244 v 5.195 z"
   id="path22"
   inkscape:connector-curvature="0"
   style="fill:#a4d9f7" />
	<path
   d="m 166.76,92.38 c -4.25,-1.75 -5.75,-4.562 -5.75,-4.562 0,0 -6,6.834 -16.464,6.834 -10.464,0 -16.911,-6.834 -16.911,-6.834 0,0 -2.625,6.834 -14.734,6.834 -12.109,0 -14.959,-7.772 -14.959,-7.772 0,0 -6.933,8.25 -16.995,7.75 -10.062,-0.5 -15.687,-6.813 -15.687,-6.813 0,0 -2,2.812 -7,4.562 -5,1.75 -7.5,2.25 -7.5,2.25 v 98.75 h 124.5 V 94.651 c 0,0 -4.25,-0.521 -8.5,-2.271 z m -10.592,85.5 H 69.325 v -73.5 h 86.843 z"
   id="path24"
   inkscape:connector-curvature="0"
   style="fill:#a4d9f7" />
</g>
<g
   id="g58"
   transform="translate(-37.397,-35.572)">
	<g
   id="g52">
		<path
   d="m 142.103,132.51 -37.142,-19.701 c -1.161,-0.616 -2.601,-0.174 -3.217,0.987 l -12.697,23.938 c -0.616,1.161 -0.174,2.601 0.987,3.216 l 37.143,19.701 c 1.16,0.616 2.6,0.174 3.216,-0.986 l 12.696,-23.939 c 0.615,-1.162 0.175,-2.601 -0.986,-3.216 z"
   id="path28"
   inkscape:connector-curvature="0"
   style="fill:#a4d9f7" />
		<g
   id="g50">
			<g
   id="g32">
				<path
   d="m 105.183,122.199 1.416,-2.353 c 0,0 -0.226,-0.176 -1.309,-0.76 -0.644,-0.349 -1.346,-0.29 -1.726,0.253 -0.496,0.716 -0.863,1.446 -0.863,1.446 z"
   id="path30"
   inkscape:connector-curvature="0"
   style="fill:#ffffff" />
			</g>
			<g
   id="g36">
				<path
   d="m 109.666,124.438 2.223,1.253 c 0,0 0.15,-0.14 0.207,-0.247 0.284,-0.531 1.447,-1.911 0.229,-2.63 -1.061,-0.627 -1.252,-0.78 -1.252,-0.78 l -3.403,-1.712 -4.814,8.091 c 0,0 -0.324,0.406 0,0.687 0.256,0.221 1.502,0.896 1.502,0.896 0,0 0.433,0.354 0.851,-0.401 0.167,-0.304 3,-5.185 3,-5.185 0,0 0.219,-0.528 0.667,-0.373 0.231,0.079 0.79,0.401 0.79,0.401 z"
   id="path34"
   inkscape:connector-curvature="0"
   style="fill:#ffffff" />
			</g>
			
				<rect
   x="101.346"
   y="121.937"
   transform="matrix(0.8661,0.4998,-0.4998,0.8661,75.4176,-34.8526)"
   width="2.849"
   height="2.849"
   id="rect38"
   style="fill:#ffffff" />
			<path
   d="m 102.885,125.922 -1.298,2.419 c 0,0 -0.266,-0.104 -1.323,-0.737 -0.627,-0.375 -0.979,-0.88 -0.707,-1.484 0.362,-0.792 0.845,-1.609 0.845,-1.609 z"
   id="path40"
   inkscape:connector-curvature="0"
   style="fill:#ffffff" />
			<g
   id="g44">
				<path
   d="m 109.617,124.354 1.329,-2.402 c 0,0 0.265,0.107 1.313,0.753 0.624,0.384 0.924,1.021 0.643,1.622 -0.372,0.786 -0.82,1.47 -0.82,1.47 z"
   id="path42"
   inkscape:connector-curvature="0"
   style="fill:#ffffff" />
			</g>
			
				<rect
   x="108.299"
   y="125.528"
   transform="matrix(-0.8661,-0.4999,0.4999,-0.8661,141.2895,291.754)"
   width="2.848"
   height="2.848"
   id="rect46"
   style="fill:#ffffff" />
			<path
   d="m 107.281,128.185 -1.446,2.334 c 0,0 0.224,0.178 1.3,0.776 0.639,0.356 1.252,0.408 1.639,-0.131 0.505,-0.708 0.971,-1.536 0.971,-1.536 z"
   id="path48"
   inkscape:connector-curvature="0"
   style="fill:#ffffff" />
		</g>
	</g>
	<path
   d="M 129.597,134.468 H 87.553 c -1.314,0 -2.379,1.064 -2.379,2.378 v 27.098 c 0,1.314 1.065,2.379 2.379,2.379 h 42.043 c 1.314,0 2.379,-1.064 2.379,-2.378 v -27.099 c 0.001,-1.314 -1.064,-2.378 -2.378,-2.378 z"
   id="path54"
   inkscape:connector-curvature="0"
   style="fill:#ffffff" />
	<path
   d="M 127.963,136.116 H 85.919 c -1.314,0 -2.379,1.064 -2.379,2.379 v 27.098 c 0,1.313 1.065,2.378 2.379,2.378 l 42.044,0.001 c 1.313,0 2.379,-1.065 2.379,-2.379 v -27.098 c 0,-1.314 -1.066,-2.379 -2.379,-2.379 z m -40.07,3 h 38.095 c 0.657,0 1.189,0.532 1.189,1.189 v 15.001 H 86.704 v -15.001 c 0,-0.657 0.532,-1.189 1.189,-1.189 z m 38.095,25.855 H 87.893 c -0.657,0 -1.189,-0.532 -1.189,-1.189 v -2.583 h 40.474 v 2.583 c 0,0.656 -0.532,1.189 -1.19,1.189 z"
   id="path56"
   inkscape:connector-curvature="0"
   style="fill:#a4d9f7" />
</g>
</svg>