<?xml version="1.0" encoding="UTF-8" standalone="no"?>
<!-- Generator: Adobe Illustrator 14.0.0, SVG Export Plug-In . SVG Version: 6.00 Build 43363)  -->

<svg
   xmlns:ns="&amp;ns_sfw;"
   xmlns:dc="http://purl.org/dc/elements/1.1/"
   xmlns:cc="http://creativecommons.org/ns#"
   xmlns:rdf="http://www.w3.org/1999/02/22-rdf-syntax-ns#"
   xmlns:svg="http://www.w3.org/2000/svg"
   xmlns="http://www.w3.org/2000/svg"
   xmlns:sodipodi="http://sodipodi.sourceforge.net/DTD/sodipodi-0.dtd"
   xmlns:inkscape="http://www.inkscape.org/namespaces/inkscape"
   version="1.1"
   id="Calque_1"
   x="0px"
   y="0px"
   width="167.18803"
   height="123.30204"
   viewBox="0 0 167.18803 123.30204"
   enable-background="new 0 0 226.77 226.77"
   xml:space="preserve"
   sodipodi:docname="paiement-en-ligne.svg"
   inkscape:version="0.92.3 (2405546, 2018-03-11)"><defs
   id="defs15" /><sodipodi:namedview
   pagecolor="#ffffff"
   bordercolor="#666666"
   borderopacity="1"
   objecttolerance="10"
   gridtolerance="10"
   guidetolerance="10"
   inkscape:pageopacity="0"
   inkscape:pageshadow="2"
   inkscape:window-width="807"
   inkscape:window-height="480"
   id="namedview13"
   showgrid="false"
   inkscape:zoom="1.040702"
   inkscape:cx="84.418002"
   inkscape:cy="62.051998"
   inkscape:window-x="0"
   inkscape:window-y="0"
   inkscape:window-maximized="0"
   inkscape:current-layer="Calque_1" />
<metadata
   id="metadata2">
	<ns:sfw>
		<ns:slices />
		<ns:sliceSourceBounds
   height="123.303"
   width="167.188"
   x="28.967"
   y="51.332"
   bottomLeftOrigin="true" />
	</ns:sfw>
<rdf:RDF><cc:Work
     rdf:about=""><dc:format>image/svg+xml</dc:format><dc:type
       rdf:resource="http://purl.org/dc/dcmitype/StillImage" /></cc:Work></rdf:RDF></metadata>
<g
   id="g8"
   transform="translate(-28.967,-52.134963)">
	<path
   d="m 60.049,93.264 126.146,0.387 -0.143,48.711 c -0.006,2.133 -1.67,3.857 -3.718,3.851 l -81.255,-0.247 0.108,9.739 87.27,0.268 c 4.094,0.013 7.426,-3.435 7.438,-7.7 l 0.26,-87.988 c 0.013,-4.266 -3.298,-7.733 -7.393,-7.746 L 57.725,52.135 C 53.63,52.122 50.3,55.571 50.288,59.836 L 50.19,93.222 Z m 3.8,-31.369 118.731,0.364 c 2.048,0.007 3.702,1.741 3.695,3.874 l -0.024,8.39 -126.145,-0.387 0.025,-8.39 c 0.006,-2.132 1.671,-3.858 3.718,-3.851 z"
   id="path4"
   inkscape:connector-curvature="0"
   style="fill:#39a1f6" />
	<path
   d="m 157.914,105.206 c -4.324,0 -8.19,1.969 -10.808,5.066 -2.618,-3.098 -6.484,-5.066 -10.809,-5.066 -7.883,0 -14.272,6.518 -14.272,14.558 0,8.04 6.39,14.558 14.272,14.558 4.324,0 8.19,-1.969 10.809,-5.066 2.617,3.098 6.483,5.066 10.808,5.066 7.883,0 14.273,-6.518 14.273,-14.558 0,-8.04 -6.39,-14.558 -14.273,-14.558 z"
   id="path6"
   inkscape:connector-curvature="0"
   style="fill:#39a1f6" />
</g>
<path
   d="m 53.916,83.902037 c -2.714,-0.286 -2.729,0 -2.729,0 l 0.224,-11.939 c 0,-11.071 -9.024,-20.045 -20.157,-20.045 -11.132,0 -20.156,8.974 -20.156,20.045 v 10.861 c -0.546,0 -1.456,0 -2.912,0 -4.703,0 -8.186,5.376 -8.186,9.407 0,1.894 0,22.620003 0,22.620003 0,0 0.43,8.451 8.451,8.451 8.021,0 38.257,0 44.976,0 6.719,0 7.249,-4.703 7.249,-7.249 0,-2.546 0,-25.391003 0,-25.391003 -1.369,-2.295 0,-6.046 -6.76,-6.76 z M 36.405,108.19504 v 3.969 h -10.75 v -3.966 c -2.001,-1.587 -3.288,-4.033 -3.288,-6.785 0,-4.783003 3.878,-8.661003 8.661,-8.661003 4.783,0 8.661,3.878 8.661,8.661003 0,2.75 -1.285,5.195 -3.284,6.782 z M 42.404,82.824037 H 19.652 v -10.079 c 0,-6.249 5.092,-11.313 11.377,-11.313 6.283,0 11.375,5.064 11.375,11.313 z"
   id="path10"
   inkscape:connector-curvature="0"
   style="fill:#39a1f6" />
</svg>