<?xml version="1.0" encoding="UTF-8" standalone="no"?>
<!-- Generator: Adobe Illustrator 14.0.0, SVG Export Plug-In . SVG Version: 6.00 Build 43363)  -->

<svg
   xmlns:ns="&amp;ns_sfw;"
   xmlns:dc="http://purl.org/dc/elements/1.1/"
   xmlns:cc="http://creativecommons.org/ns#"
   xmlns:rdf="http://www.w3.org/1999/02/22-rdf-syntax-ns#"
   xmlns:svg="http://www.w3.org/2000/svg"
   xmlns="http://www.w3.org/2000/svg"
   xmlns:sodipodi="http://sodipodi.sourceforge.net/DTD/sodipodi-0.dtd"
   xmlns:inkscape="http://www.inkscape.org/namespaces/inkscape"
   version="1.1"
   id="Calque_1"
   x="0px"
   y="0px"
   width="235.41335"
   height="139.4213"
   viewBox="0 0 235.41335 139.42129"
   enable-background="new 0 0 250.885 226.77"
   xml:space="preserve"
   sodipodi:docname="paiement-par-cheque-clair.svg"
   inkscape:version="0.92.3 (2405546, 2018-03-11)"><defs
   id="defs21" /><sodipodi:namedview
   pagecolor="#ffffff"
   bordercolor="#666666"
   borderopacity="1"
   objecttolerance="10"
   gridtolerance="10"
   guidetolerance="10"
   inkscape:pageopacity="0"
   inkscape:pageshadow="2"
   inkscape:window-width="807"
   inkscape:window-height="480"
   id="namedview19"
   showgrid="false"
   inkscape:zoom="1.040702"
   inkscape:cx="116.57154"
   inkscape:cy="65.702035"
   inkscape:window-x="0"
   inkscape:window-y="0"
   inkscape:window-maximized="0"
   inkscape:current-layer="Calque_1" />
<metadata
   id="metadata2">
	<ns:sfw>
		<ns:slices />
		<ns:sliceSourceBounds
   x="181.07"
   y="355.241"
   width="235.412"
   height="139.423"
   bottomLeftOrigin="true" />
	</ns:sfw>
<rdf:RDF><cc:Work
     rdf:about=""><dc:format>image/svg+xml</dc:format><dc:type
       rdf:resource="http://purl.org/dc/dcmitype/StillImage" /></cc:Work></rdf:RDF></metadata>
<g
   id="g16"
   transform="translate(-8.8709618,-39.66574)">
	<path
   d="M 195.73,75.655 178.197,75.615 16.407,75.252 C 12.312,75.239 8.982,78.688 8.97,82.953 L 8.871,163.55 h 0.021 l -0.021,7.376 c -0.013,4.266 3.298,7.733 7.393,7.746 l 8.265,0.019 0.001,0.128 170.896,0.268 c 4.094,0.013 7.426,-3.435 7.438,-7.7 l 0.221,-74.458 0.039,-13.528 c 0.012,-4.266 -3.298,-7.733 -7.394,-7.746 z m -2.51,21.985 -0.057,19.125 -0.143,48.711 c -0.006,2.133 -1.67,3.857 -3.719,3.851 L 33.795,169.095 v -0.119 l -11.351,-0.024 c -2.048,-0.007 -3.702,-1.741 -3.695,-3.874 l 0.024,-8.39 0.057,-19.128 -0.078,0.004 0.034,-40.31 0.025,-8.39 c 0.006,-2.133 1.671,-3.858 3.718,-3.852 l 155.668,0.34 11.35,0.024 c 2.049,0.007 3.703,1.741 3.695,3.874 z"
   id="path4"
   inkscape:connector-curvature="0"
   style="fill:#a4d9f7" />
	<path
   d="m 222.578,45.31 c -1.459,1.22 -3.861,1.52 -3.861,1.52 0,0 -49.186,46.099 -61.186,58.099 -12,11.998 -29.666,32.665 -29.666,32.665 0,0 -10.778,14.066 -8.778,17.066 2,3 16.737,-5.55 20.069,-8.217 3.334,-2.667 88.709,-79.181 88.709,-79.181 0,0 6.305,2.245 6.492,6.073 0.225,4.616 -25.492,28.927 -25.492,28.927 0,0 -3.465,4.014 1.016,4.201 3.945,0.164 31.783,-30.018 31.783,-30.018 0,0 3.182,-4.665 2.533,-6.517 -1.406,-4.02 -5.963,-7.818 -10.338,-8.958 -0.711,-0.186 2.672,-2.375 2.672,-2.375 0,0 3.014,-0.918 4.334,-2.667 1.318,-1.749 3.27,-6.001 -3,-11.667 -4.645,-4.196 -8.846,-6.14 -12.393,-3.152 -3.548,2.988 -2.894,4.201 -2.894,4.201 z"
   id="path6"
   inkscape:connector-curvature="0"
   style="fill:#a4d9f7" />
	<g
   id="g10">
		<path
   d="m 66.741,149.239 c -2.361,1.431 -6.369,2.862 -10.949,2.862 -6.512,0 -12.38,-2.576 -16.173,-7.371 -2.29,-2.648 -3.865,-6.227 -4.509,-10.592 h -4.58 v -4.437 h 4.008 c 0,-0.358 0,-0.716 0,-1.073 0,-0.931 0.071,-1.861 0.143,-2.648 h -4.15 v -4.437 h 4.795 c 0.858,-4.437 2.791,-8.086 5.367,-10.876 3.864,-4.222 9.089,-6.655 15.458,-6.655 4.294,0 7.872,1.074 10.233,2.219 l -1.789,6.582 c -1.86,-0.929 -4.795,-1.859 -8.016,-1.859 -3.578,0 -6.727,1.287 -9.088,3.934 -1.503,1.574 -2.577,3.936 -3.149,6.655 h 18.75 v 4.437 H 43.483 c -0.144,0.787 -0.144,1.646 -0.144,2.576 0,0.43 0,0.717 0,1.146 h 19.752 v 4.437 H 44.127 c 0.501,3.006 1.575,5.367 3.078,6.942 2.433,2.647 5.868,3.864 9.589,3.864 3.507,0 6.799,-1.217 8.444,-2.075 z"
   id="path8"
   inkscape:connector-curvature="0"
   style="fill:#a4d9f7;stroke:#a4d9f7" />
	</g>
	
		<line
   x1="77.535004"
   y1="111.927"
   x2="130.476"
   y2="111.927"
   id="line12"
   style="fill:none;stroke:#a4d9f7;stroke-width:8;stroke-linecap:round;stroke-linejoin:round" />
	
		<line
   x1="77.527"
   y1="125.394"
   x2="117.456"
   y2="125.394"
   id="line14"
   style="fill:none;stroke:#a4d9f7;stroke-width:8;stroke-linecap:round;stroke-linejoin:round" />
</g>
</svg>