<?xml version="1.0" encoding="UTF-8" standalone="no"?>
<!-- Generator: Adobe Illustrator 14.0.0, SVG Export Plug-In . SVG Version: 6.00 Build 43363)  -->

<svg
   xmlns:ns="&amp;ns_sfw;"
   xmlns:dc="http://purl.org/dc/elements/1.1/"
   xmlns:cc="http://creativecommons.org/ns#"
   xmlns:rdf="http://www.w3.org/1999/02/22-rdf-syntax-ns#"
   xmlns:svg="http://www.w3.org/2000/svg"
   xmlns="http://www.w3.org/2000/svg"
   xmlns:sodipodi="http://sodipodi.sourceforge.net/DTD/sodipodi-0.dtd"
   xmlns:inkscape="http://www.inkscape.org/namespaces/inkscape"
   version="1.1"
   id="Calque_1"
   x="0px"
   y="0px"
   width="142.57561"
   height="132.12202"
   viewBox="0 0 142.5756 132.12202"
   enable-background="new 0 0 226.77 226.77"
   xml:space="preserve"
   sodipodi:docname="paiement.svg"
   inkscape:version="0.92.3 (2405546, 2018-03-11)"><defs
   id="defs39" /><sodipodi:namedview
   pagecolor="#ffffff"
   bordercolor="#666666"
   borderopacity="1"
   objecttolerance="10"
   gridtolerance="10"
   guidetolerance="10"
   inkscape:pageopacity="0"
   inkscape:pageshadow="2"
   inkscape:window-width="807"
   inkscape:window-height="480"
   id="namedview37"
   showgrid="false"
   inkscape:zoom="1.040702"
   inkscape:cx="67.112002"
   inkscape:cy="67.261998"
   inkscape:window-x="0"
   inkscape:window-y="0"
   inkscape:window-maximized="0"
   inkscape:current-layer="Calque_1" />
<metadata
   id="metadata2">
	<ns:sfw>
		<ns:slices />
		<ns:sliceSourceBounds
   height="132.122"
   width="142.574"
   x="46.273"
   y="46.122"
   bottomLeftOrigin="true" />
	</ns:sfw>
<rdf:RDF><cc:Work
     rdf:about=""><dc:format>image/svg+xml</dc:format><dc:type
       rdf:resource="http://purl.org/dc/dcmitype/StillImage" /></cc:Work></rdf:RDF></metadata>
<g
   id="g34"
   transform="translate(-46.273,-48.52498)">
	<g
   id="g28">
		<path
   d="M 185.837,96.138 97.32,49.188 c -2.767,-1.469 -6.198,-0.415 -7.666,2.352 l -30.26,57.048 c -1.467,2.766 -0.414,6.197 2.352,7.664 l 88.516,46.949 c 2.768,1.469 6.197,0.415 7.666,-2.352 L 188.186,103.8 c 1.467,-2.764 0.417,-6.196 -2.349,-7.662 z"
   id="path4"
   inkscape:connector-curvature="0"
   style="fill:#39a1f6" />
		<g
   id="g26">
			<g
   id="g8">
				<path
   d="m 97.851,71.566 3.375,-5.604 c 0,0 -0.538,-0.419 -3.119,-1.812 -1.535,-0.829 -3.208,-0.689 -4.113,0.604 -1.182,1.705 -2.058,3.445 -2.058,3.445 z"
   id="path6"
   inkscape:connector-curvature="0"
   style="fill:#ffffff" />
			</g>
			<g
   id="g12">
				<path
   d="m 108.533,76.904 5.297,2.986 c 0,0 0.357,-0.334 0.493,-0.589 0.676,-1.267 3.449,-4.556 0.545,-6.27 -2.526,-1.492 -2.983,-1.859 -2.983,-1.859 l -8.109,-4.079 -11.473,19.283 c 0,0 -0.773,0.967 0,1.635 0.61,0.527 3.579,2.138 3.579,2.138 0,0 1.033,0.845 2.029,-0.957 0.399,-0.723 7.15,-12.354 7.15,-12.354 0,0 0.521,-1.26 1.591,-0.891 0.551,0.19 1.881,0.957 1.881,0.957 z"
   id="path10"
   inkscape:connector-curvature="0"
   style="fill:#ffffff" />
			</g>
			
				<rect
   x="88.707001"
   y="70.942001"
   transform="matrix(0.866,0.5,-0.5,0.866,49.5086,-36.092)"
   width="6.789"
   height="6.789"
   id="rect14"
   style="fill:#ffffff" />
			<path
   d="m 92.374,80.438 -3.094,5.766 c 0,0 -0.634,-0.25 -3.152,-1.757 -1.496,-0.896 -2.334,-2.099 -1.684,-3.539 0.862,-1.887 2.014,-3.835 2.014,-3.835 z"
   id="path16"
   inkscape:connector-curvature="0"
   style="fill:#ffffff" />
			<g
   id="g20">
				<path
   d="m 108.417,76.703 3.166,-5.726 c 0,0 0.631,0.257 3.129,1.796 1.486,0.914 2.202,2.433 1.534,3.864 -0.887,1.875 -1.956,3.504 -1.956,3.504 z"
   id="path18"
   inkscape:connector-curvature="0"
   style="fill:#ffffff" />
			</g>
			
				<rect
   x="105.276"
   y="79.5"
   transform="matrix(-0.866,-0.5,0.5,-0.866,161.3335,209.017)"
   width="6.789"
   height="6.7880001"
   id="rect22"
   style="fill:#ffffff" />
			<path
   d="m 102.85,85.831 -3.446,5.562 c 0,0 0.534,0.425 3.098,1.852 1.523,0.849 2.984,0.972 3.906,-0.312 1.203,-1.688 2.314,-3.661 2.314,-3.661 z"
   id="path24"
   inkscape:connector-curvature="0"
   style="fill:#ffffff" />
		</g>
	</g>
	<path
   d="M 156.033,100.804 H 55.837 c -3.131,0 -5.669,2.538 -5.669,5.669 v 64.577 c 0,3.131 2.538,5.669 5.669,5.669 h 100.196 c 3.133,0 5.67,-2.538 5.67,-5.669 v -64.577 c 0,-3.131 -2.537,-5.669 -5.67,-5.669 z"
   id="path30"
   inkscape:connector-curvature="0"
   style="fill:#ffffff" />
	<path
   d="M 152.139,104.732 H 51.942 c -3.131,0 -5.669,2.538 -5.669,5.669 v 64.577 c 0,3.131 2.538,5.669 5.669,5.669 h 100.197 c 3.132,0 5.669,-2.538 5.669,-5.669 v -64.577 c 0,-3.13 -2.537,-5.669 -5.669,-5.669 z m -95.493,7.15 h 90.788 c 1.565,0 2.834,1.27 2.834,2.835 v 35.75 H 53.812 v -35.75 c 0,-1.566 1.269,-2.835 2.834,-2.835 z m 90.789,61.616 H 56.646 c -1.565,0 -2.834,-1.27 -2.834,-2.835 v -6.157 h 96.457 v 6.157 c 0,1.566 -1.269,2.835 -2.834,2.835 z"
   id="path32"
   inkscape:connector-curvature="0"
   style="fill:#39a1f6" />
</g>
</svg>