<?xml version="1.0" encoding="UTF-8" standalone="no"?>
<!-- Generator: Adobe Illustrator 14.0.0, SVG Export Plug-In . SVG Version: 6.00 Build 43363)  -->

<svg
   xmlns:ns="&amp;ns_sfw;"
   xmlns:dc="http://purl.org/dc/elements/1.1/"
   xmlns:cc="http://creativecommons.org/ns#"
   xmlns:rdf="http://www.w3.org/1999/02/22-rdf-syntax-ns#"
   xmlns:svg="http://www.w3.org/2000/svg"
   xmlns="http://www.w3.org/2000/svg"
   xmlns:sodipodi="http://sodipodi.sourceforge.net/DTD/sodipodi-0.dtd"
   xmlns:inkscape="http://www.inkscape.org/namespaces/inkscape"
   version="1.1"
   id="Calque_1"
   x="0px"
   y="0px"
   width="137.04836"
   height="116.21399"
   viewBox="0 0 137.04835 116.21399"
   enable-background="new 0 0 226.77 226.77"
   xml:space="preserve"
   sodipodi:docname="panier.svg"
   inkscape:version="0.92.3 (2405546, 2018-03-11)"><defs
   id="defs15" /><sodipodi:namedview
   pagecolor="#ffffff"
   bordercolor="#666666"
   borderopacity="1"
   objecttolerance="10"
   gridtolerance="10"
   guidetolerance="10"
   inkscape:pageopacity="0"
   inkscape:pageshadow="2"
   inkscape:window-width="807"
   inkscape:window-height="480"
   id="namedview13"
   showgrid="false"
   inkscape:zoom="1.040702"
   inkscape:cx="68.535131"
   inkscape:cy="59.745991"
   inkscape:window-x="0"
   inkscape:window-y="0"
   inkscape:window-maximized="0"
   inkscape:current-layer="Calque_1" />
<metadata
   id="metadata2">
	<ns:sfw>
		<ns:slices />
		<ns:sliceSourceBounds
   height="116.213"
   width="137.048"
   x="44.849"
   y="53.64"
   bottomLeftOrigin="true" />
	</ns:sfw>
<rdf:RDF><cc:Work
     rdf:about=""><dc:format>image/svg+xml</dc:format><dc:type
       rdf:resource="http://purl.org/dc/dcmitype/StillImage" /></cc:Work></rdf:RDF></metadata>
<g
   id="g10"
   transform="translate(-44.849872,-56.917)">
	<path
   d="m 66.41,68.563 c 0,0 -5.604,-0.576 -15.858,-0.496 -3.853,0.03 -5.791,-3.98 -5.699,-5.451 0.248,-3.965 4.708,-5.699 4.708,-5.699 h 22.054 c 0,0 3.965,0.743 4.708,3.964 0.743,3.221 1.238,6.195 1.238,6.195 l 99.363,0.248 c 0,0 3.732,-0.248 4.592,3.964 0.86,4.212 0,45.593 0,45.593 0,0 0.116,2.478 -3.353,3.717 -3.469,1.239 -86.479,10.407 -86.479,10.407 0,0 2.342,2.453 1.487,5.947 -0.53,2.168 -1.982,4.212 -1.982,4.212 l 77.558,1.239 c 0,0 3.222,0.496 2.974,4.46 -0.248,3.964 -3.717,5.946 -3.717,5.946 H 82.021 c 0,0 -3.221,-0.247 -4.708,-2.725 -1.487,-2.479 4.46,-16.4 4.46,-16.4 z"
   id="path4"
   inkscape:connector-curvature="0"
   style="fill:#39a1f6" />
	<circle
   cx="86.728996"
   cy="162.97099"
   r="10.16"
   id="circle6"
   style="fill:#39a1f6" />
	<circle
   cx="160.817"
   cy="162.97099"
   r="10.16"
   id="circle8"
   style="fill:#39a1f6" />
</g>
</svg>