<?xml version="1.0" encoding="utf-8"?>
<!-- Generator: Adobe Illustrator 14.0.0, SVG Export Plug-In . SVG Version: 6.00 Build 43363)  -->
<!DOCTYPE svg PUBLIC "-//W3C//DTD SVG 1.1//EN" "http://www.w3.org/Graphics/SVG/1.1/DTD/svg11.dtd">
<svg version="1.1" id="Calque_1" xmlns="http://www.w3.org/2000/svg" xmlns:xlink="http://www.w3.org/1999/xlink" x="0px" y="0px"
	 width="94.229px" height="91.896px" viewBox="0 0 94.229 91.896" enable-background="new 0 0 94.229 91.896" xml:space="preserve">
<path fill="#B6B6B5" d="M47.115,3.198c-16.431,0-29.75,13.319-29.75,29.75c0,5.562,1.344,11.547,4,16
	c4.08,9.753,13.664,29.414,25,40.75c0,0,22.248-28.301,27.73-44.215c1.773-3.811,2.77-8.056,2.77-12.535
	C76.865,16.518,63.545,3.198,47.115,3.198z M46.616,51.951c-9.941,0-18.001-8.061-18.001-18.001s8.06-18,18.001-18s18,8.059,18,18
	S56.558,51.951,46.616,51.951z"/>
</svg>
