<?xml version="1.0" encoding="utf-8"?>
<!-- Generator: Adobe Illustrator 14.0.0, SVG Export Plug-In . SVG Version: 6.00 Build 43363)  -->
<!DOCTYPE svg PUBLIC "-//W3C//DTD SVG 1.1//EN" "http://www.w3.org/Graphics/SVG/1.1/DTD/svg11.dtd">
<svg version="1.1" id="Calque_1" xmlns="http://www.w3.org/2000/svg" xmlns:xlink="http://www.w3.org/1999/xlink" x="0px" y="0px"
	 width="94.229px" height="91.896px" viewBox="0 0 94.229 91.896" enable-background="new 0 0 94.229 91.896" xml:space="preserve">
<path fill="#B6B6B5" d="M85.696,53.698h-4.581V34.891L53.865,8.948H28.784c-5.056,0-9.169,4.113-9.169,9.169v35.581H8.784
	c-3.131,0-5.669,2.538-5.669,5.669V80.53c0,3.131,2.538,5.669,5.669,5.669h76.912c3.131,0,5.669-2.538,5.669-5.669V59.367
	C91.365,56.237,88.826,53.698,85.696,53.698z M67.875,30.906l-7.908,0.189c-1.187,0.021-2.191-0.921-2.22-2.117l-0.194-8.105
	L67.875,30.906z M26.615,18.118c0-1.196,0.973-2.169,2.169-2.169h21.65l0.315,13.197c0.12,4.98,4.209,8.95,9.163,8.95
	c0.074,0,0.148,0,0.223-0.002l13.979-0.334v15.94h-47.5V18.118z M65.615,75.698c-2.899,0-5.25-2.351-5.25-5.25s2.351-5.25,5.25-5.25
	s5.25,2.351,5.25,5.25S68.514,75.698,65.615,75.698z M80.115,75.698c-2.899,0-5.25-2.351-5.25-5.25s2.351-5.25,5.25-5.25
	s5.25,2.351,5.25,5.25S83.014,75.698,80.115,75.698z"/>
</svg>
