<?xml version="1.0" encoding="utf-8"?>
<!-- Generator: Adobe Illustrator 14.0.0, SVG Export Plug-In . SVG Version: 6.00 Build 43363)  -->
<!DOCTYPE svg PUBLIC "-//W3C//DTD SVG 1.1//EN" "http://www.w3.org/Graphics/SVG/1.1/DTD/svg11.dtd">
<svg version="1.1" id="Calque_1" xmlns="http://www.w3.org/2000/svg" xmlns:xlink="http://www.w3.org/1999/xlink" x="0px" y="0px"
	 width="94.229px" height="91.896px" viewBox="0 0 94.229 91.896" enable-background="new 0 0 94.229 91.896" xml:space="preserve">
<path fill="#B6B6B5" stroke="#B6B6B5" d="M84.567,14.099H9.311c-3.131,0-5.669,2.538-5.669,5.669v56.604
	c0,3.131,2.538,5.668,5.669,5.668h75.256c3.131,0,5.669-2.537,5.669-5.668V19.769C90.236,16.637,87.698,14.099,84.567,14.099z
	 M81.411,20.689L51.944,51.106c-2.95,3.033-7.791,3.162-10.902,0.315L13.049,20.646H80.99
	C81.134,20.646,81.273,20.668,81.411,20.689z M80.99,75.74H12.911c-1.565,0-2.834-1.27-2.834-2.835V28.031L35.79,56.059l0.272,0.295
	c2.871,2.749,6.569,4.112,10.263,4.112c3.906,0,7.809-1.527,10.718-4.565l26.78-27.366v44.371
	C83.824,74.471,82.555,75.74,80.99,75.74z"/>
</svg>
