<?xml version="1.0" encoding="utf-8"?>
<!-- Generator: Adobe Illustrator 14.0.0, SVG Export Plug-In . SVG Version: 6.00 Build 43363)  -->
<!DOCTYPE svg PUBLIC "-//W3C//DTD SVG 1.1//EN" "http://www.w3.org/Graphics/SVG/1.1/DTD/svg11.dtd">
<svg version="1.1" id="Calque_1" xmlns="http://www.w3.org/2000/svg" xmlns:xlink="http://www.w3.org/1999/xlink" x="0px" y="0px"
	 width="94.229px" height="91.896px" viewBox="0 0 94.229 91.896" enable-background="new 0 0 94.229 91.896" xml:space="preserve">
<path fill="#B6B6B5" d="M84.295,8.948H8.933c-2.662,0-4.819,1.561-4.819,3.487v54.526c0,1.927,2.157,3.487,4.819,3.487h28.431v8.75
	H34.24c-1.174,0-2.125,0.951-2.125,2.125s0.951,2.125,2.125,2.125h25.75c1.174,0,2.125-0.951,2.125-2.125s-0.951-2.125-2.125-2.125
	h-3.625v-8.75h27.931c2.662,0,4.819-1.561,4.819-3.487V12.435C89.115,10.509,86.957,8.948,84.295,8.948z M81.365,61.948h-69.75
	v-45.75h69.75V61.948z"/>
</svg>
