<?xml version="1.0" encoding="utf-8"?>
<!-- Generator: Adobe Illustrator 14.0.0, SVG Export Plug-In . SVG Version: 6.00 Build 43363)  -->
<!DOCTYPE svg PUBLIC "-//W3C//DTD SVG 1.1//EN" "http://www.w3.org/Graphics/SVG/1.1/DTD/svg11.dtd">
<svg version="1.1" id="Calque_1" xmlns="http://www.w3.org/2000/svg" xmlns:xlink="http://www.w3.org/1999/xlink" x="0px" y="0px"
	 width="94.229px" height="91.896px" viewBox="0 0 94.229 91.896" enable-background="new 0 0 94.229 91.896" xml:space="preserve">
<path fill="#B6B6B5" d="M27.495,37.447c0,0,7.041-6.424,7.659-6.794s2.1-2.347,1.606-3.953S27.001,9.776,27.001,9.776l-1.359-1.112
	c0,0-6.053,0.124-8.771,1.853c-1.215,0.773-2.47,1.606-3.335,2.718S8.1,21.758,7.977,27.193s3.706,22.113,20.259,39.16
	s32.86,21.494,38.295,21.494c7.905,0,14.946-2.718,17.911-7.165s3.335-9.018,2.965-9.759s-0.617-1.359-1.853-2.101
	s-14.454-8.77-15.565-9.141s-2.347-1.112-3.829,0.617s-7.041,8.153-7.535,8.4s-0.741,0.741-1.729,0.494s-9.883-3.459-16.43-10.253
	S27.001,41.646,26.63,40.658S27.495,37.447,27.495,37.447z"/>
</svg>
