<?xml version="1.0" encoding="utf-8"?>
<!-- Generator: Adobe Illustrator 14.0.0, SVG Export Plug-In . SVG Version: 6.00 Build 43363)  -->
<!DOCTYPE svg PUBLIC "-//W3C//DTD SVG 1.1//EN" "http://www.w3.org/Graphics/SVG/1.1/DTD/svg11.dtd">
<svg version="1.1" id="Calque_1" xmlns="http://www.w3.org/2000/svg" xmlns:xlink="http://www.w3.org/1999/xlink" x="0px" y="0px"
	 width="247.667px" height="141.333px" viewBox="0 0 247.667 141.333" enable-background="new 0 0 247.667 141.333"
	 xml:space="preserve">
<g>
	<path fill="#1A171B" d="M57.58,86.786h-31.7V18.984h33c6.2,0,11.266,1.334,15.2,4c4.466,3.067,6.698,7.567,6.698,13.5
		c0,7.067-4.232,12-12.698,14.801c9.933,2.134,14.898,7.799,14.898,17c0,6.467-2.767,11.334-8.3,14.6
		C70.28,85.484,64.58,86.786,57.58,86.786z M58.68,22.285h-29.2v27.5H58.58c5.064,0,9.266-1.033,12.6-3.101c4-2.399,6-5.966,6-10.7
		c0-4.732-2-8.3-6-10.699C67.913,23.285,63.746,22.285,58.68,22.285z M58.38,53.084h-28.9v30.4h29.3c5.602,0,10.268-1.101,14-3.299
		c4.467-2.666,6.7-6.603,6.7-11.801c0-5.466-2.3-9.5-6.898-12.1C68.98,54.152,64.246,53.084,58.38,53.084z"/>
	<path fill="#1A171B" d="M173.581,81.186c-6,4.199-13.201,6.299-21.604,6.299c-11.134,0-19.934-2.932-26.397-8.799
		c-6.667-6.066-10-14.602-10-25.602c0-10.732,3.198-19.215,9.6-25.449c6.4-6.232,15.102-9.35,26.102-9.35c8.198,0,15,1.666,20.399,5
		c6.133,3.799,10.033,9.767,11.699,17.899h-3.699c-2.936-13.065-12.367-19.601-28.301-19.601c-9.937,0-17.784,2.801-23.55,8.4
		c-5.77,5.6-8.65,13.268-8.65,23c0,9.935,2.916,17.617,8.75,23.051c5.833,5.434,13.852,8.15,24.05,8.15c7.802,0,14.4-2,19.802-6
		c6.065-4.4,9.101-10.367,9.101-17.9v-2.601h-29.101v-3.3h32.5c0.198,1.867,0.302,3.467,0.302,4.8
		C184.581,68.719,180.913,76.053,173.581,81.186z"/>
</g>
<rect x="40.014" y="31.783" fill="#9EC104" width="17" height="17"/>
<rect x="40.014" y="54.348" fill="#9EC104" width="17" height="17"/>
<rect x="90.308" y="43.648" fill="#FFD808" width="16.006" height="16.006"/>
<rect x="142.014" y="42.793" fill="#D95696" width="17" height="17"/>
<g>
	<path d="M114.396,51.912c0,2.736-0.409,5.197-1.226,7.383c-0.818,2.186-1.969,4.046-3.454,5.581s-3.262,2.711-5.331,3.528
		c-2.069,0.818-4.363,1.227-6.882,1.227H84.59V34.218h12.914c2.52,0,4.813,0.409,6.882,1.226c2.069,0.818,3.846,1.994,5.331,3.529
		c1.485,1.535,2.636,3.396,3.454,5.581C113.987,46.74,114.396,49.192,114.396,51.912z M111.743,51.912
		c0-2.469-0.342-4.671-1.026-6.607c-0.685-1.935-1.648-3.57-2.891-4.905c-1.243-1.334-2.741-2.352-4.492-3.053
		c-1.752-0.701-3.696-1.051-5.832-1.051H87.168v31.258h10.335c2.136,0,4.08-0.351,5.832-1.051c1.751-0.701,3.249-1.719,4.492-3.054
		c1.243-1.335,2.206-2.97,2.891-4.905C111.401,56.609,111.743,54.398,111.743,51.912z"/>
</g>
</svg>
