<?xml version="1.0" encoding="utf-8"?>
<!-- Generator: Adobe Illustrator 14.0.0, SVG Export Plug-In . SVG Version: 6.00 Build 43363)  -->
<!DOCTYPE svg PUBLIC "-//W3C//DTD SVG 1.1//EN" "http://www.w3.org/Graphics/SVG/1.1/DTD/svg11.dtd">
<svg version="1.1" id="Calque_1" xmlns="http://www.w3.org/2000/svg" xmlns:xlink="http://www.w3.org/1999/xlink" x="0px" y="0px"
	 width="226.77px" height="70.87px" viewBox="0 0 226.77 70.87" enable-background="new 0 0 226.77 70.87" xml:space="preserve">
<path fill="#260D0B" stroke="#260D0B" stroke-width="0.15" d="M42.967,36.941v0.6H28.517V14.998h0.606v21.944L42.967,36.941
	L42.967,36.941z"/>
<path fill="#260D0B" stroke="#260D0B" stroke-width="0.15" d="M46.763,15.597V25.97h10.048v0.599H46.763v10.373h13.749v0.599H46.157
	V14.998h14.355v0.599H46.763z"/>
<path fill="#260D0B" stroke="#260D0B" stroke-width="0.15" d="M85.164,22.453c-1.555-4.007-5.497-6.855-10.075-6.855
	c-5.965,0-10.781,4.792-10.781,10.688c0,5.864,4.816,10.656,10.781,10.656c5.04,0,9.251-3.404,10.463-8.04h-9.826v-0.598h10.559
	c-0.957,5.265-5.614,9.238-11.196,9.238c-6.284,0-11.389-5.046-11.389-11.256c0-6.243,5.104-11.288,11.389-11.288
	c4.929,0,9.138,3.122,10.713,7.456L85.164,22.453z"/>
<path fill="#260D0B" stroke="#260D0B" stroke-width="0.15" d="M92.968,26.569l12.472,10.973h-0.861L92.106,26.569h-0.702v10.973
	h-0.606V14.998h8.805c3.221,0,5.837,2.586,5.837,5.802c0,3.184-2.616,5.77-5.837,5.77H92.968z M91.405,25.97h8.199
	c2.871,0,5.23-2.333,5.23-5.17c0-2.869-2.36-5.203-5.23-5.203h-8.199V25.97z"/>
<path fill="#260D0B" stroke="#260D0B" stroke-width="0.15" d="M125.049,30.006h-12.633l-3.381,7.535h-0.669l10.016-22.543h0.67
	l10.049,22.543h-0.671L125.049,30.006z M124.794,29.375l-6.062-13.62l-6.06,13.62H124.794z"/>
<path fill="#260D0B" stroke="#260D0B" stroke-width="0.15" d="M135.475,38V14.803h0.606V38H135.475z"/>
<path fill="#260D0B" stroke="#260D0B" stroke-width="0.15" d="M162.817,14.998v22.544h-0.639L145.177,16.07v21.472h-0.605V14.998
	h0.605l17.002,21.503V14.998H162.817z"/>
<g>
	
		<radialGradient id="SVGID_1_" cx="214.4385" cy="-165.9697" r="43.5338" gradientTransform="matrix(0.2734 0 0 -0.2734 129.6484 -21.5525)" gradientUnits="userSpaceOnUse">
		<stop  offset="0" style="stop-color:#FFFFFF"/>
		<stop  offset="0.0849" style="stop-color:#F6F6F6"/>
		<stop  offset="0.2266" style="stop-color:#DCDCDC"/>
		<stop  offset="0.4074" style="stop-color:#B2B2B2"/>
		<stop  offset="0.6204" style="stop-color:#787878"/>
		<stop  offset="0.8576" style="stop-color:#2F2F2F"/>
		<stop  offset="1" style="stop-color:#000000"/>
	</radialGradient>
	<circle fill="url(#SVGID_1_)" cx="188.364" cy="26.181" r="11.902"/>
	
		<linearGradient id="SVGID_2_" gradientUnits="userSpaceOnUse" x1="470.7285" y1="-227.7944" x2="467.5345" y2="-231.2662" gradientTransform="matrix(1 0 0 -1 -282.6152 -199.5664)">
		<stop  offset="0" style="stop-color:#FFFFFF"/>
		<stop  offset="1" style="stop-color:#F9B41F"/>
	</linearGradient>
	<path fill="url(#SVGID_2_)" d="M192.287,37.515c0,0-2.562,0.67-3.945,0.67c-6.31,0-11.472-4.91-11.877-11.117
		c0,0,3.081-2.031,6.583-2.212c2.991-0.155,3.79-0.585,3.79-0.585S182.277,32.119,192.287,37.515z"/>
	
		<radialGradient id="SVGID_3_" cx="209.2451" cy="-153.8682" r="26.5164" gradientTransform="matrix(0.2734 0 0 -0.2734 129.6484 -21.5525)" gradientUnits="userSpaceOnUse">
		<stop  offset="0.1104" style="stop-color:#FFFFFF"/>
		<stop  offset="0.2126" style="stop-color:#FBE0DC"/>
		<stop  offset="0.4271" style="stop-color:#F3A597"/>
		<stop  offset="0.6209" style="stop-color:#ED7660"/>
		<stop  offset="0.787" style="stop-color:#E95439"/>
		<stop  offset="0.9188" style="stop-color:#E63F21"/>
		<stop  offset="1" style="stop-color:#E53718"/>
	</radialGradient>
	<path fill="url(#SVGID_3_)" d="M191.568,14.652c-1.118-0.347-1.967-0.457-3.198-0.457c-6.574,0-11.902,5.329-11.902,11.902
		c0,0,1.538-1.956,6.588-2.363c5.051-0.407,9.74-2.992,10.061-5.662C193.482,15.018,191.568,14.652,191.568,14.652z"/>
	
		<radialGradient id="SVGID_4_" cx="209.5098" cy="-175.0957" r="33.087" gradientTransform="matrix(0.2734 0 0 -0.2734 129.6484 -21.5525)" gradientUnits="userSpaceOnUse">
		<stop  offset="0" style="stop-color:#FFFFFF"/>
		<stop  offset="1" style="stop-color:#58265D"/>
	</radialGradient>
	<path fill="url(#SVGID_4_)" d="M193.238,37.042c4.149-1.861,7.038-6.026,7.038-10.866c0-4.612-2.624-8.611-6.458-10.587
		c0,0,2.6,5.204-3.533,7.92c-3.24,1.435-4.073,5.479-1.527,9.027C191.581,36.471,193.238,37.042,193.238,37.042z"/>
</g>
<g>
	<path fill="#545453" d="M28.201,57.274c0-1.665,0.182-3.005,0.544-4.021c0.363-1.015,0.903-1.798,1.619-2.349
		c0.716-0.551,1.617-0.826,2.703-0.826c0.8,0,1.503,0.152,2.107,0.457c0.604,0.304,1.103,0.742,1.497,1.315s0.702,1.271,0.926,2.095
		c0.224,0.822,0.336,1.932,0.336,3.328c0,1.652-0.18,2.986-0.54,4.001c-0.36,1.016-0.897,1.8-1.613,2.354
		c-0.716,0.554-1.621,0.831-2.713,0.831c-1.439,0-2.569-0.486-3.39-1.46C28.693,61.828,28.201,59.92,28.201,57.274z M30.084,57.274
		c0,2.312,0.287,3.851,0.86,4.616c0.573,0.765,1.281,1.147,2.123,1.147c0.841,0,1.549-0.384,2.123-1.152
		c0.573-0.769,0.86-2.306,0.86-4.611c0-2.318-0.287-3.858-0.86-4.62c-0.574-0.763-1.288-1.144-2.143-1.144
		c-0.842,0-1.514,0.336-2.016,1.009C30.4,53.378,30.084,54.963,30.084,57.274z"/>
	<path fill="#545453" d="M39.796,60.531l1.924-0.154c0.143,0.884,0.474,1.549,0.993,1.993c0.519,0.445,1.146,0.668,1.878,0.668
		c0.882,0,1.628-0.313,2.239-0.941s0.917-1.46,0.917-2.497c0-0.986-0.294-1.765-0.881-2.335c-0.587-0.569-1.355-0.854-2.306-0.854
		c-0.59,0-1.123,0.126-1.598,0.379s-0.849,0.581-1.12,0.985l-1.721-0.212l1.446-7.233h7.421v1.652h-5.955l-0.804,3.785
		c0.896-0.59,1.835-0.884,2.82-0.884c1.303,0,2.402,0.426,3.298,1.277c0.896,0.852,1.344,1.947,1.344,3.285
		c0,1.274-0.394,2.376-1.181,3.305c-0.957,1.14-2.263,1.71-3.919,1.71c-1.357,0-2.465-0.358-3.324-1.076
		C40.408,62.667,39.918,61.716,39.796,60.531z"/>
	<path fill="#545453" d="M66.691,53.586l-1.822,0.134c-0.163-0.679-0.394-1.172-0.692-1.479c-0.496-0.493-1.106-0.74-1.833-0.74
		c-0.583,0-1.096,0.154-1.537,0.461c-0.577,0.397-1.032,0.977-1.364,1.739c-0.333,0.762-0.505,1.848-0.519,3.256
		c0.441-0.634,0.98-1.104,1.619-1.412c0.638-0.307,1.306-0.461,2.005-0.461c1.222,0,2.262,0.425,3.12,1.273s1.288,1.945,1.288,3.29
		c0,0.884-0.202,1.705-0.606,2.464s-0.958,1.34-1.665,1.743c-0.706,0.403-1.506,0.605-2.402,0.605c-1.527,0-2.772-0.53-3.736-1.59
		c-0.964-1.06-1.446-2.807-1.446-5.24c0-2.722,0.533-4.7,1.599-5.937c0.93-1.076,2.182-1.614,3.756-1.614
		c1.174,0,2.136,0.311,2.886,0.932C66.092,51.633,66.542,52.49,66.691,53.586z M59.209,59.657c0,0.595,0.134,1.165,0.402,1.709
		c0.268,0.545,0.643,0.96,1.125,1.244c0.482,0.285,0.987,0.428,1.517,0.428c0.773,0,1.438-0.294,1.995-0.884
		c0.556-0.589,0.834-1.39,0.834-2.401c0-0.974-0.274-1.74-0.824-2.301s-1.242-0.841-2.077-0.841c-0.828,0-1.531,0.28-2.107,0.841
		S59.209,58.747,59.209,59.657z"/>
	<path fill="#545453" d="M68.788,60.502l1.833-0.23c0.21,0.979,0.568,1.686,1.074,2.118s1.122,0.648,1.848,0.648
		c0.862,0,1.59-0.281,2.184-0.846c0.594-0.563,0.891-1.261,0.891-2.094c0-0.794-0.275-1.449-0.824-1.965
		c-0.55-0.515-1.249-0.772-2.097-0.772c-0.346,0-0.777,0.063-1.293,0.191l0.204-1.518c0.122,0.013,0.221,0.02,0.295,0.02
		c0.78,0,1.482-0.192,2.107-0.576c0.625-0.385,0.937-0.977,0.937-1.777c0-0.634-0.227-1.159-0.682-1.575
		c-0.455-0.417-1.042-0.625-1.761-0.625c-0.713,0-1.307,0.212-1.782,0.634c-0.475,0.423-0.78,1.057-0.916,1.902l-1.833-0.308
		c0.224-1.159,0.733-2.057,1.527-2.694c0.794-0.637,1.782-0.956,2.962-0.956c0.814,0,1.564,0.165,2.25,0.495s1.209,0.779,1.573,1.35
		c0.363,0.57,0.544,1.175,0.544,1.815c0,0.608-0.173,1.162-0.519,1.662c-0.346,0.499-0.858,0.896-1.537,1.191
		c0.882,0.191,1.568,0.591,2.056,1.195c0.489,0.605,0.733,1.363,0.733,2.272c0,1.229-0.475,2.271-1.425,3.127
		c-0.95,0.854-2.152,1.282-3.604,1.282c-1.31,0-2.397-0.368-3.263-1.104C69.404,62.628,68.91,61.674,68.788,60.502z"/>
	<path fill="#545453" d="M86.175,60.502l1.833-0.23c0.21,0.979,0.568,1.686,1.074,2.118s1.122,0.648,1.848,0.648
		c0.862,0,1.59-0.281,2.184-0.846c0.594-0.563,0.891-1.261,0.891-2.094c0-0.794-0.275-1.449-0.824-1.965
		c-0.55-0.515-1.249-0.772-2.097-0.772c-0.346,0-0.777,0.063-1.293,0.191l0.204-1.518c0.122,0.013,0.221,0.02,0.295,0.02
		c0.78,0,1.482-0.192,2.107-0.576c0.625-0.385,0.937-0.977,0.937-1.777c0-0.634-0.227-1.159-0.682-1.575
		c-0.455-0.417-1.042-0.625-1.761-0.625c-0.713,0-1.307,0.212-1.782,0.634c-0.475,0.423-0.78,1.057-0.916,1.902l-1.833-0.308
		c0.224-1.159,0.733-2.057,1.527-2.694c0.794-0.637,1.782-0.956,2.962-0.956c0.814,0,1.564,0.165,2.25,0.495s1.209,0.779,1.573,1.35
		c0.363,0.57,0.544,1.175,0.544,1.815c0,0.608-0.173,1.162-0.519,1.662c-0.346,0.499-0.858,0.896-1.537,1.191
		c0.882,0.191,1.568,0.591,2.056,1.195c0.489,0.605,0.733,1.363,0.733,2.272c0,1.229-0.475,2.271-1.425,3.127
		c-0.95,0.854-2.152,1.282-3.604,1.282c-1.31,0-2.397-0.368-3.263-1.104C86.791,62.628,86.297,61.674,86.175,60.502z"/>
	<path fill="#545453" d="M97.76,57.274c0-1.665,0.182-3.005,0.544-4.021c0.363-1.015,0.903-1.798,1.619-2.349
		c0.716-0.551,1.617-0.826,2.703-0.826c0.8,0,1.503,0.152,2.107,0.457c0.604,0.304,1.103,0.742,1.497,1.315s0.702,1.271,0.926,2.095
		c0.224,0.822,0.336,1.932,0.336,3.328c0,1.652-0.18,2.986-0.54,4.001c-0.36,1.016-0.897,1.8-1.613,2.354
		c-0.716,0.554-1.621,0.831-2.713,0.831c-1.439,0-2.569-0.486-3.39-1.46C98.252,61.828,97.76,59.92,97.76,57.274z M99.644,57.274
		c0,2.312,0.287,3.851,0.86,4.616c0.573,0.765,1.281,1.147,2.123,1.147c0.841,0,1.549-0.384,2.123-1.152
		c0.573-0.769,0.86-2.306,0.86-4.611c0-2.318-0.287-3.858-0.86-4.62c-0.574-0.763-1.288-1.144-2.143-1.144
		c-0.842,0-1.514,0.336-2.016,1.009C99.959,53.378,99.644,54.963,99.644,57.274z"/>
	<path fill="#545453" d="M115.158,60.502l1.832-0.23c0.211,0.979,0.568,1.686,1.074,2.118s1.121,0.648,1.848,0.648
		c0.861,0,1.59-0.281,2.184-0.846c0.594-0.563,0.891-1.261,0.891-2.094c0-0.794-0.275-1.449-0.824-1.965
		c-0.551-0.515-1.248-0.772-2.098-0.772c-0.346,0-0.777,0.063-1.293,0.191l0.205-1.518c0.121,0.013,0.219,0.02,0.295,0.02
		c0.779,0,1.482-0.192,2.107-0.576c0.623-0.385,0.936-0.977,0.936-1.777c0-0.634-0.227-1.159-0.682-1.575
		c-0.455-0.417-1.043-0.625-1.762-0.625c-0.713,0-1.307,0.212-1.781,0.634c-0.475,0.423-0.781,1.057-0.916,1.902l-1.832-0.308
		c0.223-1.159,0.732-2.057,1.527-2.694c0.793-0.637,1.781-0.956,2.961-0.956c0.814,0,1.564,0.165,2.25,0.495s1.211,0.779,1.572,1.35
		c0.363,0.57,0.545,1.175,0.545,1.815c0,0.608-0.172,1.162-0.518,1.662c-0.348,0.499-0.859,0.896-1.539,1.191
		c0.883,0.191,1.568,0.591,2.057,1.195c0.49,0.605,0.734,1.363,0.734,2.272c0,1.229-0.477,2.271-1.426,3.127
		c-0.951,0.854-2.152,1.282-3.604,1.282c-1.311,0-2.398-0.368-3.264-1.104C115.773,62.628,115.28,61.674,115.158,60.502z"/>
	<path fill="#545453" d="M133.645,64.22h-1.833V53.201c-0.441,0.397-1.02,0.794-1.735,1.191s-1.359,0.695-1.929,0.894v-1.672
		c1.024-0.454,1.92-1.005,2.688-1.652c0.767-0.646,1.31-1.274,1.628-1.883h1.182V64.22z"/>
	<path fill="#545453" d="M150.004,64.22v-3.372h-6.475v-1.585l6.811-9.126h1.496v9.126h2.016v1.585h-2.016v3.372H150.004z
		 M150.004,59.263v-6.35l-4.673,6.35H150.004z"/>
	<path fill="#545453" d="M161.599,64.22v-3.372h-6.475v-1.585l6.811-9.126h1.496v9.126h2.016v1.585h-2.016v3.372H161.599z
		 M161.599,59.263v-6.35l-4.673,6.35H161.599z"/>
</g>
<line fill="none" stroke="#000000" stroke-width="0.5" x1="27" y1="44.333" x2="163.334" y2="44.333"/>
</svg>
