<?xml version="1.0" encoding="utf-8"?>
<!-- Generator: Adobe Illustrator 14.0.0, SVG Export Plug-In . SVG Version: 6.00 Build 43363)  -->
<!DOCTYPE svg PUBLIC "-//W3C//DTD SVG 1.1//EN" "http://www.w3.org/Graphics/SVG/1.1/DTD/svg11.dtd">
<svg version="1.1" id="Calque_1" xmlns="http://www.w3.org/2000/svg" xmlns:xlink="http://www.w3.org/1999/xlink" x="0px" y="0px"
	 width="834.083px" height="285.028px" viewBox="0 0 834.083 285.028" enable-background="new 0 0 834.083 285.028"
	 xml:space="preserve">
<path fill="#260D0B" stroke="#260D0B" stroke-width="0.5488" d="M147.177,168.593v2.191H94.318V88.326h2.217v80.268H147.177z"/>
<path fill="#260D0B" stroke="#260D0B" stroke-width="0.5488" d="M161.061,90.516v37.943h36.756v2.191h-36.756v37.942h50.292v2.191
	h-52.508V88.326h52.508v2.19H161.061z"/>
<path fill="#260D0B" stroke="#260D0B" stroke-width="0.5488" d="M301.53,115.593c-5.688-14.657-20.109-25.077-36.854-25.077
	c-21.82,0-39.439,17.53-39.439,39.097c0,21.451,17.619,38.98,39.439,38.98c18.436,0,33.838-12.456,38.273-29.408h-35.94v-2.191
	h38.623c-3.5,19.26-20.537,33.791-40.956,33.791c-22.987,0-41.657-18.454-41.657-41.172c0-22.835,18.669-41.287,41.657-41.287
	c18.03,0,33.423,11.42,39.188,27.271L301.53,115.593z"/>
<path fill="#260D0B" stroke="#260D0B" stroke-width="0.5488" d="M330.074,130.651l45.624,40.134h-3.151l-45.623-40.134h-2.567
	v40.134h-2.217V88.326h32.205c11.785,0,21.354,9.457,21.354,21.221c0,11.647-9.568,21.104-21.354,21.104H330.074z M324.356,128.459
	h29.988c10.502,0,19.136-8.535,19.136-18.913c0-10.495-8.634-19.03-19.136-19.03h-29.988V128.459z"/>
<path fill="#260D0B" stroke="#260D0B" stroke-width="0.5488" d="M447.423,143.221h-46.207l-12.369,27.563h-2.45l36.639-82.459h2.45
	l36.755,82.459h-2.45L447.423,143.221z M446.49,140.915l-22.17-49.82l-22.17,49.82H446.49z"/>
<path fill="#260D0B" stroke="#260D0B" stroke-width="0.5488" d="M485.56,172.463v-84.85h2.217v84.85H485.56z"/>
<path fill="#260D0B" stroke="#260D0B" stroke-width="0.5488" d="M585.578,88.326v82.459h-2.334L521.05,92.247v78.538h-2.216V88.326
	h2.216l62.193,78.653V88.326H585.578z"/>
<line fill="#260D0B" stroke="#260D0B" stroke-width="2.1951" x1="91.94" y1="187.749" x2="587.58" y2="187.749"/>
<g>
	<radialGradient id="SVGID_1_" cx="678.6851" cy="120.5957" r="43.5345" gradientUnits="userSpaceOnUse">
		<stop  offset="0" style="stop-color:#FFFFFF"/>
		<stop  offset="0.0849" style="stop-color:#F6F6F6"/>
		<stop  offset="0.2266" style="stop-color:#DCDCDC"/>
		<stop  offset="0.4074" style="stop-color:#B2B2B2"/>
		<stop  offset="0.6204" style="stop-color:#787878"/>
		<stop  offset="0.8576" style="stop-color:#2F2F2F"/>
		<stop  offset="1" style="stop-color:#000000"/>
	</radialGradient>
	<circle fill="url(#SVGID_1_)" cx="679.024" cy="129.231" r="43.534"/>
	<linearGradient id="SVGID_2_" gradientUnits="userSpaceOnUse" x1="678.1099" y1="136.7227" x2="666.4265" y2="149.422">
		<stop  offset="0" style="stop-color:#FFFFFF"/>
		<stop  offset="1" style="stop-color:#F9B41F"/>
	</linearGradient>
	<path fill="url(#SVGID_2_)" d="M693.376,170.688c0,0-9.373,2.451-14.432,2.451c-23.079,0-41.964-17.96-43.441-40.665
		c0,0,11.266-7.429,24.079-8.093c10.937-0.565,13.86-2.139,13.86-2.139S656.76,150.953,693.376,170.688z"/>
	<radialGradient id="SVGID_3_" cx="673.4917" cy="108.4951" r="26.5158" gradientUnits="userSpaceOnUse">
		<stop  offset="0.1104" style="stop-color:#FFFFFF"/>
		<stop  offset="0.2126" style="stop-color:#FBE0DC"/>
		<stop  offset="0.4271" style="stop-color:#F3A597"/>
		<stop  offset="0.6209" style="stop-color:#ED7660"/>
		<stop  offset="0.787" style="stop-color:#E95439"/>
		<stop  offset="0.9188" style="stop-color:#E63F21"/>
		<stop  offset="1" style="stop-color:#E53718"/>
	</radialGradient>
	<path fill="url(#SVGID_3_)" d="M690.746,87.058c-4.092-1.271-7.193-1.671-11.703-1.671c-24.043,0-43.534,19.492-43.534,43.536
		c0,0,5.626-7.152,24.099-8.643c18.475-1.489,35.627-10.943,36.799-20.707C697.746,88.398,690.746,87.058,690.746,87.058z"/>
	<radialGradient id="SVGID_4_" cx="673.7583" cy="129.7227" r="33.0874" gradientUnits="userSpaceOnUse">
		<stop  offset="0" style="stop-color:#FFFFFF"/>
		<stop  offset="1" style="stop-color:#58265D"/>
	</radialGradient>
	<path fill="url(#SVGID_4_)" d="M696.855,168.958c15.176-6.804,25.746-22.04,25.746-39.746c0-16.87-9.596-31.498-23.625-38.726
		c0,0,9.512,19.036-12.924,28.971c-11.852,5.249-14.9,20.042-5.588,33.019C690.794,166.869,696.855,168.958,696.855,168.958z"/>
</g>
</svg>
