<?xml version="1.0" encoding="utf-8"?>
<!-- Generator: Adobe Illustrator 14.0.0, SVG Export Plug-In . SVG Version: 6.00 Build 43363)  -->
<!DOCTYPE svg PUBLIC "-//W3C//DTD SVG 1.1//EN" "http://www.w3.org/Graphics/SVG/1.1/DTD/svg11.dtd">
<svg version="1.1" id="Calque_1" xmlns="http://www.w3.org/2000/svg" xmlns:xlink="http://www.w3.org/1999/xlink" x="0px" y="0px"
	 width="70.87px" height="70.871px" viewBox="0 0 70.87 70.871" enable-background="new 0 0 70.87 70.871" xml:space="preserve">
<rect x="-0.25" y="-0.2" fill="#707173" width="70.92" height="70.919"/>
<g>
	<path fill="#FFFFFF" d="M38.264,47.902h-9.201c-0.023-1.322-0.036-2.13-0.036-2.418c0-2.982,0.493-5.438,1.479-7.361
		c0.987-1.924,2.96-4.089,5.919-6.496c2.957-2.405,4.728-3.981,5.304-4.727c0.891-1.179,1.336-2.478,1.336-3.897
		c0-1.973-0.788-3.663-2.362-5.07c-1.576-1.407-3.7-2.111-6.37-2.111c-2.575,0-4.728,0.735-6.459,2.202
		c-1.732,1.468-2.923,3.706-3.573,6.712l-9.31-1.155c0.264-4.306,2.098-7.963,5.503-10.971c3.402-3.007,7.872-4.511,13.404-4.511
		c5.824,0,10.455,1.521,13.896,4.565c3.439,3.044,5.159,6.586,5.159,10.627c0,2.237-0.632,4.355-1.895,6.352
		s-3.965,4.716-8.101,8.155c-2.145,1.781-3.474,3.212-3.988,4.295C38.45,43.175,38.216,45.112,38.264,47.902z M29.062,61.542v-10.14
		h10.141v10.14H29.062z"/>
</g>
<polygon fill="#FFFFFF" points="24.3,24.736 33.971,25.818 29.737,40.589 29.063,47.902 38.098,35.435 47.53,23.148 42.903,13.894 
	33.971,11.402 24.928,11.402 "/>
</svg>
