<?xml version="1.0" encoding="utf-8"?>
<!-- Generator: Adobe Illustrator 14.0.0, SVG Export Plug-In . SVG Version: 6.00 Build 43363)  -->
<!DOCTYPE svg PUBLIC "-//W3C//DTD SVG 1.1//EN" "http://www.w3.org/Graphics/SVG/1.1/DTD/svg11.dtd">
<svg version="1.1" id="Calque_1" xmlns="http://www.w3.org/2000/svg" xmlns:xlink="http://www.w3.org/1999/xlink" x="0px" y="0px"
	 width="70.87px" height="70.87px" viewBox="0 0 70.87 70.87" enable-background="new 0 0 70.87 70.87" xml:space="preserve">
<rect x="-0.063" y="-0.125" fill="#86AED8" width="71.12" height="71.122"/>
<path fill="none" stroke="#FFFFFF" stroke-width="6" d="M62.073,44.535c0,7.828-6.345,14.174-14.173,14.174H23.094
	c-7.828,0-14.173-6.346-14.173-14.174V26.572c0-7.827,6.346-14.173,14.173-14.173H47.9c7.828,0,14.173,6.346,14.173,14.173V44.535z"
	/>
<g>
	<path fill="#FFFFFF" d="M51.553,26.771l-9.164,9.163l8.91,8.91l-6.262,6.262l-8.91-8.908l-9.164,9.164l-7.025-7.025l9.164-9.164
		l-8.91-8.909L26.455,20l8.909,8.909l9.164-9.164L51.553,26.771z"/>
</g>
</svg>
