<?xml version="1.0" encoding="utf-8"?>
<!-- Generator: Adobe Illustrator 14.0.0, SVG Export Plug-In . SVG Version: 6.00 Build 43363)  -->
<!DOCTYPE svg PUBLIC "-//W3C//DTD SVG 1.1//EN" "http://www.w3.org/Graphics/SVG/1.1/DTD/svg11.dtd">
<svg version="1.1" id="Calque_1" xmlns="http://www.w3.org/2000/svg" xmlns:xlink="http://www.w3.org/1999/xlink" x="0px" y="0px"
	 width="85.04px" height="85.04px" viewBox="0 0 85.04 85.04" enable-background="new 0 0 85.04 85.04" xml:space="preserve">
<rect x="0.182" y="-0.029" fill="#B3DB0B" width="84.676" height="85.068"/>
<g enable-background="new    ">
	<path fill="#FFFFFF" d="M29.167,79.91h-1.434l-0.569-1.489h-2.608l-0.539,1.489h-1.397l2.542-6.556h1.393L29.167,79.91z
		 M26.741,77.317l-0.899-2.434l-0.881,2.434H26.741z"/>
	<path fill="#FFFFFF" d="M29.869,79.91v-6.556h2.773c0.697,0,1.204,0.06,1.52,0.178c0.316,0.117,0.569,0.326,0.759,0.628
		c0.19,0.301,0.285,0.646,0.285,1.032c0,0.492-0.144,0.898-0.432,1.219c-0.288,0.32-0.718,0.522-1.291,0.605
		c0.285,0.168,0.52,0.352,0.706,0.551c0.185,0.199,0.435,0.555,0.75,1.064l0.796,1.278H34.16l-0.952-1.427
		c-0.338-0.51-0.57-0.83-0.694-0.963s-0.257-0.225-0.396-0.273c-0.14-0.049-0.361-0.073-0.664-0.073h-0.267v2.736H29.869z
		 M31.187,76.127h0.975c0.632,0,1.026-0.027,1.184-0.081s0.281-0.146,0.37-0.277c0.089-0.131,0.133-0.295,0.133-0.491
		c0-0.221-0.059-0.399-0.176-0.535c-0.117-0.135-0.283-0.221-0.496-0.257c-0.107-0.015-0.427-0.022-0.961-0.022h-1.028V76.127z"/>
	<path fill="#FFFFFF" d="M37.917,79.91v-5.446h-1.936v-1.109h5.185v1.109h-1.932v5.446H37.917z"/>
	<path fill="#FFFFFF" d="M41.976,79.91v-6.556h1.318v6.556H41.976z"/>
	<path fill="#FFFFFF" d="M48.723,77.5l1.277,0.407c-0.195,0.715-0.521,1.246-0.977,1.594s-1.033,0.521-1.734,0.521
		c-0.865,0-1.578-0.298-2.136-0.893s-0.837-1.408-0.837-2.439c0-1.091,0.28-1.938,0.842-2.541c0.561-0.604,1.297-0.906,2.211-0.906
		c0.799,0,1.447,0.237,1.945,0.711c0.297,0.28,0.52,0.683,0.668,1.207l-1.305,0.313c-0.076-0.34-0.238-0.608-0.482-0.805
		s-0.542-0.296-0.893-0.296c-0.483,0-0.876,0.175-1.177,0.523c-0.302,0.35-0.452,0.914-0.452,1.695c0,0.828,0.148,1.418,0.445,1.771
		c0.297,0.352,0.682,0.527,1.157,0.527c0.351,0,0.651-0.112,0.903-0.335C48.432,78.331,48.614,77.979,48.723,77.5z"/>
	<path fill="#FFFFFF" d="M51.167,79.91v-6.501h1.317v5.396h3.276v1.104H51.167z"/>
	<path fill="#FFFFFF" d="M56.699,79.91v-6.556h4.838v1.109h-3.521v1.453h3.275v1.104h-3.275v1.784h3.646v1.104H56.699z"/>
</g>
<g>
	<polygon fill="#FFFFFF" points="15.947,19.859 38.705,10.598 62.278,19.156 39.112,32.17 	"/>
	<polygon fill="#FFFFFF" points="18.048,25.37 41.739,39.556 42.206,66.405 20.149,50.929 	"/>
	<polygon fill="#FFFFFF" points="46.523,32.17 67.393,20.383 66.92,44.165 46.523,58.081 	"/>
</g>
</svg>
