<?xml version="1.0" encoding="utf-8"?>
<!-- Generator: Adobe Illustrator 14.0.0, SVG Export Plug-In . SVG Version: 6.00 Build 43363)  -->
<!DOCTYPE svg PUBLIC "-//W3C//DTD SVG 1.1//EN" "http://www.w3.org/Graphics/SVG/1.1/DTD/svg11.dtd">
<svg version="1.1" id="Calque_1" xmlns="http://www.w3.org/2000/svg" xmlns:xlink="http://www.w3.org/1999/xlink" x="0px" y="0px"
	 width="70.87px" height="70.871px" viewBox="0 0 70.87 70.871" enable-background="new 0 0 70.87 70.871" xml:space="preserve">
<rect x="-0.063" y="-0.125" fill="#707173" width="71.12" height="71.123"/>
<polygon fill="none" stroke="#FFFFFF" stroke-width="5.8963" points="56.758,15.096 56.758,62.637 13.927,62.637 13.927,8.544 
	49.193,8.376 "/>
<path fill="none" stroke="#FFFFFF" stroke-width="3" d="M45.344,50.295c0,1.807-1.538,3.272-3.437,3.272H28.154
	c-1.898,0-3.438-1.466-3.438-3.272V37.208c0-1.807,1.54-3.271,3.438-3.271h13.753c1.898,0,3.437,1.465,3.437,3.271V50.295z"/>
<path fill="none" stroke="#FFFFFF" stroke-width="4.0357" stroke-linecap="round" stroke-linejoin="round" d="M31.264,39.825
	c0,0,3.694,2.168,3.735,7.795c0.011,1.471,3.559-14.695,10.656-20.807"/>
</svg>
