<?xml version="1.0" encoding="utf-8"?>
<!-- Generator: Adobe Illustrator 14.0.0, SVG Export Plug-In . SVG Version: 6.00 Build 43363)  -->
<!DOCTYPE svg PUBLIC "-//W3C//DTD SVG 1.1//EN" "http://www.w3.org/Graphics/SVG/1.1/DTD/svg11.dtd">
<svg version="1.1" id="Calque_1" xmlns="http://www.w3.org/2000/svg" xmlns:xlink="http://www.w3.org/1999/xlink" x="0px" y="0px"
	 width="70.871px" height="70.871px" viewBox="0 0 70.871 70.871" enable-background="new 0 0 70.871 70.871" xml:space="preserve">
<rect x="-0.25" y="-0.2" fill="#707173" width="70.919" height="70.919"/>
<g>
	<polygon fill="none" stroke="#FFFFFF" stroke-width="3.5" points="36.246,26.996 26.78,35.478 14.703,31.521 12.091,19.083 
		21.556,10.603 33.633,14.559 	"/>
	<polygon fill="none" stroke="#FFFFFF" stroke-width="3.5" points="36.246,26.997 45.71,35.478 57.787,31.521 60.398,19.084 
		50.933,10.604 38.857,14.56 	"/>
	<polygon fill="none" stroke="#FFFFFF" stroke-width="3.5" points="36.246,43.959 26.78,35.478 14.703,39.435 12.092,51.872 
		21.557,60.353 33.634,56.396 	"/>
	<polygon fill="none" stroke="#FFFFFF" stroke-width="3.5" points="36.246,43.958 45.71,35.478 57.787,39.434 60.398,51.871 
		50.933,60.352 38.857,56.395 	"/>
	<polygon fill="#FFFFFF" points="36.25,32.001 32.323,35.519 36.25,39.038 40.176,35.519 	"/>
</g>
<polygon fill="#707173" points="32.244,26.955 27.198,31.476 20.761,29.367 19.369,22.737 24.414,18.218 30.851,20.326 "/>
<polygon fill="#707173" points="40.25,26.956 45.293,31.476 51.73,29.367 53.122,22.738 48.077,18.218 41.641,20.327 "/>
<polygon fill="#707173" points="32.244,44.002 27.198,39.481 20.761,41.591 19.37,48.22 24.414,52.74 30.851,50.631 "/>
<polygon fill="#707173" points="40.25,44.002 45.293,39.481 51.73,41.59 53.122,48.219 48.077,52.739 41.641,50.63 "/>
</svg>
