<?xml version="1.0" encoding="utf-8"?>
<!-- Generator: Adobe Illustrator 14.0.0, SVG Export Plug-In . SVG Version: 6.00 Build 43363)  -->
<!DOCTYPE svg PUBLIC "-//W3C//DTD SVG 1.1//EN" "http://www.w3.org/Graphics/SVG/1.1/DTD/svg11.dtd">
<svg version="1.1" id="Calque_1" xmlns="http://www.w3.org/2000/svg" xmlns:xlink="http://www.w3.org/1999/xlink" x="0px" y="0px"
	 width="285px" height="285px" viewBox="0 0 285 285" enable-background="new 0 0 285 285" xml:space="preserve">
<rect x="0" fill="#4063A8" width="285" height="285"/>
<path fill="#FFFFFF" d="M250.394,62.369V230.84c0,13.234-10.599,23.963-23.67,23.963H60.428c-13.073,0-23.671-10.729-23.671-23.963
	V62.369c0-13.234,10.598-23.963,23.671-23.963h161.807L250.394,62.369z"/>
<path fill="#4063A8" d="M196.138,104.122c0,7.06-5.819,12.785-13.001,12.785h-79.122c-7.182,0-13.003-5.725-13.003-12.785V63.986
	c0-7.061,5.821-12.785,13.003-12.785h79.122c7.182,0,13.001,5.724,13.001,12.785V104.122z"/>
<path fill="#FFFFFF" d="M45.019,46.509c0-0.208-0.167-0.376-0.375-0.376l0,0c-0.207,0-0.375,0.168-0.375,0.376l0,0
	c0,0.206,0.167,0.375,0.375,0.375l0,0C44.851,46.883,45.019,46.715,45.019,46.509L45.019,46.509z"/>
<path fill="#FFFFFF" d="M183.937,105.827c0,2.49-2.113,4.508-4.725,4.508h-18.523c-2.609,0-4.724-2.019-4.724-4.508V62.281
	c0-2.49,2.113-4.509,4.724-4.509h18.523c2.61,0,4.724,2.019,4.724,4.509L183.937,105.827L183.937,105.827z"/>
<path fill="none" stroke="#4063A8" stroke-width="4" d="M226.525,221.969c0,8.822-7.152,15.975-15.976,15.975H75.798
	c-8.822,0-15.975-7.151-15.975-15.975v-76.181c0-8.823,7.152-15.974,15.975-15.974h134.753c8.822,0,15.976,7.151,15.976,15.975
	L226.525,221.969L226.525,221.969z"/>
<line fill="none" stroke="#4063A8" stroke-width="4" x1="78.033" y1="146.604" x2="208.315" y2="146.604"/>
<line fill="none" stroke="#4063A8" stroke-width="4" x1="78.435" y1="165.904" x2="208.718" y2="165.904"/>
<line fill="none" stroke="#4063A8" stroke-width="4" x1="78.235" y1="183.879" x2="208.517" y2="183.879"/>
<line fill="none" stroke="#4063A8" stroke-width="4" x1="78.636" y1="203.178" x2="208.92" y2="203.178"/>
<line fill="none" stroke="#4063A8" stroke-width="4" x1="78.235" y1="220.721" x2="208.517" y2="220.721"/>
</svg>
