<?xml version="1.0" encoding="utf-8"?>
<!-- Generator: Adobe Illustrator 14.0.0, SVG Export Plug-In . SVG Version: 6.00 Build 43363)  -->
<!DOCTYPE svg PUBLIC "-//W3C//DTD SVG 1.1//EN" "http://www.w3.org/Graphics/SVG/1.1/DTD/svg11.dtd">
<svg version="1.1" id="Calque_1" xmlns="http://www.w3.org/2000/svg" xmlns:xlink="http://www.w3.org/1999/xlink" x="0px" y="0px"
	 width="285px" height="285px" viewBox="0 0 285 285" enable-background="new 0 0 285 285" xml:space="preserve">
<rect x="0" fill="#6F7072" width="285" height="285"/>
<path fill="#FFFFFF" d="M249.393,60.368v168.47c0,13.234-10.599,23.963-23.67,23.963H59.428c-13.073,0-23.671-10.729-23.671-23.963
	V60.368c0-13.234,10.598-23.963,23.671-23.963h161.806L249.393,60.368z"/>
<path fill="#6F7072" d="M195.137,102.121c0,7.06-5.819,12.785-13.001,12.785h-79.122c-7.182,0-13.003-5.725-13.003-12.785V61.985
	c0-7.061,5.821-12.785,13.003-12.785h79.122c7.182,0,13.001,5.724,13.001,12.785V102.121z"/>
<path fill="#FFFFFF" d="M44.019,44.508c0-0.208-0.167-0.376-0.375-0.376l0,0c-0.207,0-0.375,0.168-0.375,0.376l0,0
	c0,0.206,0.167,0.375,0.375,0.375l0,0C43.851,44.882,44.019,44.714,44.019,44.508L44.019,44.508z"/>
<path fill="#FFFFFF" d="M182.936,103.826c0,2.49-2.113,4.508-4.725,4.508h-18.523c-2.609,0-4.724-2.019-4.724-4.508V60.28
	c0-2.49,2.113-4.509,4.724-4.509h18.523c2.61,0,4.724,2.019,4.724,4.509L182.936,103.826L182.936,103.826z"/>
<path fill="#FFFFFF" stroke="#6F7072" stroke-width="3" d="M225.524,219.967c0,8.822-7.152,15.975-15.976,15.975H74.797
	c-8.822,0-15.975-7.151-15.975-15.975v-76.181c0-8.822,7.152-15.973,15.975-15.973h134.753c8.821,0,15.975,7.151,15.975,15.974
	L225.524,219.967L225.524,219.967z"/>
<line fill="none" stroke="#707173" stroke-width="5.5913" x1="77.032" y1="144.602" x2="207.314" y2="144.602"/>
<line fill="none" stroke="#707173" stroke-width="5.5913" x1="77.435" y1="163.902" x2="207.716" y2="163.902"/>
<line fill="none" stroke="#707173" stroke-width="5.5913" x1="77.235" y1="181.877" x2="207.516" y2="181.877"/>
<line fill="none" stroke="#707173" stroke-width="5.5913" x1="77.636" y1="201.176" x2="207.919" y2="201.176"/>
<line fill="none" stroke="#707173" stroke-width="5.5913" x1="77.235" y1="218.719" x2="207.516" y2="218.719"/>
</svg>
