<?xml version="1.0" encoding="utf-8"?>
<!-- Generator: Adobe Illustrator 14.0.0, SVG Export Plug-In . SVG Version: 6.00 Build 43363)  -->
<!DOCTYPE svg PUBLIC "-//W3C//DTD SVG 1.1//EN" "http://www.w3.org/Graphics/SVG/1.1/DTD/svg11.dtd">
<svg version="1.1" id="Calque_1" xmlns="http://www.w3.org/2000/svg" xmlns:xlink="http://www.w3.org/1999/xlink" x="0px" y="0px"
	 width="70.87px" height="70.871px" viewBox="-262.205 385.51 70.87 70.871" enable-background="new -262.205 385.51 70.87 70.871"
	 xml:space="preserve">
<rect x="-262.231" y="385.485" fill="#707173" width="70.921" height="70.919"/>
<polygon fill="#FFFFFF" points="-241.035,398.78 -246.488,404.232 -207.32,444.736 -200.42,437.503 "/>
<path fill="#FFFFFF" d="M-254.054,411.799l4.451-4.34l1.224,1.224c0,0,10.349-10.349,12.463-12.463s6.064-2.169,7.678-0.556
	l6.009,4.785c0,0-0.224,0.223-1.225,0.111s-4.339-1.892-6.564,0.334s-12.963,12.963-12.963,12.963l1.057,1.057l-4.618,4.618
	L-254.054,411.799z"/>
<path fill="#FFFFFF" d="M-200.563,404.675l-6.015,6.016l-5.673-5.674l6.361-6.361c-0.217-0.063-0.438-0.12-0.661-0.166
	c-0.536-0.109-1.091-0.167-1.659-0.167c-4.548,0-8.234,3.687-8.234,8.235c0,0.803,0.12,1.578,0.335,2.312l-20.42,20.42
	c-0.8-0.218-1.646-0.321-2.519-0.284c-4.544,0.193-8.07,4.033-7.878,8.576c0.021,0.484,0.083,0.954,0.683,1.912l5.755-6.266
	l5.893,5.373l-6.087,6.625c0.22,0.055,0.442,0.101,0.668,0.138c0.54,0.087,1.097,0.12,1.665,0.096
	c4.543-0.192,8.071-4.03,7.877-8.575c-0.021-0.493-0.092-0.973-0.195-1.438l20.819-20.818c0.529,0.106,1.077,0.164,1.639,0.164
	c4.548,0,8.234-3.688,8.234-8.234C-199.975,406.073-200.018,405.601-200.563,404.675z"/>
</svg>
