<?xml version="1.0" encoding="utf-8"?>
<!-- Generator: Adobe Illustrator 14.0.0, SVG Export Plug-In . SVG Version: 6.00 Build 43363)  -->
<!DOCTYPE svg PUBLIC "-//W3C//DTD SVG 1.1//EN" "http://www.w3.org/Graphics/SVG/1.1/DTD/svg11.dtd">
<svg version="1.1" id="Calque_1" xmlns="http://www.w3.org/2000/svg" xmlns:xlink="http://www.w3.org/1999/xlink" x="0px" y="0px"
	 width="70.871px" height="70.871px" viewBox="0 0 70.871 70.871" enable-background="new 0 0 70.871 70.871" xml:space="preserve">
<rect x="-0.024" y="-0.2" fill="#6F7072" width="70.919" height="70.919"/>
<polyline fill="#FFFFFF" points="43.37,7.751 15.775,35.607 8.621,63.007 36.739,55.854 63.988,27.874 62.533,22.636 61.894,22.125 
	35.066,48.57 34.683,49.848 36.134,53.682 34.81,54.191 23.312,57.641 14.114,48.698 17.052,36.814 17.947,35.807 21.907,36.943 
	23.312,36.561 50.141,10.116 49.759,8.966 43.37,7.751 "/>
<polygon fill="#FFFFFF" points="51.802,11.521 25.357,37.71 24.718,39.117 32.256,46.654 33.788,46.654 60.489,19.953 
	60.489,18.548 53.463,11.521 "/>
</svg>
