<?xml version="1.0" encoding="utf-8"?>
<!-- Generator: Adobe Illustrator 14.0.0, SVG Export Plug-In . SVG Version: 6.00 Build 43363)  -->
<!DOCTYPE svg PUBLIC "-//W3C//DTD SVG 1.1//EN" "http://www.w3.org/Graphics/SVG/1.1/DTD/svg11.dtd">
<svg version="1.1" id="Calque_1" xmlns="http://www.w3.org/2000/svg" xmlns:xlink="http://www.w3.org/1999/xlink" x="0px" y="0px"
	 width="70.87px" height="70.871px" viewBox="0 0 70.87 70.871" enable-background="new 0 0 70.87 70.871" xml:space="preserve">
<rect x="0" fill="#707173" width="71.12" height="71.123"/>
<g>
	<path fill="#FFFFFF" d="M8.726,37.109l0.797,5.596c0,0-3.608-0.57-3.811-5.761c-0.103,0-3.667-0.11-3.667-0.11
		s0.183,3.803,2.187,6.99c1.888,3.006,6.021,2.902,6.021,2.902l3.001,13.787c0,0,0.396,5.142,3.519,5.521
		c5.378,0.651,31.16,0,31.16,0s3.369,0.373,4.541-4.543c0.959-4.021,2.002-15.011,2.002-15.011s8.791-1.979,8.348-9.647
		c0,0-3.654-0.033-3.668,0.11c-0.203,2.238-2.107,5.556-3.945,5.149c-0.062-0.014,0.676-4.938,0.676-4.938L8.726,37.109z"/>
</g>
<path fill="#FFFFFF" d="M31.701,19.75l-0.26-1.379l1.993-0.42l-0.691-3.672l-6.899,0.976l0.495,3.725l1.924-0.297l0.118,1.431
	C12.873,22.591,8.736,34.842,8.736,34.842l42.455-6.781C51.191,28.061,45.441,19.001,31.701,19.75z"/>
<g>
	<path fill="#FFFFFF" d="M53.798,26.764V18.44h-8.095v-5.688l8.095,0V4.426h6.382v8.325h8.093v5.689H60.18v8.324H53.798z"/>
</g>
</svg>
