<?xml version="1.0" encoding="utf-8"?>
<!-- Generator: Adobe Illustrator 14.0.0, SVG Export Plug-In . SVG Version: 6.00 Build 43363)  -->
<!DOCTYPE svg PUBLIC "-//W3C//DTD SVG 1.1//EN" "http://www.w3.org/Graphics/SVG/1.1/DTD/svg11.dtd">
<svg version="1.1" id="Calque_1" xmlns="http://www.w3.org/2000/svg" xmlns:xlink="http://www.w3.org/1999/xlink" x="0px" y="0px"
	 width="70.87px" height="70.87px" viewBox="0 0 70.87 70.87" enable-background="new 0 0 70.87 70.87" xml:space="preserve">
<rect x="0.158" y="-0.158" fill="#707173" width="70.87" height="70.871"/>
<path fill="#FFFFFF" d="M63.891,38.259v-6.156l-8.559-2.842l-1.104-3.088l4.295-8.545l-4.881-4.484l-7.98,3.928l-4.693-1.58
	l-2.086-8.044l-6.998,0l-2.578,7.922l-3.805,1.719l-8.06-3.518l-4.339,4.057l4.339,8.299l-1.516,3.334l-8.505,2.842v6.156
	l8.75,3.013l1.271,3.224l-3.726,8.316l4.542,4.92l8.348-4.675l2.701,1.483l2.823,8.442h6.506l2.824-8.442l3.682-1.361l7.979,3.929
	l4.298-4.542l-3.684-8.07l1.228-3.224L63.891,38.259z M35.656,43.973c-4.837,0-8.757-3.922-8.757-8.758
	c0-4.836,3.92-8.758,8.757-8.758c4.837,0,8.757,3.922,8.757,8.758C44.413,40.051,40.493,43.973,35.656,43.973z"/>
</svg>
