<?xml version="1.0" encoding="utf-8"?>
<!-- Generator: Adobe Illustrator 14.0.0, SVG Export Plug-In . SVG Version: 6.00 Build 43363)  -->
<!DOCTYPE svg PUBLIC "-//W3C//DTD SVG 1.1//EN" "http://www.w3.org/Graphics/SVG/1.1/DTD/svg11.dtd">
<svg version="1.1" id="Calque_1" xmlns="http://www.w3.org/2000/svg" xmlns:xlink="http://www.w3.org/1999/xlink" x="0px" y="0px"
	 width="70.87px" height="70.871px" viewBox="0 0 70.87 70.871" enable-background="new 0 0 70.87 70.871" xml:space="preserve">
<rect x="0.073" fill="#707173" width="70.725" height="70.871"/>
<polygon fill="#FFFFFF" stroke="#707173" stroke-width="2" points="52.249,19.438 52.249,29.006 18.591,29.006 18.591,9.867 
	41.855,9.867 47.626,15.505 "/>
<polygon fill="#FFFFFF" stroke="#707173" stroke-width="2" points="52.249,19.438 42.134,19.153 41.661,10.436 "/>
<path fill="#FFFFFF" stroke="#707173" stroke-width="2" d="M63.124,47.983c0,2.967-2.398,5.373-5.359,5.373H14.402
	c-2.96,0-5.36-2.406-5.36-5.373V35.041c0-2.968,2.4-5.373,5.36-5.373h43.363c2.961,0,5.359,2.404,5.359,5.373V47.983z"/>
<path fill="#FFFFFF" stroke="#707173" stroke-width="2" d="M48.497,62.547H23.195h-5.36V48.495c0-2.967,2.4-5.371,5.36-5.371h25.302
	c2.961,0,5.361,2.404,5.361,5.371v14.052H48.497z"/>
<line fill="none" stroke="#707173" stroke-width="2" x1="25.304" y1="50.418" x2="45.728" y2="50.418"/>
<line fill="none" stroke="#707173" stroke-width="2" x1="25.304" y1="56.294" x2="45.728" y2="56.294"/>
<circle fill="#707173" stroke="#707173" cx="50.454" cy="35.435" r="1.8"/>
<circle fill="#707173" stroke="#707173" cx="57.073" cy="35.435" r="1.8"/>
</svg>
