<?xml version="1.0" encoding="utf-8"?>
<!-- Generator: Adobe Illustrator 14.0.0, SVG Export Plug-In . SVG Version: 6.00 Build 43363)  -->
<!DOCTYPE svg PUBLIC "-//W3C//DTD SVG 1.1//EN" "http://www.w3.org/Graphics/SVG/1.1/DTD/svg11.dtd">
<svg version="1.1" id="Calque_1" xmlns="http://www.w3.org/2000/svg" xmlns:xlink="http://www.w3.org/1999/xlink" x="0px" y="0px"
	 width="70.87px" height="70.871px" viewBox="-262.205 385.51 70.87 70.871" enable-background="new -262.205 385.51 70.87 70.871"
	 xml:space="preserve">
<rect x="-262.231" y="385.485" fill="#707173" width="70.921" height="70.919"/>
<g>
	<polygon fill="#FFFFFF" points="-261.367,415.519 -238,420.883 -228.279,413.853 -247.408,410.93 	"/>
	<polygon fill="#FFFFFF" points="-237.356,421.635 -237.356,445.435 -229.616,433.408 -228.279,414.57 	"/>
</g>
<g>
	<polygon fill="#FFFFFF" points="-231.495,419.299 -203.907,425.635 -194.011,416.717 -213.755,412.801 	"/>
	<polygon fill="#FFFFFF" points="-203.15,426.522 -203.15,454.62 -194.011,440.422 -194.011,417.836 	"/>
</g>
<polygon fill="#707173" points="-224.33,420.945 -231.495,419.299 -231.495,446.949 -224.33,452 "/>
<g>
	<g>
		<polygon fill="#FFFFFF" points="-238.854,392.957 -218.346,396.393 -209.963,391.988 -226.938,390.033 		"/>
		<polygon fill="#FFFFFF" points="-217.703,397.145 -217.703,420.945 -209.963,412.752 -209.806,392.957 		"/>
	</g>
	<polygon fill="#707173" points="-238.854,392.957 -238.854,416.311 -217.703,420.945 -217.703,397.145 	"/>
</g>
</svg>
