<?xml version="1.0" encoding="utf-8"?>
<!-- Generator: Adobe Illustrator 14.0.0, SVG Export Plug-In . SVG Version: 6.00 Build 43363)  -->
<!DOCTYPE svg PUBLIC "-//W3C//DTD SVG 1.1//EN" "http://www.w3.org/Graphics/SVG/1.1/DTD/svg11.dtd">
<svg version="1.1" id="Calque_1" xmlns="http://www.w3.org/2000/svg" xmlns:xlink="http://www.w3.org/1999/xlink" x="0px" y="0px"
	 width="70.87px" height="70.871px" viewBox="0 0 70.87 70.871" enable-background="new 0 0 70.87 70.871" xml:space="preserve">
<rect x="-0.063" y="-0.125" fill="#F08A00" width="71.12" height="71.123"/>
<g>
	<path fill="#FFFFFF" d="M11.838,31.212l0.797,5.596c0,0-3.608-0.571-3.811-5.761c-0.102,0-3.667-0.111-3.667-0.111
		s0.183,3.803,2.187,6.991c1.888,3.005,6.021,2.902,6.021,2.902l3.001,13.787c0,0,0.396,5.142,3.519,5.521
		c5.378,0.652,31.16,0,31.16,0s3.368,0.374,4.541-4.542c0.959-4.021,2.002-15.011,2.002-15.011s8.791-1.98,8.347-9.648
		c0,0-3.654-0.032-3.667,0.111c-0.203,2.238-2.108,5.556-3.946,5.15c-0.062-0.014,0.676-4.938,0.676-4.938L11.838,31.212z"/>
</g>
<path fill="#FFFFFF" d="M42.171,14.725l0.24-1.383l2.014,0.307l0.643-3.681l-6.802-1.51l-0.845,3.661l1.904,0.398l-0.391,1.381
	c-15.39-3.127-23.567,6.89-23.567,6.89L57.5,29.354C57.5,29.354,55.299,18.85,42.171,14.725z"/>
</svg>
