<?xml version="1.0" encoding="utf-8"?>
<!-- Generator: Adobe Illustrator 14.0.0, SVG Export Plug-In . SVG Version: 6.00 Build 43363)  -->
<!DOCTYPE svg PUBLIC "-//W3C//DTD SVG 1.1//EN" "http://www.w3.org/Graphics/SVG/1.1/DTD/svg11.dtd">
<svg version="1.1" id="Calque_1" xmlns="http://www.w3.org/2000/svg" xmlns:xlink="http://www.w3.org/1999/xlink" x="0px" y="0px"
	 width="70.87px" height="70.871px" viewBox="0 0 70.87 70.871" enable-background="new 0 0 70.87 70.871" xml:space="preserve">
<rect x="0.084" y="-0.125" fill="#9A75AD" width="71.12" height="71.121"/>
<g>
	<polygon fill="#FFFFFF" points="56.024,15.329 51.845,10.035 39.865,10.035 39.865,8.642 32.065,8.642 32.065,10.035 
		18.969,10.035 15.069,15.329 	"/>
	<polygon fill="#FFFFFF" points="12.561,21.458 12.561,22.851 15.413,22.851 18.411,64.085 52.402,64.085 55.65,22.851 
		58.253,22.851 58.253,21.458 55.76,21.458 56.024,18.115 15.069,18.114 15.312,21.458 	"/>
	<line fill="none" stroke="#8F86BA" stroke-width="1.3771" x1="25.656" y1="24.245" x2="25.656" y2="58.512"/>
	<line fill="none" stroke="#8F86BA" stroke-width="1.3771" x1="32.065" y1="24.245" x2="32.065" y2="58.512"/>
	<line fill="none" stroke="#8F86BA" stroke-width="1.3771" x1="38.751" y1="24.245" x2="38.751" y2="58.512"/>
	<line fill="none" stroke="#8F86BA" stroke-width="1.3771" x1="45.158" y1="24.245" x2="45.158" y2="58.512"/>
</g>
</svg>
