<?xml version="1.0" encoding="utf-8"?>
<!-- Generator: Adobe Illustrator 14.0.0, SVG Export Plug-In . SVG Version: 6.00 Build 43363)  -->
<!DOCTYPE svg PUBLIC "-//W3C//DTD SVG 1.1//EN" "http://www.w3.org/Graphics/SVG/1.1/DTD/svg11.dtd">
<svg version="1.1" id="Calque_1" xmlns="http://www.w3.org/2000/svg" xmlns:xlink="http://www.w3.org/1999/xlink" x="0px" y="0px"
	 width="85.04px" height="85.04px" viewBox="0 0 85.04 85.04" enable-background="new 0 0 85.04 85.04" xml:space="preserve">
<rect x="-0.02" y="0.02" fill="#739C9E" width="85.06" height="85.02"/>
<g>
	<circle fill="#FFFFFF" cx="42.483" cy="15.251" r="7.611"/>
	<polygon fill="#FFFFFF" points="34.872,27.721 50.095,27.721 50.095,63.024 45.64,63.024 42.483,55.898 39.85,63.024 
		34.872,63.024 	"/>
</g>
<g enable-background="new    ">
	<path fill="#FFFFFF" d="M31.2,79.545v-5.418h-1.935v-1.103h5.182v1.103h-1.931v5.418H31.2z"/>
	<path fill="#FFFFFF" d="M35.257,79.545v-6.521h1.317v6.521H35.257z"/>
	<path fill="#FFFFFF" d="M37.828,79.545v-6.521h4.835v1.103h-3.519v1.445h3.274v1.1h-3.274v1.774h3.643v1.099H37.828z"/>
	<path fill="#FFFFFF" d="M43.909,79.545v-6.521h2.771c0.696,0,1.203,0.059,1.519,0.175c0.315,0.117,0.568,0.326,0.759,0.625
		c0.189,0.3,0.284,0.643,0.284,1.028c0,0.489-0.144,0.893-0.432,1.212c-0.288,0.318-0.718,0.52-1.29,0.603
		c0.285,0.166,0.52,0.349,0.705,0.547c0.186,0.199,0.436,0.552,0.75,1.059l0.796,1.272h-1.575l-0.951-1.419
		c-0.338-0.507-0.569-0.826-0.693-0.959c-0.125-0.132-0.258-0.222-0.396-0.271c-0.14-0.05-0.36-0.074-0.662-0.074h-0.268v2.723
		H43.909z M45.225,75.783H46.2c0.631,0,1.025-0.027,1.183-0.08c0.157-0.054,0.28-0.146,0.369-0.276
		c0.089-0.13,0.134-0.293,0.134-0.489c0-0.22-0.059-0.396-0.176-0.531s-0.283-0.221-0.496-0.256
		c-0.107-0.015-0.427-0.022-0.961-0.022h-1.027V75.783z"/>
	<path fill="#FFFFFF" d="M50.149,77.423l1.281-0.124c0.077,0.43,0.233,0.746,0.469,0.947c0.236,0.202,0.555,0.303,0.955,0.303
		c0.424,0,0.743-0.09,0.958-0.27s0.323-0.389,0.323-0.629c0-0.154-0.046-0.286-0.137-0.394c-0.09-0.108-0.248-0.203-0.474-0.283
		c-0.153-0.053-0.505-0.148-1.054-0.284c-0.706-0.175-1.201-0.391-1.486-0.646c-0.4-0.358-0.6-0.796-0.6-1.312
		c0-0.332,0.094-0.644,0.281-0.933c0.189-0.289,0.461-0.509,0.814-0.66c0.354-0.151,0.782-0.227,1.283-0.227
		c0.818,0,1.436,0.179,1.849,0.538c0.413,0.358,0.631,0.838,0.651,1.437l-1.316,0.058c-0.057-0.335-0.178-0.576-0.363-0.723
		c-0.185-0.146-0.463-0.22-0.834-0.22c-0.382,0-0.682,0.078-0.898,0.235c-0.139,0.101-0.209,0.235-0.209,0.404
		c0,0.154,0.066,0.287,0.196,0.396c0.166,0.14,0.569,0.284,1.21,0.436s1.114,0.308,1.421,0.47c0.308,0.161,0.548,0.383,0.721,0.662
		c0.173,0.28,0.261,0.627,0.261,1.039c0,0.374-0.104,0.724-0.312,1.05c-0.207,0.326-0.5,0.568-0.88,0.728
		c-0.38,0.158-0.853,0.237-1.419,0.237c-0.824,0-1.457-0.19-1.899-0.571S50.235,78.153,50.149,77.423z"/>
</g>
</svg>
