<?xml version="1.0" encoding="utf-8"?>
<!-- Generator: Adobe Illustrator 14.0.0, SVG Export Plug-In . SVG Version: 6.00 Build 43363)  -->
<!DOCTYPE svg PUBLIC "-//W3C//DTD SVG 1.1//EN" "http://www.w3.org/Graphics/SVG/1.1/DTD/svg11.dtd" [
	<!ENTITY ns_extend "http://ns.adobe.com/Extensibility/1.0/">
	<!ENTITY ns_ai "http://ns.adobe.com/AdobeIllustrator/10.0/">
	<!ENTITY ns_graphs "http://ns.adobe.com/Graphs/1.0/">
	<!ENTITY ns_vars "http://ns.adobe.com/Variables/1.0/">
	<!ENTITY ns_imrep "http://ns.adobe.com/ImageReplacement/1.0/">
	<!ENTITY ns_sfw "http://ns.adobe.com/SaveForWeb/1.0/">
	<!ENTITY ns_custom "http://ns.adobe.com/GenericCustomNamespace/1.0/">
	<!ENTITY ns_adobe_xpath "http://ns.adobe.com/XPath/1.0/">
]>
<svg version="1.1" id="Calque_1" xmlns:x="&ns_extend;" xmlns:i="&ns_ai;" xmlns:graph="&ns_graphs;"
	 xmlns="http://www.w3.org/2000/svg" xmlns:xlink="http://www.w3.org/1999/xlink" x="0px" y="0px" width="226.77px"
	 height="226.77px" viewBox="0 0 226.77 226.77" enable-background="new 0 0 226.77 226.77" xml:space="preserve">
<metadata>
	<sfw  xmlns="&ns_sfw;">
		<slices></slices>
		<sliceSourceBounds  x="20.59" y="46.286" width="187.591" height="144.024" bottomLeftOrigin="true"></sliceSourceBounds>
	</sfw>
</metadata>
<path fill="#A4D9F7" d="M109.777,66.567c0,0-18.243-24.729-41.756-28.378s-24.324,0-24.324,0v111.891c0,0,7.003,0.062,20.27,2.432
	c22.703,4.055,45.811,22.703,45.811,22.703V66.567z"/>
<path fill="#A4D9F7" d="M119.817,66.46c0,0,18.243-24.729,41.757-28.378s24.324,0,24.324,0v111.892c0,0-7.004,0.062-20.27,2.432
	c-22.703,4.055-45.812,22.703-45.812,22.703V66.46z"/>
<path fill="#A4D9F7" d="M32.346,63.323c0,0-1.622-4.054-5.27-2.838s-6.486,2.838-6.486,2.838v117.16c0,0,26.351-2.432,41.351-2.026
	s39.729,2.026,39.729,2.026s-11.757-10.945-32.837-14.594c-11.049-1.912-36.081-2.838-36.081-2.838L32.346,63.323z"/>
<path fill="#A4D9F7" d="M196.425,63.323c0,0,1.621-4.054,5.27-2.838s6.486,2.838,6.486,2.838v117.16c0,0-26.351-2.432-41.351-2.026
	s-39.729,2.026-39.729,2.026s11.757-10.945,32.838-14.594c11.049-1.912,36.08-2.838,36.08-2.838L196.425,63.323z"/>
</svg>
