<?xml version="1.0" encoding="utf-8"?>
<!-- Generator: Adobe Illustrator 14.0.0, SVG Export Plug-In . SVG Version: 6.00 Build 43363)  -->
<!DOCTYPE svg PUBLIC "-//W3C//DTD SVG 1.1//EN" "http://www.w3.org/Graphics/SVG/1.1/DTD/svg11.dtd" [
	<!ENTITY ns_extend "http://ns.adobe.com/Extensibility/1.0/">
	<!ENTITY ns_ai "http://ns.adobe.com/AdobeIllustrator/10.0/">
	<!ENTITY ns_graphs "http://ns.adobe.com/Graphs/1.0/">
	<!ENTITY ns_vars "http://ns.adobe.com/Variables/1.0/">
	<!ENTITY ns_imrep "http://ns.adobe.com/ImageReplacement/1.0/">
	<!ENTITY ns_sfw "http://ns.adobe.com/SaveForWeb/1.0/">
	<!ENTITY ns_custom "http://ns.adobe.com/GenericCustomNamespace/1.0/">
	<!ENTITY ns_adobe_xpath "http://ns.adobe.com/XPath/1.0/">
]>
<svg version="1.1" id="Calque_1" xmlns:x="&ns_extend;" xmlns:i="&ns_ai;" xmlns:graph="&ns_graphs;"
	 xmlns="http://www.w3.org/2000/svg" xmlns:xlink="http://www.w3.org/1999/xlink" x="0px" y="0px" width="226.77px"
	 height="226.77px" viewBox="0 0 226.77 226.77" enable-background="new 0 0 226.77 226.77" xml:space="preserve">
<metadata>
	<sfw  xmlns="&ns_sfw;">
		<slices></slices>
		<sliceSourceBounds  height="152.387" width="163.588" x="31.619" y="35.472" bottomLeftOrigin="true"></sliceSourceBounds>
	</sfw>
</metadata>
<g>
	
		<path fill="none" stroke="#A4D9F7" stroke-width="4.882" stroke-linecap="round" stroke-linejoin="round" stroke-dasharray="9.764,9.764" d="
		M169.807,128.397c0.352,33.076-23.309,60.144-52.847,60.456c-29.535,0.313-53.763-26.246-54.114-59.321"/>
	<path fill="#A4D9F7" d="M94.911,71.603c0-18.056-14.17-32.692-31.646-32.692c-17.479,0-31.646,14.637-31.646,32.692v17.303h63.293
		V71.603z"/>
	<path fill="#A4D9F7" d="M60.324,125.302c0,1.565-1.27,2.835-2.835,2.835H34.453c-1.565,0-2.835-1.27-2.835-2.835V97.494
		c0-1.565,1.27-2.835,2.835-2.835h23.036c1.565,0,2.835,1.27,2.835,2.835V125.302z"/>
	<path fill="#A4D9F7" d="M94.911,125.562c0,1.565-1.27,2.835-2.835,2.835H69.04c-1.565,0-2.835-1.27-2.835-2.835V97.755
		c0-1.565,1.27-2.835,2.835-2.835h23.036c1.565,0,2.835,1.27,2.835,2.835V125.562z"/>
	<path fill="#A4D9F7" d="M195.202,66.439c0-13.723-11.705-25.919-25.428-25.919s-25.66,11.101-25.66,24.823
		c0,0-0.146,4.445,0.813,8.131c1.273,4.889,21.33,47.885,21.33,47.885s0.785,2.093,3.662,1.831s3.139-3.139,3.139-3.139
		s20.833-42.961,21.562-45.792C195.296,71.642,195.202,66.439,195.202,66.439z M169.658,80.286c-7.662,0-13.873-6.211-13.873-13.873
		s6.211-13.873,13.873-13.873s13.873,6.211,13.873,13.873S177.32,80.286,169.658,80.286z"/>
</g>
</svg>
