<?xml version="1.0" encoding="utf-8"?>
<!-- Generator: Adobe Illustrator 14.0.0, SVG Export Plug-In . SVG Version: 6.00 Build 43363)  -->
<!DOCTYPE svg PUBLIC "-//W3C//DTD SVG 1.1//EN" "http://www.w3.org/Graphics/SVG/1.1/DTD/svg11.dtd" [
	<!ENTITY ns_extend "http://ns.adobe.com/Extensibility/1.0/">
	<!ENTITY ns_ai "http://ns.adobe.com/AdobeIllustrator/10.0/">
	<!ENTITY ns_graphs "http://ns.adobe.com/Graphs/1.0/">
	<!ENTITY ns_vars "http://ns.adobe.com/Variables/1.0/">
	<!ENTITY ns_imrep "http://ns.adobe.com/ImageReplacement/1.0/">
	<!ENTITY ns_sfw "http://ns.adobe.com/SaveForWeb/1.0/">
	<!ENTITY ns_custom "http://ns.adobe.com/GenericCustomNamespace/1.0/">
	<!ENTITY ns_adobe_xpath "http://ns.adobe.com/XPath/1.0/">
]>
<svg version="1.1" id="Calque_1" xmlns:x="&ns_extend;" xmlns:i="&ns_ai;" xmlns:graph="&ns_graphs;"
	 xmlns="http://www.w3.org/2000/svg" xmlns:xlink="http://www.w3.org/1999/xlink" x="0px" y="0px" width="226.77px"
	 height="226.77px" viewBox="0 0 226.77 226.77" enable-background="new 0 0 226.77 226.77" xml:space="preserve">
<metadata>
	<sfw  xmlns="&ns_sfw;">
		<slices></slices>
		<sliceSourceBounds  height="123.714" width="127.665" x="49.414" y="50.668" bottomLeftOrigin="true"></sliceSourceBounds>
	</sfw>
</metadata>
<g>
	<path fill="#39A1F6" d="M77.914,104.255h-22.83c-3.131,0-5.669,2.618-5.669,5.847v50.354c0,3.229,2.538,5.847,5.669,5.847h22.83
		c3.131,0,5.669-2.618,5.669-5.847v-50.354C83.583,106.873,81.044,104.255,77.914,104.255z M64.088,156.242
		c-2.895,0-5.241-2.347-5.241-5.241s2.346-5.241,5.241-5.241s5.241,2.347,5.241,5.241S66.982,156.242,64.088,156.242z"/>
	<path fill="#39A1F6" d="M87.985,109.915c0,0,2.306-4.82,4.821-5.659s11.046-10.902,15.795-17.4s5.377-5.241,8.103-8.175
		c2.726-2.935,3.983-17.189,6.079-20.753s4.821-4.821,4.821-4.821s4.928-2.522,10.69,1.887c2.836,2.169,11.111,11.529,8.386,23.268
		s-6.708,15.722-6.708,15.722l25.365,0.629c0,0,11.949,3.354,11.738,14.045c-0.209,10.691-4.192,13.207-4.192,13.207
		s1.886,2.307,1.468,7.337c-0.42,5.03-3.564,9.224-3.564,9.224s1.259,3.145,0.42,8.176c-0.839,5.03-5.24,8.594-5.24,8.594
		s0.629,4.821-0.839,9.853s-6.918,9.643-14.884,10.69c-7.966,1.049-29.621,0.001-41.643-5.24
		c-12.021-5.24-15.375-4.192-15.375-4.192s-5.241-1.048-5.241-2.515C87.985,157.93,87.985,157.93,87.985,109.915z"/>
</g>
</svg>
