<?xml version="1.0" encoding="utf-8"?>
<!-- Generator: Adobe Illustrator 14.0.0, SVG Export Plug-In . SVG Version: 6.00 Build 43363)  -->
<!DOCTYPE svg PUBLIC "-//W3C//DTD SVG 1.1//EN" "http://www.w3.org/Graphics/SVG/1.1/DTD/svg11.dtd" [
	<!ENTITY ns_extend "http://ns.adobe.com/Extensibility/1.0/">
	<!ENTITY ns_ai "http://ns.adobe.com/AdobeIllustrator/10.0/">
	<!ENTITY ns_graphs "http://ns.adobe.com/Graphs/1.0/">
	<!ENTITY ns_vars "http://ns.adobe.com/Variables/1.0/">
	<!ENTITY ns_imrep "http://ns.adobe.com/ImageReplacement/1.0/">
	<!ENTITY ns_sfw "http://ns.adobe.com/SaveForWeb/1.0/">
	<!ENTITY ns_custom "http://ns.adobe.com/GenericCustomNamespace/1.0/">
	<!ENTITY ns_adobe_xpath "http://ns.adobe.com/XPath/1.0/">
]>
<svg version="1.1" id="Calque_1" xmlns:x="&ns_extend;" xmlns:i="&ns_ai;" xmlns:graph="&ns_graphs;"
	 xmlns="http://www.w3.org/2000/svg" xmlns:xlink="http://www.w3.org/1999/xlink" x="0px" y="0px" width="226.77px"
	 height="226.77px" viewBox="0 0 226.77 226.77" enable-background="new 0 0 226.77 226.77" xml:space="preserve">
<metadata>
	<sfw  xmlns="&ns_sfw;">
		<slices></slices>
		<sliceSourceBounds  x="245.306" y="369.096" width="104.673" height="103.702" bottomLeftOrigin="true"></sliceSourceBounds>
	</sfw>
</metadata>
<g>
	<path fill="#39A1F6" d="M165.721,69.559c0.014-4.266-3.297-7.733-7.393-7.746l-8.264-0.019l-0.002-0.128l-36.402-0.132v0
		c0,0-45.078,0-45.077,0c-4.095-0.013-7.425,3.436-7.437,7.701l-0.099,80.599h0.021l-0.021,7.377
		c-0.013,4.266,3.298,7.732,7.393,7.746l8.265,0.018l0.001,0.129l36.954-0.092c0,0,44.526,0.224,44.525,0.224
		c4.096,0.013,7.426-3.436,7.438-7.701l0.098-80.6h-0.021L165.721,69.559z M155.84,102.923l-0.035,40.312l-0.025,8.39
		c-0.006,2.133-1.67,3.858-3.717,3.852l-38.402-0.196l-27.688,0.099v-0.118l-11.351-0.025c-2.048-0.006-3.702-1.74-3.695-3.873
		l0.024-8.391l0.057-19.127l-0.078,0.003l0.034-40.312l0.025-8.39c0.006-2.133,1.671-3.858,3.718-3.852l38.837-0.001l0,0
		l27.253,0.099v0.119l11.35,0.024c2.049,0.007,3.703,1.741,3.695,3.874l-0.023,8.39l-0.057,19.128L155.84,102.923z"/>
	<g>
		<path fill="#39A1F6" stroke="#39A1F6" stroke-width="2" d="M121.066,87.735c0,4.008-2.958,7.252-7.825,7.252
			c-4.581,0-7.539-3.245-7.539-7.252c0-4.104,3.054-7.253,7.729-7.253C118.108,80.482,120.971,83.632,121.066,87.735z
			 M106.084,144.376v-43.663h14.505v43.663H106.084z"/>
	</g>
</g>
</svg>
