<?xml version="1.0" encoding="utf-8"?>
<!-- Generator: Adobe Illustrator 14.0.0, SVG Export Plug-In . SVG Version: 6.00 Build 43363)  -->
<!DOCTYPE svg PUBLIC "-//W3C//DTD SVG 1.1//EN" "http://www.w3.org/Graphics/SVG/1.1/DTD/svg11.dtd" [
	<!ENTITY ns_extend "http://ns.adobe.com/Extensibility/1.0/">
	<!ENTITY ns_ai "http://ns.adobe.com/AdobeIllustrator/10.0/">
	<!ENTITY ns_graphs "http://ns.adobe.com/Graphs/1.0/">
	<!ENTITY ns_vars "http://ns.adobe.com/Variables/1.0/">
	<!ENTITY ns_imrep "http://ns.adobe.com/ImageReplacement/1.0/">
	<!ENTITY ns_sfw "http://ns.adobe.com/SaveForWeb/1.0/">
	<!ENTITY ns_custom "http://ns.adobe.com/GenericCustomNamespace/1.0/">
	<!ENTITY ns_adobe_xpath "http://ns.adobe.com/XPath/1.0/">
]>
<svg version="1.1" id="Calque_1" xmlns:x="&ns_extend;" xmlns:i="&ns_ai;" xmlns:graph="&ns_graphs;"
	 xmlns="http://www.w3.org/2000/svg" xmlns:xlink="http://www.w3.org/1999/xlink" x="0px" y="0px" width="226.77px"
	 height="226.77px" viewBox="0 0 226.77 226.77" enable-background="new 0 0 226.77 226.77" xml:space="preserve">
<metadata>
	<sfw  xmlns="&ns_sfw;">
		<slices></slices>
		<sliceSourceBounds  height="122.932" width="104.495" x="60.798" y="50.395" bottomLeftOrigin="true"></sliceSourceBounds>
	</sfw>
</metadata>
<path fill="#39A1F6" d="M153.651,108.523c-4.673-0.493-4.698,0-4.698,0l0.385-20.562c0-19.065-15.541-34.519-34.713-34.519
	c-19.17,0-34.711,15.454-34.711,34.519v18.705c-0.94,0-2.508-0.059-5.015,0c-10.811,0.253-14.242,5.679-14.096,16.2
	c0.045,3.261,0,31.582,0,38.954s0.74,14.554,14.554,14.554c13.813,0,65.881,0,77.452,0s12.484-8.099,12.484-12.483
	s0-41.308,0-43.725S165.293,109.753,153.651,108.523z M123.496,150.359v6.834h-18.513v-6.83c-3.446-2.733-5.662-6.946-5.662-11.685
	c0-8.236,6.678-14.915,14.915-14.915c8.237,0,14.916,6.679,14.916,14.915C129.152,143.415,126.938,147.626,123.496,150.359z
	 M133.827,106.667H94.646V89.31c0-10.762,8.769-19.483,19.592-19.483c10.82,0,19.589,8.722,19.589,19.483V106.667z"/>
</svg>
