<?xml version="1.0" encoding="utf-8"?>
<!-- Generator: Adobe Illustrator 14.0.0, SVG Export Plug-In . SVG Version: 6.00 Build 43363)  -->
<!DOCTYPE svg PUBLIC "-//W3C//DTD SVG 1.1//EN" "http://www.w3.org/Graphics/SVG/1.1/DTD/svg11.dtd" [
	<!ENTITY ns_extend "http://ns.adobe.com/Extensibility/1.0/">
	<!ENTITY ns_ai "http://ns.adobe.com/AdobeIllustrator/10.0/">
	<!ENTITY ns_graphs "http://ns.adobe.com/Graphs/1.0/">
	<!ENTITY ns_vars "http://ns.adobe.com/Variables/1.0/">
	<!ENTITY ns_imrep "http://ns.adobe.com/ImageReplacement/1.0/">
	<!ENTITY ns_sfw "http://ns.adobe.com/SaveForWeb/1.0/">
	<!ENTITY ns_custom "http://ns.adobe.com/GenericCustomNamespace/1.0/">
	<!ENTITY ns_adobe_xpath "http://ns.adobe.com/XPath/1.0/">
]>
<svg version="1.1" id="Calque_1" xmlns:x="&ns_extend;" xmlns:i="&ns_ai;" xmlns:graph="&ns_graphs;"
	 xmlns="http://www.w3.org/2000/svg" xmlns:xlink="http://www.w3.org/1999/xlink" x="0px" y="0px" width="226.77px"
	 height="226.77px" viewBox="0 0 226.77 226.77" enable-background="new 0 0 226.77 226.77" xml:space="preserve">
<metadata>
	<sfw  xmlns="&ns_sfw;">
		<slices></slices>
		<sliceSourceBounds  height="125.51" width="209.884" x="8.434" y="49.752" bottomLeftOrigin="true"></sliceSourceBounds>
	</sfw>
</metadata>
<path fill="#A4D9F7" d="M216.428,143.547l-2.789-1.859c0,0,0-29.441,0-34.398c0-4.959-2.479-10.228-2.479-10.228
	s-17.045-17.354-19.523-19.522c-2.479-2.171-8.988-3.721-8.988-3.721h-15.494v-15.75c0-3.625-2.869-6.562-6.41-6.562H71.34
	c-3.541,0-6.41,2.938-6.41,6.562v12.063l-50.874,6.417l47.178,7.578l-52.8,5.866l49.133,7.333l-49.133,7.822l56.496,5.766v35.678
	c0,3.623,2.87,6.562,6.41,6.562h4.597c-0.022,0.413-0.063,0.821-0.063,1.239c0,12.494,10.128,22.623,22.623,22.623
	s22.622-10.129,22.622-22.623c0-0.418-0.04-0.826-0.062-1.239h34.074c-0.022,0.413-0.062,0.821-0.062,1.239
	c0,12.494,10.129,22.623,22.623,22.623s22.621-10.129,22.621-22.623c0-0.025-0.002-0.05-0.002-0.076l2.172,0.076l12.396-1.239
	c0,0,3.1-0.619,3.408-4.028C218.598,145.717,216.428,143.547,216.428,143.547z M99.457,166.57c-6.7,0-12.132-5.43-12.132-12.131
	c0-6.7,5.432-12.133,12.132-12.133c6.7,0,12.132,5.433,12.132,12.133C111.589,161.141,106.157,166.57,99.457,166.57z
	 M178.311,166.57c-6.701,0-12.133-5.43-12.133-12.131c0-6.7,5.432-12.133,12.133-12.133c6.699,0,12.133,5.433,12.133,12.133
	C190.443,161.141,185.01,166.57,178.311,166.57z M200.934,107.599h-33.779V85.596h15.494l18.285,18.594V107.599z"/>
</svg>
