<?xml version="1.0" encoding="utf-8"?>
<!-- Generator: Adobe Illustrator 14.0.0, SVG Export Plug-In . SVG Version: 6.00 Build 43363)  -->
<!DOCTYPE svg PUBLIC "-//W3C//DTD SVG 1.1//EN" "http://www.w3.org/Graphics/SVG/1.1/DTD/svg11.dtd" [
	<!ENTITY ns_extend "http://ns.adobe.com/Extensibility/1.0/">
	<!ENTITY ns_ai "http://ns.adobe.com/AdobeIllustrator/10.0/">
	<!ENTITY ns_graphs "http://ns.adobe.com/Graphs/1.0/">
	<!ENTITY ns_vars "http://ns.adobe.com/Variables/1.0/">
	<!ENTITY ns_imrep "http://ns.adobe.com/ImageReplacement/1.0/">
	<!ENTITY ns_sfw "http://ns.adobe.com/SaveForWeb/1.0/">
	<!ENTITY ns_custom "http://ns.adobe.com/GenericCustomNamespace/1.0/">
	<!ENTITY ns_adobe_xpath "http://ns.adobe.com/XPath/1.0/">
]>
<svg version="1.1" id="Calque_1" xmlns:x="&ns_extend;" xmlns:i="&ns_ai;" xmlns:graph="&ns_graphs;"
	 xmlns="http://www.w3.org/2000/svg" xmlns:xlink="http://www.w3.org/1999/xlink" x="0px" y="0px" width="226.77px"
	 height="226.77px" viewBox="0 0 226.77 226.77" enable-background="new 0 0 226.77 226.77" xml:space="preserve">
<metadata>
	<sfw  xmlns="&ns_sfw;">
		<slices></slices>
		<sliceSourceBounds  height="125.51" width="209.884" x="7.812" y="49.715" bottomLeftOrigin="true"></sliceSourceBounds>
	</sfw>
</metadata>
<path fill="#39A1F6" d="M215.807,143.585l-2.789-1.858c0,0,0-29.442,0-34.4c0-4.958-2.48-10.227-2.48-10.227
	s-17.045-17.355-19.523-19.523c-2.479-2.17-8.986-3.72-8.986-3.72h-15.496v-15.75c0-3.625-2.869-6.562-6.41-6.562H70.718
	c-3.541,0-6.41,2.938-6.41,6.562V70.17l-50.874,6.417l47.178,7.578l-52.8,5.867l49.133,7.333l-49.133,7.822l56.496,5.765v35.677
	c0,3.625,2.87,6.562,6.41,6.562h4.597c-0.022,0.412-0.063,0.821-0.063,1.24c0,12.494,10.128,22.623,22.623,22.623
	s22.623-10.129,22.623-22.623c0-0.419-0.041-0.828-0.063-1.24h34.073c-0.021,0.412-0.062,0.821-0.062,1.24
	c0,12.494,10.128,22.623,22.622,22.623s22.623-10.129,22.623-22.623c0-0.025-0.004-0.051-0.004-0.076l2.174,0.076l12.396-1.24
	c0,0,3.099-0.619,3.409-4.028S215.807,143.585,215.807,143.585z M98.835,166.609c-6.7,0-12.132-5.432-12.132-12.132
	s5.432-12.132,12.132-12.132c6.7,0,12.132,5.432,12.132,12.132S105.535,166.609,98.835,166.609z M177.688,166.609
	c-6.699,0-12.131-5.432-12.131-12.132s5.432-12.132,12.131-12.132c6.701,0,12.133,5.432,12.133,12.132
	S184.389,166.609,177.688,166.609z M200.311,107.637h-33.779V85.633h15.496l18.283,18.594V107.637z"/>
</svg>
