<?xml version="1.0" encoding="utf-8"?>
<!-- Generator: Adobe Illustrator 14.0.0, SVG Export Plug-In . SVG Version: 6.00 Build 43363)  -->
<!DOCTYPE svg PUBLIC "-//W3C//DTD SVG 1.1//EN" "http://www.w3.org/Graphics/SVG/1.1/DTD/svg11.dtd" [
	<!ENTITY ns_extend "http://ns.adobe.com/Extensibility/1.0/">
	<!ENTITY ns_ai "http://ns.adobe.com/AdobeIllustrator/10.0/">
	<!ENTITY ns_graphs "http://ns.adobe.com/Graphs/1.0/">
	<!ENTITY ns_vars "http://ns.adobe.com/Variables/1.0/">
	<!ENTITY ns_imrep "http://ns.adobe.com/ImageReplacement/1.0/">
	<!ENTITY ns_sfw "http://ns.adobe.com/SaveForWeb/1.0/">
	<!ENTITY ns_custom "http://ns.adobe.com/GenericCustomNamespace/1.0/">
	<!ENTITY ns_adobe_xpath "http://ns.adobe.com/XPath/1.0/">
]>
<svg version="1.1" id="Calque_1" xmlns:x="&ns_extend;" xmlns:i="&ns_ai;" xmlns:graph="&ns_graphs;"
	 xmlns="http://www.w3.org/2000/svg" xmlns:xlink="http://www.w3.org/1999/xlink" x="0px" y="0px" width="226.77px"
	 height="226.77px" viewBox="0 0 226.77 226.77" enable-background="new 0 0 226.77 226.77" xml:space="preserve">
<metadata>
	<sfw  xmlns="&ns_sfw;">
		<slices></slices>
		<sliceSourceBounds  height="128.654" width="120.212" x="53.305" y="47.34" bottomLeftOrigin="true"></sliceSourceBounds>
	</sfw>
</metadata>
<circle fill="#39A1F6" cx="113.258" cy="81.998" r="31.221"/>
<path fill="#39A1F6" d="M148.093,111.203c-0.911-0.095-1.807-0.103-2.682-0.031l-3.719-0.041
	c-6.915,7.642-16.91,12.443-28.028,12.443c-11.416,0-21.641-5.068-28.57-13.069l-4.522-0.05c-0.031-0.001-0.062,0-0.093-0.001
	l-0.334-0.003l-0.001,0.007c-0.468,0.003-0.938,0.022-1.415,0.072C53,113.212,53.305,151.804,53.305,160.965
	c0,9.826,7.966,17.791,17.792,17.791c0.492,0,0.977-0.034,1.459-0.073l-0.083,0.747l82.318-0.024l-0.003-0.022
	c0.312,0.016,0.62,0.047,0.937,0.047c9.826,0,17.792-7.966,17.792-17.792C173.517,152.477,173.821,113.885,148.093,111.203z"/>
</svg>
