<?xml version="1.0" encoding="utf-8"?>
<!-- Generator: Adobe Illustrator 14.0.0, SVG Export Plug-In . SVG Version: 6.00 Build 43363)  -->
<!DOCTYPE svg PUBLIC "-//W3C//DTD SVG 1.1//EN" "http://www.w3.org/Graphics/SVG/1.1/DTD/svg11.dtd" [
	<!ENTITY ns_extend "http://ns.adobe.com/Extensibility/1.0/">
	<!ENTITY ns_ai "http://ns.adobe.com/AdobeIllustrator/10.0/">
	<!ENTITY ns_graphs "http://ns.adobe.com/Graphs/1.0/">
	<!ENTITY ns_vars "http://ns.adobe.com/Variables/1.0/">
	<!ENTITY ns_imrep "http://ns.adobe.com/ImageReplacement/1.0/">
	<!ENTITY ns_sfw "http://ns.adobe.com/SaveForWeb/1.0/">
	<!ENTITY ns_custom "http://ns.adobe.com/GenericCustomNamespace/1.0/">
	<!ENTITY ns_adobe_xpath "http://ns.adobe.com/XPath/1.0/">
]>
<svg version="1.1" id="Calque_1" xmlns:x="&ns_extend;" xmlns:i="&ns_ai;" xmlns:graph="&ns_graphs;"
	 xmlns="http://www.w3.org/2000/svg" xmlns:xlink="http://www.w3.org/1999/xlink" x="0px" y="0px" width="226.77px"
	 height="226.77px" viewBox="0 0 226.77 226.77" enable-background="new 0 0 226.77 226.77" xml:space="preserve">
<metadata>
	<sfw  xmlns="&ns_sfw;">
		<slices></slices>
		<sliceSourceBounds  x="40.383" y="53.097" width="145.357" height="118.939" bottomLeftOrigin="true"></sliceSourceBounds>
	</sfw>
</metadata>
<path fill="#A4D9F7" d="M183.949,141.956l-2.644-1.764c0,0,0-27.898,0-32.598s-2.35-9.691-2.35-9.691s-16.152-16.445-18.502-18.501
	s-8.517-3.523-8.517-3.523h-15.993v11.16h15.993l17.326,17.621v3.229h-32.011V60.953c0-3.436-2.72-6.22-6.074-6.22H46.458
	c-3.355,0-6.075,2.784-6.075,6.22v83.887c0,3.436,2.719,6.22,6.075,6.22h4.355c-0.021,0.393-0.06,0.778-0.06,1.175
	c0,11.841,9.598,21.438,21.438,21.438c11.841,0,21.438-9.598,21.438-21.438c0-0.396-0.038-0.782-0.061-1.175h32.29
	c-0.021,0.393-0.059,0.778-0.059,1.175c0,11.841,9.598,21.438,21.438,21.438c11.84,0,21.438-9.598,21.438-21.438
	c0-0.023-0.003-0.048-0.003-0.071l2.06,0.071l11.747-1.175c0,0,2.938-0.587,3.23-3.816
	C186.004,144.013,183.949,141.956,183.949,141.956z M73.103,163.775c-6.349,0-11.497-5.147-11.497-11.498
	c0-6.349,5.147-11.495,11.497-11.495c6.351,0,11.497,5.146,11.497,11.495C84.6,158.627,79.452,163.775,73.103,163.775z
	 M147.827,163.775c-6.35,0-11.497-5.147-11.497-11.498c0-6.349,5.147-11.495,11.497-11.495s11.497,5.146,11.497,11.495
	C159.324,158.627,154.177,163.775,147.827,163.775z"/>
</svg>
