<?xml version="1.0" encoding="utf-8"?>
<!-- Generator: Adobe Illustrator 14.0.0, SVG Export Plug-In . SVG Version: 6.00 Build 43363)  -->
<!DOCTYPE svg PUBLIC "-//W3C//DTD SVG 1.1//EN" "http://www.w3.org/Graphics/SVG/1.1/DTD/svg11.dtd" [
	<!ENTITY ns_extend "http://ns.adobe.com/Extensibility/1.0/">
	<!ENTITY ns_ai "http://ns.adobe.com/AdobeIllustrator/10.0/">
	<!ENTITY ns_graphs "http://ns.adobe.com/Graphs/1.0/">
	<!ENTITY ns_vars "http://ns.adobe.com/Variables/1.0/">
	<!ENTITY ns_imrep "http://ns.adobe.com/ImageReplacement/1.0/">
	<!ENTITY ns_sfw "http://ns.adobe.com/SaveForWeb/1.0/">
	<!ENTITY ns_custom "http://ns.adobe.com/GenericCustomNamespace/1.0/">
	<!ENTITY ns_adobe_xpath "http://ns.adobe.com/XPath/1.0/">
]>
<svg version="1.1" id="Calque_1" xmlns:x="&ns_extend;" xmlns:i="&ns_ai;" xmlns:graph="&ns_graphs;"
	 xmlns="http://www.w3.org/2000/svg" xmlns:xlink="http://www.w3.org/1999/xlink" x="0px" y="0px" width="226.77px"
	 height="226.77px" viewBox="0 0 226.77 226.77" enable-background="new 0 0 226.77 226.77" xml:space="preserve">
<metadata>
	<sfw  xmlns="&ns_sfw;">
		<slices></slices>
		<sliceSourceBounds  x="37.396" y="33.39" width="150.863" height="157.809" bottomLeftOrigin="true"></sliceSourceBounds>
	</sfw>
</metadata>
<g>
	<polygon fill="#39A1F6" points="57.26,35.572 37.397,71.854 60.492,71.854 74.732,35.572 	"/>
	<polygon fill="#39A1F6" points="81.242,35.572 69.325,71.854 92.739,71.854 97.942,35.572 	"/>
	<polygon fill="#39A1F6" points="104.74,35.572 101.383,71.854 124.377,71.854 121.104,35.686 	"/>
	<polygon fill="#39A1F6" points="127.635,35.755 133.135,71.854 156.385,71.854 144.51,35.755 	"/>
	<polygon fill="#39A1F6" points="150.947,35.755 164.947,71.854 188.26,71.854 167.885,35.755 	"/>
	<path fill="#39A1F6" d="M101.278,80.763c2.177,4.19,6.556,7.055,11.604,7.055c5.08,0,9.48-2.898,11.642-7.134v-5.116h-23.244
		L101.278,80.763L101.278,80.763z"/>
	<path fill="#39A1F6" d="M37.397,80.763c2.175,4.19,6.556,7.055,11.604,7.055c5.08,0,9.48-2.898,11.642-7.134v-5.116H37.397V80.763z
		"/>
	<path fill="#39A1F6" d="M69.325,80.763c2.175,4.19,6.554,7.055,11.602,7.055c5.08,0,9.482-2.898,11.642-7.134v-5.116H69.325V80.763
		z"/>
	<path fill="#39A1F6" d="M164.877,80.763c2.175,4.19,6.555,7.055,11.602,7.055c5.08,0,9.482-2.898,11.645-7.134v-5.116h-23.244
		L164.877,80.763L164.877,80.763z"/>
	<path fill="#39A1F6" d="M132.924,80.763c2.175,4.19,6.555,7.055,11.602,7.055c5.08,0,9.482-2.898,11.645-7.134v-5.116h-23.244
		L132.924,80.763L132.924,80.763z"/>
	<path fill="#39A1F6" d="M166.76,92.38c-4.25-1.75-5.75-4.562-5.75-4.562s-6,6.834-16.464,6.834s-16.911-6.834-16.911-6.834
		s-2.625,6.834-14.734,6.834c-12.107,0-14.959-7.771-14.959-7.771s-6.933,8.25-16.995,7.75c-10.062-0.5-15.687-6.813-15.687-6.813
		s-2,2.812-7,4.562s-7.5,2.25-7.5,2.25v98.75h124.5V94.651C175.26,94.651,171.01,94.13,166.76,92.38z M156.168,177.88H69.325v-73.5
		h86.843V177.88z"/>
</g>
</svg>
