<?xml version="1.0" encoding="utf-8"?>
<!-- Generator: Adobe Illustrator 14.0.0, SVG Export Plug-In . SVG Version: 6.00 Build 43363)  -->
<!DOCTYPE svg PUBLIC "-//W3C//DTD SVG 1.1//EN" "http://www.w3.org/Graphics/SVG/1.1/DTD/svg11.dtd" [
	<!ENTITY ns_extend "http://ns.adobe.com/Extensibility/1.0/">
	<!ENTITY ns_ai "http://ns.adobe.com/AdobeIllustrator/10.0/">
	<!ENTITY ns_graphs "http://ns.adobe.com/Graphs/1.0/">
	<!ENTITY ns_vars "http://ns.adobe.com/Variables/1.0/">
	<!ENTITY ns_imrep "http://ns.adobe.com/ImageReplacement/1.0/">
	<!ENTITY ns_sfw "http://ns.adobe.com/SaveForWeb/1.0/">
	<!ENTITY ns_custom "http://ns.adobe.com/GenericCustomNamespace/1.0/">
	<!ENTITY ns_adobe_xpath "http://ns.adobe.com/XPath/1.0/">
]>
<svg version="1.1" id="Calque_1" xmlns:x="&ns_extend;" xmlns:i="&ns_ai;" xmlns:graph="&ns_graphs;"
	 xmlns="http://www.w3.org/2000/svg" xmlns:xlink="http://www.w3.org/1999/xlink" x="0px" y="0px" width="226.77px"
	 height="226.77px" viewBox="0 0 226.77 226.77" enable-background="new 0 0 226.77 226.77" xml:space="preserve">
<metadata>
	<sfw  xmlns="&ns_sfw;">
		<slices></slices>
		<sliceSourceBounds  height="157.808" width="150.862" x="37.728" y="33.39" bottomLeftOrigin="true"></sliceSourceBounds>
	</sfw>
</metadata>
<g>
	<polygon fill="#39A1F6" points="57.59,35.572 37.728,71.854 60.822,71.854 75.062,35.572 	"/>
	<polygon fill="#39A1F6" points="81.572,35.572 69.655,71.854 93.069,71.854 98.272,35.572 	"/>
	<polygon fill="#39A1F6" points="105.07,35.572 101.713,71.854 124.707,71.854 121.435,35.686 	"/>
	<polygon fill="#39A1F6" points="127.965,35.755 133.465,71.854 156.715,71.854 144.84,35.755 	"/>
	<polygon fill="#39A1F6" points="151.277,35.755 165.277,71.854 188.59,71.854 168.215,35.755 	"/>
	<path fill="#39A1F6" d="M101.608,80.763c2.175,4.19,6.554,7.055,11.602,7.055c5.08,0,9.482-2.9,11.642-7.134v-5.116h-23.244V80.763
		z"/>
	<path fill="#39A1F6" d="M37.728,80.763c2.175,4.19,6.554,7.055,11.602,7.055c5.08,0,9.482-2.9,11.642-7.134v-5.116H37.728V80.763z"
		/>
	<path fill="#39A1F6" d="M69.655,80.763c2.175,4.19,6.554,7.055,11.602,7.055c5.08,0,9.482-2.9,11.642-7.134v-5.116H69.655V80.763z"
		/>
	<path fill="#39A1F6" d="M165.207,80.763c2.175,4.19,6.555,7.055,11.602,7.055c5.08,0,9.482-2.9,11.643-7.134v-5.116h-23.244V80.763
		z"/>
	<path fill="#39A1F6" d="M133.254,80.763c2.175,4.19,6.555,7.055,11.602,7.055c5.08,0,9.482-2.9,11.643-7.134v-5.116h-23.244V80.763
		z"/>
	<path fill="#39A1F6" d="M167.09,92.38c-4.25-1.75-5.75-4.562-5.75-4.562s-6,6.834-16.464,6.834s-16.911-6.834-16.911-6.834
		s-2.625,6.834-14.734,6.834S98.272,86.88,98.272,86.88s-6.933,8.25-16.995,7.75S65.59,87.817,65.59,87.817s-2,2.812-7,4.562
		s-7.5,2.25-7.5,2.25v98.75h124.5V94.651C175.59,94.651,171.34,94.13,167.09,92.38z M156.498,177.88H69.655v-73.5h86.843V177.88z"/>
</g>
<g>
	<g>
		<path fill="#39A1F6" d="M142.433,132.51l-37.142-19.701c-1.161-0.616-2.601-0.174-3.217,0.987l-12.697,23.938
			c-0.616,1.161-0.174,2.601,0.987,3.216l37.143,19.701c1.16,0.616,2.6,0.174,3.216-0.986l12.696-23.939
			C144.034,134.564,143.594,133.125,142.433,132.51z"/>
		<g>
			<g>
				<path fill="#FFFFFF" d="M105.513,122.199l1.416-2.353c0,0-0.226-0.176-1.309-0.76c-0.644-0.349-1.346-0.29-1.726,0.253
					c-0.496,0.716-0.863,1.446-0.863,1.446L105.513,122.199z"/>
			</g>
			<g>
				<path fill="#FFFFFF" d="M109.996,124.438l2.223,1.253c0,0,0.15-0.14,0.207-0.247c0.284-0.531,1.447-1.911,0.229-2.63
					c-1.061-0.627-1.252-0.78-1.252-0.78L108,120.322l-4.814,8.091c0,0-0.324,0.406,0,0.687c0.256,0.221,1.502,0.896,1.502,0.896
					s0.433,0.354,0.851-0.401c0.167-0.304,3-5.185,3-5.185s0.219-0.528,0.667-0.373
					C109.438,124.116,109.996,124.438,109.996,124.438z"/>
			</g>
			
				<rect x="101.677" y="121.937" transform="matrix(0.8661 0.4998 -0.4998 0.8661 75.4618 -35.0176)" fill="#FFFFFF" width="2.849" height="2.849"/>
			<path fill="#FFFFFF" d="M103.215,125.922l-1.298,2.419c0,0-0.266-0.104-1.323-0.737c-0.627-0.375-0.979-0.88-0.707-1.484
				c0.362-0.792,0.845-1.609,0.845-1.609L103.215,125.922z"/>
			<g>
				<path fill="#FFFFFF" d="M109.947,124.354l1.329-2.402c0,0,0.265,0.107,1.313,0.753c0.624,0.384,0.924,1.021,0.643,1.622
					c-0.372,0.786-0.82,1.47-0.82,1.47L109.947,124.354z"/>
			</g>
			
				<rect x="108.629" y="125.528" transform="matrix(-0.8661 -0.4999 0.4999 -0.8661 141.9054 291.919)" fill="#FFFFFF" width="2.848" height="2.848"/>
			<path fill="#FFFFFF" d="M107.611,128.185l-1.446,2.334c0,0,0.224,0.178,1.3,0.776c0.639,0.356,1.252,0.408,1.639-0.131
				c0.505-0.708,0.971-1.536,0.971-1.536L107.611,128.185z"/>
		</g>
	</g>
	<path fill="#FFFFFF" d="M129.927,134.468H87.883c-1.314,0-2.379,1.064-2.379,2.378v27.098c0,1.314,1.065,2.379,2.379,2.379h42.043
		c1.314,0,2.379-1.064,2.379-2.378v-27.099C132.306,135.532,131.241,134.468,129.927,134.468z"/>
	<path fill="#39A1F6" d="M128.293,136.116H86.249c-1.314,0-2.379,1.064-2.379,2.379v27.098c0,1.313,1.065,2.378,2.379,2.378
		l42.044,0.001c1.313,0,2.379-1.065,2.379-2.379v-27.098C130.672,137.181,129.606,136.116,128.293,136.116z M88.223,139.116h38.095
		c0.657,0,1.189,0.532,1.189,1.189v15.001H87.034v-15.001C87.034,139.648,87.566,139.116,88.223,139.116z M126.318,164.971H88.223
		c-0.657,0-1.189-0.532-1.189-1.189v-2.583h40.474v2.583C127.508,164.438,126.976,164.971,126.318,164.971z"/>
</g>
</svg>
