<?xml version="1.0" encoding="utf-8"?>
<!-- Generator: Adobe Illustrator 14.0.0, SVG Export Plug-In . SVG Version: 6.00 Build 43363)  -->
<!DOCTYPE svg PUBLIC "-//W3C//DTD SVG 1.1//EN" "http://www.w3.org/Graphics/SVG/1.1/DTD/svg11.dtd" [
	<!ENTITY ns_extend "http://ns.adobe.com/Extensibility/1.0/">
	<!ENTITY ns_ai "http://ns.adobe.com/AdobeIllustrator/10.0/">
	<!ENTITY ns_graphs "http://ns.adobe.com/Graphs/1.0/">
	<!ENTITY ns_vars "http://ns.adobe.com/Variables/1.0/">
	<!ENTITY ns_imrep "http://ns.adobe.com/ImageReplacement/1.0/">
	<!ENTITY ns_sfw "http://ns.adobe.com/SaveForWeb/1.0/">
	<!ENTITY ns_custom "http://ns.adobe.com/GenericCustomNamespace/1.0/">
	<!ENTITY ns_adobe_xpath "http://ns.adobe.com/XPath/1.0/">
]>
<svg version="1.1" id="Calque_1" xmlns:x="&ns_extend;" xmlns:i="&ns_ai;" xmlns:graph="&ns_graphs;"
	 xmlns="http://www.w3.org/2000/svg" xmlns:xlink="http://www.w3.org/1999/xlink" x="0px" y="0px" width="250.885px"
	 height="226.77px" viewBox="0 0 250.885 226.77" enable-background="new 0 0 250.885 226.77" xml:space="preserve">
<metadata>
	<sfw  xmlns="&ns_sfw;">
		<slices></slices>
		<sliceSourceBounds  x="192.89" y="355.458" width="235.412" height="139.423" bottomLeftOrigin="true"></sliceSourceBounds>
	</sfw>
</metadata>
<g>
	<path fill="#39A1F6" d="M195.492,75.437l-17.533-0.04l-161.79-0.363c-4.095-0.013-7.425,3.436-7.437,7.701l-0.099,80.6h0.021
		l-0.021,7.375c-0.013,4.266,3.298,7.734,7.393,7.746l8.265,0.02l0.001,0.127l170.895,0.268c4.094,0.014,7.426-3.434,7.438-7.699
		l0.221-74.461l0.039-13.528C202.898,78.918,199.588,75.45,195.492,75.437z M192.982,97.423l-0.057,19.128l-0.143,48.711
		c-0.006,2.133-1.67,3.857-3.719,3.85l-155.505-0.232v-0.119l-11.351-0.023c-2.048-0.008-3.702-1.742-3.695-3.875l0.024-8.389
		l0.057-19.129l-0.078,0.004l0.034-40.312l0.025-8.39c0.006-2.133,1.671-3.858,3.718-3.852l155.667,0.34l11.35,0.024
		c2.049,0.007,3.703,1.741,3.695,3.874L192.982,97.423z"/>
	<path fill="#39A1F6" d="M222.34,45.092c-1.459,1.22-3.861,1.52-3.861,1.52s-49.186,46.099-61.186,58.099
		c-12,12-29.666,32.667-29.666,32.667s-10.777,14.066-8.777,17.066s16.736-5.549,20.068-8.217
		c3.334-2.666,88.709-79.183,88.709-79.183s6.305,2.245,6.492,6.073c0.225,4.616-25.492,28.927-25.492,28.927
		s-3.465,4.014,1.016,4.201c3.945,0.164,31.783-30.018,31.783-30.018s3.182-4.665,2.533-6.517c-1.406-4.02-5.963-7.818-10.338-8.958
		c-0.711-0.186,2.672-2.375,2.672-2.375s3.014-0.918,4.334-2.667c1.318-1.749,3.27-6.001-3-11.667
		c-4.645-4.196-8.846-6.14-12.393-3.152C221.686,43.88,222.34,45.092,222.34,45.092z"/>
	<g>
		<path fill="#39A1F6" stroke="#39A1F6" d="M66.503,149.024c-2.361,1.432-6.369,2.861-10.949,2.861
			c-6.512,0-12.38-2.576-16.173-7.371c-2.29-2.646-3.865-6.225-4.509-10.59h-4.58v-4.438H34.3c0-0.357,0-0.715,0-1.074
			c0-0.93,0.071-1.859,0.143-2.646h-4.15v-4.438h4.795c0.858-4.438,2.791-8.087,5.367-10.877c3.864-4.223,9.089-6.656,15.458-6.656
			c4.294,0,7.872,1.074,10.233,2.219l-1.789,6.584c-1.86-0.931-4.795-1.861-8.016-1.861c-3.578,0-6.727,1.289-9.088,3.936
			c-1.503,1.574-2.577,3.938-3.149,6.656h18.75v4.438H43.246c-0.144,0.787-0.144,1.645-0.144,2.576c0,0.43,0,0.715,0,1.145h19.752
			v4.438H43.889c0.501,3.006,1.575,5.367,3.078,6.941c2.433,2.646,5.868,3.863,9.589,3.863c3.507,0,6.799-1.217,8.444-2.074
			L66.503,149.024z"/>
	</g>
	
		<line fill="none" stroke="#39A1F6" stroke-width="8" stroke-linecap="round" stroke-linejoin="round" x1="77.297" y1="111.711" x2="130.238" y2="111.711"/>
	
		<line fill="none" stroke="#39A1F6" stroke-width="8" stroke-linecap="round" stroke-linejoin="round" x1="77.29" y1="125.178" x2="117.219" y2="125.178"/>
</g>
</svg>
