<?xml version="1.0" encoding="utf-8"?>
<!-- Generator: Adobe Illustrator 14.0.0, SVG Export Plug-In . SVG Version: 6.00 Build 43363)  -->
<!DOCTYPE svg PUBLIC "-//W3C//DTD SVG 1.1//EN" "http://www.w3.org/Graphics/SVG/1.1/DTD/svg11.dtd" [
	<!ENTITY ns_extend "http://ns.adobe.com/Extensibility/1.0/">
	<!ENTITY ns_ai "http://ns.adobe.com/AdobeIllustrator/10.0/">
	<!ENTITY ns_graphs "http://ns.adobe.com/Graphs/1.0/">
	<!ENTITY ns_vars "http://ns.adobe.com/Variables/1.0/">
	<!ENTITY ns_imrep "http://ns.adobe.com/ImageReplacement/1.0/">
	<!ENTITY ns_sfw "http://ns.adobe.com/SaveForWeb/1.0/">
	<!ENTITY ns_custom "http://ns.adobe.com/GenericCustomNamespace/1.0/">
	<!ENTITY ns_adobe_xpath "http://ns.adobe.com/XPath/1.0/">
]>
<svg version="1.1" id="Calque_1" xmlns:x="&ns_extend;" xmlns:i="&ns_ai;" xmlns:graph="&ns_graphs;"
	 xmlns="http://www.w3.org/2000/svg" xmlns:xlink="http://www.w3.org/1999/xlink" x="0px" y="0px" width="226.77px"
	 height="226.77px" viewBox="0 0 226.77 226.77" enable-background="new 0 0 226.77 226.77" xml:space="preserve">
<metadata>
	<sfw  xmlns="&ns_sfw;">
		<slices></slices>
		<sliceSourceBounds  height="132.122" width="142.574" x="46.273" y="46.122" bottomLeftOrigin="true"></sliceSourceBounds>
	</sfw>
</metadata>
<g>
	<g>
		<path fill="#39A1F6" d="M185.837,96.138L97.32,49.188c-2.767-1.469-6.198-0.415-7.666,2.352l-30.26,57.048
			c-1.467,2.766-0.414,6.197,2.352,7.664l88.516,46.949c2.768,1.469,6.197,0.415,7.666-2.352l30.258-57.049
			C189.653,101.036,188.603,97.604,185.837,96.138z"/>
		<g>
			<g>
				<path fill="#FFFFFF" d="M97.851,71.566l3.375-5.604c0,0-0.538-0.419-3.119-1.812c-1.535-0.829-3.208-0.689-4.113,0.604
					c-1.182,1.705-2.058,3.445-2.058,3.445L97.851,71.566z"/>
			</g>
			<g>
				<path fill="#FFFFFF" d="M108.533,76.904l5.297,2.986c0,0,0.357-0.334,0.493-0.589c0.676-1.267,3.449-4.556,0.545-6.27
					c-2.526-1.492-2.983-1.859-2.983-1.859l-8.109-4.079L92.303,86.376c0,0-0.773,0.967,0,1.635c0.61,0.527,3.579,2.138,3.579,2.138
					s1.033,0.845,2.029-0.957c0.399-0.723,7.15-12.354,7.15-12.354s0.521-1.26,1.591-0.891
					C107.203,76.137,108.533,76.904,108.533,76.904z"/>
			</g>
			
				<rect x="88.707" y="70.942" transform="matrix(0.866 0.5 -0.5 0.866 49.5086 -36.092)" fill="#FFFFFF" width="6.789" height="6.789"/>
			<path fill="#FFFFFF" d="M92.374,80.438l-3.094,5.766c0,0-0.634-0.25-3.152-1.757c-1.496-0.896-2.334-2.099-1.684-3.539
				c0.862-1.887,2.014-3.835,2.014-3.835L92.374,80.438z"/>
			<g>
				<path fill="#FFFFFF" d="M108.417,76.703l3.166-5.726c0,0,0.631,0.257,3.129,1.796c1.486,0.914,2.202,2.433,1.534,3.864
					c-0.887,1.875-1.956,3.504-1.956,3.504L108.417,76.703z"/>
			</g>
			
				<rect x="105.276" y="79.5" transform="matrix(-0.866 -0.5 0.5 -0.866 161.3335 209.017)" fill="#FFFFFF" width="6.789" height="6.788"/>
			<path fill="#FFFFFF" d="M102.85,85.831l-3.446,5.562c0,0,0.534,0.425,3.098,1.852c1.523,0.849,2.984,0.972,3.906-0.312
				c1.203-1.688,2.314-3.661,2.314-3.661L102.85,85.831z"/>
		</g>
	</g>
	<path fill="#FFFFFF" d="M156.033,100.804H55.837c-3.131,0-5.669,2.538-5.669,5.669v64.577c0,3.131,2.538,5.669,5.669,5.669h100.196
		c3.133,0,5.67-2.538,5.67-5.669v-64.577C161.703,103.342,159.166,100.804,156.033,100.804z"/>
	<path fill="#39A1F6" d="M152.139,104.732H51.942c-3.131,0-5.669,2.538-5.669,5.669v64.577c0,3.131,2.538,5.669,5.669,5.669h100.197
		c3.132,0,5.669-2.538,5.669-5.669v-64.577C157.808,107.271,155.271,104.732,152.139,104.732z M56.646,111.882h90.788
		c1.565,0,2.834,1.27,2.834,2.835v35.75H53.812v-35.75C53.812,113.151,55.081,111.882,56.646,111.882z M147.435,173.498H56.646
		c-1.565,0-2.834-1.27-2.834-2.835v-6.157h96.457v6.157C150.269,172.229,149,173.498,147.435,173.498z"/>
</g>
</svg>
