<?xml version="1.0" encoding="utf-8"?>
<!-- Generator: Adobe Illustrator 14.0.0, SVG Export Plug-In . SVG Version: 6.00 Build 43363)  -->
<!DOCTYPE svg PUBLIC "-//W3C//DTD SVG 1.1//EN" "http://www.w3.org/Graphics/SVG/1.1/DTD/svg11.dtd" [
	<!ENTITY ns_extend "http://ns.adobe.com/Extensibility/1.0/">
	<!ENTITY ns_ai "http://ns.adobe.com/AdobeIllustrator/10.0/">
	<!ENTITY ns_graphs "http://ns.adobe.com/Graphs/1.0/">
	<!ENTITY ns_vars "http://ns.adobe.com/Variables/1.0/">
	<!ENTITY ns_imrep "http://ns.adobe.com/ImageReplacement/1.0/">
	<!ENTITY ns_sfw "http://ns.adobe.com/SaveForWeb/1.0/">
	<!ENTITY ns_custom "http://ns.adobe.com/GenericCustomNamespace/1.0/">
	<!ENTITY ns_adobe_xpath "http://ns.adobe.com/XPath/1.0/">
]>
<svg version="1.1" id="Calque_1" xmlns:x="&ns_extend;" xmlns:i="&ns_ai;" xmlns:graph="&ns_graphs;"
	 xmlns="http://www.w3.org/2000/svg" xmlns:xlink="http://www.w3.org/1999/xlink" x="0px" y="0px" width="226.77px"
	 height="226.77px" viewBox="0 0 226.77 226.77" enable-background="new 0 0 226.77 226.77" xml:space="preserve">
<metadata>
	<sfw  xmlns="&ns_sfw;">
		<slices></slices>
		<sliceSourceBounds  height="157.808" width="150.862" x="37.397" y="33.39" bottomLeftOrigin="true"></sliceSourceBounds>
	</sfw>
</metadata>
<g>
	<polygon fill="#A4D9F7" points="57.26,35.572 37.397,71.854 60.492,71.854 74.732,35.572 	"/>
	<polygon fill="#A4D9F7" points="81.242,35.572 69.325,71.854 92.739,71.854 97.942,35.572 	"/>
	<polygon fill="#A4D9F7" points="104.74,35.572 101.383,71.854 124.377,71.854 121.104,35.686 	"/>
	<polygon fill="#A4D9F7" points="127.635,35.755 133.135,71.854 156.385,71.854 144.51,35.755 	"/>
	<polygon fill="#A4D9F7" points="150.947,35.755 164.947,71.854 188.26,71.854 167.885,35.755 	"/>
	<path fill="#A4D9F7" d="M101.278,80.763c2.175,4.19,6.554,7.055,11.602,7.055c5.08,0,9.482-2.9,11.642-7.134v-5.116h-23.244V80.763
		z"/>
	<path fill="#A4D9F7" d="M37.397,80.763c2.175,4.19,6.554,7.055,11.602,7.055c5.08,0,9.482-2.9,11.642-7.134v-5.116H37.397V80.763z"
		/>
	<path fill="#A4D9F7" d="M69.325,80.763c2.175,4.19,6.554,7.055,11.602,7.055c5.08,0,9.482-2.9,11.642-7.134v-5.116H69.325V80.763z"
		/>
	<path fill="#A4D9F7" d="M164.877,80.763c2.175,4.19,6.555,7.055,11.602,7.055c5.08,0,9.482-2.9,11.643-7.134v-5.116h-23.244V80.763
		z"/>
	<path fill="#A4D9F7" d="M132.924,80.763c2.175,4.19,6.555,7.055,11.602,7.055c5.08,0,9.482-2.9,11.643-7.134v-5.116h-23.244V80.763
		z"/>
	<path fill="#A4D9F7" d="M166.76,92.38c-4.25-1.75-5.75-4.562-5.75-4.562s-6,6.834-16.464,6.834s-16.911-6.834-16.911-6.834
		s-2.625,6.834-14.734,6.834S97.942,86.88,97.942,86.88s-6.933,8.25-16.995,7.75S65.26,87.817,65.26,87.817s-2,2.812-7,4.562
		s-7.5,2.25-7.5,2.25v98.75h124.5V94.651C175.26,94.651,171.01,94.13,166.76,92.38z M156.168,177.88H69.325v-73.5h86.843V177.88z"/>
</g>
<g>
	<g>
		<path fill="#A4D9F7" d="M142.103,132.51l-37.142-19.701c-1.161-0.616-2.601-0.174-3.217,0.987l-12.697,23.938
			c-0.616,1.161-0.174,2.601,0.987,3.216l37.143,19.701c1.16,0.616,2.6,0.174,3.216-0.986l12.696-23.939
			C143.704,134.564,143.264,133.125,142.103,132.51z"/>
		<g>
			<g>
				<path fill="#FFFFFF" d="M105.183,122.199l1.416-2.353c0,0-0.226-0.176-1.309-0.76c-0.644-0.349-1.346-0.29-1.726,0.253
					c-0.496,0.716-0.863,1.446-0.863,1.446L105.183,122.199z"/>
			</g>
			<g>
				<path fill="#FFFFFF" d="M109.666,124.438l2.223,1.253c0,0,0.15-0.14,0.207-0.247c0.284-0.531,1.447-1.911,0.229-2.63
					c-1.061-0.627-1.252-0.78-1.252-0.78l-3.403-1.712l-4.814,8.091c0,0-0.324,0.406,0,0.687c0.256,0.221,1.502,0.896,1.502,0.896
					s0.433,0.354,0.851-0.401c0.167-0.304,3-5.185,3-5.185s0.219-0.528,0.667-0.373
					C109.107,124.116,109.666,124.438,109.666,124.438z"/>
			</g>
			
				<rect x="101.346" y="121.937" transform="matrix(0.8661 0.4998 -0.4998 0.8661 75.4176 -34.8526)" fill="#FFFFFF" width="2.849" height="2.849"/>
			<path fill="#FFFFFF" d="M102.885,125.922l-1.298,2.419c0,0-0.266-0.104-1.323-0.737c-0.627-0.375-0.979-0.88-0.707-1.484
				c0.362-0.792,0.845-1.609,0.845-1.609L102.885,125.922z"/>
			<g>
				<path fill="#FFFFFF" d="M109.617,124.354l1.329-2.402c0,0,0.265,0.107,1.313,0.753c0.624,0.384,0.924,1.021,0.643,1.622
					c-0.372,0.786-0.82,1.47-0.82,1.47L109.617,124.354z"/>
			</g>
			
				<rect x="108.299" y="125.528" transform="matrix(-0.8661 -0.4999 0.4999 -0.8661 141.2895 291.754)" fill="#FFFFFF" width="2.848" height="2.848"/>
			<path fill="#FFFFFF" d="M107.281,128.185l-1.446,2.334c0,0,0.224,0.178,1.3,0.776c0.639,0.356,1.252,0.408,1.639-0.131
				c0.505-0.708,0.971-1.536,0.971-1.536L107.281,128.185z"/>
		</g>
	</g>
	<path fill="#FFFFFF" d="M129.597,134.468H87.553c-1.314,0-2.379,1.064-2.379,2.378v27.098c0,1.314,1.065,2.379,2.379,2.379h42.043
		c1.314,0,2.379-1.064,2.379-2.378v-27.099C131.976,135.532,130.911,134.468,129.597,134.468z"/>
	<path fill="#A4D9F7" d="M127.963,136.116H85.919c-1.314,0-2.379,1.064-2.379,2.379v27.098c0,1.313,1.065,2.378,2.379,2.378
		l42.044,0.001c1.313,0,2.379-1.065,2.379-2.379v-27.098C130.342,137.181,129.276,136.116,127.963,136.116z M87.893,139.116h38.095
		c0.657,0,1.189,0.532,1.189,1.189v15.001H86.704v-15.001C86.704,139.648,87.236,139.116,87.893,139.116z M125.988,164.971H87.893
		c-0.657,0-1.189-0.532-1.189-1.189v-2.583h40.474v2.583C127.178,164.438,126.646,164.971,125.988,164.971z"/>
</g>
</svg>
