<?xml version="1.0" encoding="utf-8"?>
<!-- Generator: Adobe Illustrator 14.0.0, SVG Export Plug-In . SVG Version: 6.00 Build 43363)  -->
<!DOCTYPE svg PUBLIC "-//W3C//DTD SVG 1.1//EN" "http://www.w3.org/Graphics/SVG/1.1/DTD/svg11.dtd" [
	<!ENTITY ns_extend "http://ns.adobe.com/Extensibility/1.0/">
	<!ENTITY ns_ai "http://ns.adobe.com/AdobeIllustrator/10.0/">
	<!ENTITY ns_graphs "http://ns.adobe.com/Graphs/1.0/">
	<!ENTITY ns_vars "http://ns.adobe.com/Variables/1.0/">
	<!ENTITY ns_imrep "http://ns.adobe.com/ImageReplacement/1.0/">
	<!ENTITY ns_sfw "http://ns.adobe.com/SaveForWeb/1.0/">
	<!ENTITY ns_custom "http://ns.adobe.com/GenericCustomNamespace/1.0/">
	<!ENTITY ns_adobe_xpath "http://ns.adobe.com/XPath/1.0/">
]>
<svg version="1.1" id="Calque_1" xmlns:x="&ns_extend;" xmlns:i="&ns_ai;" xmlns:graph="&ns_graphs;"
	 xmlns="http://www.w3.org/2000/svg" xmlns:xlink="http://www.w3.org/1999/xlink" x="0px" y="0px" width="226.77px"
	 height="226.77px" viewBox="0 0 226.77 226.77" enable-background="new 0 0 226.77 226.77" xml:space="preserve">
<metadata>
	<sfw  xmlns="&ns_sfw;">
		<slices></slices>
		<sliceSourceBounds  height="123.303" width="167.188" x="28.984" y="51.354" bottomLeftOrigin="true"></sliceSourceBounds>
	</sfw>
</metadata>
<g>
	<path fill="#A4D9F7" d="M60.067,93.241l126.145,0.387l-0.143,48.711c-0.006,2.133-1.67,3.857-3.717,3.851l-81.256-0.247
		l0.109,9.739l87.27,0.268c4.094,0.013,7.426-3.435,7.438-7.7l0.26-87.988c0.012-4.266-3.299-7.733-7.393-7.746L57.742,52.113
		c-4.096-0.013-7.426,3.436-7.438,7.701l-0.098,33.386L60.067,93.241z M63.865,61.872l118.732,0.364
		c2.047,0.007,3.701,1.741,3.695,3.874l-0.025,8.39L60.123,74.114l0.025-8.39C60.155,63.591,61.819,61.865,63.865,61.872z"/>
	<path fill="#A4D9F7" d="M157.932,105.184c-4.324,0-8.191,1.969-10.809,5.066c-2.617-3.098-6.484-5.066-10.809-5.066
		c-7.883,0-14.271,6.518-14.271,14.558s6.389,14.558,14.271,14.558c4.324,0,8.191-1.969,10.809-5.066
		c2.617,3.098,6.484,5.066,10.809,5.066c7.883,0,14.273-6.518,14.273-14.558S165.815,105.184,157.932,105.184z"/>
</g>
<path fill="#A4D9F7" d="M82.901,136.015c-2.715-0.286-2.729,0-2.729,0l0.223-11.939c0-11.071-9.023-20.045-20.156-20.045
	s-20.156,8.974-20.156,20.045v10.861c-0.547,0-1.457,0-2.912,0c-4.703,0-8.186,5.376-8.186,9.407c0,1.894,0,22.62,0,22.62
	s0.43,8.451,8.451,8.451s38.256,0,44.975,0s7.25-4.703,7.25-7.249s0-25.391,0-25.391C88.291,140.48,89.66,136.729,82.901,136.015z
	 M65.389,160.308v3.969h-10.75v-3.966c-2-1.587-3.287-4.033-3.287-6.785c0-4.783,3.877-8.661,8.66-8.661s8.662,3.878,8.662,8.661
	C68.674,156.276,67.389,158.721,65.389,160.308z M71.389,134.937H48.637v-10.079c0-6.249,5.092-11.313,11.377-11.313
	c6.283,0,11.375,5.064,11.375,11.313V134.937z"/>
</svg>
