<?xml version="1.0" encoding="utf-8"?>
<!-- Generator: Adobe Illustrator 14.0.0, SVG Export Plug-In . SVG Version: 6.00 Build 43363)  -->
<!DOCTYPE svg PUBLIC "-//W3C//DTD SVG 1.1//EN" "http://www.w3.org/Graphics/SVG/1.1/DTD/svg11.dtd" [
	<!ENTITY ns_extend "http://ns.adobe.com/Extensibility/1.0/">
	<!ENTITY ns_ai "http://ns.adobe.com/AdobeIllustrator/10.0/">
	<!ENTITY ns_graphs "http://ns.adobe.com/Graphs/1.0/">
	<!ENTITY ns_vars "http://ns.adobe.com/Variables/1.0/">
	<!ENTITY ns_imrep "http://ns.adobe.com/ImageReplacement/1.0/">
	<!ENTITY ns_sfw "http://ns.adobe.com/SaveForWeb/1.0/">
	<!ENTITY ns_custom "http://ns.adobe.com/GenericCustomNamespace/1.0/">
	<!ENTITY ns_adobe_xpath "http://ns.adobe.com/XPath/1.0/">
]>
<svg version="1.1" id="Calque_1" xmlns:x="&ns_extend;" xmlns:i="&ns_ai;" xmlns:graph="&ns_graphs;"
	 xmlns="http://www.w3.org/2000/svg" xmlns:xlink="http://www.w3.org/1999/xlink" x="0px" y="0px" width="226.77px"
	 height="226.77px" viewBox="0 0 226.77 226.77" enable-background="new 0 0 226.77 226.77" xml:space="preserve">
<metadata>
	<sfw  xmlns="&ns_sfw;">
		<slices></slices>
		<sliceSourceBounds  height="123.303" width="167.188" x="28.967" y="51.332" bottomLeftOrigin="true"></sliceSourceBounds>
	</sfw>
</metadata>
<g>
	<path fill="#39A1F6" d="M60.049,93.264l126.146,0.387l-0.143,48.711c-0.006,2.133-1.67,3.857-3.718,3.851l-81.255-0.247
		l0.108,9.739l87.27,0.268c4.094,0.013,7.426-3.435,7.438-7.7l0.26-87.988c0.013-4.266-3.298-7.733-7.393-7.746L57.725,52.135
		c-4.095-0.013-7.425,3.436-7.437,7.701L50.19,93.222L60.049,93.264z M63.849,61.895l118.731,0.364
		c2.048,0.007,3.702,1.741,3.695,3.874l-0.024,8.39L60.106,74.136l0.025-8.39C60.137,63.614,61.802,61.888,63.849,61.895z"/>
	<path fill="#39A1F6" d="M157.914,105.206c-4.324,0-8.19,1.969-10.808,5.066c-2.618-3.098-6.484-5.066-10.809-5.066
		c-7.883,0-14.272,6.518-14.272,14.558s6.39,14.558,14.272,14.558c4.324,0,8.19-1.969,10.809-5.066
		c2.617,3.098,6.483,5.066,10.808,5.066c7.883,0,14.273-6.518,14.273-14.558S165.797,105.206,157.914,105.206z"/>
</g>
<path fill="#39A1F6" d="M82.883,136.037c-2.714-0.286-2.729,0-2.729,0l0.224-11.939c0-11.071-9.024-20.045-20.157-20.045
	c-11.132,0-20.156,8.974-20.156,20.045v10.861c-0.546,0-1.456,0-2.912,0c-4.703,0-8.186,5.376-8.186,9.407c0,1.894,0,22.62,0,22.62
	s0.43,8.451,8.451,8.451s38.257,0,44.976,0s7.249-4.703,7.249-7.249s0-25.391,0-25.391
	C88.274,140.502,89.643,136.751,82.883,136.037z M65.372,160.33v3.969h-10.75v-3.966c-2.001-1.587-3.288-4.033-3.288-6.785
	c0-4.783,3.878-8.661,8.661-8.661s8.661,3.878,8.661,8.661C68.656,156.298,67.371,158.743,65.372,160.33z M71.371,134.959H48.619
	V124.88c0-6.249,5.092-11.313,11.377-11.313c6.283,0,11.375,5.064,11.375,11.313V134.959z"/>
</svg>
