<?xml version="1.0" encoding="utf-8"?>
<!-- Generator: Adobe Illustrator 14.0.0, SVG Export Plug-In . SVG Version: 6.00 Build 43363)  -->
<!DOCTYPE svg PUBLIC "-//W3C//DTD SVG 1.1//EN" "http://www.w3.org/Graphics/SVG/1.1/DTD/svg11.dtd" [
	<!ENTITY ns_extend "http://ns.adobe.com/Extensibility/1.0/">
	<!ENTITY ns_ai "http://ns.adobe.com/AdobeIllustrator/10.0/">
	<!ENTITY ns_graphs "http://ns.adobe.com/Graphs/1.0/">
	<!ENTITY ns_vars "http://ns.adobe.com/Variables/1.0/">
	<!ENTITY ns_imrep "http://ns.adobe.com/ImageReplacement/1.0/">
	<!ENTITY ns_sfw "http://ns.adobe.com/SaveForWeb/1.0/">
	<!ENTITY ns_custom "http://ns.adobe.com/GenericCustomNamespace/1.0/">
	<!ENTITY ns_adobe_xpath "http://ns.adobe.com/XPath/1.0/">
]>
<svg version="1.1" id="Calque_1" xmlns:x="&ns_extend;" xmlns:i="&ns_ai;" xmlns:graph="&ns_graphs;"
	 xmlns="http://www.w3.org/2000/svg" xmlns:xlink="http://www.w3.org/1999/xlink" x="0px" y="0px" width="226.77px"
	 height="226.77px" viewBox="0 0 226.77 226.77" enable-background="new 0 0 226.77 226.77" xml:space="preserve">
<metadata>
	<sfw  xmlns="&ns_sfw;">
		<slices></slices>
		<sliceSourceBounds  height="116.213" width="137.048" x="44.849" y="53.64" bottomLeftOrigin="true"></sliceSourceBounds>
	</sfw>
</metadata>
<g>
	<path fill="#39A1F6" d="M66.41,68.563c0,0-5.604-0.576-15.858-0.496c-3.853,0.03-5.791-3.98-5.699-5.451
		c0.248-3.965,4.708-5.699,4.708-5.699h22.054c0,0,3.965,0.743,4.708,3.964s1.238,6.195,1.238,6.195l99.363,0.248
		c0,0,3.732-0.248,4.592,3.964s0,45.593,0,45.593s0.116,2.478-3.353,3.717s-86.479,10.407-86.479,10.407s2.342,2.453,1.487,5.947
		c-0.53,2.168-1.982,4.212-1.982,4.212l77.558,1.239c0,0,3.222,0.496,2.974,4.46s-3.717,5.946-3.717,5.946H82.021
		c0,0-3.221-0.247-4.708-2.725c-1.487-2.479,4.46-16.4,4.46-16.4L66.41,68.563z"/>
	<circle fill="#39A1F6" cx="86.729" cy="162.971" r="10.16"/>
	<circle fill="#39A1F6" cx="160.817" cy="162.971" r="10.16"/>
</g>
</svg>
