<?xml version="1.0" encoding="utf-8"?>
<!-- Generator: Adobe Illustrator 14.0.0, SVG Export Plug-In . SVG Version: 6.00 Build 43363)  -->
<!DOCTYPE svg PUBLIC "-//W3C//DTD SVG 1.1//EN" "http://www.w3.org/Graphics/SVG/1.1/DTD/svg11.dtd" [
	<!ENTITY ns_extend "http://ns.adobe.com/Extensibility/1.0/">
	<!ENTITY ns_ai "http://ns.adobe.com/AdobeIllustrator/10.0/">
	<!ENTITY ns_graphs "http://ns.adobe.com/Graphs/1.0/">
	<!ENTITY ns_vars "http://ns.adobe.com/Variables/1.0/">
	<!ENTITY ns_imrep "http://ns.adobe.com/ImageReplacement/1.0/">
	<!ENTITY ns_sfw "http://ns.adobe.com/SaveForWeb/1.0/">
	<!ENTITY ns_custom "http://ns.adobe.com/GenericCustomNamespace/1.0/">
	<!ENTITY ns_adobe_xpath "http://ns.adobe.com/XPath/1.0/">
]>
<svg version="1.1" id="Calque_1" xmlns:x="&ns_extend;" xmlns:i="&ns_ai;" xmlns:graph="&ns_graphs;"
	 xmlns="http://www.w3.org/2000/svg" xmlns:xlink="http://www.w3.org/1999/xlink" x="0px" y="0px" width="226.77px"
	 height="226.77px" viewBox="0 0 226.77 226.77" enable-background="new 0 0 226.77 226.77" xml:space="preserve">
<metadata>
	<sfw  xmlns="&ns_sfw;">
		<slices></slices>
		<sliceSourceBounds  x="246" y="360.334" width="104.81" height="121.553" bottomLeftOrigin="true"></sliceSourceBounds>
	</sfw>
</metadata>
<g>
	<path fill="#39A1F6" d="M166.555,75.318c0.012-4.266-3.299-7.733-7.393-7.746c0,0-89.981-0.279-89.981-0.279
		c-4.095-0.013-7.425,3.436-7.437,7.701l0.136,83.601h0.021l-0.021,7.376c-0.013,4.266,3.298,7.733,7.393,7.746l8.265,0.019
		l0.001,0.128l36.954-0.091l44.526,0.224c4.094,0.012,7.424-3.436,7.436-7.701l0.1-78.599h-0.021L166.555,75.318z M156.672,113.684
		l-0.033,40.312l-0.025,6.389c-0.006,2.133-1.672,3.857-3.719,3.852l-38.401-0.197l-27.688,0.1v-0.119l-11.351-0.024
		c-2.048-0.007-3.702-1.741-3.695-3.874l0.024-6.389l0.057-19.128l-0.078,0.003l0.034-40.312l0.025-1.386
		c0.006-2.133,1.671-3.858,3.718-3.852l77.44,0.241c2.047,0.007,3.701,1.741,3.695,3.874l-0.025,1.386l-0.057,19.128
		L156.672,113.684z"/>
</g>
<polyline fill="none" stroke="#39A1F6" stroke-width="12" stroke-linecap="round" points="92.745,121.692 109.245,141.78 
	137.494,108.192 "/>
<g>
	<path fill="#39A1F6" stroke="#FFFFFF" stroke-width="2" d="M88.245,84.692c-3.59,0-6.5-2.91-6.5-6.5V59.943
		c0-3.59,2.91-6.5,6.5-6.5s6.5,2.91,6.5,6.5v18.249C94.745,81.781,91.834,84.692,88.245,84.692L88.245,84.692z"/>
</g>
<g>
	<path fill="#39A1F6" stroke="#FFFFFF" stroke-width="2" d="M141.996,84.692c-3.59,0-6.5-2.91-6.5-6.5V59.943
		c0-3.59,2.91-6.5,6.5-6.5s6.5,2.91,6.5,6.5v18.249C148.496,81.781,145.586,84.692,141.996,84.692L141.996,84.692z"/>
</g>
</svg>
