<?xml version="1.0" encoding="utf-8"?>
<!-- Generator: Adobe Illustrator 14.0.0, SVG Export Plug-In . SVG Version: 6.00 Build 43363)  -->
<!DOCTYPE svg PUBLIC "-//W3C//DTD SVG 1.1//EN" "http://www.w3.org/Graphics/SVG/1.1/DTD/svg11.dtd" [
	<!ENTITY ns_extend "http://ns.adobe.com/Extensibility/1.0/">
	<!ENTITY ns_ai "http://ns.adobe.com/AdobeIllustrator/10.0/">
	<!ENTITY ns_graphs "http://ns.adobe.com/Graphs/1.0/">
	<!ENTITY ns_vars "http://ns.adobe.com/Variables/1.0/">
	<!ENTITY ns_imrep "http://ns.adobe.com/ImageReplacement/1.0/">
	<!ENTITY ns_sfw "http://ns.adobe.com/SaveForWeb/1.0/">
	<!ENTITY ns_custom "http://ns.adobe.com/GenericCustomNamespace/1.0/">
	<!ENTITY ns_adobe_xpath "http://ns.adobe.com/XPath/1.0/">
]>
<svg version="1.1" id="Calque_1" xmlns:x="&ns_extend;" xmlns:i="&ns_ai;" xmlns:graph="&ns_graphs;"
	 xmlns="http://www.w3.org/2000/svg" xmlns:xlink="http://www.w3.org/1999/xlink" x="0px" y="0px" width="226.77px"
	 height="226.77px" viewBox="0 0 226.77 226.77" enable-background="new 0 0 226.77 226.77" xml:space="preserve">
<metadata>
	<sfw  xmlns="&ns_sfw;">
		<slices></slices>
		<sliceSourceBounds  x="53.2" y="47.739" width="103.207" height="133.119" bottomLeftOrigin="true"></sliceSourceBounds>
	</sfw>
</metadata>
<g>
	<path fill="#A4D9F7" d="M156.407,171.503c-6.735,3.763-18.225,7.527-30.902,7.527c-19.612,0-37.242-7.924-48.335-22.583
		c-5.349-6.734-9.31-15.252-11.093-25.752H53.2v-14.064h10.896c0-0.991,0-2.18,0-3.367c0-1.981,0.198-3.963,0.198-5.944H53.2V93.255
		h13.273c2.376-10.696,7.329-19.809,13.668-26.94c11.092-12.875,26.94-20.403,45.759-20.403c11.886,0,22.584,2.773,29.715,5.942
		l-5.547,22.583c-5.151-2.18-13.47-4.755-22.187-4.755c-9.311,0-18.027,3.367-24.167,10.697c-2.971,3.169-4.953,7.725-6.339,12.875
		h49.326v14.065H94.404c-0.198,1.981-0.198,3.962-0.198,6.141c0,1.189,0,2.179,0,3.17h52.496v14.064H96.979
		c1.387,5.943,3.565,10.5,6.537,13.867c6.339,7.13,15.649,10.103,25.555,10.103c9.112,0,18.422-2.973,22.582-5.151L156.407,171.503z
		"/>
</g>
</svg>
