<?xml version="1.0" encoding="utf-8"?>
<!-- Generator: Adobe Illustrator 14.0.0, SVG Export Plug-In . SVG Version: 6.00 Build 43363)  -->
<!DOCTYPE svg PUBLIC "-//W3C//DTD SVG 1.1//EN" "http://www.w3.org/Graphics/SVG/1.1/DTD/svg11.dtd" [
	<!ENTITY ns_extend "http://ns.adobe.com/Extensibility/1.0/">
	<!ENTITY ns_ai "http://ns.adobe.com/AdobeIllustrator/10.0/">
	<!ENTITY ns_graphs "http://ns.adobe.com/Graphs/1.0/">
	<!ENTITY ns_vars "http://ns.adobe.com/Variables/1.0/">
	<!ENTITY ns_imrep "http://ns.adobe.com/ImageReplacement/1.0/">
	<!ENTITY ns_sfw "http://ns.adobe.com/SaveForWeb/1.0/">
	<!ENTITY ns_custom "http://ns.adobe.com/GenericCustomNamespace/1.0/">
	<!ENTITY ns_adobe_xpath "http://ns.adobe.com/XPath/1.0/">
]>
<svg version="1.1" id="Calque_1" xmlns:x="&ns_extend;" xmlns:i="&ns_ai;" xmlns:graph="&ns_graphs;"
	 xmlns="http://www.w3.org/2000/svg" xmlns:xlink="http://www.w3.org/1999/xlink" x="0px" y="0px" width="226.77px"
	 height="226.77px" viewBox="0 0 226.77 226.77" enable-background="new 0 0 226.77 226.77" xml:space="preserve">
<metadata>
	<sfw  xmlns="&ns_sfw;">
		<slices></slices>
		<sliceSourceBounds  x="215.245" y="368.591" width="153.895" height="94.771" bottomLeftOrigin="true"></sliceSourceBounds>
	</sfw>
</metadata>
<g>
	<g>
		<path fill="#39A1F6" stroke="#39A1F6" stroke-width="1.9305" d="M101.861,159.248c-4.559,2.763-12.296,5.525-21.138,5.525
			c-12.571,0-23.899-4.974-31.222-14.23c-4.421-5.111-7.462-12.02-8.705-20.446h-8.842v-8.565h7.737c0-0.691,0-1.381,0-2.072
			c0-1.797,0.138-3.593,0.275-5.112h-8.012v-8.566h9.257c1.657-8.565,5.388-15.612,10.362-21
			c7.459-8.151,17.545-12.849,29.841-12.849c8.29,0,15.197,2.073,19.756,4.284l-3.454,12.709c-3.592-1.796-9.257-3.592-15.475-3.592
			c-6.908,0-12.985,2.487-17.544,7.599c-2.901,3.039-4.975,7.598-6.08,12.848h36.197v8.566H56.961
			c-0.278,1.52-0.278,3.178-0.278,4.974c0,0.83,0,1.382,0,2.211h38.132v8.565H58.204c0.967,5.803,3.041,10.361,5.942,13.401
			c4.696,5.111,11.329,7.46,18.511,7.46c6.77,0,13.125-2.349,16.302-4.007L101.861,159.248z"/>
	</g>
	<g>
		<path fill="#39A1F6" d="M124.706,72.49v15.54h15.059V72.49h9.119v40.438h-9.119V96.009h-15.059v16.919h-9.12V72.49H124.706z"/>
		<path fill="#39A1F6" d="M164.726,80.169h-10.92v-7.68h31.078v7.68h-11.039v32.759h-9.119V80.169z"/>
	</g>
</g>
</svg>
