<?xml version="1.0" encoding="utf-8"?>
<!-- Generator: Adobe Illustrator 14.0.0, SVG Export Plug-In . SVG Version: 6.00 Build 43363)  -->
<!DOCTYPE svg PUBLIC "-//W3C//DTD SVG 1.1//EN" "http://www.w3.org/Graphics/SVG/1.1/DTD/svg11.dtd">
<svg version="1.1" id="Calque_1" xmlns="http://www.w3.org/2000/svg" xmlns:xlink="http://www.w3.org/1999/xlink" x="0px" y="0px"
	 width="94.229px" height="91.896px" viewBox="0 0 94.229 91.896" enable-background="new 0 0 94.229 91.896" xml:space="preserve">
<path fill="none" stroke="#FFFFFF" stroke-width="5" d="M84.937,60.917c0,1.422-0.813,2.558-2.433,3.688L48.972,86.288
	c-1.433,0-1.466-0.815-1.466-2.237l1.726-43.502c0-1.422,1.162-2.575,2.594-2.575l30.783-16.152c1.432,0,2.445,0.129,2.445,1.551
	L84.937,60.917z"/>
<path fill="none" stroke="#FFFFFF" stroke-width="5" d="M51.033,37.226c-0.531,0.917-1.845,1.15-2.937,0.52l-36.625-14.49
	c-1.089-0.63-2.973-0.594-2.441-1.511L43.509,6.562c1.396-0.698,4.491-0.748,5.58-0.116L83.89,20.93
	c1.09,0.631-2.257,0.246-2.789,1.163L51.033,37.226z"/>
<path fill="#FFFFFF" stroke="#FFFFFF" stroke-width="5" d="M48.088,81.725c0,2.285,0.978,4.069-0.581,4.069l-36.526-19.55
	c-1.765-0.723-2.82-1.854-2.82-4.14L8.1,23.836c0-2.285,1.278-1.511,1.881-1.392L46.31,36.708c1.546,0.961,2.821,1.853,2.821,4.138
	L48.088,81.725z"/>
</svg>
