<?xml version="1.0" encoding="utf-8"?>
<!-- Generator: Adobe Illustrator 14.0.0, SVG Export Plug-In . SVG Version: 6.00 Build 43363)  -->
<!DOCTYPE svg PUBLIC "-//W3C//DTD SVG 1.1//EN" "http://www.w3.org/Graphics/SVG/1.1/DTD/svg11.dtd">
<svg version="1.1" id="Calque_1" xmlns="http://www.w3.org/2000/svg" xmlns:xlink="http://www.w3.org/1999/xlink" x="0px" y="0px"
	 width="94.229px" height="91.897px" viewBox="0 0 94.229 91.897" enable-background="new 0 0 94.229 91.897" xml:space="preserve">
<g>
	<path fill="none" stroke="#489DE0" stroke-width="5" d="M84.937,60.917c0,1.422-0.814,2.558-2.433,3.688L48.971,86.288
		c-1.432,0-1.465-0.815-1.465-2.237l1.725-43.502c0-1.422,1.162-2.575,2.594-2.575l30.783-16.152c1.432,0,2.445,0.128,2.445,1.55
		L84.937,60.917z"/>
	<g>
		<path fill="none" stroke="#489DE0" stroke-width="5" d="M51.033,37.226c-0.531,0.917-1.844,1.15-2.936,0.519l-36.626-14.49
			c-1.089-0.63-2.973-0.594-2.441-1.511L43.509,6.562c1.396-0.698,4.491-0.748,5.58-0.116L83.89,20.93
			c1.089,0.631-2.257,0.246-2.789,1.163L51.033,37.226z"/>
		<path fill="#489DE0" stroke="#489DE0" stroke-width="5" d="M48.088,81.725c0,2.285,0.977,4.069-0.581,4.069L10.981,66.244
			c-1.765-0.722-2.82-1.854-2.82-4.139L8.1,23.836c0-2.285,1.278-1.511,1.881-1.391l36.329,14.263
			c1.546,0.961,2.821,1.853,2.821,4.138L48.088,81.725z"/>
	</g>
</g>
</svg>
