<?xml version="1.0" encoding="utf-8"?>
<!-- Generator: Adobe Illustrator 14.0.0, SVG Export Plug-In . SVG Version: 6.00 Build 43363)  -->
<!DOCTYPE svg PUBLIC "-//W3C//DTD SVG 1.1//EN" "http://www.w3.org/Graphics/SVG/1.1/DTD/svg11.dtd">
<svg version="1.1" id="Calque_1" xmlns="http://www.w3.org/2000/svg" xmlns:xlink="http://www.w3.org/1999/xlink" x="0px" y="0px"
	 width="94.229px" height="91.897px" viewBox="0 0 94.229 91.897" enable-background="new 0 0 94.229 91.897" xml:space="preserve">
<path fill="none" stroke="#E48507" stroke-width="5" d="M77.295,32.777c0,0,0,49.157,0,49.157c0,1.565-1.269,2.834-2.834,2.834
	H18.69c-1.565,0-2.834-1.269-2.834-2.834V12.71c0-1.565,1.269-2.834,2.834-2.834h36.571c0.266-0.005,4.406-0.036,5.828,1.261
	s12.678,12.959,14.139,14.42c0.716,0.716,2.017,2.58,2.017,3.938C77.245,30.198,77.295,32.777,77.295,32.777z"/>
<path fill="none" stroke="#E78624" stroke-width="6" d="M55.188,10.146c0,0-0.088,19.644-0.037,20.462
	c0.071,1.131,0.495,2.264,1.485,2.299s20.093-0.094,20.093-0.094"/>
<g>
	<path fill="#E4840C" d="M49.175,44.394c-1.906,0-3.477,0.551-4.711,1.652s-2.031,2.699-2.391,4.793h9.445v4.125h-9.797l-0.047,0.82
		v1.102l0.047,0.773h8.32v4.172H42.12c0.797,3.797,3.305,5.695,7.523,5.695c2.234,0,4.383-0.445,6.445-1.336v6
		c-1.812,0.922-4.102,1.383-6.867,1.383c-3.828,0-6.977-1.039-9.445-3.117s-4.023-4.953-4.664-8.625h-3.211V57.66h2.766
		c-0.062-0.359-0.094-0.844-0.094-1.453l0.047-1.242h-2.719v-4.125h3.117c0.578-3.781,2.133-6.77,4.664-8.965
		s5.695-3.293,9.492-3.293c2.938,0,5.688,0.641,8.25,1.922l-2.297,5.438c-1.078-0.484-2.086-0.863-3.023-1.137
		S50.191,44.394,49.175,44.394z"/>
</g>
</svg>
