<?xml version="1.0" encoding="utf-8"?>
<!-- Generator: Adobe Illustrator 14.0.0, SVG Export Plug-In . SVG Version: 6.00 Build 43363)  -->
<!DOCTYPE svg PUBLIC "-//W3C//DTD SVG 1.1//EN" "http://www.w3.org/Graphics/SVG/1.1/DTD/svg11.dtd">
<svg version="1.1" id="Calque_1" xmlns="http://www.w3.org/2000/svg" xmlns:xlink="http://www.w3.org/1999/xlink" x="0px" y="0px"
	 width="113.104px" height="95.25px" viewBox="0 0 113.104 95.25" enable-background="new 0 0 113.104 95.25" xml:space="preserve">
<polyline fill="none" stroke="#FFFFFF" stroke-width="8.4777" stroke-linecap="round" stroke-linejoin="round" points="
	7.468,15.634 22.284,15.634 37.473,63.792 86.69,63.792 106.354,21.639 "/>
<circle fill="#FFFFFF" cx="51.25" cy="78.746" r="6.357"/>
<circle fill="#FFFFFF" cx="74.21" cy="78.746" r="6.357"/>
<path fill="#FFFFFF" d="M63.2,12.16c-10.405,0-18.839,8.434-18.839,18.839c0,10.404,8.435,18.839,18.839,18.839
	c10.404,0,18.839-8.435,18.839-18.839C82.039,20.594,73.604,12.16,63.2,12.16z M75.124,26.173L61.643,39.892
	c-0.44,0.448-1.041,0.702-1.67,0.705c-0.003,0-0.007,0-0.01,0c-0.624,0-1.224-0.248-1.665-0.69l-6.3-6.3
	c-0.92-0.919-0.92-2.411,0-3.33c0.92-0.92,2.411-0.92,3.33,0l4.62,4.621l11.816-12.024c0.911-0.928,2.402-0.942,3.33-0.029
	C76.022,23.755,76.035,25.246,75.124,26.173z"/>
</svg>
