<?xml version="1.0" encoding="utf-8"?>
<!-- Generator: Adobe Illustrator 14.0.0, SVG Export Plug-In . SVG Version: 6.00 Build 43363)  -->
<!DOCTYPE svg PUBLIC "-//W3C//DTD SVG 1.1//EN" "http://www.w3.org/Graphics/SVG/1.1/DTD/svg11.dtd">
<svg version="1.1" id="Calque_1" xmlns="http://www.w3.org/2000/svg" xmlns:xlink="http://www.w3.org/1999/xlink" x="0px" y="0px"
	 width="113.104px" height="95.25px" viewBox="0 0 113.104 95.25" enable-background="new 0 0 113.104 95.25" xml:space="preserve">
<path fill="#F4B941" stroke="#F4B941" stroke-width="5" d="M72.885,71.957c0,1.565-1.27,2.835-2.835,2.835H13.553
	c-1.565,0-2.834-1.27-2.834-2.835V14.793c0-1.565,1.269-2.834,2.834-2.834H70.05c1.565,0,2.835,1.269,2.835,2.834V71.957z"/>
<path fill="#F4B941" stroke="#F4B941" stroke-width="5" d="M95.705,43.379c1.182,1.475,1.659,2.986,1.659,2.986
	c0.112,1.141,0.021,1.093,0.021,1.093l0.169,23.832c0,1.565-1.27,2.835-2.835,2.835l-23.998-0.667c-1.565,0-2.835-1.27-2.835-2.835
	V34.126c0-1.565,1.27-2.834,2.835-2.834h12.83c1.565,0,3.334,1.833,5.001,3.5C88.552,34.791,94.523,41.905,95.705,43.379z"/>
<line fill="none" stroke="#F4B941" stroke-width="5" stroke-linecap="round" stroke-linejoin="round" x1="12.718" y1="73.958" x2="100.385" y2="73.958"/>
<polygon fill="#FFFFFF" points="75.219,36.125 75.219,49.958 92.719,49.958 92.719,46.292 84.219,36.292 "/>
<circle fill="#FFFFFF" stroke="#F4B941" stroke-width="6" stroke-linecap="round" stroke-linejoin="round" cx="35.385" cy="75.292" r="10.5"/>
<circle fill="#FFFFFF" stroke="#F4B941" stroke-width="6" stroke-linecap="round" stroke-linejoin="round" cx="80.052" cy="75.292" r="10.5"/>
</svg>
