<?xml version="1.0" encoding="utf-8"?>
<!-- Generator: Adobe Illustrator 14.0.0, SVG Export Plug-In . SVG Version: 6.00 Build 43363)  -->
<!DOCTYPE svg PUBLIC "-//W3C//DTD SVG 1.1//EN" "http://www.w3.org/Graphics/SVG/1.1/DTD/svg11.dtd">
<svg version="1.1" id="Calque_1" xmlns="http://www.w3.org/2000/svg" xmlns:xlink="http://www.w3.org/1999/xlink" x="0px" y="0px"
	 width="113.104px" height="95.25px" viewBox="0 0 113.104 95.25" enable-background="new 0 0 113.104 95.25" xml:space="preserve">
<line fill="none" stroke="#FFFFFF" stroke-width="5" stroke-linecap="round" stroke-linejoin="round" x1="92.206" y1="74.794" x2="100.598" y2="74.794"/>
<line fill="none" stroke="#FFFFFF" stroke-width="5" stroke-linecap="round" stroke-linejoin="round" x1="45.886" y1="74.794" x2="69.903" y2="74.794"/>
<line fill="none" stroke="#FFFFFF" stroke-width="5" stroke-linecap="round" stroke-linejoin="round" x1="12.931" y1="74.794" x2="23.719" y2="74.794"/>
<path fill="#FFFFFF" stroke="#FFFFFF" stroke-width="5" d="M69.883,12.46H13.386c-1.565,0-2.834,1.269-2.834,2.834v57.164
	c0,1.564,1.269,2.835,2.834,2.835h11.357c0.263-5.565,4.845-10,10.475-10c5.63,0,10.212,4.435,10.475,10h18.859
	c1.565,0,8.166-10.603,8.166-12.167V15.294C72.718,13.729,71.448,12.46,69.883,12.46z"/>
<circle fill="none" stroke="#FFFFFF" stroke-width="6" stroke-linecap="round" stroke-linejoin="round" cx="35.385" cy="75.292" r="10.5"/>
<circle fill="none" stroke="#FFFFFF" stroke-width="6" stroke-linecap="round" stroke-linejoin="round" cx="80.052" cy="75.292" r="10.5"/>
<g>
	<polygon fill="none" points="75.22,36.125 75.22,49.958 92.72,49.958 92.72,46.292 84.22,36.292 	"/>
	<path fill="#FFFFFF" d="M97.385,47.458c0,0,0.091,0.048-0.021-1.093c0,0-0.477-1.511-1.659-2.986
		c-1.183-1.474-7.153-8.588-7.153-8.587c-1.667-1.667-3.436-3.5-5.001-3.5H70.722c-1.566,0-2.836,1.269-2.836,2.834v36.497
		c0,1.222,0.778,2.255,1.864,2.653c0.94-4.834,5.193-8.484,10.302-8.484c5.363,0,9.778,4.023,10.413,9.215l4.255,0.118
		c1.564,0,2.834-1.27,2.834-2.835L97.385,47.458z M92.72,49.958h-17.5V36.125l9,0.167l8.5,10V49.958z"/>
</g>
</svg>
