<?xml version="1.0" encoding="utf-8"?>
<!-- Generator: Adobe Illustrator 14.0.0, SVG Export Plug-In . SVG Version: 6.00 Build 43363)  -->
<!DOCTYPE svg PUBLIC "-//W3C//DTD SVG 1.1//EN" "http://www.w3.org/Graphics/SVG/1.1/DTD/svg11.dtd">
<svg version="1.1" id="Calque_1" xmlns="http://www.w3.org/2000/svg" xmlns:xlink="http://www.w3.org/1999/xlink" x="0px" y="0px"
	 width="94.229px" height="91.896px" viewBox="0 0 94.229 91.896" enable-background="new 0 0 94.229 91.896" xml:space="preserve">
<g>
	<path fill="#FFFFFF" stroke="#FFFFFF" stroke-width="6" d="M84.943,26.12v49.157c0,1.564-1.27,2.834-2.834,2.834H26.338
		c-1.564,0-2.834-1.27-2.834-2.834V6.053c0-1.565,1.27-2.834,2.834-2.834h36.571c0.266-0.006,4.405-0.036,5.827,1.261
		c1.423,1.297,12.678,12.959,14.139,14.42c0.716,0.716,2.018,2.58,2.018,3.938C84.893,23.541,84.943,26.12,84.943,26.12z"/>
	<path fill="#FFFFFF" stroke="#FFFFFF" stroke-width="6" d="M62.835,3.489c0,0-0.088,19.645-0.037,20.462
		c0.071,1.131,0.495,2.265,1.485,2.3c0.989,0.034,20.093-0.095,20.093-0.095"/>
</g>
<g>
	<path fill="#FFFFFF" stroke="#FFFFFF" stroke-width="6" d="M71.45,36.905v49.157c0,1.564-1.271,2.834-2.834,2.834H12.843
		c-1.564,0-2.834-1.27-2.834-2.834V16.839c0-1.564,1.27-2.834,2.834-2.834h36.572c0.267-0.005,4.408-0.035,5.83,1.262
		s12.678,12.959,14.139,14.42c0.716,0.716,2.018,2.58,2.018,3.938C71.401,34.326,71.45,36.905,71.45,36.905z"/>
	<path fill="none" stroke="#FFFFFF" stroke-width="6" d="M49.341,14.274c0,0-0.088,19.645-0.037,20.462
		c0.071,1.131,0.496,2.265,1.486,2.3c0.99,0.034,20.094-0.095,20.094-0.095"/>
	
		<line fill="none" stroke="#FFFFFF" stroke-width="6" stroke-linecap="round" stroke-linejoin="round" x1="26.633" y1="48.483" x2="55.635" y2="48.483"/>
	
		<line fill="none" stroke="#FFFFFF" stroke-width="6" stroke-linecap="round" stroke-linejoin="round" x1="26.633" y1="59.108" x2="55.635" y2="59.108"/>
	
		<line fill="none" stroke="#FFFFFF" stroke-width="6" stroke-linecap="round" stroke-linejoin="round" x1="26.633" y1="70.608" x2="55.635" y2="70.608"/>
</g>
</svg>
