<?xml version="1.0" encoding="utf-8"?>
<!-- Generator: Adobe Illustrator 14.0.0, SVG Export Plug-In . SVG Version: 6.00 Build 43363)  -->
<!DOCTYPE svg PUBLIC "-//W3C//DTD SVG 1.1//EN" "http://www.w3.org/Graphics/SVG/1.1/DTD/svg11.dtd">
<svg version="1.1" id="Calque_1" xmlns="http://www.w3.org/2000/svg" xmlns:xlink="http://www.w3.org/1999/xlink" x="0px" y="0px"
	 width="94.229px" height="91.896px" viewBox="0 0 94.229 91.896" enable-background="new 0 0 94.229 91.896" xml:space="preserve">
<path fill="none" stroke="#FFFFFF" stroke-width="6" d="M77.295,32.777v49.157c0,1.565-1.269,2.834-2.834,2.834H18.69
	c-1.565,0-2.834-1.269-2.834-2.834V12.71c0-1.565,1.269-2.834,2.834-2.834h36.571c0.266-0.005,4.406-0.036,5.828,1.261
	s12.678,12.959,14.139,14.42c0.717,0.716,2.018,2.58,2.018,3.938C77.245,30.198,77.295,32.777,77.295,32.777z"/>
<path fill="none" stroke="#FFFFFF" stroke-width="6" d="M55.188,10.146c0,0-0.088,19.645-0.037,20.462
	c0.07,1.131,0.494,2.265,1.484,2.3c0.99,0.034,20.094-0.095,20.094-0.095"/>
<line fill="none" stroke="#FFFFFF" stroke-width="6" stroke-linecap="round" stroke-linejoin="round" x1="32.48" y1="44.355" x2="61.479" y2="44.355"/>
<line fill="none" stroke="#FFFFFF" stroke-width="6" stroke-linecap="round" stroke-linejoin="round" x1="32.48" y1="54.98" x2="61.479" y2="54.98"/>
<line fill="none" stroke="#FFFFFF" stroke-width="6" stroke-linecap="round" stroke-linejoin="round" x1="32.48" y1="66.48" x2="61.479" y2="66.48"/>
</svg>
