<?xml version="1.0" encoding="utf-8"?>
<!-- Generator: Adobe Illustrator 14.0.0, SVG Export Plug-In . SVG Version: 6.00 Build 43363)  -->
<!DOCTYPE svg PUBLIC "-//W3C//DTD SVG 1.1//EN" "http://www.w3.org/Graphics/SVG/1.1/DTD/svg11.dtd">
<svg version="1.1" id="Calque_1" xmlns="http://www.w3.org/2000/svg" xmlns:xlink="http://www.w3.org/1999/xlink" x="0px" y="0px"
	 width="94.229px" height="91.896px" viewBox="0 0 94.229 91.896" enable-background="new 0 0 94.229 91.896" xml:space="preserve">
<polygon fill="#FFFFFF" points="1.129,40.719 1.129,20.089 18.069,10.026 49.936,28.475 15.05,48.769 "/>
<path fill="#FFFFFF" d="M55.974,32.333L38.363,42.06l0.167,6.709l-11.405,6.877L58.322,73.76l17.443-11.572l0.168-18.785
	L55.974,32.333z M74.087,60.845L59.16,70.908V53.801l14.927-8.553V60.845z"/>
<polygon fill="none" stroke="#FFFFFF" stroke-width="2" points="67.211,18.579 9.347,51.621 9.682,66.212 67.042,31.326 "/>
<path fill="#FFFFFF" d="M82.474,47.93L64.863,58.162l0.168,19.958l12.411,7.716l16.787-11.069V54.304L82.474,47.93z M92.033,73.592
	l-13.082,8.722V65.374l13.417-8.554L92.033,73.592z"/>
</svg>
