<?xml version="1.0" encoding="utf-8"?>
<!-- Generator: Adobe Illustrator 14.0.0, SVG Export Plug-In . SVG Version: 6.00 Build 43363)  -->
<!DOCTYPE svg PUBLIC "-//W3C//DTD SVG 1.1//EN" "http://www.w3.org/Graphics/SVG/1.1/DTD/svg11.dtd">
<svg version="1.1" id="Calque_1" xmlns="http://www.w3.org/2000/svg" xmlns:xlink="http://www.w3.org/1999/xlink" x="0px" y="0px"
	 width="94.229px" height="91.896px" viewBox="0 0 94.229 91.896" enable-background="new 0 0 94.229 91.896" xml:space="preserve">
<path fill="none" stroke="#FFFFFF" stroke-width="5" d="M77.295,32.777v49.157c0,1.565-1.269,2.834-2.834,2.834H18.69
	c-1.565,0-2.834-1.269-2.834-2.834V12.71c0-1.565,1.269-2.834,2.834-2.834h36.571c0.266-0.005,4.406-0.036,5.828,1.261
	s12.678,12.959,14.139,14.42c0.717,0.716,2.018,2.58,2.018,3.938C77.245,30.198,77.295,32.777,77.295,32.777z"/>
<path fill="none" stroke="#FFFFFF" stroke-width="5" d="M55.188,10.146c0,0-0.088,19.645-0.037,20.462
	c0.07,1.131,0.494,2.265,1.484,2.3c0.99,0.034,20.094-0.095,20.094-0.095"/>
<g>
	<path fill="#FFFFFF" d="M49.175,44.394c-1.906,0-3.477,0.551-4.711,1.652c-1.234,1.101-2.031,2.699-2.391,4.793h9.445v4.125h-9.797
		l-0.047,0.82v1.102l0.047,0.773h8.32v4.172H42.12c0.797,3.797,3.305,5.694,7.523,5.694c2.233,0,4.383-0.444,6.444-1.336v6
		c-1.812,0.922-4.103,1.383-6.866,1.383c-3.829,0-6.978-1.038-9.446-3.116c-2.468-2.078-4.023-4.953-4.664-8.625h-3.211V57.66h2.766
		c-0.062-0.359-0.094-0.845-0.094-1.453l0.047-1.242h-2.719V50.84h3.117c0.578-3.781,2.133-6.771,4.664-8.965
		c2.531-2.195,5.695-3.293,9.492-3.293c2.938,0,5.688,0.641,8.25,1.922l-2.297,5.438c-1.078-0.483-2.086-0.862-3.022-1.137
		C51.167,44.531,50.19,44.394,49.175,44.394z"/>
</g>
</svg>
