<?xml version="1.0" encoding="utf-8"?>
<!-- Generator: Adobe Illustrator 14.0.0, SVG Export Plug-In . SVG Version: 6.00 Build 43363)  -->
<!DOCTYPE svg PUBLIC "-//W3C//DTD SVG 1.1//EN" "http://www.w3.org/Graphics/SVG/1.1/DTD/svg11.dtd">
<svg version="1.1" id="Calque_1" xmlns="http://www.w3.org/2000/svg" xmlns:xlink="http://www.w3.org/1999/xlink" x="0px" y="0px"
	 width="70.87px" height="70.871px" viewBox="0 0 70.87 70.871" enable-background="new 0 0 70.87 70.871" xml:space="preserve">
<polygon fill="none" stroke="#35B77F" stroke-width="5" points="57.875,13.021 57.875,65.395 10.692,65.395 10.692,5.804 
	49.54,5.619 "/>
<polyline fill="none" stroke="#35B77F" stroke-width="4.4065" points="47.692,5.619 47.692,16.167 58.979,16.167 "/>
<path fill="#35B77F" d="M42.559,23.828c0,0,2.133,1.006,3.856,2.729c1.723,1.723,2.724,4.039,2.724,4.038L38.457,34.56
	L42.559,23.828z"/>
<path fill="#35B77F" d="M46.109,35.191c1.417,4.466,0.315,9.552-3.271,13.042c-5.062,4.924-13.158,4.812-18.08-0.254
	c-4.923-5.062-4.812-13.155,0.253-18.08c3.588-3.489,8.702-4.448,13.127-2.907L33.44,39.535L46.109,35.191z"/>
</svg>
