<?xml version="1.0" encoding="utf-8"?>
<!-- Generator: Adobe Illustrator 14.0.0, SVG Export Plug-In . SVG Version: 6.00 Build 43363)  -->
<!DOCTYPE svg PUBLIC "-//W3C//DTD SVG 1.1//EN" "http://www.w3.org/Graphics/SVG/1.1/DTD/svg11.dtd">
<svg version="1.1" id="Calque_1" xmlns="http://www.w3.org/2000/svg" xmlns:xlink="http://www.w3.org/1999/xlink" x="0px" y="0px"
	 width="113.104px" height="95.25px" viewBox="0 0 113.104 95.25" enable-background="new 0 0 113.104 95.25" xml:space="preserve">
<path fill="none" stroke="#B6B6B5" stroke-width="5" d="M68.291,25.773V74.93c0,1.565-1.269,2.834-2.834,2.834H9.685
	c-1.565,0-2.834-1.269-2.834-2.834V5.707c0-1.565,1.269-2.834,2.834-2.834h36.571c0.266-0.005,4.406-0.036,5.828,1.261
	c1.422,1.297,12.679,12.959,14.14,14.42c0.715,0.716,2.018,2.58,2.018,3.938C68.241,23.194,68.291,25.773,68.291,25.773z"/>
<path fill="none" stroke="#B6B6B5" stroke-width="5" d="M46.184,3.143c0,0-0.088,19.644-0.037,20.462
	c0.071,1.131,0.495,2.264,1.485,2.299c0.99,0.035,20.094-0.094,20.094-0.094"/>
<path fill="#B6B6B5" d="M48.632,56.221c0,0,2.998-23.951,28.066-22.703c25.214,1.255,24.777,27.039,24.777,27.039l8.881,0.076
	L93.47,86.797L75.785,60.671l8.557,0.113c0,0-1.368-17.569-15.63-18.14C51.156,41.942,48.632,56.221,48.632,56.221z"/>
</svg>
