<?xml version="1.0" encoding="utf-8"?>
<!-- Generator: Adobe Illustrator 14.0.0, SVG Export Plug-In . SVG Version: 6.00 Build 43363)  -->
<!DOCTYPE svg PUBLIC "-//W3C//DTD SVG 1.1//EN" "http://www.w3.org/Graphics/SVG/1.1/DTD/svg11.dtd">
<svg version="1.1" id="Calque_1" xmlns="http://www.w3.org/2000/svg" xmlns:xlink="http://www.w3.org/1999/xlink" x="0px" y="0px"
	 width="70.871px" height="70.871px" viewBox="0 0 70.871 70.871" enable-background="new 0 0 70.871 70.871" xml:space="preserve">
<path fill="none" stroke="#CE69A2" stroke-width="4.3467" stroke-linecap="round" stroke-linejoin="round" d="M60.291,66.346
	c-0.004,1.396-1.081,2.528-2.407,2.523l-42.285-0.128c-1.325-0.003-2.396-1.142-2.393-2.539l0.167-54.753
	c0.004-1.398,1.082-2.528,2.408-2.524l42.285,0.128c1.32,0.004,2.396,1.141,2.392,2.539L60.291,66.346L60.291,66.346z"/>
<path fill="#CE69A2" d="M20.509-0.231c0,0,13.379,0.398,18.349,6.671c5.411,6.829,5.084,15.367,5.084,15.367l9.491-0.113
	L37.385,39.77L21.683,21.693l9.862-0.113c0,0,1.935-5.932-2.064-13.661C26.202,1.582,20.509-0.231,20.509-0.231z"/>
</svg>
