<?xml version="1.0" encoding="UTF-8" standalone="no"?>
<!-- Generator: Adobe Illustrator 14.0.0, SVG Export Plug-In . SVG Version: 6.00 Build 43363)  -->

<svg
   xmlns:dc="http://purl.org/dc/elements/1.1/"
   xmlns:cc="http://creativecommons.org/ns#"
   xmlns:rdf="http://www.w3.org/1999/02/22-rdf-syntax-ns#"
   xmlns:svg="http://www.w3.org/2000/svg"
   xmlns="http://www.w3.org/2000/svg"
   xmlns:sodipodi="http://sodipodi.sourceforge.net/DTD/sodipodi-0.dtd"
   xmlns:inkscape="http://www.inkscape.org/namespaces/inkscape"
   version="1.1"
   id="Calque_1"
   x="0px"
   y="0px"
   width="66.439003"
   height="79.893875"
   viewBox="0 0 66.439006 79.893872"
   enable-background="new 0 0 94.229 91.897"
   xml:space="preserve"
   sodipodi:docname="facture.svg"
   inkscape:version="0.92.3 (2405546, 2018-03-11)"><metadata
   id="metadata15"><rdf:RDF><cc:Work
       rdf:about=""><dc:format>image/svg+xml</dc:format><dc:type
         rdf:resource="http://purl.org/dc/dcmitype/StillImage" /><dc:title></dc:title></cc:Work></rdf:RDF></metadata><defs
   id="defs13" /><sodipodi:namedview
   pagecolor="#ffffff"
   bordercolor="#666666"
   borderopacity="1"
   objecttolerance="10"
   gridtolerance="10"
   guidetolerance="10"
   inkscape:pageopacity="0"
   inkscape:pageshadow="2"
   inkscape:window-width="807"
   inkscape:window-height="480"
   id="namedview11"
   showgrid="false"
   fit-margin-top="0"
   fit-margin-left="0"
   fit-margin-right="0"
   fit-margin-bottom="0"
   inkscape:zoom="2.5680924"
   inkscape:cx="33.758498"
   inkscape:cy="41.319498"
   inkscape:window-x="0"
   inkscape:window-y="0"
   inkscape:window-maximized="0"
   inkscape:current-layer="Calque_1" />
<path
   d="m 63.939,25.402877 c 0,0 0,49.157 0,49.157 0,1.565 -1.269,2.834 -2.834,2.834 H 5.334 c -1.565,0 -2.834,-1.269 -2.834,-2.834 V 5.3358766 c 0,-1.565 1.269,-2.834 2.834,-2.834 h 36.571 c 0.266,-0.005 4.406,-0.036 5.828,1.261 1.422,1.297 12.678,12.9590004 14.139,14.4200004 0.716,0.716 2.017,2.58 2.017,3.938 0,0.703 0.05,3.282 0.05,3.282 z"
   id="path2"
   inkscape:connector-curvature="0"
   style="fill:none;stroke:#e48507;stroke-width:5" />
<path
   d="m 41.832,2.7718766 c 0,0 -0.088,19.6440004 -0.037,20.4620004 0.071,1.131 0.495,2.264 1.485,2.299 0.99,0.035 20.093,-0.094 20.093,-0.094"
   id="path4"
   inkscape:connector-curvature="0"
   style="fill:none;stroke:#e78624;stroke-width:6" />
<g
   id="g8"
   transform="translate(-13.356,-7.3741234)">
	<path
   d="m 49.175,44.394 c -1.906,0 -3.477,0.551 -4.711,1.652 -1.234,1.101 -2.031,2.699 -2.391,4.793 h 9.445 v 4.125 h -9.797 l -0.047,0.82 v 1.102 l 0.047,0.773 h 8.32 v 4.172 H 42.12 c 0.797,3.797 3.305,5.695 7.523,5.695 2.234,0 4.383,-0.445 6.445,-1.336 v 6 c -1.812,0.922 -4.102,1.383 -6.867,1.383 -3.828,0 -6.977,-1.039 -9.445,-3.117 -2.468,-2.078 -4.023,-4.953 -4.664,-8.625 H 31.901 V 57.66 h 2.766 C 34.605,57.301 34.573,56.816 34.573,56.207 L 34.62,54.965 H 31.901 V 50.84 h 3.117 c 0.578,-3.781 2.133,-6.77 4.664,-8.965 2.531,-2.195 5.695,-3.293 9.492,-3.293 2.938,0 5.688,0.641 8.25,1.922 l -2.297,5.438 c -1.078,-0.484 -2.086,-0.863 -3.023,-1.137 -0.937,-0.274 -1.913,-0.411 -2.929,-0.411 z"
   id="path6"
   inkscape:connector-curvature="0"
   style="fill:#e4840c" />
</g>
</svg>