<?xml version="1.0" encoding="utf-8"?>
<!-- Generator: Adobe Illustrator 14.0.0, SVG Export Plug-In . SVG Version: 6.00 Build 43363)  -->
<!DOCTYPE svg PUBLIC "-//W3C//DTD SVG 1.1//EN" "http://www.w3.org/Graphics/SVG/1.1/DTD/svg11.dtd">
<svg version="1.1" id="Calque_1" xmlns="http://www.w3.org/2000/svg" xmlns:xlink="http://www.w3.org/1999/xlink" x="0px" y="0px"
	 width="70.871px" height="70.871px" viewBox="0 0 70.871 70.871" enable-background="new 0 0 70.871 70.871" xml:space="preserve">
<polyline fill="none" stroke="#1882C5" stroke-width="10" points="20.603,23.5 6.936,23.5 6.936,65.5 62.936,65.5 62.936,23.21 
	48.936,23.21 "/>
<line fill="none" stroke="#1882C5" stroke-width="8" x1="34.793" y1="6.268" x2="34.793" y2="28.25"/>
<polygon fill="#1882C5" points="25.853,10.957 43.937,10.957 34.653,0 "/>
<g>
	<path fill="#1882C5" stroke="#1882C5" d="M41.983,34.154l-0.922,4.328c-0.886-0.886-2.178-1.328-3.875-1.328
		c-1.699,0-3.074,0.609-4.125,1.828c-0.594,0.688-1.016,1.547-1.266,2.578h8.594l-0.5,2.422h-8.407
		c-0.011,0.24-0.016,0.547-0.016,0.922c0,0.365,0.01,0.745,0.031,1.141h7.954l-0.5,2.422h-7.125c0.26,1.115,0.661,1.99,1.203,2.625
		c1.041,1.229,2.396,1.844,4.063,1.844c2,0,3.594-0.614,4.781-1.844v4.781c-1.354,0.677-2.933,1.016-4.734,1.016
		c-3.042,0-5.542-1.041-7.5-3.125c-1.334-1.416-2.214-3.182-2.641-5.297h-2.312l0.5-2.422h1.531
		c-0.011-0.25-0.016-0.516-0.016-0.797c0-0.479,0.01-0.9,0.031-1.266h-2.047l0.5-2.422h1.859c0.438-2.073,1.307-3.808,2.609-5.203
		c1.969-2.104,4.557-3.156,7.766-3.156C39.171,33.201,40.691,33.519,41.983,34.154z"/>
</g>
</svg>
