<?xml version="1.0" encoding="utf-8"?>
<!-- Generator: Adobe Illustrator 14.0.0, SVG Export Plug-In . SVG Version: 6.00 Build 43363)  -->
<!DOCTYPE svg PUBLIC "-//W3C//DTD SVG 1.1//EN" "http://www.w3.org/Graphics/SVG/1.1/DTD/svg11.dtd">
<svg version="1.1" id="Calque_1" xmlns="http://www.w3.org/2000/svg" xmlns:xlink="http://www.w3.org/1999/xlink" x="0px" y="0px"
	 width="70.87px" height="70.871px" viewBox="0 0 70.87 70.871" enable-background="new 0 0 70.87 70.871" xml:space="preserve">
<polygon fill="none" stroke="#52936C" stroke-width="5.8963" points="56.752,15.096 56.752,62.637 13.919,62.637 13.919,8.544 
	49.186,8.376 "/>
<polyline fill="none" stroke="#52936C" stroke-width="4" points="47.507,8.376 47.507,17.951 57.753,17.951 "/>
<g>
	<path fill="#52936C" d="M27.104,22.772c2.084-0.354,5.014-0.621,9.138-0.621c4.172,0,7.143,0.798,9.139,2.395
		c1.952,1.508,3.193,3.992,3.193,6.919c0,2.928-0.934,5.456-2.75,7.098c-2.309,2.129-5.723,3.148-9.716,3.148
		c-0.887,0-1.685-0.044-2.307-0.177V52.27h-6.697V22.772z M33.801,36.346c0.577,0.133,1.243,0.178,2.263,0.178
		c3.596,0,5.812-1.817,5.812-4.833c0-2.75-1.907-4.392-5.324-4.392c-1.332,0-2.262,0.089-2.75,0.222L33.801,36.346L33.801,36.346z"
		/>
</g>
</svg>
