<?xml version="1.0" encoding="utf-8"?>
<!-- Generator: Adobe Illustrator 14.0.0, SVG Export Plug-In . SVG Version: 6.00 Build 43363)  -->
<!DOCTYPE svg PUBLIC "-//W3C//DTD SVG 1.1//EN" "http://www.w3.org/Graphics/SVG/1.1/DTD/svg11.dtd">
<svg version="1.1" id="Calque_1" xmlns="http://www.w3.org/2000/svg" xmlns:xlink="http://www.w3.org/1999/xlink" x="0px" y="0px"
	 width="70.871px" height="70.871px" viewBox="0 0 70.871 70.871" enable-background="new 0 0 70.871 70.871" xml:space="preserve">
<g>
	<path fill="#FFFFFF" stroke="#5555E5" stroke-width="6.1268" stroke-linecap="round" stroke-linejoin="round" d="M58.936,63.337
		c0,1.424-1.094,2.58-2.447,2.58H13.395c-1.351,0-2.445-1.156-2.445-2.58V7.534c0-1.424,1.095-2.579,2.445-2.579h43.092
		c1.353,0,2.448,1.156,2.448,2.579L58.936,63.337L58.936,63.337z"/>
</g>
<g enable-background="new    ">
	<path fill="#5555E5" d="M22.042,16.908c2.74-0.447,6.767-0.782,11.353-0.782c5.592,0,9.507,0.839,12.191,2.964
		c2.293,1.789,3.523,4.474,3.523,7.94c0,4.754-3.412,8.054-6.655,9.228v0.168c2.628,1.062,4.083,3.523,5.033,6.99
		c1.175,4.307,2.293,9.228,3.02,10.682h-8.724c-0.56-1.118-1.51-4.139-2.572-8.78c-1.062-4.753-2.685-5.983-6.208-6.039h-2.517
		v14.819h-8.444V16.908z M30.486,33.126h3.355c4.25,0,6.767-2.125,6.767-5.424c0-3.412-2.349-5.201-6.263-5.201
		c-2.07,0-3.244,0.111-3.859,0.279V33.126z"/>
</g>
</svg>
