<?xml version="1.0" encoding="utf-8"?>
<!-- Generator: Adobe Illustrator 14.0.0, SVG Export Plug-In . SVG Version: 6.00 Build 43363)  -->
<!DOCTYPE svg PUBLIC "-//W3C//DTD SVG 1.1//EN" "http://www.w3.org/Graphics/SVG/1.1/DTD/svg11.dtd">
<svg version="1.1" id="Calque_1" xmlns="http://www.w3.org/2000/svg" xmlns:xlink="http://www.w3.org/1999/xlink" x="0px" y="0px"
	 width="94.229px" height="91.896px" viewBox="0 0 94.229 91.896" enable-background="new 0 0 94.229 91.896" xml:space="preserve">
<g>
	<circle fill="#FFFFFF" cx="47.897" cy="24.896" r="18.667"/>
	<path fill="#FFFFFF" d="M48.563,48.896c-6.327,0-12.114-2.293-16.587-6.09c0,0-9.005,3.147-10.178,3.914
		c-1.173,0.767-2.408,2.276-2.819,4.061c0,0-4.748,15.783-3.264,25.5c0.61,3.994,2.481,6.745,4.46,8.283H48.61"/>
	<path fill="#FFFFFF" d="M48.632,84.505"/>
	<path fill="#FFFFFF" d="M48.563,48.871c6.328,0,12.115-2.293,16.588-6.091c0,0,9.007,3.147,10.18,3.914
		c1.173,0.768,2.406,2.276,2.818,4.062c0,0,4.748,15.783,3.265,25.5c-0.608,3.994-2.479,6.745-4.46,8.283l-28.312-0.026"/>
</g>
</svg>
