<?xml version="1.0" encoding="utf-8"?>
<!-- Generator: Adobe Illustrator 15.0.0, SVG Export Plug-In . SVG Version: 6.00 Build 0)  -->
<!DOCTYPE svg PUBLIC "-//W3C//DTD SVG 1.1//EN" "http://www.w3.org/Graphics/SVG/1.1/DTD/svg11.dtd">
<svg version="1.1" id="Calque_1" xmlns="http://www.w3.org/2000/svg" xmlns:xlink="http://www.w3.org/1999/xlink" x="0px" y="0px"
	 width="70.871px" height="70.871px" viewBox="0 0 70.871 70.871" enable-background="new 0 0 70.871 70.871" xml:space="preserve">
<rect x="-0.052" y="0.052" fill="#707173" width="70.869" height="70.871"/>
<path fill="#FFFFFF" d="M60.638,26.566L35.167,5.914L9.144,26.566h5.783c0,0-0.275,8.812,0.275,15.283
	c0.551,6.471,7.985,12.805,7.985,12.805l1.239,8.26l7.062-4.482c0.745,0,2.255-0.016,5.123-0.061
	c8.605-0.139,18.518-8.812,18.793-18.863c0.275-10.05-0.413-12.941-0.413-12.941H60.638z M42.463,34.602h-6.528V28.08h6.528V34.602z
	 M34.935,28.08v6.522H28.42V28.08H34.935z M28.42,41.435v-5.833h6.515v5.833H28.42z M35.935,41.435v-5.833h6.528v5.833H35.935z"/>
</svg>
