<?xml version="1.0" encoding="utf-8"?>
<!-- Generator: Adobe Illustrator 14.0.0, SVG Export Plug-In . SVG Version: 6.00 Build 43363)  -->
<!DOCTYPE svg PUBLIC "-//W3C//DTD SVG 1.1//EN" "http://www.w3.org/Graphics/SVG/1.1/DTD/svg11.dtd">
<svg version="1.1" id="Calque_1" xmlns="http://www.w3.org/2000/svg" xmlns:xlink="http://www.w3.org/1999/xlink" x="0px" y="0px"
	 width="113.104px" height="95.25px" viewBox="0 0 113.104 95.25" enable-background="new 0 0 113.104 95.25" xml:space="preserve">
<rect x="23.513" fill="#D3A5C2" width="89.591" height="95.251"/>
<g>
	<path fill="#FFFFFF" d="M98.968,79.363c-3.598,2.014-9.735,4.023-16.508,4.023c-10.476,0-19.893-4.234-25.82-12.066
		c-2.858-3.599-4.974-8.148-5.928-13.756h-6.877v-7.514h5.82c0-0.529,0-1.162,0-1.797c0-1.061,0.106-2.117,0.106-3.176h-5.926
		v-7.515h7.09c1.272-5.716,3.916-10.582,7.302-14.392c5.927-6.877,14.392-10.897,24.446-10.897c6.348,0,12.062,1.479,15.872,3.173
		l-2.963,12.063c-2.752-1.163-7.194-2.54-11.852-2.54c-4.975,0-9.632,1.799-12.91,5.713c-1.59,1.695-2.646,4.128-3.388,6.879h26.353
		v7.515h-27.94c-0.107,1.059-0.107,2.115-0.107,3.279c0,0.635,0,1.164,0,1.693h28.043v7.514H67.223
		c0.74,3.177,1.903,5.607,3.492,7.408c3.385,3.809,8.358,5.396,13.651,5.396c4.866,0,9.843-1.587,12.062-2.752L98.968,79.363z"/>
</g>
<polygon fill="#564C51" points="12.248,19.704 38,47.771 12.004,78.983 12.004,56.353 0.001,56.23 0.001,41.723 12.004,41.601 "/>
</svg>
