<?xml version="1.0" encoding="utf-8"?>
<!-- Generator: Adobe Illustrator 14.0.0, SVG Export Plug-In . SVG Version: 6.00 Build 43363)  -->
<!DOCTYPE svg PUBLIC "-//W3C//DTD SVG 1.1//EN" "http://www.w3.org/Graphics/SVG/1.1/DTD/svg11.dtd">
<svg version="1.1" id="Calque_1" xmlns="http://www.w3.org/2000/svg" xmlns:xlink="http://www.w3.org/1999/xlink" x="0px" y="0px"
	 width="70.871px" height="70.871px" viewBox="0 0 70.871 70.871" enable-background="new 0 0 70.871 70.871" xml:space="preserve">
<rect fill="#FFFFFF" width="71.121" height="71.123"/>
<g>
	<g>
		<path fill="#6F7072" d="M7.358,34.753l0.94,6.918c0,0-4.254-0.705-4.494-7.124c-0.121,0-4.324-0.135-4.324-0.135
			s0.216,4.702,2.579,8.643c2.227,3.717,7.1,3.588,7.1,3.588l3.538,17.047c0,0,0.467,6.356,4.149,6.824
			c6.341,0.805,36.742,0,36.742,0s3.973,0.461,5.354-5.615c1.132-4.974,2.361-18.56,2.361-18.56s10.365-2.446,9.844-11.928
			c0,0-4.311-0.041-4.326,0.136c-0.238,2.768-2.484,6.868-4.65,6.366c-0.072-0.019,0.797-6.105,0.797-6.105L7.358,34.753z"/>
	</g>
</g>
<path fill="#6F7072" d="M14.875,1.72c4.976-4.658,12.196,1.397,15.104,3.447c2.908,2.051,2.908,2.702,2.908,2.702l-2.819,1.49
	l-1.333-0.187l-0.267,2.236l-1.599,1.491l-3.11,0.093l-2.043,4.006l-5.243,0.465l-0.888,2.702l-0.889-0.186
	C14.697,19.979,9.633,5.633,14.875,1.72z"/>
<path fill="#6F7072" d="M54.307,1.249c5.512,3.94,1.647,12.749,0.449,16.201c-1.197,3.453-1.802,3.61-1.802,3.61l-2.06-2.509
	l-0.146-1.402l-2.135,0.267l-1.766-1.267l-0.836-3.144l-4.197-1.112L40.12,6.668l-2.716-0.251l-0.043-0.95
	C37.363,5.466,49.419-3.144,54.307,1.249z"/>
<path fill="none" stroke="#6F7072" stroke-width="2.9533" stroke-linecap="round" stroke-linejoin="round" d="M41.245,14.206
	c-3.042,0.961-5.576,7.575-5.855,10.823"/>
<path fill="none" stroke="#6F7072" stroke-width="2.9533" stroke-linecap="round" stroke-linejoin="round" d="M44.863,16.76
	c-2.516,1.464-3.573,6.546-4.215,9.158c-0.508,2.062-0.908,4.059-0.867,6.188"/>
<path fill="none" stroke="#6F7072" stroke-width="2.9533" stroke-linecap="round" stroke-linejoin="round" d="M29.998,15.305
	c1.292,0.911,2.405,3.042,2.773,4.685"/>
<path fill="none" stroke="#6F7072" stroke-width="2.9533" stroke-linecap="round" stroke-linejoin="round" d="M24.605,17.567
	c2.15,2.321,3.912,4.154,5.111,7.369c0.808,2.168,1.255,4.2,1.205,6.524"/>
</svg>
