<?xml version="1.0" encoding="utf-8"?>
<!-- Generator: Adobe Illustrator 14.0.0, SVG Export Plug-In . SVG Version: 6.00 Build 43363)  -->
<!DOCTYPE svg PUBLIC "-//W3C//DTD SVG 1.1//EN" "http://www.w3.org/Graphics/SVG/1.1/DTD/svg11.dtd">
<svg version="1.1" id="Calque_1" xmlns="http://www.w3.org/2000/svg" xmlns:xlink="http://www.w3.org/1999/xlink" x="0px" y="0px"
	 width="164.822px" height="92.667px" viewBox="0 0 164.822 92.667" enable-background="new 0 0 164.822 92.667"
	 xml:space="preserve">
<path fill="#FFFFFF" stroke="#6F7072" stroke-width="3" d="M83.483,3.778h66.828c5.979,0,10.814,4.844,10.814,10.816v63.52l0,0
	c0,5.975-4.842,10.816-10.814,10.816H83.483h-2.417H14.238c-5.973,0-10.816-4.844-10.816-10.816v-63.52
	c0-5.975,4.843-10.816,10.816-10.816h66.829L83.483,3.778z"/>
<path fill="#FFFFFF" stroke="#6F7072" stroke-width="3" d="M91.881,78.115"/>
<g>
	<g>
		<path fill="none" stroke="#6F7072" stroke-width="3.734" d="M146.097,34.271v36.711c0,1.166-0.948,2.115-2.116,2.115h-41.653
			c-1.169,0-2.117-0.949-2.117-2.115V19.285c0-1.167,0.948-2.117,2.117-2.117h27.313c0.198-0.003,3.29-0.027,4.353,0.944
			c1.062,0.968,9.468,9.678,10.559,10.769c0.535,0.534,1.507,1.927,1.507,2.94C146.059,32.345,146.097,34.271,146.097,34.271z"/>
		<path fill="none" stroke="#6F7072" stroke-width="4.4808" d="M131.388,17.37c0,0-0.065,14.67-0.027,15.281
			c0.053,0.845,0.369,1.691,1.108,1.716c0.739,0.026,15.006-0.07,15.006-0.07"/>
	</g>
	<g>
		<path fill="#6F7072" d="M125.708,42.188c-1.424,0-2.598,0.414-3.52,1.234c-0.92,0.822-1.516,2.015-1.785,3.578h7.054v3.08h-7.316
			l-0.036,0.611v0.824l0.036,0.576h6.213v3.117h-5.916c0.597,2.834,2.469,4.25,5.619,4.25c1.667,0,3.273-0.33,4.812-0.998v4.48
			c-1.353,0.689-3.063,1.035-5.126,1.035c-2.86,0-5.213-0.775-7.056-2.328c-1.842-1.551-3.003-3.699-3.482-6.439h-2.398v-3.115
			h2.065c-0.047-0.27-0.07-0.635-0.07-1.086l0.035-0.928h-2.03V47h2.328c0.432-2.822,1.593-5.056,3.482-6.693
			c1.891-1.639,4.254-2.459,7.089-2.459c2.194,0,4.248,0.479,6.161,1.436l-1.716,4.061c-0.805-0.359-1.557-0.643-2.256-0.85
			C127.196,42.29,126.467,42.188,125.708,42.188z"/>
	</g>
</g>
<polygon fill="#6F7072" points="71.073,33.722 71.073,56.657 88.594,44.871 "/>
<g>
	<path fill="#6F7072" d="M56.478,69.207c-2.529,1.714-6.855,3.346-12.161,3.346c-6.609,0-12.566-2.529-16.565-7.263
		c-3.101-3.427-5.141-8.16-5.875-14.036h-5.06v-4.08h4.651c0-0.408,0-0.815,0-1.224c0-1.225,0.081-2.448,0.163-3.591h-4.814v-4.08
		h5.386c0.979-5.712,3.346-10.445,6.691-13.791c4.08-4.325,9.466-6.773,16.077-6.773c4.896,0,8.649,1.388,10.935,2.611l-1.631,5.386
		c-2.123-1.224-5.469-2.285-9.142-2.285c-4.407,0-8.079,1.55-10.853,4.407c-2.366,2.448-3.999,6.12-4.814,10.445h22.768v4.08H28.731
		c-0.163,1.061-0.163,2.203-0.163,3.428c0,0.489,0,0.897,0,1.387h23.666v4.08H29.139c0.652,4.733,2.203,8.242,4.487,10.69
		c3.02,3.265,7.1,4.733,11.506,4.733c4.327,0,8.081-1.551,9.956-2.693L56.478,69.207z"/>
</g>
</svg>
