<?xml version="1.0" encoding="utf-8"?>
<!-- Generator: Adobe Illustrator 14.0.0, SVG Export Plug-In . SVG Version: 6.00 Build 43363)  -->
<!DOCTYPE svg PUBLIC "-//W3C//DTD SVG 1.1//EN" "http://www.w3.org/Graphics/SVG/1.1/DTD/svg11.dtd">
<svg version="1.1" id="Calque_1" xmlns="http://www.w3.org/2000/svg" xmlns:xlink="http://www.w3.org/1999/xlink" x="0px" y="0px"
	 width="94.309px" height="92.667px" viewBox="0 0 94.309 92.667" enable-background="new 0 0 94.309 92.667" xml:space="preserve">
<g>
	<path fill="#45CFDD" stroke="#45CFDD" stroke-width="2.5153" d="M75.097,70.218c0,2.664-2.16,4.824-4.824,4.824h-45.81
		c-2.665,0-4.826-2.16-4.826-4.824V28.947c0-2.665,2.161-4.825,4.826-4.825h45.81c2.664,0,4.824,2.161,4.824,4.825V70.218z"/>
	<rect x="23.892" y="37.031" fill="#FFFFFF" width="9.503" height="9.646"/>
	<rect x="61.054" y="37.031" fill="#FFFFFF" width="9.505" height="9.646"/>
	<rect x="35.381" y="37.031" fill="#FFFFFF" width="10.923" height="9.646"/>
	<rect x="48.288" y="37.031" fill="#FFFFFF" width="10.921" height="9.646"/>
	<rect x="23.892" y="61.57" fill="#FFFFFF" width="9.503" height="9.646"/>
	<rect x="61.054" y="61.57" fill="#FFFFFF" width="9.505" height="9.646"/>
	<rect x="35.381" y="61.57" fill="#FFFFFF" width="10.923" height="9.646"/>
	<rect x="48.288" y="61.57" fill="#FFFFFF" width="10.921" height="9.646"/>
	<rect x="23.892" y="48.946" fill="#FFFFFF" width="9.503" height="10.496"/>
	<rect x="61.054" y="48.946" fill="#FFFFFF" width="9.505" height="10.497"/>
	<rect x="35.381" y="48.946" fill="#FFFFFF" width="10.923" height="10.497"/>
	<rect x="48.288" y="48.946" fill="#FFFFFF" width="10.921" height="10.497"/>
	<path fill="#45CFDD" stroke="#45CFDD" stroke-width="2.5153" d="M40.63,30.362c0,2.665-2.293,4.825-5.122,4.825h-1.955
		c-2.829,0-5.123-2.161-5.123-4.825v-9.641c0-2.664,2.294-4.825,5.123-4.825h1.955c2.83,0,5.122,2.161,5.122,4.825V30.362z"/>
	<path fill="#FFFFFF" d="M36.87,30.718c0,0.666-0.54,1.206-1.206,1.206h-2.269c-0.666,0-1.205-0.541-1.205-1.206v-9.503
		c0-0.666,0.54-1.206,1.205-1.206h2.269c0.666,0,1.206,0.541,1.206,1.206V30.718z"/>
	<path fill="#45CFDD" stroke="#45CFDD" stroke-width="2.5153" d="M66.159,30.362c0,2.665-2.293,4.825-5.12,4.825h-1.954
		c-2.829,0-5.123-2.161-5.123-4.825v-9.641c0-2.664,2.294-4.825,5.123-4.825h1.954c2.827,0,5.12,2.161,5.12,4.825V30.362z"/>
	<path fill="#FFFFFF" d="M62.401,30.718c0,0.666-0.539,1.206-1.205,1.206h-2.271c-0.665,0-1.204-0.541-1.204-1.206v-9.503
		c0-0.666,0.539-1.206,1.204-1.206h2.271c0.666,0,1.205,0.541,1.205,1.206V30.718z"/>
</g>
<path fill="none" stroke="#D1D3CD" stroke-width="4" d="M91.881,78.115c0,5.975-4.842,10.816-10.814,10.816H14.238
	c-5.973,0-10.815-4.844-10.815-10.816v-63.52c0-5.975,4.843-10.816,10.815-10.816h66.829c5.979,0,10.814,4.844,10.814,10.816V78.115
	L91.881,78.115z"/>
</svg>
