<?xml version="1.0" encoding="utf-8"?>
<!-- Generator: Adobe Illustrator 14.0.0, SVG Export Plug-In . SVG Version: 6.00 Build 43363)  -->
<!DOCTYPE svg PUBLIC "-//W3C//DTD SVG 1.1//EN" "http://www.w3.org/Graphics/SVG/1.1/DTD/svg11.dtd">
<svg version="1.1" id="Calque_1" xmlns="http://www.w3.org/2000/svg" xmlns:xlink="http://www.w3.org/1999/xlink" x="0px" y="0px"
	 width="70.871px" height="70.871px" viewBox="0 0 70.871 70.871" enable-background="new 0 0 70.871 70.871" xml:space="preserve">
<rect x="-0.063" y="-0.125" fill="#707173" width="71.12" height="71.123"/>
<g>
	<rect x="23.105" y="51.591" fill="none" width="10.965" height="9.683"/>
	<rect x="11.571" y="26.958" fill="none" width="9.541" height="9.682"/>
	<rect x="23.105" y="26.958" fill="none" width="10.965" height="9.682"/>
	<rect x="23.105" y="38.918" fill="none" width="10.965" height="10.538"/>
	<path fill="none" d="M49.019,9.869h-2.277c-0.668,0-1.21,0.542-1.21,1.211v2.917h4.699v-2.917
		C50.231,10.413,49.688,9.869,49.019,9.869z"/>
	<path fill="none" d="M23.389,9.869h-2.277c-0.667,0-1.21,0.542-1.21,1.211v2.917H24.6v-2.917
		C24.6,10.413,24.057,9.869,23.389,9.869z"/>
	<rect x="11.571" y="38.918" fill="none" width="9.541" height="10.538"/>
	<rect x="11.571" y="51.591" fill="none" width="9.541" height="9.683"/>
	<rect x="36.062" y="38.918" fill="none" width="10.964" height="10.538"/>
	<rect x="48.879" y="38.918" fill="none" width="9.54" height="10.538"/>
	<rect x="48.879" y="26.958" fill="none" width="9.54" height="9.682"/>
	<rect x="48.879" y="51.591" fill="none" width="9.54" height="9.683"/>
	<rect x="36.062" y="26.958" fill="none" width="10.964" height="9.682"/>
	<rect x="36.062" y="51.591" fill="none" width="10.964" height="9.683"/>
	<path fill="#FFFFFF" d="M21.27,25.106h1.961c2.84,0,5.142-2.169,5.142-4.844v-6.265H24.6v6.623c0,0.668-0.542,1.21-1.211,1.21
		h-2.277c-0.668,0-1.21-0.543-1.21-1.21v-6.623h-3.774v6.265C16.127,22.938,18.43,25.106,21.27,25.106z"/>
	<g>
		<path fill="#FFFFFF" d="M58.131,13.998h-4.127v6.265c0,2.675-2.302,4.844-5.142,4.844h-1.961c-2.84,0-5.143-2.169-5.143-4.844
			v-6.265H28.373v6.265c0,2.675-2.302,4.844-5.142,4.844H21.27c-2.84,0-5.143-2.169-5.143-4.844v-6.265h-3.984
			c-2.676,0-4.845,2.169-4.845,4.844v41.431c0,2.677,2.169,4.843,4.845,4.843h45.987c2.675,0,4.844-2.166,4.844-4.843V18.842
			C62.974,16.167,60.805,13.998,58.131,13.998z M21.112,61.273h-9.541v-9.683h9.541V61.273z M21.112,49.456h-9.541V38.918h9.541
			V49.456z M21.112,36.64h-9.541v-9.682h9.541V36.64z M34.07,61.273H23.105v-9.683H34.07V61.273z M34.07,49.456H23.105V38.918H34.07
			V49.456z M34.07,36.64H23.105v-9.682H34.07V36.64z M47.026,61.273H36.062v-9.683h10.964V61.273z M47.026,49.456H36.062V38.918
			h10.964V49.456z M47.026,36.64H36.062v-9.682h10.964V36.64z M58.419,61.273h-9.54v-9.683h9.54V61.273z M58.419,49.456h-9.54
			V38.918h9.54V49.456z M58.419,36.64h-9.54v-9.682h9.54V36.64z"/>
		<path fill="#FFFFFF" d="M19.901,11.081c0-0.669,0.543-1.211,1.21-1.211h2.277c0.668,0,1.211,0.543,1.211,1.211v2.917h3.773v-3.414
			c0-2.675-2.302-4.844-5.142-4.844H21.27c-2.84,0-5.143,2.169-5.143,4.844v3.414h3.774V11.081z"/>
		<path fill="#FFFFFF" d="M45.532,11.081c0-0.669,0.542-1.211,1.21-1.211h2.277c0.669,0,1.212,0.543,1.212,1.211v2.917h3.772v-3.414
			c0-2.675-2.302-4.844-5.142-4.844h-1.961c-2.84,0-5.144,2.169-5.143,4.844v3.414h3.773V11.081z"/>
	</g>
	<path fill="#FFFFFF" d="M46.901,25.106h1.961c2.84,0,5.142-2.169,5.142-4.844v-6.265h-3.772v6.623c0,0.668-0.543,1.21-1.212,1.21
		h-2.277c-0.668,0-1.21-0.543-1.21-1.21v-6.623h-3.773v6.265C41.759,22.938,44.061,25.106,46.901,25.106z"/>
</g>
</svg>
