<?xml version="1.0" encoding="utf-8"?>
<!-- Generator: Adobe Illustrator 14.0.0, SVG Export Plug-In . SVG Version: 6.00 Build 43363)  -->
<!DOCTYPE svg PUBLIC "-//W3C//DTD SVG 1.1//EN" "http://www.w3.org/Graphics/SVG/1.1/DTD/svg11.dtd">
<svg version="1.1" id="Calque_1" xmlns="http://www.w3.org/2000/svg" xmlns:xlink="http://www.w3.org/1999/xlink" x="0px" y="0px"
	 width="70.871px" height="70.871px" viewBox="0 0 70.871 70.871" enable-background="new 0 0 70.871 70.871" xml:space="preserve">
<rect x="-0.063" y="-0.125" fill="#FFFFFF" width="71.12" height="71.123"/>
<g>
	<path fill="#6F7072" stroke="#6F7072" stroke-width="2" d="M39.373,49.034c-2.448,2.88-7.992,7.129-10.44,7.129
		c-1.44,0-2.448-1.152-1.008-7.057l4.537-18.362c0.36-1.584,0.36-2.304-0.072-2.304c-0.576,0-2.736,1.224-4.968,3.024l-0.864-1.584
		c3.96-3.889,9-6.841,10.873-6.841c1.656,0,1.585,2.304,0.721,5.688L33.253,48.53c-0.432,1.729-0.288,2.304,0.144,2.304
		c0.864,0,3.312-1.872,5.041-3.384L39.373,49.034z M41.174,12.455c0.071,2.16-1.584,4.104-3.816,4.104
		c-1.656,0-2.88-1.224-2.88-3.096c-0.072-1.873,1.368-4.249,3.816-4.249C40.165,9.215,41.174,10.727,41.174,12.455z"/>
</g>
<circle fill="none" stroke="#6F7072" stroke-width="4.9298" cx="35.528" cy="35.307" r="32.723"/>
</svg>
