<?xml version="1.0" encoding="utf-8"?>
<!-- Generator: Adobe Illustrator 14.0.0, SVG Export Plug-In . SVG Version: 6.00 Build 43363)  -->
<!DOCTYPE svg PUBLIC "-//W3C//DTD SVG 1.1//EN" "http://www.w3.org/Graphics/SVG/1.1/DTD/svg11.dtd">
<svg version="1.1" id="Calque_1" xmlns="http://www.w3.org/2000/svg" xmlns:xlink="http://www.w3.org/1999/xlink" x="0px" y="0px"
	 width="70.871px" height="70.871px" viewBox="0 0 70.871 70.871" enable-background="new 0 0 70.871 70.871" xml:space="preserve">
<path fill="#FFFFFF" stroke="#FFFFFF" stroke-width="0.6953" d="M42.368,49.959c0,0,12.722-17.028,12.724-17.027
	c0.727-0.974,0.527-2.354-0.447-3.081c-0.973-0.728-2.354-0.527-3.081,0.446L42.299,42.06L42.368,49.959z"/>
<rect x="29.279" y="11.703" fill="#5FBDBC" stroke="#FFFFFF" stroke-width="2.8146" width="40.947" height="40.043"/>
<path fill="#FFFFFF" stroke="#FFFFFF" stroke-width="0.6631" d="M65.595,20.397c-0.927-0.695-2.244-0.503-2.938,0.426L48.872,39.269
	l-6.235-8.086c-0.709-0.917-2.028-1.089-2.947-0.381c-0.918,0.708-1.088,2.027-0.379,2.946l7.875,10.21
	c0.414,0.538,1.034,0.819,1.664,0.819c0.188,0,0.377-0.026,0.561-0.079c0.479-0.102,0.925-0.372,1.24-0.794l15.372-20.568
	C66.716,22.409,66.524,21.092,65.595,20.397z"/>
<g>
	<rect x="0.579" y="26.904" fill="#5FBDBC" stroke="#FFFFFF" stroke-width="3.7528" width="43.29" height="40.048"/>
	<path fill="#FFFFFF" stroke="#FFFFFF" stroke-width="0.7951" d="M38.263,32.654c-1.114-0.833-2.692-0.604-3.525,0.51L18.209,55.285
		l-7.476-9.697c-0.851-1.102-2.431-1.307-3.533-0.456c-1.102,0.85-1.306,2.432-0.456,3.532l9.443,12.249
		c0.496,0.645,1.241,0.979,1.996,0.979c0.225,0,0.45-0.03,0.671-0.093c0.575-0.123,1.108-0.446,1.487-0.953l18.43-24.668
		C39.604,35.064,39.377,33.488,38.263,32.654z"/>
</g>
<g>
	<path fill="#5FBDBC" d="M4.321,10.421h7.146V3.236h6.027v7.184h7.184v6.027h-7.184v7.147h-6.027v-7.147H4.321V10.421z"/>
</g>
</svg>
