<?xml version="1.0" encoding="utf-8"?>
<!-- Generator: Adobe Illustrator 14.0.0, SVG Export Plug-In . SVG Version: 6.00 Build 43363)  -->
<!DOCTYPE svg PUBLIC "-//W3C//DTD SVG 1.1//EN" "http://www.w3.org/Graphics/SVG/1.1/DTD/svg11.dtd">
<svg version="1.1" id="Calque_1" xmlns="http://www.w3.org/2000/svg" xmlns:xlink="http://www.w3.org/1999/xlink" x="0px" y="0px"
	 width="70.871px" height="70.871px" viewBox="0 0 70.871 70.871" enable-background="new 0 0 70.871 70.871" xml:space="preserve">
<path fill="none" stroke="#0ABCAF" stroke-width="5.0705" d="M54.66,66.051c0,1.159-0.94,2.099-2.097,2.099H16.571
	c-1.157,0-2.098-0.941-2.098-2.099V11.077c0-1.157,0.941-2.096,2.098-2.096h35.992c1.156,0,2.097,0.94,2.097,2.097V66.051
	L54.66,66.051z"/>
<line fill="none" stroke="#0ABCAF" stroke-width="5.0705" x1="20.882" y1="32.187" x2="48.988" y2="32.187"/>
<line fill="none" stroke="#0ABCAF" stroke-width="5.0705" x1="20.882" y1="42.771" x2="48.988" y2="42.771"/>
<line fill="none" stroke="#0ABCAF" stroke-width="5.0705" x1="20.882" y1="54.477" x2="48.988" y2="54.477"/>
<circle fill="#0ABCAF" cx="51.14" cy="12.171" r="11.97"/>
<path fill="#FFFFFF" stroke="#FFFFFF" stroke-width="1.4151" d="M58.791,6.14c-0.528-0.396-1.278-0.286-1.675,0.243l-7.857,10.515
	l-3.556-4.609c-0.404-0.524-1.156-0.622-1.679-0.218c-0.524,0.405-0.621,1.157-0.217,1.68l4.488,5.822
	c0.237,0.304,0.591,0.465,0.95,0.465c0.104,0,0.213-0.016,0.317-0.044c0.274-0.059,0.526-0.212,0.709-0.454l8.761-11.723
	C59.429,7.286,59.321,6.536,58.791,6.14z"/>
</svg>
