<?xml version="1.0" encoding="utf-8"?>
<!-- Generator: Adobe Illustrator 14.0.0, SVG Export Plug-In . SVG Version: 6.00 Build 43363)  -->
<!DOCTYPE svg PUBLIC "-//W3C//DTD SVG 1.1//EN" "http://www.w3.org/Graphics/SVG/1.1/DTD/svg11.dtd">
<svg version="1.1" id="Calque_1" xmlns="http://www.w3.org/2000/svg" xmlns:xlink="http://www.w3.org/1999/xlink" x="0px" y="0px"
	 width="70.871px" height="70.871px" viewBox="0 0 70.871 70.871" enable-background="new 0 0 70.871 70.871" xml:space="preserve">
<g>
	<path fill="#5FBDBC" d="M9.668,26.097L9.667,69.653h48.799v-43.55L9.668,26.097z"/>
	<path fill="#FFFFFF" stroke="#FFFFFF" stroke-width="0.8113" d="M50.026,32.669c-1.136-0.848-2.747-0.615-3.595,0.521
		L29.564,55.756l-7.629-9.892c-0.868-1.124-2.481-1.333-3.604-0.466c-1.124,0.865-1.332,2.479-0.465,3.604l9.635,12.493
		c0.506,0.654,1.267,0.999,2.037,0.999c0.229,0,0.46-0.032,0.684-0.095c0.587-0.127,1.131-0.454,1.519-0.973l18.807-25.161
		C51.395,35.129,51.164,33.518,50.026,32.669z"/>
	<g>
		<path fill="#5FBDBC" d="M44.738,8.781h7.635V1.107h6.438v7.673h7.673v6.437h-7.673v7.635h-6.438v-7.635h-7.635V8.781z"/>
	</g>
</g>
</svg>
