<?xml version="1.0" encoding="utf-8"?>
<!-- Generator: Adobe Illustrator 14.0.0, SVG Export Plug-In . SVG Version: 6.00 Build 43363)  -->
<!DOCTYPE svg PUBLIC "-//W3C//DTD SVG 1.1//EN" "http://www.w3.org/Graphics/SVG/1.1/DTD/svg11.dtd">
<svg version="1.1" id="Calque_1" xmlns="http://www.w3.org/2000/svg" xmlns:xlink="http://www.w3.org/1999/xlink" x="0px" y="0px"
	 width="70.871px" height="70.871px" viewBox="0 0 70.871 70.871" enable-background="new 0 0 70.871 70.871" xml:space="preserve">
<g>
	<path fill="none" d="M7.775,7.098L7.773,62.765h55.667V7.104L7.775,7.098z"/>
	<path fill="#5FBDBC" stroke="#5FBDBC" stroke-width="2" d="M61.094,16.075c-1.763-1.313-4.258-0.953-5.573,0.808L29.378,51.859
		L17.554,36.527c-1.344-1.744-3.844-2.066-5.586-0.721c-1.744,1.341-2.065,3.844-0.721,5.583l14.932,19.363
		c0.786,1.018,1.963,1.552,3.159,1.552c0.354,0,0.713-0.049,1.058-0.147c0.911-0.195,1.753-0.703,2.354-1.51l29.15-38.996
		C63.215,19.888,62.855,17.391,61.094,16.075z"/>
	<g>
		<path fill="#5FBDBC" d="M9.673,15.066h7.93V7.098h6.685v7.968h7.966v6.684h-7.966v7.928h-6.685V21.75h-7.93V15.066z"/>
	</g>
</g>
<rect x="2.447" y="2.696" fill="none" stroke="#5FBDBC" stroke-width="5.3809" width="65.714" height="65.714"/>
</svg>
