<?xml version="1.0" encoding="utf-8"?>
<!-- Generator: Adobe Illustrator 14.0.0, SVG Export Plug-In . SVG Version: 6.00 Build 43363)  -->
<!DOCTYPE svg PUBLIC "-//W3C//DTD SVG 1.1//EN" "http://www.w3.org/Graphics/SVG/1.1/DTD/svg11.dtd">
<svg version="1.1" id="Calque_1" xmlns="http://www.w3.org/2000/svg" xmlns:xlink="http://www.w3.org/1999/xlink" x="0px" y="0px"
	 width="94.309px" height="92.667px" viewBox="0 0 94.309 92.667" enable-background="new 0 0 94.309 92.667" xml:space="preserve">
<g>
	<path fill="#FFFFFF" d="M23.171,23.232c0-0.049-0.04-0.088-0.089-0.088l0,0c-0.048,0-0.085,0.039-0.085,0.088l0,0
		c0,0.049,0.039,0.088,0.085,0.088l0,0C23.132,23.32,23.171,23.281,23.171,23.232L23.171,23.232z"/>
	<line fill="none" stroke="#B9D268" stroke-width="1.6384" x1="30.969" y1="46.589" x2="61.742" y2="46.589"/>
	<line fill="none" stroke="#B9D268" stroke-width="1.6384" x1="31.065" y1="51.093" x2="61.838" y2="51.093"/>
	<line fill="none" stroke="#B9D268" stroke-width="1.6384" x1="31.017" y1="55.287" x2="61.791" y2="55.287"/>
	<line fill="none" stroke="#B9D268" stroke-width="1.6384" x1="31.113" y1="59.792" x2="61.885" y2="59.792"/>
	<line fill="none" stroke="#B9D268" stroke-width="1.6384" x1="31.017" y1="63.884" x2="61.791" y2="63.884"/>
</g>
<path fill="#FFFFFF" stroke="#6F7072" stroke-width="3" d="M90.881,78.115c0,5.975-4.842,10.816-10.814,10.816H13.238
	c-5.973,0-10.816-4.844-10.816-10.816v-63.52c0-5.975,4.843-10.816,10.816-10.816h66.829c5.977,0,10.814,4.844,10.814,10.816V78.115
	L90.881,78.115z"/>
<path fill="none" stroke="#6F7072" stroke-width="7.5611" stroke-linecap="round" d="M24.946,46.819
	c0-12.951,10.229-23.449,22.845-23.449c12.617,0,22.848,10.499,22.848,23.449c0,12.954-10.228,23.452-22.845,23.452"/>
<polygon fill="#6F7072" points="14.665,46.819 35.228,46.819 24.946,60.111 "/>
<line fill="none" stroke="#6F7072" stroke-width="5.7414" stroke-linecap="round" stroke-linejoin="round" x1="41.32" y1="41.228" x2="52.934" y2="53.607"/>
<line fill="none" stroke="#6F7072" stroke-width="5.7414" stroke-linecap="round" stroke-linejoin="round" x1="41.32" y1="53.558" x2="52.934" y2="41.178"/>
</svg>
