<?xml version="1.0" encoding="utf-8"?>
<!-- Generator: Adobe Illustrator 15.0.0, SVG Export Plug-In . SVG Version: 6.00 Build 0)  -->
<!DOCTYPE svg PUBLIC "-//W3C//DTD SVG 1.1//EN" "http://www.w3.org/Graphics/SVG/1.1/DTD/svg11.dtd">
<svg version="1.1" id="Calque_1" xmlns="http://www.w3.org/2000/svg" xmlns:xlink="http://www.w3.org/1999/xlink" x="0px" y="0px"
	 width="94.309px" height="92.667px" viewBox="0 0 94.309 92.667" enable-background="new 0 0 94.309 92.667" xml:space="preserve">
<path fill="none" stroke="#D1D3CD" stroke-width="4" d="M91.881,77.115c0,5.975-4.842,10.816-10.814,10.816H14.238
	c-5.973,0-10.815-4.844-10.815-10.816v-63.52c0-5.975,4.843-10.816,10.815-10.816h66.829c5.978,0,10.814,4.844,10.814,10.816V77.115
	L91.881,77.115z"/>
<path fill="none" stroke="#6F9EC9" stroke-width="9" stroke-linecap="round" d="M25.123,46.127c0-13.796,10.896-24.98,24.337-24.98
	s24.342,11.184,24.342,24.98c0,13.8-10.896,24.985-24.339,24.985"/>
<polygon fill="#6F9EC9" stroke="#6F9EC9" stroke-width="2" points="14.168,46.127 36.075,46.127 25.123,60.289 "/>
<line fill="none" stroke="#6F9EC9" stroke-width="7" stroke-linecap="round" stroke-linejoin="round" x1="42.566" y1="40.171" x2="54.938" y2="53.358"/>
<line fill="none" stroke="#6F9EC9" stroke-width="7" stroke-linecap="round" stroke-linejoin="round" x1="42.566" y1="53.306" x2="54.938" y2="40.118"/>
</svg>
