<?xml version="1.0" encoding="utf-8"?>
<!-- Generator: Adobe Illustrator 14.0.0, SVG Export Plug-In . SVG Version: 6.00 Build 43363)  -->
<!DOCTYPE svg PUBLIC "-//W3C//DTD SVG 1.1//EN" "http://www.w3.org/Graphics/SVG/1.1/DTD/svg11.dtd">
<svg version="1.1" id="Calque_1" xmlns="http://www.w3.org/2000/svg" xmlns:xlink="http://www.w3.org/1999/xlink" x="0px" y="0px"
	 width="70.871px" height="70.871px" viewBox="0 0 70.871 70.871" enable-background="new 0 0 70.871 70.871" xml:space="preserve">
<rect x="-0.063" y="-0.125" fill="#707173" width="71.12" height="71.123"/>
<polyline fill="none" stroke="#FFFFFF" stroke-width="5.297" stroke-linecap="round" stroke-linejoin="round" points="5.02,21.038 
	14.278,21.038 23.767,51.127 54.519,51.127 66.806,24.791 "/>
<circle fill="#FFFFFF" cx="32.375" cy="60.471" r="3.973"/>
<circle fill="#FFFFFF" cx="46.721" cy="60.471" r="3.973"/>
<path fill="#FFFFFF" d="M39.844,18.868c-6.503,0-11.772,5.269-11.772,11.77c0,6.5,5.27,11.77,11.772,11.77
	c6.5,0,11.77-5.27,11.77-11.77C51.613,24.137,46.344,18.868,39.844,18.868z M47.294,27.624l-8.424,8.569
	c-0.273,0.281-0.649,0.438-1.043,0.44c-0.003,0-0.006,0-0.008,0c-0.389,0-0.764-0.153-1.039-0.431l-3.938-3.936
	c-0.574-0.574-0.574-1.506,0-2.08c0.574-0.575,1.508-0.575,2.081,0l2.889,2.887l7.383-7.513c0.567-0.581,1.501-0.589,2.081-0.018
	C47.854,26.112,47.862,27.045,47.294,27.624z"/>
</svg>
