<?xml version="1.0" encoding="utf-8"?>
<!-- Generator: Adobe Illustrator 14.0.0, SVG Export Plug-In . SVG Version: 6.00 Build 43363)  -->
<!DOCTYPE svg PUBLIC "-//W3C//DTD SVG 1.1//EN" "http://www.w3.org/Graphics/SVG/1.1/DTD/svg11.dtd">
<svg version="1.1" id="Calque_1" xmlns="http://www.w3.org/2000/svg" xmlns:xlink="http://www.w3.org/1999/xlink" x="0px" y="0px"
	 width="70.871px" height="70.871px" viewBox="0 0 70.871 70.871" enable-background="new 0 0 70.871 70.871" xml:space="preserve">
<rect x="-0.063" y="-0.125" fill="#707173" width="71.12" height="71.123"/>
<g>
	
		<line fill="none" stroke="#FFFFFF" stroke-width="3.4389" stroke-linecap="round" stroke-linejoin="round" x1="61.536" y1="55.544" x2="67.307" y2="55.544"/>
	
		<line fill="none" stroke="#FFFFFF" stroke-width="3.4389" stroke-linecap="round" stroke-linejoin="round" x1="29.677" y1="55.544" x2="46.196" y2="55.544"/>
	
		<line fill="none" stroke="#FFFFFF" stroke-width="3.4389" stroke-linecap="round" stroke-linejoin="round" x1="7.011" y1="55.544" x2="14.431" y2="55.544"/>
	<path fill="#FFFFFF" d="M46.177,12.128H7.317c-1.077,0-1.95,0.873-1.95,1.95v39.316c0,1.075,0.873,1.95,1.95,1.95h7.811
		c0.181-3.828,3.332-6.879,7.204-6.879c3.873,0,7.024,3.051,7.204,6.879h12.973c1.076,0,5.615-7.293,5.615-8.369V14.078
		C48.124,13.001,47.251,12.128,46.177,12.128z"/>
	
		<circle fill="none" stroke="#FFFFFF" stroke-width="4.1267" stroke-linecap="round" stroke-linejoin="round" cx="22.454" cy="55.886" r="7.222"/>
	
		<circle fill="none" stroke="#FFFFFF" stroke-width="4.1267" stroke-linecap="round" stroke-linejoin="round" cx="53.175" cy="55.886" r="7.222"/>
	<g>
		<polygon fill="none" points="49.852,28.948 49.852,38.462 61.889,38.462 61.889,35.939 56.044,29.062 		"/>
		<path fill="#FFFFFF" d="M65.096,36.742c0,0,0.064,0.033-0.012-0.752c0,0-0.33-1.039-1.143-2.054
			c-0.814-1.014-4.92-5.906-4.92-5.905c-1.146-1.146-2.363-2.408-3.439-2.408h-8.824c-1.078,0-1.951,0.873-1.951,1.95v25.102
			c0,0.842,0.535,1.55,1.285,1.824c0.645-3.324,3.57-5.835,7.082-5.835c3.691,0,6.727,2.767,7.162,6.339l2.928,0.08
			c1.076,0,1.949-0.873,1.949-1.949L65.096,36.742z M61.889,38.462H49.852v-9.514l6.191,0.115l5.846,6.877V38.462z"/>
	</g>
</g>
</svg>
