<?xml version="1.0" encoding="utf-8"?>
<!-- Generator: Adobe Illustrator 14.0.0, SVG Export Plug-In . SVG Version: 6.00 Build 43363)  -->
<!DOCTYPE svg PUBLIC "-//W3C//DTD SVG 1.1//EN" "http://www.w3.org/Graphics/SVG/1.1/DTD/svg11.dtd">
<svg version="1.1" id="Calque_1" xmlns="http://www.w3.org/2000/svg" xmlns:xlink="http://www.w3.org/1999/xlink" x="0px" y="0px"
	 width="94.309px" height="92.667px" viewBox="0 0 94.309 92.667" enable-background="new 0 0 94.309 92.667" xml:space="preserve">
<path fill="#FFFFFF" stroke="#6F7072" stroke-width="3" d="M91.881,78.115c0,5.975-4.842,10.816-10.814,10.816H14.238
	c-5.973,0-10.816-4.844-10.816-10.816v-63.52c0-5.975,4.843-10.816,10.816-10.816h66.829c5.979,0,10.814,4.844,10.814,10.816V78.115
	L91.881,78.115z"/>
<path fill="#FFFFFF" stroke="#6F7072" stroke-width="3" d="M68.404,67.753c0,2.188-1.773,3.963-3.961,3.963H30.029
	c-2.188,0-3.962-1.773-3.962-3.963V26.828c0-2.188,1.774-3.962,3.962-3.962h34.415c2.188,0,3.963,1.773,3.963,3.962v40.925H68.404z"
	/>
<g>
	<polygon fill="#6F7072" stroke="#6F7072" points="68.043,39.319 26.519,39.319 26.519,34.57 68.043,34.57 	"/>
</g>
<path fill="#6F7072" d="M40.36,52.82c0,0.73-0.591,1.321-1.32,1.321h-3.51c-0.73,0-1.321-0.591-1.321-1.321V49.4
	c0-0.729,0.591-1.318,1.321-1.318h3.51c0.729,0,1.32,0.59,1.32,1.318V52.82z"/>
<path fill="#6F7072" d="M50.12,52.82c0,0.73-0.593,1.321-1.32,1.321h-3.511c-0.729,0-1.321-0.591-1.321-1.321V49.4
	c0-0.729,0.591-1.318,1.321-1.318H48.8c0.729,0,1.32,0.59,1.32,1.318V52.82z"/>
<path fill="#6F7072" d="M40.36,62.862c0,0.729-0.591,1.321-1.32,1.321h-3.51c-0.73,0-1.321-0.592-1.321-1.321v-3.42
	c0-0.729,0.591-1.319,1.321-1.319h3.51c0.729,0,1.32,0.59,1.32,1.319V62.862z"/>
<path fill="#6F7072" d="M50.12,62.862c0,0.729-0.593,1.321-1.32,1.321h-3.511c-0.729,0-1.321-0.592-1.321-1.321v-3.42
	c0-0.729,0.591-1.319,1.321-1.319H48.8c0.729,0,1.32,0.59,1.32,1.319V62.862z"/>
<path fill="#6F7072" d="M60.354,62.862c0,0.729-0.592,1.321-1.32,1.321h-3.42c-0.729,0-1.32-0.592-1.32-1.321V49.4
	c0-0.729,0.592-1.318,1.32-1.318h3.42c0.729,0,1.32,0.59,1.32,1.318V62.862z"/>
</svg>
