<?xml version="1.0" encoding="utf-8"?>
<!-- Generator: Adobe Illustrator 14.0.0, SVG Export Plug-In . SVG Version: 6.00 Build 43363)  -->
<!DOCTYPE svg PUBLIC "-//W3C//DTD SVG 1.1//EN" "http://www.w3.org/Graphics/SVG/1.1/DTD/svg11.dtd">
<svg version="1.1" id="Calque_1" xmlns="http://www.w3.org/2000/svg" xmlns:xlink="http://www.w3.org/1999/xlink" x="0px" y="0px"
	 width="94.309px" height="92.667px" viewBox="0 0 94.309 92.667" enable-background="new 0 0 94.309 92.667" xml:space="preserve">
<path fill="#95C02F" stroke="#95C02F" stroke-width="6" d="M91.881,78.115c0,5.975-4.842,10.816-10.814,10.816H14.238
	c-5.973,0-10.816-4.844-10.816-10.816v-63.52c0-5.975,4.843-10.816,10.816-10.816h66.829c5.979,0,10.814,4.844,10.814,10.816V78.115
	L91.881,78.115z"/>
<g>
	<path fill="#FFFFFF" stroke="#FFFFFF" d="M40.296,70.332l4.128,1.307c-0.633,2.303-1.686,4.01-3.157,5.129
		c-1.471,1.117-3.338,1.674-5.602,1.674c-2.799,0-5.101-0.955-6.903-2.867c-1.802-1.914-2.704-4.529-2.704-7.846
		c0-3.51,0.907-6.234,2.72-8.176s4.193-2.913,7.147-2.913c2.578,0,4.673,0.761,6.283,2.286c0.96,0.902,1.68,2.197,2.158,3.883
		l-4.214,1.008c-0.248-1.094-0.769-1.955-1.56-2.59c-0.792-0.631-1.752-0.947-2.885-0.947c-1.562,0-2.831,0.561-3.803,1.682
		c-0.974,1.123-1.461,2.938-1.461,5.451c0,2.666,0.48,4.564,1.439,5.695c0.958,1.129,2.205,1.695,3.739,1.695
		c1.131,0,2.104-0.357,2.919-1.078C39.357,73.005,39.941,71.876,40.296,70.332z"/>
	<path fill="#FFFFFF" stroke="#FFFFFF" d="M48.091,57h8.428c1.668,0,2.912,0.068,3.731,0.209c0.82,0.139,1.553,0.43,2.2,0.869
		c0.647,0.441,1.188,1.029,1.619,1.762c0.431,0.734,0.646,1.557,0.646,2.469c0,0.986-0.266,1.893-0.798,2.717
		c-0.533,0.824-1.254,1.443-2.165,1.855c1.284,0.373,2.272,1.012,2.963,1.912s1.035,1.961,1.035,3.178
		c0,0.961-0.224,1.893-0.668,2.797c-0.446,0.908-1.057,1.633-1.827,2.174c-0.772,0.541-1.725,0.875-2.854,0.998
		c-0.709,0.076-2.422,0.125-5.135,0.143h-7.176V57L48.091,57z M52.347,60.509v4.875h2.791c1.659,0,2.688-0.023,3.092-0.072
		c0.729-0.086,1.301-0.338,1.718-0.756c0.419-0.418,0.627-0.965,0.627-1.646c0-0.652-0.181-1.184-0.541-1.59
		c-0.358-0.406-0.894-0.654-1.603-0.74c-0.422-0.047-1.635-0.072-3.64-0.072h-2.444V60.509z M52.347,68.894v5.637h3.942
		c1.533,0,2.507-0.043,2.919-0.131c0.631-0.113,1.148-0.393,1.545-0.84c0.398-0.445,0.598-1.043,0.598-1.791
		c0-0.633-0.154-1.168-0.461-1.609s-0.75-0.762-1.331-0.965c-0.58-0.201-1.839-0.301-3.775-0.301H52.347L52.347,68.894z"/>
</g>
<path fill="none" stroke="#FFFFFF" stroke-width="5" d="M69.867,46.807c0,1.621-1.313,2.935-2.935,2.935H27.377
	c-1.621,0-2.935-1.313-2.935-2.935V23.561c0-1.622,1.313-2.935,2.935-2.935h39.556c1.621,0,2.935,1.313,2.935,2.935V46.807z"/>
<rect x="24.658" y="27.625" fill="#FFFFFF" stroke="#FFFFFF" stroke-width="3" width="44.594" height="5.574"/>
</svg>
