<?xml version="1.0" encoding="utf-8"?>
<!-- Generator: Adobe Illustrator 14.0.0, SVG Export Plug-In . SVG Version: 6.00 Build 43363)  -->
<!DOCTYPE svg PUBLIC "-//W3C//DTD SVG 1.1//EN" "http://www.w3.org/Graphics/SVG/1.1/DTD/svg11.dtd">
<svg version="1.1" id="Calque_1" xmlns="http://www.w3.org/2000/svg" xmlns:xlink="http://www.w3.org/1999/xlink" x="0px" y="0px"
	 width="70.871px" height="70.871px" viewBox="0 0 70.871 70.871" enable-background="new 0 0 70.871 70.871" xml:space="preserve">
<polygon fill="none" stroke="#65A33D" stroke-width="7.6163" points="64.679,67.162 5.945,67.162 35.793,8.427 "/>
<path fill="#6ACC32" d="M67.68,6.594c-2.109-1.581-5.104-1.143-6.688,0.97l-31.37,41.978L15.426,31.139
	c-1.614-2.088-4.616-2.48-6.701-0.868c-2.094,1.619-2.479,4.622-0.865,6.706L25.779,60.22c0.947,1.214,2.359,1.861,3.792,1.861
	c0.417,0,0.851-0.062,1.268-0.181c1.095-0.234,2.102-0.846,2.829-1.812l34.979-46.803C70.225,11.166,69.796,8.176,67.68,6.594z"/>
</svg>
