<?xml version="1.0" encoding="utf-8"?>
<!-- Generator: Adobe Illustrator 14.0.0, SVG Export Plug-In . SVG Version: 6.00 Build 43363)  -->
<!DOCTYPE svg PUBLIC "-//W3C//DTD SVG 1.1//EN" "http://www.w3.org/Graphics/SVG/1.1/DTD/svg11.dtd">
<svg version="1.1" id="Calque_1" xmlns="http://www.w3.org/2000/svg" xmlns:xlink="http://www.w3.org/1999/xlink" x="0px" y="0px"
	 width="70.871px" height="70.871px" viewBox="0 0 70.871 70.871" enable-background="new 0 0 70.871 70.871" xml:space="preserve">
<rect x="-0.063" y="-0.125" fill="#707173" width="71.12" height="71.123"/>
<g>
	<path fill="none" stroke="#FFFFFF" stroke-width="4.0042" d="M20.668,13.08c0,0,0-4.98,0-4.98c0-1.045,0.849-1.892,1.892-1.892
		h24.406c0.178-0.005,2.939-0.024,3.889,0.841c0.95,0.866,8.461,8.648,9.437,9.624c0.478,0.478,1.347,1.722,1.347,2.628
		c0,0.469,0.032,2.19,0.032,2.19v32.807c0,1.043-0.847,1.893-1.891,1.893h-6.657"/>
	<path fill="none" stroke="#FFFFFF" stroke-width="4.0042" d="M47.996,5.849c0,0-0.06,13.11-0.025,13.655
		c0.048,0.755,0.331,1.512,0.991,1.535c0.66,0.022,13.409-0.063,13.409-0.063"/>
</g>
<g>
	<path fill="none" stroke="#FFFFFF" stroke-width="4.0042" d="M52.666,28.688v32.807c0,1.045-0.849,1.893-1.892,1.893h-37.22
		c-1.044,0-1.892-0.848-1.892-1.893V15.297c0-1.043,0.848-1.892,1.892-1.892h24.407c0.178-0.003,2.941-0.022,3.891,0.843
		c0.948,0.865,8.461,8.648,9.436,9.624c0.479,0.478,1.347,1.722,1.347,2.627C52.634,26.968,52.666,28.688,52.666,28.688z"/>
	<path fill="none" stroke="#FFFFFF" stroke-width="4.0042" d="M37.911,13.585c0,0-0.059,13.11-0.024,13.656
		c0.047,0.755,0.331,1.511,0.991,1.534c0.661,0.023,13.41-0.062,13.41-0.062"/>
	
		<line fill="none" stroke="#FFFFFF" stroke-width="4.0042" stroke-linecap="round" stroke-linejoin="round" x1="21.757" y1="36.415" x2="41.11" y2="36.415"/>
	
		<line fill="none" stroke="#FFFFFF" stroke-width="4.0042" stroke-linecap="round" stroke-linejoin="round" x1="22.161" y1="43.507" x2="41.514" y2="43.507"/>
	
		<line fill="none" stroke="#FFFFFF" stroke-width="4.0042" stroke-linecap="round" stroke-linejoin="round" x1="21.757" y1="51.183" x2="41.11" y2="51.183"/>
</g>
</svg>
