<?xml version="1.0" encoding="utf-8"?>
<!-- Generator: Adobe Illustrator 14.0.0, SVG Export Plug-In . SVG Version: 6.00 Build 43363)  -->
<!DOCTYPE svg PUBLIC "-//W3C//DTD SVG 1.1//EN" "http://www.w3.org/Graphics/SVG/1.1/DTD/svg11.dtd" [
	<!ENTITY ns_extend "http://ns.adobe.com/Extensibility/1.0/">
	<!ENTITY ns_ai "http://ns.adobe.com/AdobeIllustrator/10.0/">
	<!ENTITY ns_graphs "http://ns.adobe.com/Graphs/1.0/">
	<!ENTITY ns_vars "http://ns.adobe.com/Variables/1.0/">
	<!ENTITY ns_imrep "http://ns.adobe.com/ImageReplacement/1.0/">
	<!ENTITY ns_sfw "http://ns.adobe.com/SaveForWeb/1.0/">
	<!ENTITY ns_custom "http://ns.adobe.com/GenericCustomNamespace/1.0/">
	<!ENTITY ns_adobe_xpath "http://ns.adobe.com/XPath/1.0/">
]>
<svg version="1.1" id="Calque_1" xmlns:x="&ns_extend;" xmlns:i="&ns_ai;" xmlns:graph="&ns_graphs;"
	 xmlns="http://www.w3.org/2000/svg" xmlns:xlink="http://www.w3.org/1999/xlink" x="0px" y="0px" width="95.215px"
	 height="91.654px" viewBox="0 0 95.215 91.654" enable-background="new 0 0 95.215 91.654" xml:space="preserve">
<metadata>
	<sfw  xmlns="&ns_sfw;">
		<slices></slices>
		<sliceSourceBounds  x="-464.114" y="70.004" width="622.177" height="210.88" bottomLeftOrigin="true"></sliceSourceBounds>
	</sfw>
</metadata>
<path fill="#FFFFFF" stroke="#6F7072" stroke-width="3" d="M90.786,76.892c0,5.975-4.843,10.815-10.814,10.815H13.142
	c-5.973,0-10.816-4.844-10.816-10.815V13.372c0-5.975,4.843-10.815,10.816-10.815h66.829c5.977,0,10.814,4.844,10.814,10.815V76.892
	L90.786,76.892z"/>
<path fill="#FFFFFF" d="M-432.892-65.011c0,6.262-5.077,11.338-11.338,11.338h-74.323c-6.262,0-11.338-5.076-11.338-11.338v-45.323
	c0-6.262,5.077-11.338,11.338-11.338h74.323c6.262,0,11.338,5.076,11.338,11.338V-65.011z"/>
<g>
	<path fill="#FFFFFF" stroke="#6F7072" stroke-width="5" d="M62.854,76.067c0,1.322-1.018,2.398-2.275,2.398H20.526
		c-1.255,0-2.272-1.074-2.272-2.398V24.203c0-1.324,1.018-2.396,2.272-2.396h40.05c1.256,0,2.277,1.075,2.277,2.396V76.067
		L62.854,76.067z"/>
</g>
<g>
	<path fill="#FFFFFF" stroke="#6F7072" stroke-width="5" d="M74.858,66.052c0,1.324-1.016,2.4-2.275,2.4H32.529
		c-1.255,0-2.272-1.076-2.272-2.398V14.196c0-1.324,1.018-2.396,2.272-2.396h40.052c1.258,0,2.277,1.075,2.277,2.396V66.052
		L74.858,66.052z"/>
</g>
<path fill="none" stroke="#6F7072" stroke-width="4.5507" stroke-linecap="round" stroke-linejoin="round" d="M50.85,43.792
	c-0.686-0.367-0.633-0.492-1.186-1.105l0,0c-2.569-2.857-2.332-7.254,0.527-9.822l4.416-3.963c2.859-2.567,7.26-2.332,9.824,0.528
	l0,0c2.568,2.858,2.334,7.258-0.525,9.823l-1.143,1.024"/>
<path fill="none" stroke="#6F7072" stroke-width="4.5507" stroke-linecap="round" stroke-linejoin="round" d="M54.624,37.086
	c0.697,0.353,0.414,0.259,0.982,0.856l0,0c2.643,2.787,2.527,7.189-0.258,9.832l-4.307,4.084c-2.789,2.645-7.192,2.529-9.838-0.258
	l0,0c-2.645-2.787-2.529-7.189,0.258-9.833l1.113-1.055"/>
</svg>
