<?xml version="1.0" encoding="utf-8"?>
<!-- Generator: Adobe Illustrator 14.0.0, SVG Export Plug-In . SVG Version: 6.00 Build 43363)  -->
<!DOCTYPE svg PUBLIC "-//W3C//DTD SVG 1.1//EN" "http://www.w3.org/Graphics/SVG/1.1/DTD/svg11.dtd">
<svg version="1.1" id="Calque_1" xmlns="http://www.w3.org/2000/svg" xmlns:xlink="http://www.w3.org/1999/xlink" x="0px" y="0px"
	 width="70.87px" height="70.87px" viewBox="0 0 70.87 70.87" enable-background="new 0 0 70.87 70.87" xml:space="preserve">
<rect x="0.014" y="-0.015" fill="#707173" width="70.871" height="70.871"/>
<g>
	<g>
		<path fill="#707173" stroke="#FFFFFF" stroke-width="3.8748" d="M40.229,43.048c0,2.998-1.594,5.426-3.558,5.426H14.921
			c-1.965,0-3.558-2.428-3.558-5.426V15.927c0-2.996,1.593-5.425,3.558-5.425h21.751c1.964,0,3.558,2.429,3.558,5.424V43.048z"/>
		
			<line fill="#707173" stroke="#FFFFFF" stroke-width="2.1193" stroke-linecap="round" stroke-linejoin="round" x1="16.509" y1="20.04" x2="25.796" y2="20.04"/>
		
			<line fill="#707173" stroke="#FFFFFF" stroke-width="2.1193" stroke-linecap="round" stroke-linejoin="round" x1="16.509" y1="25.337" x2="34.818" y2="25.337"/>
		
			<line fill="#707173" stroke="#FFFFFF" stroke-width="2.1193" stroke-linecap="round" stroke-linejoin="round" x1="16.509" y1="29.488" x2="34.818" y2="29.488"/>
		
			<line fill="#707173" stroke="#FFFFFF" stroke-width="2.1193" stroke-linecap="round" stroke-linejoin="round" x1="16.509" y1="33.727" x2="34.818" y2="33.727"/>
		
			<line fill="#707173" stroke="#FFFFFF" stroke-width="2.1193" stroke-linecap="round" stroke-linejoin="round" x1="16.509" y1="37.877" x2="34.818" y2="37.877"/>
	</g>
	<g>
		<path fill="#707173" stroke="#FFFFFF" stroke-width="3.8748" d="M49.252,50.557c0,2.998-1.593,5.427-3.557,5.427H23.943
			c-1.965,0-3.558-2.429-3.558-5.426V23.436c0-2.996,1.593-5.425,3.558-5.425l21.752,0c1.964,0,3.557,2.429,3.557,5.424V50.557z"/>
		
			<line fill="#707173" stroke="#FFFFFF" stroke-width="2.1193" stroke-linecap="round" stroke-linejoin="round" x1="25.532" y1="27.548" x2="34.818" y2="27.548"/>
		
			<line fill="#707173" stroke="#FFFFFF" stroke-width="2.1193" stroke-linecap="round" stroke-linejoin="round" x1="25.532" y1="32.847" x2="43.84" y2="32.847"/>
		
			<line fill="#707173" stroke="#FFFFFF" stroke-width="2.1193" stroke-linecap="round" stroke-linejoin="round" x1="25.532" y1="36.997" x2="43.84" y2="36.997"/>
		
			<line fill="#707173" stroke="#FFFFFF" stroke-width="2.1193" stroke-linecap="round" stroke-linejoin="round" x1="25.532" y1="41.236" x2="43.84" y2="41.236"/>
		
			<line fill="#707173" stroke="#FFFFFF" stroke-width="2.1193" stroke-linecap="round" stroke-linejoin="round" x1="25.532" y1="45.386" x2="43.84" y2="45.386"/>
	</g>
	<g>
		<path fill="#707173" stroke="#FFFFFF" stroke-width="3.8748" d="M58.272,58.029c0,2.997-1.592,5.427-3.556,5.427H32.965
			c-1.965,0-3.558-2.43-3.558-5.426V30.908c0-2.997,1.593-5.425,3.558-5.425h21.751c1.964,0,3.556,2.428,3.556,5.424V58.029z"/>
		
			<line fill="#707173" stroke="#FFFFFF" stroke-width="2.1193" stroke-linecap="round" stroke-linejoin="round" x1="34.554" y1="35.02" x2="43.84" y2="35.02"/>
		
			<line fill="#707173" stroke="#FFFFFF" stroke-width="2.1193" stroke-linecap="round" stroke-linejoin="round" x1="34.554" y1="40.318" x2="52.862" y2="40.318"/>
		
			<line fill="#707173" stroke="#FFFFFF" stroke-width="2.1193" stroke-linecap="round" stroke-linejoin="round" x1="34.554" y1="44.468" x2="52.862" y2="44.468"/>
		
			<line fill="#707173" stroke="#FFFFFF" stroke-width="2.1193" stroke-linecap="round" stroke-linejoin="round" x1="34.554" y1="48.706" x2="52.862" y2="48.706"/>
		
			<line fill="#707173" stroke="#FFFFFF" stroke-width="2.1193" stroke-linecap="round" stroke-linejoin="round" x1="34.554" y1="52.858" x2="52.862" y2="52.858"/>
	</g>
</g>
</svg>
