<?xml version="1.0" encoding="utf-8"?>
<!-- Generator: Adobe Illustrator 14.0.0, SVG Export Plug-In . SVG Version: 6.00 Build 43363)  -->
<!DOCTYPE svg PUBLIC "-//W3C//DTD SVG 1.1//EN" "http://www.w3.org/Graphics/SVG/1.1/DTD/svg11.dtd" [
	<!ENTITY ns_extend "http://ns.adobe.com/Extensibility/1.0/">
	<!ENTITY ns_ai "http://ns.adobe.com/AdobeIllustrator/10.0/">
	<!ENTITY ns_graphs "http://ns.adobe.com/Graphs/1.0/">
	<!ENTITY ns_vars "http://ns.adobe.com/Variables/1.0/">
	<!ENTITY ns_imrep "http://ns.adobe.com/ImageReplacement/1.0/">
	<!ENTITY ns_sfw "http://ns.adobe.com/SaveForWeb/1.0/">
	<!ENTITY ns_custom "http://ns.adobe.com/GenericCustomNamespace/1.0/">
	<!ENTITY ns_adobe_xpath "http://ns.adobe.com/XPath/1.0/">
]>
<svg version="1.1" id="Calque_1" xmlns:x="&ns_extend;" xmlns:i="&ns_ai;" xmlns:graph="&ns_graphs;"
	 xmlns="http://www.w3.org/2000/svg" xmlns:xlink="http://www.w3.org/1999/xlink" x="0px" y="0px" width="95.215px"
	 height="91.654px" viewBox="0 0 95.215 91.654" enable-background="new 0 0 95.215 91.654" xml:space="preserve">
<metadata>
	<sfw  xmlns="&ns_sfw;">
		<slices></slices>
		<sliceSourceBounds  x="-464.114" y="69.788" width="624.226" height="211.096" bottomLeftOrigin="true"></sliceSourceBounds>
	</sfw>
</metadata>
<g>
	<path fill="#FFFFFF" stroke="#8471E2" stroke-width="6.1892" d="M64.917,76.125c0,1.323-1.017,2.399-2.275,2.399H22.59
		c-1.255,0-2.272-1.075-2.272-2.398V24.261c0-1.324,1.018-2.396,2.272-2.396h40.05c1.257,0,2.277,1.075,2.277,2.396V76.125
		L64.917,76.125z"/>
</g>
<g>
	<path fill="#FFFFFF" stroke="#8471E2" stroke-width="6.1892" d="M76.922,66.11c0,1.323-1.017,2.399-2.275,2.399H34.593
		c-1.255,0-2.272-1.075-2.272-2.398V14.254c0-1.324,1.018-2.396,2.272-2.396h40.052c1.257,0,2.277,1.075,2.277,2.396V66.11
		L76.922,66.11z"/>
</g>
<path fill="#FFFFFF" d="M-432.892-65.011c0,6.262-5.076,11.338-11.338,11.338h-74.322c-6.263,0-11.339-5.076-11.339-11.338v-45.323
	c0-6.262,5.077-11.338,11.339-11.338h74.322c6.263,0,11.338,5.076,11.338,11.338V-65.011L-432.892-65.011z"/>
<path fill="none" stroke="#8471E2" stroke-width="4.5507" stroke-linecap="round" stroke-linejoin="round" d="M52.915,43.851
	c-0.687-0.368-0.634-0.493-1.187-1.106l0,0c-2.568-2.858-2.331-7.255,0.528-9.823l4.416-3.962c2.859-2.567,7.26-2.332,9.824,0.528
	l0,0c2.567,2.859,2.333,7.258-0.525,9.823l-1.144,1.024"/>
<path fill="none" stroke="#8471E2" stroke-width="4.5507" stroke-linecap="round" stroke-linejoin="round" d="M56.688,37.144
	c0.696,0.353,0.414,0.258,0.981,0.857l0,0c2.644,2.787,2.527,7.188-0.258,9.831l-4.307,4.084c-2.788,2.646-7.191,2.529-9.837-0.257
	l0,0c-2.645-2.787-2.529-7.189,0.258-9.833l1.113-1.055"/>
<path fill="none" stroke="#D1D3CD" stroke-width="4" d="M92.334,76.608c0,5.975-4.842,10.815-10.814,10.815H14.691
	c-5.973,0-10.815-4.844-10.815-10.815V13.088c0-5.975,4.843-10.815,10.815-10.815H81.52c5.979,0,10.814,4.844,10.814,10.815V76.608
	L92.334,76.608z"/>
</svg>
