<?xml version="1.0" encoding="utf-8"?>
<!-- Generator: Adobe Illustrator 14.0.0, SVG Export Plug-In . SVG Version: 6.00 Build 43363)  -->
<!DOCTYPE svg PUBLIC "-//W3C//DTD SVG 1.1//EN" "http://www.w3.org/Graphics/SVG/1.1/DTD/svg11.dtd" [
	<!ENTITY ns_extend "http://ns.adobe.com/Extensibility/1.0/">
	<!ENTITY ns_ai "http://ns.adobe.com/AdobeIllustrator/10.0/">
	<!ENTITY ns_graphs "http://ns.adobe.com/Graphs/1.0/">
	<!ENTITY ns_vars "http://ns.adobe.com/Variables/1.0/">
	<!ENTITY ns_imrep "http://ns.adobe.com/ImageReplacement/1.0/">
	<!ENTITY ns_sfw "http://ns.adobe.com/SaveForWeb/1.0/">
	<!ENTITY ns_custom "http://ns.adobe.com/GenericCustomNamespace/1.0/">
	<!ENTITY ns_adobe_xpath "http://ns.adobe.com/XPath/1.0/">
]>
<svg version="1.1" id="Calque_1" xmlns:x="&ns_extend;" xmlns:i="&ns_ai;" xmlns:graph="&ns_graphs;"
	 xmlns="http://www.w3.org/2000/svg" xmlns:xlink="http://www.w3.org/1999/xlink" x="0px" y="0px" width="95.215px"
	 height="91.654px" viewBox="0 0 95.215 91.654" enable-background="new 0 0 95.215 91.654" xml:space="preserve">
<metadata>
	<sfw  xmlns="&ns_sfw;">
		<slices></slices>
		<sliceSourceBounds  x="-464.114" y="67.611" width="624.728" height="213.272" bottomLeftOrigin="true"></sliceSourceBounds>
	</sfw>
</metadata>
<path fill="#95C02F" stroke="#95C02F" stroke-width="6" d="M91.836,77.784c0,5.976-4.842,10.816-10.813,10.816H14.194
	C8.221,88.6,3.38,83.755,3.38,77.784v-63.52c0-5.977,4.843-10.816,10.814-10.816h66.829c5.979,0,10.813,4.845,10.813,10.816V77.784
	L91.836,77.784z"/>
<path fill="#FFFFFF" d="M-432.892-65.011c0,6.262-5.076,11.338-11.338,11.338h-74.322c-6.263,0-11.339-5.076-11.339-11.338v-45.323
	c0-6.262,5.077-11.338,11.339-11.338h74.322c6.263,0,11.338,5.076,11.338,11.338V-65.011L-432.892-65.011z"/>
<g>
	<g>
		<path fill="#95C02F" stroke="#95C02F" stroke-width="6" d="M63.906,76.772c0,1.322-1.018,2.398-2.275,2.398H21.578
			c-1.255,0-2.272-1.074-2.272-2.398V24.909c0-1.324,1.018-2.396,2.272-2.396h40.05c1.256,0,2.277,1.075,2.277,2.396V76.772
			L63.906,76.772z"/>
		<path fill="#FFFFFF" d="M61.63,81.671H21.578c-2.631,0-4.772-2.197-4.772-4.898V24.909c0-2.7,2.141-4.896,4.772-4.896h40.05
			c2.634,0,4.777,2.197,4.777,4.896v51.863C66.406,79.473,64.263,81.671,61.63,81.671L61.63,81.671z M21.806,76.671h39.6V25.013
			h-39.6L21.806,76.671L21.806,76.671z"/>
	</g>
</g>
<g>
	<g>
		<path fill="#95C02F" stroke="#95C02F" stroke-width="6" d="M75.91,66.757c0,1.324-1.016,2.4-2.275,2.4H33.581
			c-1.255,0-2.272-1.076-2.272-2.398V14.902c0-1.324,1.018-2.396,2.272-2.396h40.052c1.258,0,2.277,1.075,2.277,2.396V66.757
			L75.91,66.757z"/>
		<path fill="#FFFFFF" d="M73.634,71.657H33.581c-2.631,0-4.772-2.197-4.772-4.898V14.902c0-2.7,2.141-4.896,4.772-4.896h40.052
			c2.634,0,4.777,2.197,4.777,4.896v51.854C78.41,69.459,76.267,71.657,73.634,71.657L73.634,71.657z M33.808,66.657h39.601
			l0.001-51.651H33.809L33.808,66.657L33.808,66.657z"/>
	</g>
</g>
<path fill="none" stroke="#FFFFFF" stroke-width="4.5507" stroke-linecap="round" stroke-linejoin="round" d="M51.902,44.498
	c-0.686-0.367-0.633-0.492-1.186-1.105l0,0c-2.569-2.857-2.331-7.254,0.527-9.822l4.416-3.963c2.859-2.567,7.26-2.332,9.824,0.528
	l0,0c2.568,2.858,2.334,7.258-0.525,9.823l-1.143,1.025"/>
<path fill="none" stroke="#FFFFFF" stroke-width="4.5507" stroke-linecap="round" stroke-linejoin="round" d="M55.675,37.793
	c0.697,0.352,0.414,0.258,0.982,0.856l0,0c2.643,2.787,2.527,7.188-0.258,9.831l-4.307,4.084c-2.789,2.645-7.192,2.529-9.838-0.258
	l0,0c-2.645-2.787-2.529-7.188,0.258-9.833l1.113-1.055"/>
</svg>
