<?xml version="1.0" encoding="utf-8"?>
<!-- Generator: Adobe Illustrator 14.0.0, SVG Export Plug-In . SVG Version: 6.00 Build 43363)  -->
<!DOCTYPE svg PUBLIC "-//W3C//DTD SVG 1.1//EN" "http://www.w3.org/Graphics/SVG/1.1/DTD/svg11.dtd">
<svg version="1.1" id="Calque_1" xmlns="http://www.w3.org/2000/svg" xmlns:xlink="http://www.w3.org/1999/xlink" x="0px" y="0px"
	 width="95.514px" height="92.185px" viewBox="-12.308 -10.771 95.514 92.185"
	 enable-background="new -12.308 -10.771 95.514 92.185" xml:space="preserve">
<path fill="#95C02F" stroke="#95C02F" stroke-width="6" d="M79.665,67.195c0,5.975-4.842,10.816-10.814,10.816H2.022
	c-5.973,0-10.816-4.844-10.816-10.816V3.675c0-5.975,4.844-10.816,10.816-10.816H68.85c5.978,0,10.814,4.844,10.814,10.816V67.195
	L79.665,67.195z"/>
<g>
	<path fill="#FFFFFF" stroke="#FFFFFF" stroke-linecap="round" stroke-linejoin="round" d="M19.23,44.83
		c0,0-9.843-4.107-11.983-5.05c-2.141-0.94-1.711-2.653-0.343-3.595c1.37-0.94,50.419-29.102,51.703-29.786
		c1.284-0.684,3.081,0.172,2.909,1.712c-0.171,1.541-7.788,46.562-8.131,47.932c-0.345,1.37-0.603,2.396-2.312,1.797
		c-1.607-0.562-14.295-6.162-14.295-6.162s-6.509,8.217-7.621,9.5c-1.109,1.285-3.253,0.857-3.339-0.938
		c-0.085-1.798-0.17-11.127-0.17-11.127l26.538-32.527L19.23,44.83z"/>
</g>
</svg>
