<?xml version="1.0" encoding="utf-8"?>
<!-- Generator: Adobe Illustrator 15.0.0, SVG Export Plug-In . SVG Version: 6.00 Build 0)  -->
<!DOCTYPE svg PUBLIC "-//W3C//DTD SVG 1.1//EN" "http://www.w3.org/Graphics/SVG/1.1/DTD/svg11.dtd">
<svg version="1.1" id="Calque_1" xmlns="http://www.w3.org/2000/svg" xmlns:xlink="http://www.w3.org/1999/xlink" x="0px" y="0px"
	 width="95.514px" height="92.186px" viewBox="0 0 95.514 92.186" enable-background="new 0 0 95.514 92.186" xml:space="preserve">
<g>
	<path fill="#927ACC" stroke="#FFFFFF" stroke-width="1.5" stroke-linecap="round" stroke-linejoin="round" d="M32.23,55.83
		c0,0-9.843-4.106-11.982-5.05c-2.142-0.94-1.711-2.653-0.344-3.595c1.37-0.94,50.419-29.103,51.703-29.786
		c1.284-0.685,3.081,0.172,2.909,1.712c-0.171,1.541-7.788,46.562-8.131,47.932c-0.345,1.37-0.603,2.396-2.312,1.797
		c-1.606-0.562-14.295-6.161-14.295-6.161s-6.509,8.217-7.62,9.5c-1.109,1.284-3.254,0.856-3.34-0.938
		c-0.085-1.798-0.17-11.127-0.17-11.127l26.538-32.527L32.23,55.83z"/>
</g>
<path fill="none" stroke="#D1D3CD" stroke-width="4" d="M92.665,78.195c0,5.975-4.843,10.816-10.814,10.816H15.022
	c-5.973,0-10.815-4.845-10.815-10.816V14.675C4.206,8.7,9.05,3.859,15.022,3.859H81.85c5.979,0,10.814,4.844,10.814,10.815
	L92.665,78.195L92.665,78.195z"/>
</svg>
