<?xml version="1.0" encoding="utf-8"?>
<!-- Generator: Adobe Illustrator 14.0.0, SVG Export Plug-In . SVG Version: 6.00 Build 43363)  -->
<!DOCTYPE svg PUBLIC "-//W3C//DTD SVG 1.1//EN" "http://www.w3.org/Graphics/SVG/1.1/DTD/svg11.dtd">
<svg version="1.1" id="Calque_1" xmlns="http://www.w3.org/2000/svg" xmlns:xlink="http://www.w3.org/1999/xlink" x="0px" y="0px"
	 width="95.515px" height="92.186px" viewBox="0 0 95.515 92.186" enable-background="new 0 0 95.515 92.186" xml:space="preserve">
<g>
	<path fill="#6F7072" stroke="#FFFFFF" stroke-width="1.5" stroke-linecap="round" stroke-linejoin="round" d="M31.556,56.126
		c0,0-9.843-4.105-11.983-5.049c-2.141-0.941-1.711-2.653-0.343-3.597c1.37-0.939,50.419-29.103,51.702-29.786
		c1.284-0.685,3.082,0.173,2.909,1.713c-0.172,1.541-7.788,46.562-8.131,47.932c-0.346,1.371-0.604,2.396-2.312,1.797
		c-1.607-0.561-14.295-6.162-14.295-6.162s-6.509,8.219-7.621,9.5c-1.109,1.285-3.253,0.857-3.339-0.938
		c-0.085-1.797-0.17-11.127-0.17-11.127l26.538-32.527L31.556,56.126z"/>
</g>
<path fill="none" stroke="#6F7072" stroke-width="3" d="M91.99,78.491c0,5.975-4.842,10.815-10.814,10.815H14.348
	c-5.973,0-10.816-4.844-10.816-10.815V14.97c0-5.975,4.844-10.814,10.816-10.814h66.827c5.979,0,10.813,4.844,10.813,10.814
	L91.99,78.491L91.99,78.491z"/>
</svg>
