<?xml version="1.0" encoding="utf-8"?>
<!-- Generator: Adobe Illustrator 14.0.0, SVG Export Plug-In . SVG Version: 6.00 Build 43363)  -->
<!DOCTYPE svg PUBLIC "-//W3C//DTD SVG 1.1//EN" "http://www.w3.org/Graphics/SVG/1.1/DTD/svg11.dtd">
<svg version="1.1" id="Calque_1" xmlns="http://www.w3.org/2000/svg" xmlns:xlink="http://www.w3.org/1999/xlink" x="0px" y="0px"
	 width="70.87px" height="70.871px" viewBox="0 0 70.87 70.871" enable-background="new 0 0 70.87 70.871" xml:space="preserve">
<rect x="-0.25" y="-0.2" fill="#707173" width="70.92" height="70.919"/>
<g>
	<path fill="#FFFFFF" d="M35.355,68.888c0,0,2.495,0,4.907,0c2.411,0,3.818-1.875,3.818-3.818s0-20.301,0-22.442
		c0-2.144,2.221-6.727,3.416-7.924c1.198-1.197-1.072-27.047-1.072-28.119s-1.079-2.051-1.607-2.144
		c-4.555-0.804-9.461-0.804-9.461-0.804s-4.905,0-9.461,0.804c-0.528,0.093-1.608,1.072-1.608,2.144s-2.269,26.922-1.072,28.119
		c1.197,1.197,3.417,5.781,3.417,7.924c0,2.142,0,20.499,0,22.442s1.407,3.818,3.819,3.818
		C32.862,68.888,35.355,68.888,35.355,68.888z"/>
	<rect x="27.234" y="9.03" fill="#707173" width="16.749" height="21.939"/>
	<ellipse fill="#707173" cx="35.675" cy="6.048" rx="3.082" ry="0.669"/>
	<ellipse fill="#707173" cx="29.914" cy="44.368" rx="1.474" ry="0.804"/>
	<ellipse fill="#707173" cx="35.274" cy="44.368" rx="1.473" ry="0.804"/>
	<ellipse fill="#707173" cx="40.903" cy="44.368" rx="1.474" ry="0.804"/>
	<ellipse fill="#707173" cx="29.914" cy="47.586" rx="1.474" ry="0.804"/>
	<ellipse fill="#707173" cx="35.274" cy="47.586" rx="1.473" ry="0.804"/>
	<ellipse fill="#707173" cx="40.903" cy="47.586" rx="1.474" ry="0.804"/>
	<ellipse fill="#707173" cx="29.914" cy="50.802" rx="1.474" ry="0.804"/>
	<ellipse fill="#707173" cx="35.274" cy="50.802" rx="1.473" ry="0.804"/>
	<ellipse fill="#707173" cx="40.903" cy="50.802" rx="1.474" ry="0.804"/>
	<ellipse fill="#707173" cx="29.914" cy="54.02" rx="1.474" ry="0.804"/>
	<ellipse fill="#707173" cx="35.274" cy="54.02" rx="1.473" ry="0.804"/>
	<ellipse fill="#707173" cx="40.903" cy="54.02" rx="1.474" ry="0.804"/>
	<ellipse fill="#707173" cx="29.914" cy="57.235" rx="1.474" ry="0.804"/>
	<ellipse fill="#707173" cx="35.274" cy="57.235" rx="1.473" ry="0.804"/>
	<ellipse fill="#707173" cx="40.903" cy="57.235" rx="1.474" ry="0.804"/>
	<ellipse fill="#707173" cx="29.914" cy="60.453" rx="1.474" ry="0.804"/>
	<ellipse fill="#707173" cx="35.274" cy="60.453" rx="1.473" ry="0.804"/>
	<ellipse fill="#707173" cx="40.903" cy="60.453" rx="1.474" ry="0.804"/>
	<g>
		<ellipse fill="#707173" cx="32.412" cy="65.538" rx="0.832" ry="0.553"/>
		<ellipse fill="#707173" cx="35.387" cy="65.538" rx="0.832" ry="0.553"/>
		<ellipse fill="#707173" cx="38.137" cy="65.538" rx="0.833" ry="0.553"/>
	</g>
	<ellipse fill="#707173" cx="35.386" cy="38.138" rx="4.021" ry="2.346"/>
</g>
</svg>
