<?xml version="1.0" encoding="utf-8"?>
<!-- Generator: Adobe Illustrator 15.0.0, SVG Export Plug-In . SVG Version: 6.00 Build 0)  -->
<!DOCTYPE svg PUBLIC "-//W3C//DTD SVG 1.1//EN" "http://www.w3.org/Graphics/SVG/1.1/DTD/svg11.dtd">
<svg version="1.1" id="Calque_1" xmlns="http://www.w3.org/2000/svg" xmlns:xlink="http://www.w3.org/1999/xlink" x="0px" y="0px"
	 width="95.215px" height="91.654px" viewBox="0 0 95.215 91.654" enable-background="new 0 0 95.215 91.654" xml:space="preserve">
<g>
	<path fill="#FFFFFF" stroke="#BBE83D" stroke-width="5" d="M60.67,70.834c0,1.068-0.821,1.937-1.838,1.937H26.478
		c-1.014,0-1.836-0.867-1.836-1.937V28.936c0-1.069,0.822-1.937,1.836-1.937h32.353c1.017,0,1.84,0.868,1.84,1.937V70.834
		L60.67,70.834z"/>
</g>
<g>
	<path fill="#FFFFFF" stroke="#BBE83D" stroke-width="5" d="M71.223,28.306v32.998l0,0c0,1.067-0.82,1.938-1.838,1.938H37.031
		c-1.014,0-1.836-0.869-1.836-1.938V19.407c0-1.069,0.822-1.936,1.836-1.936h23.64L71.223,28.306z"/>
</g>
<polyline fill="#FFFFFF" stroke="#BBE83D" stroke-width="5" stroke-linecap="round" stroke-linejoin="round" points="68.22,29.306 
	59.67,29.306 59.67,20.473 "/>
<path fill="none" stroke="#D1D3CD" stroke-width="4" d="M92.163,77.217c0,5.976-4.843,10.816-10.814,10.816H14.519
	c-5.973,0-10.816-4.844-10.816-10.816v-63.52c0-5.975,4.843-10.816,10.816-10.816h66.829c5.979,0,10.814,4.845,10.814,10.816V77.217
	L92.163,77.217z"/>
</svg>
