<?xml version="1.0" encoding="utf-8"?>
<!-- Generator: Adobe Illustrator 14.0.0, SVG Export Plug-In . SVG Version: 6.00 Build 43363)  -->
<!DOCTYPE svg PUBLIC "-//W3C//DTD SVG 1.1//EN" "http://www.w3.org/Graphics/SVG/1.1/DTD/svg11.dtd">
<svg version="1.1" id="Calque_1" xmlns="http://www.w3.org/2000/svg" xmlns:xlink="http://www.w3.org/1999/xlink" x="0px" y="0px"
	 width="95.216px" height="91.654px" viewBox="0 0 95.216 91.654" enable-background="new 0 0 95.216 91.654" xml:space="preserve">
<path fill="#95C02F" stroke="#95C02F" stroke-width="6" d="M92.164,77.219c0,5.976-4.843,10.816-10.814,10.816H14.52
	c-5.973,0-10.815-4.844-10.815-10.816V13.698c0-5.975,4.843-10.816,10.815-10.816h66.83c5.979,0,10.814,4.845,10.814,10.816V77.219
	L92.164,77.219z"/>
<g>
	<path fill="#95C02F" stroke="#FFFFFF" stroke-width="5" d="M60.673,70.836c0,1.068-0.822,1.937-1.838,1.937H26.479
		c-1.014,0-1.836-0.867-1.836-1.937V28.937c0-1.069,0.822-1.937,1.836-1.937h32.354c1.016,0,1.84,0.868,1.84,1.937V70.836
		L60.673,70.836z"/>
</g>
<g>
	<path fill="#95C02F" stroke="#FFFFFF" stroke-width="5" d="M71.225,28.307v32.999l0,0c0,1.067-0.82,1.938-1.838,1.938H37.031
		c-1.014,0-1.836-0.869-1.836-1.938V19.408c0-1.069,0.822-1.936,1.836-1.936h23.641L71.225,28.307z"/>
</g>
<polyline fill="none" stroke="#FFFFFF" stroke-width="5" stroke-linecap="round" stroke-linejoin="round" points="68.222,29.307 
	59.672,29.307 59.672,20.474 "/>
</svg>
