<?xml version="1.0" encoding="utf-8"?>
<!-- Generator: Adobe Illustrator 14.0.0, SVG Export Plug-In . SVG Version: 6.00 Build 43363)  -->
<!DOCTYPE svg PUBLIC "-//W3C//DTD SVG 1.1//EN" "http://www.w3.org/Graphics/SVG/1.1/DTD/svg11.dtd">
<svg version="1.1" id="Calque_1" xmlns="http://www.w3.org/2000/svg" xmlns:xlink="http://www.w3.org/1999/xlink" x="0px" y="0px"
	 width="94.309px" height="92.667px" viewBox="0 0 94.309 92.667" enable-background="new 0 0 94.309 92.667" xml:space="preserve">
<path fill="#95C02F" stroke="#95C02F" stroke-width="6" d="M90.881,78.115c0,5.975-4.842,10.816-10.814,10.816H13.238
	c-5.973,0-10.816-4.844-10.816-10.816v-63.52c0-5.975,4.843-10.816,10.816-10.816h66.829c5.976,0,10.814,4.844,10.814,10.816V78.115
	L90.881,78.115z"/>
<g>
	<path fill="#FFFFFF" stroke="#FFFFFF" stroke-width="4" d="M71.677,27.015v39.893c0,3.135-2.502,5.674-5.588,5.674H26.811
		c-3.09,0-5.592-2.539-5.592-5.674V27.015c0-3.133,2.503-5.674,5.592-5.674h38.216L71.677,27.015z"/>
	<path fill="#95C02F" d="M58.869,36.675c0,1.648-1.375,2.984-3.07,2.984H37.108c-1.694,0-3.072-1.336-3.072-2.984V27.31
		c0-1.646,1.377-2.982,3.072-2.982h18.691c1.691,0,3.068,1.336,3.068,2.982L58.869,36.675L58.869,36.675z"/>
	<path fill="#FFFFFF" d="M23.171,23.232c0-0.049-0.04-0.088-0.089-0.088l0,0c-0.048,0-0.085,0.039-0.085,0.088l0,0
		c0,0.049,0.039,0.088,0.085,0.088l0,0C23.132,23.32,23.171,23.281,23.171,23.232L23.171,23.232z"/>
	<path fill="#FFFFFF" d="M55.986,37.074c0,0.58-0.496,1.053-1.111,1.053h-4.379c-0.617,0-1.113-0.473-1.113-1.053v-10.16
		c0-0.58,0.494-1.053,1.113-1.053h4.379c0.615,0,1.111,0.473,1.111,1.053V37.074L55.986,37.074z"/>
	<path fill="#95C02F" d="M66.041,64.173c0,2.062-1.689,3.729-3.771,3.729H30.442c-2.084,0-3.775-1.666-3.775-3.729V46.4
		c0-2.061,1.69-3.729,3.775-3.729h31.83c2.082,0,3.771,1.668,3.771,3.729L66.041,64.173L66.041,64.173z"/>
	<line fill="none" stroke="#FFFFFF" stroke-width="1.6384" x1="30.969" y1="46.589" x2="61.742" y2="46.589"/>
	<line fill="none" stroke="#FFFFFF" stroke-width="1.6384" x1="31.065" y1="51.093" x2="61.838" y2="51.093"/>
	<line fill="none" stroke="#FFFFFF" stroke-width="1.6384" x1="31.017" y1="55.287" x2="61.791" y2="55.287"/>
	<line fill="none" stroke="#FFFFFF" stroke-width="1.6384" x1="31.113" y1="59.792" x2="61.885" y2="59.792"/>
	<line fill="none" stroke="#FFFFFF" stroke-width="1.6384" x1="31.017" y1="63.884" x2="61.791" y2="63.884"/>
</g>
</svg>
