<?xml version="1.0" encoding="utf-8"?>
<!-- Generator: Adobe Illustrator 14.0.0, SVG Export Plug-In . SVG Version: 6.00 Build 43363)  -->
<!DOCTYPE svg PUBLIC "-//W3C//DTD SVG 1.1//EN" "http://www.w3.org/Graphics/SVG/1.1/DTD/svg11.dtd">
<svg version="1.1" id="Calque_1" xmlns="http://www.w3.org/2000/svg" xmlns:xlink="http://www.w3.org/1999/xlink" x="0px" y="0px"
	 width="94.309px" height="92.667px" viewBox="0 0 94.309 92.667" enable-background="new 0 0 94.309 92.667" xml:space="preserve">
<g>
	<path fill="#FFFFFF" d="M23.171,23.232c0-0.049-0.04-0.088-0.089-0.088l0,0c-0.048,0-0.085,0.039-0.085,0.088l0,0
		c0,0.049,0.039,0.088,0.085,0.088l0,0C23.132,23.32,23.171,23.281,23.171,23.232L23.171,23.232z"/>
	<line fill="none" stroke="#B9D268" stroke-width="1.6384" x1="30.969" y1="46.589" x2="61.742" y2="46.589"/>
	<line fill="none" stroke="#B9D268" stroke-width="1.6384" x1="31.065" y1="51.093" x2="61.838" y2="51.093"/>
	<line fill="none" stroke="#B9D268" stroke-width="1.6384" x1="31.017" y1="55.287" x2="61.791" y2="55.287"/>
	<line fill="none" stroke="#B9D268" stroke-width="1.6384" x1="31.113" y1="59.792" x2="61.885" y2="59.792"/>
	<line fill="none" stroke="#B9D268" stroke-width="1.6384" x1="31.017" y1="63.884" x2="61.791" y2="63.884"/>
</g>
<path fill="#FFFFFF" stroke="#6F7072" stroke-width="3" d="M90.881,78.115c0,5.975-4.842,10.816-10.814,10.816H13.238
	c-5.973,0-10.816-4.844-10.816-10.816v-63.52c0-5.975,4.843-10.816,10.816-10.816h66.829c5.976,0,10.814,4.844,10.814,10.816V78.115
	L90.881,78.115z"/>
<g>
	<path fill="#6F7072" d="M71.396,26.861v39.977c0,3.142-2.51,5.687-5.604,5.687H26.428c-3.094,0-5.603-2.545-5.603-5.687V26.861
		c0-3.141,2.51-5.687,5.603-5.687h38.3L71.396,26.861z"/>
	<path fill="#FFFFFF" d="M58.555,36.542c0,1.651-1.375,2.989-3.076,2.989H36.747c-1.7,0-3.077-1.339-3.077-2.989v-9.385
		c0-1.651,1.377-2.989,3.077-2.989h18.731c1.701,0,3.076,1.338,3.076,2.989V36.542L58.555,36.542z"/>
	<path fill="#FFFFFF" d="M22.781,23.07c0-0.048-0.039-0.089-0.089-0.089l0,0c-0.049,0-0.087,0.04-0.087,0.089l0,0
		c0,0.048,0.039,0.087,0.087,0.087l0,0C22.742,23.157,22.781,23.118,22.781,23.07L22.781,23.07z"/>
	<path fill="#6F7072" d="M55.666,36.94c0,0.583-0.501,1.055-1.119,1.055H50.16c-0.616,0-1.118-0.471-1.118-1.055V26.757
		c0-0.583,0.5-1.055,1.118-1.055h4.387c0.618,0,1.118,0.473,1.118,1.055L55.666,36.94L55.666,36.94z"/>
	<path fill="#FFFFFF" d="M65.746,64.098c0,2.063-1.691,3.737-3.781,3.737H30.067c-2.088,0-3.781-1.674-3.781-3.737V46.284
		c0-2.063,1.693-3.734,3.781-3.734h31.899c2.089,0,3.78,1.671,3.78,3.736V64.098L65.746,64.098z"/>
	<line fill="none" stroke="#6F7072" stroke-width="1.6643" x1="30.596" y1="46.476" x2="61.438" y2="46.476"/>
	<line fill="none" stroke="#6F7072" stroke-width="1.6643" x1="30.691" y1="50.99" x2="61.531" y2="50.99"/>
	<line fill="none" stroke="#6F7072" stroke-width="1.6643" x1="30.644" y1="55.191" x2="61.484" y2="55.191"/>
	<line fill="none" stroke="#6F7072" stroke-width="1.6643" x1="30.739" y1="59.707" x2="61.58" y2="59.707"/>
	<line fill="none" stroke="#6F7072" stroke-width="1.6643" x1="30.644" y1="63.806" x2="61.484" y2="63.806"/>
</g>
</svg>
