<?xml version="1.0" encoding="utf-8"?>
<!-- Generator: Adobe Illustrator 15.0.0, SVG Export Plug-In . SVG Version: 6.00 Build 0)  -->
<!DOCTYPE svg PUBLIC "-//W3C//DTD SVG 1.1//EN" "http://www.w3.org/Graphics/SVG/1.1/DTD/svg11.dtd">
<svg version="1.1" id="Calque_1" xmlns="http://www.w3.org/2000/svg" xmlns:xlink="http://www.w3.org/1999/xlink" x="0px" y="0px"
	 width="95.514px" height="92.186px" viewBox="0 0 95.514 92.186" enable-background="new 0 0 95.514 92.186" xml:space="preserve">
<path fill="none" stroke="#D1D3CD" stroke-width="4" d="M92.665,78.195c0,5.976-4.844,10.816-10.814,10.816H15.022
	c-5.973,0-10.814-4.845-10.814-10.816v-63.52C4.206,8.7,9.05,3.859,15.022,3.859H81.85c5.979,0,10.814,4.845,10.814,10.815
	L92.665,78.195L92.665,78.195z"/>
<g>
	<g>
		<path fill="#EA1C70" d="M40.773,49.788c0,0-4.61-1.924-5.611-2.366c-1.004-0.44-0.801-1.241-0.162-1.684
			c0.642-0.44,23.614-13.629,24.216-13.95c0.601-0.321,1.443,0.081,1.362,0.802c-0.08,0.722-3.648,21.807-3.809,22.448
			c-0.161,0.642-0.282,1.122-1.082,0.842c-0.752-0.263-6.695-2.885-6.695-2.885s-3.049,3.848-3.568,4.449
			c-0.52,0.601-1.525,0.4-1.565-0.439c-0.04-0.843-0.08-5.212-0.08-5.212L56.207,36.56L40.773,49.788z"/>
	</g>
	<path fill="#828588" d="M64.169,11.661c-1.241,0-30.573,0-31.659,0c-1.086,0-4.291,0.809-4.291,4.999c0,4.19,0,59.285,0,59.285
		c0,0.775,1.314,4.743,5.401,4.869c0.949,0.03,24.737,0,29.079,0c3.419,0,5.655-3.008,5.655-4.869c0-1.862,0-57.422,0-59.905
		C68.355,13.556,65.41,11.661,64.169,11.661z M42.864,15.051h10.711V16H42.864V15.051z M48.219,78.577
		c-1.31,0-2.373-1.063-2.373-2.373c0-1.311,1.062-2.373,2.373-2.373s2.374,1.062,2.374,2.373
		C50.593,77.514,49.53,78.577,48.219,78.577z M64.83,72H31.61V19.255H64.83V72z"/>
</g>
</svg>
