<?xml version="1.0" encoding="utf-8"?>
<!-- Generator: Adobe Illustrator 14.0.0, SVG Export Plug-In . SVG Version: 6.00 Build 43363)  -->
<!DOCTYPE svg PUBLIC "-//W3C//DTD SVG 1.1//EN" "http://www.w3.org/Graphics/SVG/1.1/DTD/svg11.dtd">
<svg version="1.1" id="Calque_1" xmlns="http://www.w3.org/2000/svg" xmlns:xlink="http://www.w3.org/1999/xlink" x="0px" y="0px"
	 width="95.216px" height="91.654px" viewBox="0 0 95.216 91.654" enable-background="new 0 0 95.216 91.654" xml:space="preserve">
<path fill="#FFFFFF" stroke="#6F7072" stroke-width="3" d="M91.327,77.587c0,5.975-4.842,10.816-10.814,10.816H13.684
	c-5.973,0-10.816-4.844-10.816-10.816V14.066c0-5.975,4.843-10.815,10.816-10.815h66.829c5.979,0,10.814,4.844,10.814,10.815V77.587
	L91.327,77.587z"/>
<g>
	<path fill="#6F7072" d="M14.837,69.529l4.332-0.42c0.26,1.449,0.79,2.515,1.586,3.193c0.796,0.68,1.872,1.021,3.227,1.021
		c1.435,0,2.514-0.303,3.241-0.907s1.09-1.312,1.09-2.122c0-0.52-0.152-0.963-0.459-1.328c-0.306-0.362-0.839-0.683-1.602-0.952
		c-0.522-0.179-1.709-0.5-3.564-0.96c-2.387-0.589-4.061-1.313-5.023-2.175c-1.354-1.209-2.03-2.685-2.03-4.424
		c0-1.119,0.318-2.168,0.955-3.143s1.554-1.718,2.752-2.228c1.197-0.511,2.644-0.766,4.339-0.766c2.768,0,4.851,0.604,6.25,1.813
		c1.398,1.21,2.133,2.826,2.203,4.846l-4.453,0.193c-0.19-1.129-0.599-1.941-1.226-2.437c-0.626-0.495-1.567-0.742-2.82-0.742
		c-1.293,0-2.307,0.265-3.038,0.795c-0.472,0.34-0.707,0.795-0.707,1.365c0,0.52,0.22,0.966,0.662,1.334
		c0.561,0.471,1.925,0.961,4.091,1.47c2.166,0.512,3.77,1.039,4.805,1.582c1.038,0.546,1.852,1.291,2.438,2.235
		c0.587,0.944,0.879,2.11,0.879,3.502c0,1.261-0.35,2.438-1.052,3.54c-0.703,1.1-1.695,1.917-2.979,2.452
		c-1.284,0.534-2.883,0.802-4.798,0.802c-2.788,0-4.929-0.643-6.423-1.927C16.019,73.861,15.128,71.988,14.837,69.529z"/>
	<path fill="#6F7072" d="M36.449,76.683V54.694h6.662l4,14.999l3.957-14.999h6.679v21.988h-4.137V59.375l-4.378,17.309h-4.287
		l-4.361-17.309v17.309H36.449z"/>
	<path fill="#6F7072" d="M61.041,69.528l4.332-0.419c0.261,1.449,0.789,2.515,1.586,3.193c0.799,0.681,1.874,1.02,3.228,1.02
		c1.434,0,2.516-0.302,3.241-0.906c0.728-0.604,1.09-1.312,1.09-2.122c0-0.52-0.152-0.963-0.458-1.328
		c-0.306-0.363-0.841-0.683-1.604-0.952c-0.521-0.179-1.709-0.5-3.564-0.96c-2.385-0.589-4.061-1.313-5.021-2.175
		c-1.354-1.209-2.03-2.685-2.03-4.424c0-1.119,0.317-2.168,0.955-3.143c0.637-0.975,1.554-1.718,2.752-2.228
		c1.198-0.511,2.645-0.766,4.34-0.766c2.767,0,4.85,0.604,6.248,1.813c1.399,1.21,2.134,2.826,2.204,4.846l-4.452,0.193
		c-0.19-1.129-0.6-1.941-1.226-2.437c-0.627-0.495-1.568-0.742-2.821-0.742c-1.294,0-2.305,0.265-3.038,0.795
		c-0.471,0.34-0.706,0.795-0.706,1.365c0,0.52,0.22,0.966,0.662,1.334c0.561,0.471,1.925,0.961,4.091,1.47
		c2.165,0.512,3.769,1.039,4.805,1.582c1.038,0.545,1.851,1.291,2.438,2.235c0.586,0.944,0.879,2.11,0.879,3.502
		c0,1.261-0.351,2.438-1.053,3.54c-0.701,1.1-1.693,1.917-2.979,2.452c-1.283,0.534-2.883,0.802-4.799,0.802
		c-2.787,0-4.928-0.644-6.422-1.927C62.225,73.861,61.331,71.988,61.041,69.528z"/>
</g>
<path fill="#6F7072" d="M57.008,19.948L36.365,37.936c0,0-7.183-2.975-8.165-3.278s-0.453-1.601,0.076-1.982
	c0.529-0.378,31.531-18.214,32.892-19.053s2.043-0.305,1.815,0.838c-0.227,1.144-4.765,29.192-5.067,30.793s0.228,1.677-1.283,1.066
	c-1.513-0.61-9.226-3.735-9.226-3.735s-4.461,5.105-5.142,6.099c-0.681,0.989-1.438,0.458-1.74-0.534c-0.303-0.991,0-7.472,0-7.472
	L57.008,19.948z"/>
</svg>
