<?xml version="1.0" encoding="utf-8"?>
<!-- Generator: Adobe Illustrator 15.0.0, SVG Export Plug-In . SVG Version: 6.00 Build 0)  -->
<!DOCTYPE svg PUBLIC "-//W3C//DTD SVG 1.1//EN" "http://www.w3.org/Graphics/SVG/1.1/DTD/svg11.dtd">
<svg version="1.1" id="Calque_1" xmlns="http://www.w3.org/2000/svg" xmlns:xlink="http://www.w3.org/1999/xlink" x="0px" y="0px"
	 width="95.514px" height="92.186px" viewBox="0 0 95.514 92.186" enable-background="new 0 0 95.514 92.186" xml:space="preserve">
<path fill="#95C02F" stroke="#95C02F" stroke-width="6" d="M91.155,77.684c0,5.975-4.843,10.816-10.814,10.816H13.511
	c-5.973,0-10.815-4.845-10.815-10.816V14.164c0-5.975,4.844-10.815,10.815-10.815h66.828c5.979,0,10.814,4.844,10.814,10.815
	L91.155,77.684L91.155,77.684z"/>
<g>
	<g>
		<path fill="#FFFFFF" d="M39.246,49.274c0,0-4.61-1.924-5.611-2.366c-1.004-0.44-0.801-1.241-0.162-1.684
			c0.642-0.44,23.614-13.629,24.216-13.95c0.601-0.321,1.443,0.081,1.362,0.802c-0.08,0.722-3.648,21.807-3.809,22.448
			c-0.161,0.642-0.282,1.122-1.082,0.842c-0.752-0.263-6.695-2.885-6.695-2.885s-3.049,3.848-3.568,4.449
			c-0.52,0.601-1.525,0.4-1.565-0.439c-0.04-0.843-0.08-5.212-0.08-5.212l12.429-15.234L39.246,49.274z"/>
	</g>
	<path fill="#FFFFFF" d="M62.643,11.147c-1.241,0-30.573,0-31.659,0c-1.086,0-4.291,0.809-4.291,4.999c0,4.19,0,59.285,0,59.285
		c0,0.775,1.314,4.743,5.401,4.869c0.949,0.03,24.737,0,29.079,0c3.419,0,5.655-3.008,5.655-4.869c0-1.862,0-57.422,0-59.905
		C66.828,13.042,63.884,11.147,62.643,11.147z M41.338,14.537h10.711v0.949H41.338V14.537z M46.693,78.063
		c-1.31,0-2.373-1.063-2.373-2.373c0-1.311,1.062-2.373,2.373-2.373s2.374,1.062,2.374,2.373C49.067,77,48.003,78.063,46.693,78.063
		z M63.304,71.486H30.083V18.74h33.221V71.486z"/>
</g>
</svg>
