<?xml version="1.0" encoding="utf-8"?>
<!-- Generator: Adobe Illustrator 14.0.0, SVG Export Plug-In . SVG Version: 6.00 Build 43363)  -->
<!DOCTYPE svg PUBLIC "-//W3C//DTD SVG 1.1//EN" "http://www.w3.org/Graphics/SVG/1.1/DTD/svg11.dtd">
<svg version="1.1" id="Calque_1" xmlns="http://www.w3.org/2000/svg" xmlns:xlink="http://www.w3.org/1999/xlink" x="0px" y="0px"
	 width="94.309px" height="92.667px" viewBox="0 0 94.309 92.667" enable-background="new 0 0 94.309 92.667" xml:space="preserve">
<path fill="#95C02F" stroke="#95C02F" stroke-width="6" d="M91.881,78.115c0,5.975-4.842,10.816-10.814,10.816H14.238
	c-5.973,0-10.816-4.844-10.816-10.816v-63.52c0-5.975,4.843-10.816,10.816-10.816h66.829c5.979,0,10.814,4.844,10.814,10.816V78.115
	L91.881,78.115z"/>
<polyline fill="none" stroke="#FFFFFF" stroke-width="5.4281" stroke-linecap="round" stroke-linejoin="round" points="
	38.424,44.597 26.851,44.517 26.835,63.288 66.814,63.32 66.83,44.625 56.796,44.612 "/>
<path fill="#FFFFFF" stroke="#FFFFFF" stroke-width="4" stroke-linecap="round" stroke-linejoin="round" d="M67.474,22.333
	l-14.87,2.456l3.956,3.73c0,0-3.967,3.437-10.345,13.428c-4.801,7.518-4.317,11.484-4.317,11.484s1.703-4.773,7.293-10.677
	c6.906-7.295,11.805-10.885,11.801-10.931l4.551,3.933L67.474,22.333z"/>
</svg>
