<?xml version="1.0" encoding="utf-8"?>
<!-- Generator: Adobe Illustrator 14.0.0, SVG Export Plug-In . SVG Version: 6.00 Build 43363)  -->
<!DOCTYPE svg PUBLIC "-//W3C//DTD SVG 1.1//EN" "http://www.w3.org/Graphics/SVG/1.1/DTD/svg11.dtd">
<svg version="1.1" id="Calque_1" xmlns="http://www.w3.org/2000/svg" xmlns:xlink="http://www.w3.org/1999/xlink" x="0px" y="0px"
	 width="94.309px" height="92.667px" viewBox="0 0 94.309 92.667" enable-background="new 0 0 94.309 92.667" xml:space="preserve">
<polyline fill="none" stroke="#EE7F00" stroke-width="5.4281" stroke-linecap="round" stroke-linejoin="round" points="
	38.424,44.597 26.851,44.517 26.835,63.289 66.814,63.32 66.83,44.625 56.796,44.612 "/>
<path fill="#EE7F00" stroke="#EE7F00" stroke-width="4" stroke-linecap="round" stroke-linejoin="round" d="M67.475,22.333
	l-14.871,2.456l3.957,3.73c0,0-3.968,3.437-10.346,13.428c-4.801,7.517-4.317,11.484-4.317,11.484s1.703-4.773,7.293-10.677
	c6.906-7.295,11.805-10.885,11.801-10.931l4.551,3.933L67.475,22.333z"/>
<path fill="none" stroke="#D1D3CD" stroke-width="4" d="M91.881,77.115c0,5.975-4.842,10.816-10.814,10.816H14.238
	c-5.973,0-10.815-4.844-10.815-10.816v-63.52c0-5.975,4.843-10.816,10.815-10.816h66.829c5.979,0,10.814,4.844,10.814,10.816V77.115
	L91.881,77.115z"/>
</svg>
