<?xml version="1.0" encoding="utf-8"?>
<!-- Generator: Adobe Illustrator 14.0.0, SVG Export Plug-In . SVG Version: 6.00 Build 43363)  -->
<!DOCTYPE svg PUBLIC "-//W3C//DTD SVG 1.1//EN" "http://www.w3.org/Graphics/SVG/1.1/DTD/svg11.dtd">
<svg version="1.1" id="Calque_1" xmlns="http://www.w3.org/2000/svg" xmlns:xlink="http://www.w3.org/1999/xlink" x="0px" y="0px"
	 width="70.871px" height="70.871px" viewBox="0 0 70.871 70.871" enable-background="new 0 0 70.871 70.871" xml:space="preserve">
<rect x="-0.063" y="-0.125" fill="#707173" width="71.12" height="71.123"/>
<g>
	<path fill="none" stroke="#FFFFFF" stroke-width="3.6296" d="M42.031,19.924v29.737c0,0.947-0.769,1.717-1.714,1.717H6.578
		c-0.947,0-1.716-0.77-1.716-1.717V7.786c0-0.945,0.769-1.715,1.716-1.715h22.125c0.162-0.003,2.666-0.02,3.527,0.764
		c0.858,0.784,7.669,7.839,8.553,8.724c0.435,0.433,1.221,1.561,1.221,2.381C42.003,18.366,42.031,19.924,42.031,19.924z"/>
	<path fill="none" stroke="#FFFFFF" stroke-width="3.6296" d="M28.657,6.234c0,0-0.053,11.883-0.021,12.379
		c0.042,0.684,0.299,1.369,0.898,1.39c0.599,0.021,12.155-0.056,12.155-0.056"/>
	<path fill="none" stroke="#FFFFFF" stroke-width="3.6296" stroke-linecap="round" stroke-linejoin="round" d="M31.557,26.929"/>
	<path fill="none" stroke="#FFFFFF" stroke-width="3.6296" stroke-linecap="round" stroke-linejoin="round" d="M14.012,26.929"/>
	<path fill="none" stroke="#FFFFFF" stroke-width="3.6296" stroke-linecap="round" stroke-linejoin="round" d="M31.924,33.356"/>
	<path fill="none" stroke="#FFFFFF" stroke-width="3.6296" stroke-linecap="round" stroke-linejoin="round" d="M14.379,33.356"/>
	<path fill="none" stroke="#FFFFFF" stroke-width="3.6296" stroke-linecap="round" stroke-linejoin="round" d="M31.557,40.315"/>
	<path fill="none" stroke="#FFFFFF" stroke-width="3.6296" stroke-linecap="round" stroke-linejoin="round" d="M14.012,40.315"/>
</g>
<path fill="#FFFFFF" d="M26.632,44.109c0,0,2.098-16.76,19.639-15.886c17.643,0.878,17.337,18.919,17.337,18.919l6.214,0.054
	L58.006,65.504L45.631,47.223l5.987,0.079c0,0-0.957-12.293-10.937-12.692C28.397,34.117,26.632,44.109,26.632,44.109z"/>
</svg>
