<?xml version="1.0" encoding="utf-8"?>
<!-- Generator: Adobe Illustrator 14.0.0, SVG Export Plug-In . SVG Version: 6.00 Build 43363)  -->
<!DOCTYPE svg PUBLIC "-//W3C//DTD SVG 1.1//EN" "http://www.w3.org/Graphics/SVG/1.1/DTD/svg11.dtd">
<svg version="1.1" id="Calque_1" xmlns="http://www.w3.org/2000/svg" xmlns:xlink="http://www.w3.org/1999/xlink" x="0px" y="0px"
	 width="70.87px" height="70.871px" viewBox="0 0 70.87 70.871" enable-background="new 0 0 70.87 70.871" xml:space="preserve">
<rect x="-0.063" y="-0.125" fill="#707173" width="71.12" height="71.123"/>
<polygon fill="none" stroke="#FFFFFF" stroke-width="5.8963" points="56.758,15.096 56.758,62.637 13.927,62.637 13.927,8.544 
	49.193,8.376 "/>
<polyline fill="none" stroke="#FFFFFF" stroke-width="4" points="47.513,8.376 47.513,17.951 57.759,17.951 "/>
<g>
	<path fill="#FFFFFF" d="M45.569,50.989c-1.481,0.827-4.009,1.655-6.797,1.655c-4.312,0-8.188-1.743-10.628-4.967
		c-1.176-1.48-2.048-3.354-2.44-5.663h-2.832v-3.093h2.396c0-0.218,0-0.479,0-0.741c0-0.436,0.043-0.871,0.043-1.307h-2.439v-3.093
		h2.919c0.522-2.353,1.612-4.356,3.006-5.925c2.439-2.832,5.925-4.487,10.062-4.487c2.613,0,4.966,0.61,6.534,1.307l-1.22,4.966
		c-1.133-0.479-2.962-1.045-4.879-1.045c-2.047,0-3.963,0.74-5.314,2.352c-0.653,0.697-1.089,1.699-1.394,2.832h10.847v3.093h-11.5
		c-0.044,0.436-0.044,0.871-0.044,1.351c0,0.262,0,0.479,0,0.697h11.544v3.093H32.5c0.305,1.307,0.784,2.309,1.438,3.05
		c1.394,1.568,3.44,2.222,5.618,2.222c2.004,0,4.052-0.653,4.967-1.133L45.569,50.989z"/>
</g>
</svg>
