<?xml version="1.0" encoding="utf-8"?>
<!-- Generator: Adobe Illustrator 14.0.0, SVG Export Plug-In . SVG Version: 6.00 Build 43363)  -->
<!DOCTYPE svg PUBLIC "-//W3C//DTD SVG 1.1//EN" "http://www.w3.org/Graphics/SVG/1.1/DTD/svg11.dtd">
<svg version="1.1" id="Calque_1" xmlns="http://www.w3.org/2000/svg" xmlns:xlink="http://www.w3.org/1999/xlink" x="0px" y="0px"
	 width="95.216px" height="91.654px" viewBox="0 0 95.216 91.654" enable-background="new 0 0 95.216 91.654" xml:space="preserve">
<path fill="#95C02F" stroke="#95C02F" stroke-width="6" d="M91.837,77.784c0,5.976-4.843,10.816-10.814,10.816H14.194
	c-5.973,0-10.814-4.845-10.814-10.816v-63.52c0-5.976,4.843-10.816,10.814-10.816h66.829c5.979,0,10.814,4.845,10.814,10.816V77.784
	L91.837,77.784z"/>
<g>
	<path fill="none" stroke="#FFFFFF" stroke-width="6.8002" d="M72.317,74.883c0,1.453-1.117,2.635-2.5,2.635H25.813
		c-1.379,0-2.497-1.181-2.497-2.635V17.901c0-1.454,1.118-2.633,2.497-2.633h44.001c1.381,0,2.502,1.181,2.502,2.633L72.317,74.883
		L72.317,74.883z"/>
</g>
<path fill="#FFFFFF" d="M-432.892-65.011c0,6.262-5.076,11.338-11.338,11.338h-74.322c-6.263,0-11.339-5.076-11.339-11.338v-45.323
	c0-6.262,5.077-11.338,11.339-11.338h74.322c6.263,0,11.338,5.076,11.338,11.338V-65.011L-432.892-65.011z"/>
<path fill="none" stroke="#FFFFFF" stroke-width="5" stroke-linecap="round" stroke-linejoin="round" d="M45.941,50.424
	c-0.754-0.405-0.697-0.542-1.303-1.216l0,0c-2.821-3.142-2.561-7.974,0.58-10.795l4.85-4.354c3.142-2.82,7.975-2.562,10.794,0.58
	l0,0c2.82,3.142,2.562,7.975-0.579,10.794l-1.255,1.127"/>
<path fill="none" stroke="#FFFFFF" stroke-width="5" stroke-linecap="round" stroke-linejoin="round" d="M50.084,43.052
	c0.765,0.387,0.455,0.284,1.078,0.941l0,0c2.905,3.063,2.778,7.901-0.283,10.807l-4.729,4.487
	c-3.062,2.906-7.899,2.778-10.806-0.283l0,0c-2.906-3.062-2.779-7.9,0.283-10.807l1.223-1.16"/>
</svg>
