<?xml version="1.0" encoding="utf-8"?>
<!-- Generator: Adobe Illustrator 14.0.0, SVG Export Plug-In . SVG Version: 6.00 Build 43363)  -->
<!DOCTYPE svg PUBLIC "-//W3C//DTD SVG 1.1//EN" "http://www.w3.org/Graphics/SVG/1.1/DTD/svg11.dtd">
<svg version="1.1" id="Calque_1" xmlns="http://www.w3.org/2000/svg" xmlns:xlink="http://www.w3.org/1999/xlink" x="0px" y="0px"
	 width="95.216px" height="91.654px" viewBox="0 0 95.216 91.654" enable-background="new 0 0 95.216 91.654" xml:space="preserve">
<path fill="#FFFFFF" stroke="#6F7072" stroke-width="3" d="M90.785,76.892c0,5.975-4.842,10.816-10.814,10.816H13.142
	c-5.973,0-10.816-4.844-10.816-10.816v-63.52c0-5.975,4.843-10.816,10.816-10.816h66.829c5.977,0,10.814,4.844,10.814,10.816V76.892
	L90.785,76.892z"/>
<g>
	<path fill="#FFFFFF" stroke="#6F7072" stroke-width="3" d="M72.317,74.883c0,1.453-1.118,2.634-2.5,2.634H25.813
		c-1.379,0-2.497-1.18-2.497-2.634V17.901c0-1.454,1.118-2.633,2.497-2.633h44.001c1.381,0,2.502,1.181,2.502,2.633V74.883
		L72.317,74.883z"/>
</g>
<path fill="#FFFFFF" d="M-432.892-65.011c0,6.262-5.077,11.338-11.338,11.338h-74.323c-6.262,0-11.338-5.076-11.338-11.338v-45.323
	c0-6.262,5.077-11.338,11.338-11.338h74.323c6.262,0,11.338,5.076,11.338,11.338V-65.011z"/>
<path fill="none" stroke="#6F7072" stroke-width="4" stroke-linecap="round" stroke-linejoin="round" d="M45.941,50.424
	c-0.754-0.406-0.698-0.542-1.303-1.216l0,0c-2.821-3.142-2.561-7.974,0.58-10.795l4.85-4.355c3.141-2.82,7.974-2.561,10.794,0.58
	l0,0c2.82,3.142,2.561,7.975-0.58,10.794l-1.254,1.127"/>
<path fill="none" stroke="#6F7072" stroke-width="4" stroke-linecap="round" stroke-linejoin="round" d="M50.084,43.053
	c0.765,0.386,0.455,0.284,1.078,0.941l0,0c2.906,3.063,2.779,7.901-0.283,10.807l-4.729,4.487c-3.062,2.906-7.9,2.778-10.806-0.283
	l0,0c-2.906-3.062-2.779-7.901,0.283-10.807l1.223-1.16"/>
</svg>
