<?xml version="1.0" encoding="utf-8"?>
<!-- Generator: Adobe Illustrator 14.0.0, SVG Export Plug-In . SVG Version: 6.00 Build 43363)  -->
<!DOCTYPE svg PUBLIC "-//W3C//DTD SVG 1.1//EN" "http://www.w3.org/Graphics/SVG/1.1/DTD/svg11.dtd">
<svg version="1.1" id="Calque_1" xmlns="http://www.w3.org/2000/svg" xmlns:xlink="http://www.w3.org/1999/xlink" x="0px" y="0px"
	 width="94.974px" height="91.914px" viewBox="0 0 94.974 91.914" enable-background="new 0 0 94.974 91.914" xml:space="preserve">
<path fill="#95C02F" stroke="#95C02F" stroke-width="6" d="M91.447,77.732c0,5.975-4.842,10.816-10.813,10.816H13.805
	c-5.973,0-10.816-4.844-10.816-10.816v-63.52c0-5.975,4.844-10.816,10.816-10.816h66.828c5.977,0,10.813,4.844,10.813,10.816V77.732
	L91.447,77.732z"/>
<g>
	<line fill="none" stroke="#FFFFFF" stroke-width="2" x1="19.722" y1="23.764" x2="19.722" y2="70.318"/>
	<line fill="none" stroke="#FFFFFF" stroke-width="3" x1="23.602" y1="23.764" x2="23.602" y2="70.318"/>
	<line fill="none" stroke="#FFFFFF" stroke-width="5" x1="30.022" y1="23.766" x2="30.022" y2="70.322"/>
	<line fill="none" stroke="#FFFFFF" stroke-width="2" x1="36.578" y1="23.63" x2="36.578" y2="70.183"/>
	<line fill="none" stroke="#FFFFFF" stroke-width="5" x1="41.795" y1="23.899" x2="41.795" y2="70.457"/>
	<line fill="none" stroke="#FFFFFF" stroke-width="4" x1="49.019" y1="23.897" x2="49.019" y2="70.453"/>
	<line fill="none" stroke="#FFFFFF" stroke-width="3" x1="75.106" y1="23.764" x2="75.106" y2="70.318"/>
	<line fill="none" stroke="#FFFFFF" stroke-width="5" x1="67.213" y1="23.632" x2="67.213" y2="70.19"/>
	<line fill="none" stroke="#FFFFFF" stroke-width="2" x1="55.708" y1="23.898" x2="55.708" y2="70.453"/>
	<line fill="none" stroke="#FFFFFF" stroke-width="2" x1="59.989" y1="23.898" x2="59.989" y2="70.453"/>
</g>
</svg>
