<?xml version="1.0" encoding="utf-8"?>
<!-- Generator: Adobe Illustrator 14.0.0, SVG Export Plug-In . SVG Version: 6.00 Build 43363)  -->
<!DOCTYPE svg PUBLIC "-//W3C//DTD SVG 1.1//EN" "http://www.w3.org/Graphics/SVG/1.1/DTD/svg11.dtd">
<svg version="1.1" id="Calque_1" xmlns="http://www.w3.org/2000/svg" xmlns:xlink="http://www.w3.org/1999/xlink" x="0px" y="0px"
	 width="93.461px" height="89.024px" viewBox="0 0 93.461 89.024" enable-background="new 0 0 93.461 89.024" xml:space="preserve">
<path fill="#FFFFFF" stroke="#6F7072" stroke-width="3" d="M91.447,76.411c0,5.975-4.842,10.816-10.814,10.816H13.805
	c-5.973,0-10.816-4.844-10.816-10.816v-63.52c0-5.975,4.844-10.816,10.816-10.816h66.828c5.977,0,10.814,4.844,10.814,10.816V76.411
	L91.447,76.411z"/>
<g>
	<line fill="none" stroke="#6F7072" stroke-width="0.8027" x1="17.721" y1="22.443" x2="17.721" y2="68.997"/>
	<line fill="none" stroke="#6F7072" stroke-width="2.408" x1="21.601" y1="22.443" x2="21.601" y2="68.997"/>
	<line fill="none" stroke="#6F7072" stroke-width="4.0133" x1="28.021" y1="22.445" x2="28.021" y2="69.001"/>
	<line fill="none" stroke="#6F7072" stroke-width="0.8027" x1="34.577" y1="22.309" x2="34.577" y2="68.862"/>
	<line fill="none" stroke="#6F7072" stroke-width="4.0133" x1="39.794" y1="22.579" x2="39.794" y2="69.135"/>
	<line fill="none" stroke="#6F7072" stroke-width="2.408" x1="47.018" y1="22.577" x2="47.018" y2="69.131"/>
	<line fill="none" stroke="#6F7072" stroke-width="2.408" x1="73.104" y1="22.443" x2="73.104" y2="68.997"/>
	<line fill="none" stroke="#6F7072" stroke-width="4.0133" x1="65.212" y1="22.312" x2="65.212" y2="68.869"/>
	<line fill="none" stroke="#6F7072" stroke-width="0.8027" x1="53.707" y1="22.577" x2="53.707" y2="69.132"/>
	<line fill="none" stroke="#6F7072" stroke-width="0.8027" x1="57.988" y1="22.578" x2="57.988" y2="69.132"/>
</g>
</svg>
