<?xml version="1.0" encoding="utf-8"?>
<!-- Generator: Adobe Illustrator 15.0.0, SVG Export Plug-In . SVG Version: 6.00 Build 0)  -->
<!DOCTYPE svg PUBLIC "-//W3C//DTD SVG 1.1//EN" "http://www.w3.org/Graphics/SVG/1.1/DTD/svg11.dtd">
<svg version="1.1" id="Calque_1" xmlns="http://www.w3.org/2000/svg" xmlns:xlink="http://www.w3.org/1999/xlink" x="0px" y="0px"
	 width="94.975px" height="91.914px" viewBox="0 0 94.975 91.914" enable-background="new 0 0 94.975 91.914" xml:space="preserve">
<path fill="none" stroke="#D1D3CD" stroke-width="4" d="M91.131,77.969c0,5.975-4.842,10.816-10.812,10.816H13.49
	c-5.974,0-10.816-4.844-10.816-10.816v-63.52c0-5.975,4.846-10.816,10.816-10.816h66.828c5.977,0,10.812,4.844,10.812,10.816V77.969
	L91.131,77.969z"/>
<g>
	<line fill="none" stroke="#535E37" stroke-width="2" x1="19.407" y1="24.001" x2="19.407" y2="70.555"/>
	<line fill="none" stroke="#535E37" stroke-width="3" x1="23.287" y1="24.001" x2="23.287" y2="70.555"/>
	<line fill="none" stroke="#535E37" stroke-width="5" x1="29.707" y1="24.003" x2="29.707" y2="70.559"/>
	<line fill="none" stroke="#535E37" stroke-width="2" x1="36.262" y1="23.867" x2="36.262" y2="70.42"/>
	<line fill="none" stroke="#535E37" stroke-width="5" x1="41.48" y1="24.136" x2="41.48" y2="70.693"/>
	<line fill="none" stroke="#535E37" stroke-width="4" x1="48.704" y1="24.134" x2="48.704" y2="70.689"/>
	<line fill="none" stroke="#535E37" stroke-width="3" x1="74.791" y1="24.001" x2="74.791" y2="70.555"/>
	<line fill="none" stroke="#535E37" stroke-width="5" x1="66.898" y1="23.869" x2="66.898" y2="70.428"/>
	<line fill="none" stroke="#535E37" stroke-width="2" x1="55.392" y1="24.135" x2="55.392" y2="70.689"/>
	<line fill="none" stroke="#535E37" stroke-width="2" x1="59.673" y1="24.135" x2="59.673" y2="70.689"/>
</g>
</svg>
