<?xml version="1.0" encoding="utf-8"?>
<!-- Generator: Adobe Illustrator 15.0.0, SVG Export Plug-In . SVG Version: 6.00 Build 0)  -->
<!DOCTYPE svg PUBLIC "-//W3C//DTD SVG 1.1//EN" "http://www.w3.org/Graphics/SVG/1.1/DTD/svg11.dtd">
<svg version="1.1" id="Calque_1" xmlns="http://www.w3.org/2000/svg" xmlns:xlink="http://www.w3.org/1999/xlink" x="0px" y="0px"
	 width="94.309px" height="92.667px" viewBox="0 0 94.309 92.667" enable-background="new 0 0 94.309 92.667" xml:space="preserve">
<path fill="none" stroke="#D1D3CD" stroke-width="4" d="M90.881,78.115c0,5.975-4.842,10.816-10.814,10.816H13.238
	c-5.973,0-10.815-4.844-10.815-10.816v-63.52c0-5.975,4.843-10.816,10.815-10.816h66.829c5.978,0,10.814,4.844,10.814,10.816V78.115
	L90.881,78.115z"/>
<g>
	<polygon fill="none" stroke="#3FA7E0" stroke-width="2.4102" points="64.781,28.579 64.781,38.727 29.09,38.727 29.09,18.432 
		53.758,18.432 59.879,24.41 	"/>
	<polygon fill="#3FA7E0" points="64.781,28.992 54.056,28.69 53.551,19.447 	"/>
	<path fill="#3FA7E0" stroke="#FFFFFF" stroke-width="0.8608" d="M75.49,60.627c0,3.147-2.545,5.698-5.684,5.698H23.826
		c-3.138,0-5.683-2.551-5.683-5.698V46.906c0-3.146,2.544-5.695,5.683-5.695h45.979c3.139,0,5.687,2.548,5.687,5.695L75.49,60.627
		L75.49,60.627z"/>
	<path fill="#3FA7E0" stroke="#FFFFFF" stroke-width="1.7215" d="M59.98,76.072H33.15h-5.683v-14.9c0-3.146,2.547-5.693,5.685-5.693
		h26.829c3.141,0,5.686,2.547,5.686,5.693v14.9H59.98z"/>
	
		<line fill="none" stroke="#FFFFFF" stroke-width="2.4634" stroke-linecap="round" stroke-linejoin="round" x1="35.387" y1="63.21" x2="57.041" y2="63.21"/>
	
		<line fill="none" stroke="#FFFFFF" stroke-width="2.4634" stroke-linecap="round" stroke-linejoin="round" x1="35.387" y1="69.443" x2="57.041" y2="69.443"/>
	<circle fill="#FFFFFF" stroke="#FFFFFF" stroke-width="0.8608" cx="62.056" cy="47.324" r="1.908"/>
	<circle fill="#FFFFFF" stroke="#FFFFFF" stroke-width="0.8608" cx="69.074" cy="47.324" r="1.908"/>
</g>
</svg>
