<?xml version="1.0" encoding="utf-8"?>
<!-- Generator: Adobe Illustrator 14.0.0, SVG Export Plug-In . SVG Version: 6.00 Build 43363)  -->
<!DOCTYPE svg PUBLIC "-//W3C//DTD SVG 1.1//EN" "http://www.w3.org/Graphics/SVG/1.1/DTD/svg11.dtd">
<svg version="1.1" id="Calque_1" xmlns="http://www.w3.org/2000/svg" xmlns:xlink="http://www.w3.org/1999/xlink" x="0px" y="0px"
	 width="94.309px" height="92.667px" viewBox="0 0 94.309 92.667" enable-background="new 0 0 94.309 92.667" xml:space="preserve">
<path fill="#95C02F" stroke="#95C02F" stroke-width="6" d="M90.881,78.115c0,5.975-4.842,10.816-10.814,10.816H13.238
	c-5.973,0-10.816-4.844-10.816-10.816v-63.52c0-5.975,4.843-10.816,10.816-10.816h66.829c5.977,0,10.814,4.844,10.814,10.816V78.115
	L90.881,78.115z"/>
<g>
	<polygon fill="#95C02F" stroke="#FFFFFF" stroke-width="3" points="64.52,28.373 64.52,38.292 29.622,38.292 29.622,18.451 
		53.743,18.451 59.727,24.295 	"/>
	<polygon fill="#FFFFFF" stroke="#FFFFFF" stroke-width="0.8416" points="64.52,28.775 54.033,28.48 53.541,19.444 	"/>
	<path fill="#FFFFFF" d="M74.988,60.708c0,3.076-2.485,5.569-5.559,5.569H24.476c-3.067,0-5.556-2.493-5.556-5.569V47.292
		c0-3.078,2.489-5.57,5.556-5.57h44.958c3.069,0,5.559,2.492,5.559,5.57L74.988,60.708L74.988,60.708z"/>
	<path fill="#FFFFFF" stroke="#95C02F" stroke-width="1.6832" d="M59.825,75.808H33.593h-5.558V61.24
		c0-3.076,2.488-5.568,5.558-5.568h26.23c3.071,0,5.561,2.492,5.561,5.568v14.568H59.825z"/>
	
		<line fill="none" stroke="#95C02F" stroke-width="2.4086" stroke-linecap="round" stroke-linejoin="round" x1="35.779" y1="63.232" x2="56.953" y2="63.232"/>
	
		<line fill="none" stroke="#95C02F" stroke-width="2.4086" stroke-linecap="round" stroke-linejoin="round" x1="35.779" y1="69.328" x2="56.953" y2="69.328"/>
	<circle fill="#95C02F" stroke="#95C02F" stroke-width="0.8" cx="61.854" cy="47.699" r="1.865"/>
	<circle fill="#95C02F" stroke="#95C02F" stroke-width="0.8" cx="68.717" cy="47.699" r="1.865"/>
</g>
</svg>
