<?xml version="1.0" encoding="utf-8"?>
<!-- Generator: Adobe Illustrator 14.0.0, SVG Export Plug-In . SVG Version: 6.00 Build 43363)  -->
<!DOCTYPE svg PUBLIC "-//W3C//DTD SVG 1.1//EN" "http://www.w3.org/Graphics/SVG/1.1/DTD/svg11.dtd">
<svg version="1.1" id="Calque_1" xmlns="http://www.w3.org/2000/svg" xmlns:xlink="http://www.w3.org/1999/xlink" x="0px" y="0px"
	 width="70.871px" height="70.871px" viewBox="0 0 70.871 70.871" enable-background="new 0 0 70.871 70.871" xml:space="preserve">
<rect x="0.073" fill="#FFFFFF" width="70.725" height="70.871"/>
<polygon fill="#FFFFFF" stroke="#1F85C6" stroke-width="2.8619" stroke-linecap="round" stroke-linejoin="round" points="
	56.156,13.255 56.156,25.042 14.693,25.042 14.693,1.466 43.352,1.466 50.462,8.411 "/>
<polygon fill="#1F85C6" stroke="#1F85C6" stroke-width="2.8619" stroke-linecap="round" stroke-linejoin="round" points="
	56.156,15.325 43.696,14.974 43.113,4.237 "/>
<path fill="#1F85C6" stroke="#FFFFFF" d="M68.597,50.487c0,3.656-2.956,6.619-6.603,6.619H8.578c-3.646,0-6.602-2.963-6.602-6.619
	V34.546c0-3.656,2.956-6.618,6.602-6.618h53.417c3.646,0,6.603,2.961,6.603,6.618V50.487z"/>
<path fill="#1F85C6" stroke="#FFFFFF" stroke-width="2" d="M50.579,68.429H19.41h-6.603V51.118c0-3.655,2.957-6.615,6.603-6.615
	h31.168c3.648,0,6.604,2.96,6.604,6.615v17.311H50.579z"/>
<line fill="none" stroke="#FFFFFF" stroke-width="2.8619" stroke-linecap="round" stroke-linejoin="round" x1="22.008" y1="53.487" x2="47.167" y2="53.487"/>
<line fill="none" stroke="#FFFFFF" stroke-width="2.8619" stroke-linecap="round" stroke-linejoin="round" x1="22.008" y1="60.726" x2="47.167" y2="60.726"/>
<circle fill="#FFFFFF" stroke="#FFFFFF" cx="52.99" cy="35.031" r="2.216"/>
<circle fill="#FFFFFF" stroke="#FFFFFF" cx="61.144" cy="35.031" r="2.216"/>
</svg>
