<?xml version="1.0" encoding="utf-8"?>
<!-- Generator: Adobe Illustrator 15.0.0, SVG Export Plug-In . SVG Version: 6.00 Build 0)  -->
<!DOCTYPE svg PUBLIC "-//W3C//DTD SVG 1.1//EN" "http://www.w3.org/Graphics/SVG/1.1/DTD/svg11.dtd">
<svg version="1.1" id="Calque_1" xmlns="http://www.w3.org/2000/svg" xmlns:xlink="http://www.w3.org/1999/xlink" x="0px" y="0px"
	 width="70.871px" height="70.871px" viewBox="0 0 70.871 70.871" enable-background="new 0 0 70.871 70.871" xml:space="preserve">
<rect x="-0.052" y="0.052" fill="#707173" width="70.869" height="70.871"/>
<g>
	<path fill="#FFFFFF" d="M57.45,30.124c0-12.158-9.856-22.015-22.015-22.015S13.42,17.965,13.42,30.124
		c0,3.973,1.053,7.701,2.894,10.918c1.095,1.915,2.472,3.647,4.071,5.146l15.049,16.679l15.037-16.672
		c0.919-0.859,1.766-1.795,2.526-2.799L53,43.393h-0.001C55.792,39.703,57.45,35.107,57.45,30.124z M35.435,48.109
		c-9.647,0-17.468-7.821-17.468-17.469c0-9.647,7.82-17.468,17.468-17.468s17.468,7.821,17.468,17.468
		C52.903,40.288,45.083,48.109,35.435,48.109z"/>
	<g>
		<path fill="#FFFFFF" d="M30.535,37.775c0.074-0.33,0.186-0.764,0.334-1.306l2.005-7.324c0.021-0.085,0.04-0.17,0.056-0.255
			c0.016-0.084,0.024-0.165,0.024-0.239c0-0.435-0.138-0.706-0.414-0.812c-0.275-0.106-0.778-0.175-1.51-0.207v-0.86
			c0.612-0.042,1.5-0.13,2.665-0.263c1.164-0.133,1.988-0.247,2.474-0.342l1.392-0.271l-2.532,9.283
			c-0.212,0.796-0.355,1.348-0.43,1.656c-0.191,0.785-0.287,1.295-0.287,1.528c0,0.234,0.053,0.385,0.159,0.454
			s0.223,0.104,0.351,0.104c0.329,0,0.739-0.281,1.229-0.844c0.49-0.562,0.921-1.151,1.293-1.768l0.717,0.462
			c-1.062,1.561-1.876,2.611-2.439,3.152c-0.925,0.892-1.914,1.337-2.965,1.337c-0.595,0-1.13-0.183-1.602-0.549
			c-0.473-0.366-0.708-0.927-0.708-1.681C30.345,38.767,30.408,38.348,30.535,37.775z M38.204,19.257
			c0.425,0.425,0.637,0.939,0.637,1.544s-0.212,1.123-0.637,1.553c-0.424,0.43-0.939,0.645-1.544,0.645
			c-0.605,0-1.123-0.215-1.553-0.645c-0.43-0.43-0.645-0.948-0.645-1.553s0.215-1.12,0.645-1.544
			c0.43-0.424,0.947-0.637,1.553-0.637C37.264,18.621,37.78,18.833,38.204,19.257z"/>
	</g>
</g>
</svg>
