<?xml version="1.0" encoding="utf-8"?>
<!-- Generator: Adobe Illustrator 14.0.0, SVG Export Plug-In . SVG Version: 6.00 Build 43363)  -->
<!DOCTYPE svg PUBLIC "-//W3C//DTD SVG 1.1//EN" "http://www.w3.org/Graphics/SVG/1.1/DTD/svg11.dtd">
<svg version="1.1" id="Calque_1" xmlns="http://www.w3.org/2000/svg" xmlns:xlink="http://www.w3.org/1999/xlink" x="0px" y="0px"
	 width="94.309px" height="92.667px" viewBox="0 0 94.309 92.667" enable-background="new 0 0 94.309 92.667" xml:space="preserve">
<path fill="#95C02F" stroke="#95C02F" stroke-width="6" d="M90.881,78.115c0,5.975-4.842,10.816-10.814,10.816H13.238
	c-5.973,0-10.816-4.844-10.816-10.816v-63.52c0-5.975,4.843-10.816,10.816-10.816h66.829c5.977,0,10.814,4.844,10.814,10.816V78.115
	L90.881,78.115z"/>
<g>
	<path fill="#95C02F" stroke="#FFFFFF" stroke-width="5.37" d="M65.702,70.061c0,1.177-0.904,2.136-2.024,2.136H28.01
		c-1.117,0-2.023-0.957-2.023-2.136V23.877c0-1.179,0.906-2.134,2.023-2.134h35.667c1.115,0,2.024,0.956,2.024,2.134L65.702,70.061
		L65.702,70.061z"/>
	
		<line fill="none" stroke="#FFFFFF" stroke-width="3.6662" stroke-linecap="round" stroke-linejoin="round" x1="40.117" y1="42.833" x2="59.661" y2="42.833"/>
	
		<line fill="none" stroke="#FFFFFF" stroke-width="3.6662" stroke-linecap="round" stroke-linejoin="round" x1="40.117" y1="50.925" x2="59.661" y2="50.925"/>
	
		<line fill="none" stroke="#FFFFFF" stroke-width="3.6662" stroke-linecap="round" stroke-linejoin="round" x1="40.117" y1="59.119" x2="59.661" y2="59.119"/>
	<path fill="#FFFFFF" stroke="#FFFFFF" stroke-width="2.8157" stroke-linecap="round" stroke-linejoin="round" d="M34.027,42.339
		c0,0.39-0.315,0.705-0.704,0.705l0,0c-0.388,0-0.705-0.314-0.705-0.705l0,0c0-0.388,0.315-0.704,0.705-0.704l0,0
		C33.711,41.636,34.027,41.951,34.027,42.339L34.027,42.339z"/>
	<path fill="#FFFFFF" stroke="#FFFFFF" stroke-width="2.8157" stroke-linecap="round" stroke-linejoin="round" d="M34.027,50.789
		c0,0.387-0.315,0.701-0.704,0.701l0,0c-0.388,0-0.705-0.314-0.705-0.701l0,0c0-0.392,0.315-0.707,0.705-0.707l0,0
		C33.711,50.083,34.027,50.397,34.027,50.789L34.027,50.789z"/>
	<path fill="#FFFFFF" stroke="#FFFFFF" stroke-width="2.8157" stroke-linecap="round" stroke-linejoin="round" d="M34.027,59
		c0,0.389-0.315,0.701-0.704,0.701l0,0c-0.388,0-0.705-0.312-0.705-0.701l0,0c0-0.39,0.315-0.705,0.705-0.705l0,0
		C33.711,58.296,34.027,58.611,34.027,59L34.027,59z"/>
</g>
</svg>
