<?xml version="1.0" encoding="utf-8"?>
<!-- Generator: Adobe Illustrator 14.0.0, SVG Export Plug-In . SVG Version: 6.00 Build 43363)  -->
<!DOCTYPE svg PUBLIC "-//W3C//DTD SVG 1.1//EN" "http://www.w3.org/Graphics/SVG/1.1/DTD/svg11.dtd">
<svg version="1.1" id="Calque_1" xmlns="http://www.w3.org/2000/svg" xmlns:xlink="http://www.w3.org/1999/xlink" x="0px" y="0px"
	 width="94.309px" height="92.667px" viewBox="0 0 94.309 92.667" enable-background="new 0 0 94.309 92.667" xml:space="preserve">
<path fill="#FFFFFF" stroke="#6F7072" stroke-width="3" d="M90.881,78.115c0,5.975-4.842,10.816-10.814,10.816H13.238
	c-5.973,0-10.816-4.844-10.816-10.816v-63.52c0-5.975,4.843-10.816,10.816-10.816h66.829c5.978,0,10.814,4.844,10.814,10.816V78.115
	L90.881,78.115z"/>
<g>
	<path fill="#FFFFFF" stroke="#6F7072" stroke-width="3" d="M68.666,73.185c0,1.314-1.012,2.386-2.264,2.386H26.567
		c-1.248,0-2.26-1.069-2.26-2.386V21.602c0-1.316,1.012-2.384,2.26-2.384h39.835c1.246,0,2.264,1.068,2.264,2.384V73.185
		L68.666,73.185z"/>
	<line fill="#FFFFFF" stroke="#6F7072" stroke-width="3" stroke-linecap="round" x1="40.09" y1="42.772" x2="61.919" y2="42.772"/>
	<line fill="#FFFFFF" stroke="#6F7072" stroke-width="3" stroke-linecap="round" x1="40.09" y1="51.814" x2="61.919" y2="51.814"/>
	<line fill="#FFFFFF" stroke="#6F7072" stroke-width="3" stroke-linecap="round" x1="40.09" y1="60.962" x2="61.919" y2="60.962"/>
	<path fill="#FFFFFF" stroke="#6F7072" stroke-width="3" d="M33.287,42.223c0,0.435-0.353,0.787-0.786,0.787l0,0
		c-0.434,0-0.787-0.351-0.787-0.787l0,0c0-0.435,0.352-0.787,0.787-0.787l0,0C32.933,41.437,33.287,41.788,33.287,42.223
		L33.287,42.223z"/>
	<path fill="#FFFFFF" stroke="#6F7072" stroke-width="3" d="M33.287,51.658c0,0.434-0.353,0.786-0.786,0.786l0,0
		c-0.434,0-0.787-0.353-0.787-0.786l0,0c0-0.435,0.352-0.787,0.787-0.787l0,0C32.933,50.873,33.287,51.223,33.287,51.658
		L33.287,51.658z"/>
	<path fill="#FFFFFF" stroke="#6F7072" stroke-width="3" d="M33.287,60.832c0,0.433-0.353,0.783-0.786,0.783l0,0
		c-0.434,0-0.787-0.351-0.787-0.783l0,0c0-0.437,0.352-0.787,0.787-0.787l0,0C32.933,60.044,33.287,60.395,33.287,60.832
		L33.287,60.832z"/>
</g>
</svg>
