<?xml version="1.0" encoding="utf-8"?>
<!-- Generator: Adobe Illustrator 14.0.0, SVG Export Plug-In . SVG Version: 6.00 Build 43363)  -->
<!DOCTYPE svg PUBLIC "-//W3C//DTD SVG 1.1//EN" "http://www.w3.org/Graphics/SVG/1.1/DTD/svg11.dtd">
<svg version="1.1" id="Calque_1" xmlns="http://www.w3.org/2000/svg" xmlns:xlink="http://www.w3.org/1999/xlink" x="0px" y="0px"
	 width="70.871px" height="70.871px" viewBox="0 0 70.871 70.871" enable-background="new 0 0 70.871 70.871" xml:space="preserve">
<g>
	<path fill="none" stroke="#7ACE9C" stroke-width="4.6154" stroke-linecap="round" stroke-linejoin="round" d="M61.362,64.469
		c0,1.482-1.14,2.688-2.549,2.688h-44.9c-1.407,0-2.548-1.205-2.548-2.688V6.328c0-1.483,1.141-2.687,2.548-2.687h44.9
		c1.404,0,2.549,1.204,2.549,2.687V64.469L61.362,64.469z"/>
	
		<line fill="none" stroke="#7ACE9C" stroke-width="4.6154" stroke-linecap="round" stroke-linejoin="round" x1="29.154" y1="30.19" x2="53.758" y2="30.19"/>
	
		<line fill="none" stroke="#7ACE9C" stroke-width="4.6154" stroke-linecap="round" stroke-linejoin="round" x1="29.154" y1="40.381" x2="53.758" y2="40.381"/>
	
		<line fill="none" stroke="#7ACE9C" stroke-width="4.6154" stroke-linecap="round" stroke-linejoin="round" x1="29.154" y1="50.691" x2="53.758" y2="50.691"/>
	<path fill="#FFFFFF" stroke="#7ACE9C" stroke-width="3.5447" stroke-linecap="round" stroke-linejoin="round" d="M21.486,29.57
		c0,0.49-0.397,0.887-0.886,0.887l0,0c-0.489,0-0.887-0.396-0.887-0.887l0,0c0-0.49,0.397-0.887,0.887-0.887l0,0
		C21.088,28.684,21.486,29.08,21.486,29.57L21.486,29.57z"/>
	<path fill="#FFFFFF" stroke="#7ACE9C" stroke-width="3.5447" stroke-linecap="round" stroke-linejoin="round" d="M21.486,40.205
		c0,0.487-0.397,0.885-0.886,0.885l0,0c-0.489,0-0.887-0.396-0.887-0.885l0,0c0-0.49,0.397-0.888,0.887-0.888l0,0
		C21.088,39.318,21.486,39.715,21.486,40.205L21.486,40.205z"/>
	<path fill="#FFFFFF" stroke="#7ACE9C" stroke-width="3.5447" stroke-linecap="round" stroke-linejoin="round" d="M21.486,50.543
		c0,0.488-0.397,0.885-0.886,0.885l0,0c-0.489,0-0.887-0.396-0.887-0.885l0,0c0-0.49,0.397-0.887,0.887-0.887l0,0
		C21.088,49.658,21.486,50.053,21.486,50.543L21.486,50.543z"/>
</g>
</svg>
