<?xml version="1.0" encoding="utf-8"?>
<!-- Generator: Adobe Illustrator 14.0.0, SVG Export Plug-In . SVG Version: 6.00 Build 43363)  -->
<!DOCTYPE svg PUBLIC "-//W3C//DTD SVG 1.1//EN" "http://www.w3.org/Graphics/SVG/1.1/DTD/svg11.dtd">
<svg version="1.1" id="Calque_1" xmlns="http://www.w3.org/2000/svg" xmlns:xlink="http://www.w3.org/1999/xlink" x="0px" y="0px"
	 width="70.871px" height="70.871px" viewBox="0 0 70.871 70.871" enable-background="new 0 0 70.871 70.871" xml:space="preserve">
<path fill="#7F9DCD" d="M61.185,40.533l5.779,3.336c0.661,0.383,0.968,1.17,0.741,1.896c-1.502,4.834-4.064,9.201-7.418,12.83
	c-0.517,0.559-1.353,0.686-2.012,0.305l-5.775-3.336c-2.431,2.084-5.225,3.697-8.242,4.766V67c0,0.762-0.527,1.424-1.271,1.59
	c-4.742,1.064-9.833,1.119-14.813,0.002C27.429,68.424,26.9,67.764,26.9,67v-6.67c-3.018-1.066-5.812-2.682-8.242-4.766L12.883,58.9
	c-0.66,0.381-1.496,0.254-2.011-0.305c-3.354-3.629-5.916-7.996-7.418-12.83c-0.227-0.727,0.081-1.514,0.741-1.896l5.779-3.336
	c-0.58-3.146-0.58-6.375,0-9.521l-5.779-3.336c-0.661-0.38-0.968-1.168-0.74-1.896c1.501-4.835,4.063-9.202,7.417-12.83
	c0.517-0.559,1.352-0.686,2.011-0.305l5.776,3.335c2.43-2.082,5.224-3.697,8.241-4.764V4.545c0-0.762,0.528-1.423,1.271-1.589
	c4.742-1.066,9.833-1.121,14.813-0.001c0.745,0.167,1.276,0.826,1.276,1.59v6.671c3.016,1.067,5.811,2.682,8.24,4.764l5.775-3.336
	c0.659-0.379,1.495-0.253,2.013,0.306c3.353,3.628,5.915,7.995,7.417,12.829c0.227,0.729-0.08,1.517-0.741,1.897l-5.779,3.336
	C61.765,34.159,61.765,37.387,61.185,40.533L61.185,40.533z"/>
<g>
	<path fill="#FFFFFF" d="M18.362,27.507c0-1.366,0.197-2.534,0.592-3.505s0.941-1.777,1.639-2.413
		c0.698-0.639,1.541-1.101,2.527-1.389c0.986-0.288,2.057-0.433,3.211-0.433c1.153,0,2.214,0.137,3.187,0.41
		c0.971,0.273,1.814,0.715,2.527,1.32c0.713,0.608,1.267,1.406,1.663,2.391c0.393,0.987,0.607,2.193,0.637,3.62
		c-0.03,1.428-0.244,2.635-0.637,3.62c-0.396,0.988-0.949,1.784-1.663,2.391c-0.713,0.608-1.556,1.048-2.527,1.321
		c-0.972,0.273-2.033,0.41-3.187,0.41c-1.155,0-2.225-0.137-3.211-0.41c-0.986-0.273-1.829-0.713-2.527-1.321
		c-0.698-0.607-1.244-1.403-1.639-2.391C18.559,30.142,18.362,28.935,18.362,27.507z M46.867,19.676l3.324,3.006L23.963,52.826
		l-3.324-3.143L46.867,19.676z M23.644,27.507c0,2.611,0.894,3.917,2.687,3.917c0.939,0,1.616-0.28,2.026-0.843
		c0.409-0.56,0.628-1.585,0.66-3.073c-0.032-1.457-0.251-2.474-0.66-3.05c-0.411-0.577-1.087-0.865-2.026-0.865
		c-0.942,0-1.625,0.288-2.05,0.865S23.644,26.05,23.644,27.507z M36.849,44.355c0-1.365,0.196-2.533,0.592-3.506
		c0.396-0.971,0.941-1.775,1.64-2.412c0.698-0.639,1.54-1.102,2.527-1.391c0.986-0.287,2.056-0.432,3.21-0.432
		c1.153,0,2.216,0.137,3.187,0.41c0.973,0.273,1.814,0.713,2.527,1.32c0.714,0.607,1.268,1.404,1.662,2.389
		c0.395,0.988,0.607,2.195,0.639,3.621c-0.031,1.428-0.244,2.635-0.639,3.621s-0.948,1.783-1.662,2.391
		c-0.713,0.607-1.555,1.047-2.527,1.32c-0.971,0.273-2.033,0.41-3.187,0.41c-1.154,0-2.224-0.137-3.21-0.41
		c-0.987-0.273-1.829-0.713-2.527-1.32s-1.244-1.404-1.64-2.391S36.849,45.783,36.849,44.355z M42.133,44.355
		c0,2.611,0.894,3.916,2.686,3.916c0.94,0,1.617-0.279,2.026-0.842c0.41-0.561,0.629-1.586,0.659-3.074
		c-0.03-1.455-0.249-2.473-0.659-3.051c-0.409-0.574-1.086-0.865-2.026-0.865s-1.625,0.291-2.049,0.865
		C42.344,41.883,42.133,42.9,42.133,44.355z"/>
</g>
</svg>
