<?xml version="1.0" encoding="utf-8"?>
<!-- Generator: Adobe Illustrator 14.0.0, SVG Export Plug-In . SVG Version: 6.00 Build 43363)  -->
<!DOCTYPE svg PUBLIC "-//W3C//DTD SVG 1.1//EN" "http://www.w3.org/Graphics/SVG/1.1/DTD/svg11.dtd">
<svg version="1.1" id="Calque_1" xmlns="http://www.w3.org/2000/svg" xmlns:xlink="http://www.w3.org/1999/xlink" x="0px" y="0px"
	 width="95.514px" height="92.185px" viewBox="-12.308 -10.771 95.514 92.185"
	 enable-background="new -12.308 -10.771 95.514 92.185" xml:space="preserve">
<path fill="#FFFFFF" stroke="#6F7072" stroke-width="3" d="M79.665,67.195c0,5.975-4.842,10.816-10.814,10.816H2.022
	c-5.973,0-10.816-4.844-10.816-10.816V3.675c0-5.975,4.844-10.816,10.816-10.816H68.85c5.978,0,10.814,4.844,10.814,10.816V67.195
	L79.665,67.195z"/>
<g>
	<polyline fill="#6F7072" points="46.89,2.015 15.076,34.131 6.829,65.721 39.245,57.473 70.662,25.216 68.984,19.177 
		68.248,18.587 37.316,49.076 36.877,50.549 38.549,54.971 37.021,55.559 23.766,59.533 13.161,49.225 16.548,35.523 17.58,34.361 
		22.146,35.672 23.766,35.232 54.696,4.742 54.258,3.416 46.89,2.015 	"/>
	<polygon fill="#6F7072" points="56.612,6.362 26.124,36.555 25.387,38.178 34.077,46.867 35.844,46.867 66.627,16.084 
		66.627,14.462 58.527,6.362 	"/>
</g>
</svg>
