<?xml version="1.0" encoding="utf-8"?>
<!-- Generator: Adobe Illustrator 15.0.0, SVG Export Plug-In . SVG Version: 6.00 Build 0)  -->
<!DOCTYPE svg PUBLIC "-//W3C//DTD SVG 1.1//EN" "http://www.w3.org/Graphics/SVG/1.1/DTD/svg11.dtd">
<svg version="1.1" id="Calque_1" xmlns="http://www.w3.org/2000/svg" xmlns:xlink="http://www.w3.org/1999/xlink" x="0px" y="0px"
	 width="95.514px" height="92.186px" viewBox="0 0 95.514 92.186" enable-background="new 0 0 95.514 92.186" xml:space="preserve">
<path fill="none" stroke="#D1D3CD" stroke-width="4" d="M93.062,76.592c0,5.975-4.843,10.816-10.814,10.816H15.418
	c-5.973,0-10.815-4.845-10.815-10.816V13.071c0-5.975,4.844-10.815,10.815-10.815h66.828c5.979,0,10.814,4.844,10.814,10.815
	L93.062,76.592L93.062,76.592z"/>
<g>
	<polyline fill="#F453BE" points="60.286,11.412 28.473,43.527 20.226,75.118 52.642,66.87 84.059,34.612 82.38,28.574 
		81.645,27.983 50.712,58.472 50.274,59.945 51.946,64.368 50.417,64.956 37.162,68.929 26.558,58.622 29.945,44.92 30.977,43.758 
		35.542,45.068 37.162,44.629 68.092,14.138 67.655,12.812 60.286,11.412 	"/>
	<polygon fill="#F453BE" points="70.008,15.759 39.521,45.952 38.783,47.575 47.474,56.263 49.24,56.263 80.024,25.48 
		80.024,23.858 71.923,15.759 	"/>
</g>
</svg>
