<?xml version="1.0" encoding="utf-8"?>
<!-- Generator: Adobe Illustrator 14.0.0, SVG Export Plug-In . SVG Version: 6.00 Build 43363)  -->
<!DOCTYPE svg PUBLIC "-//W3C//DTD SVG 1.1//EN" "http://www.w3.org/Graphics/SVG/1.1/DTD/svg11.dtd">
<svg version="1.1" id="Calque_1" xmlns="http://www.w3.org/2000/svg" xmlns:xlink="http://www.w3.org/1999/xlink" x="0px" y="0px"
	 width="94.309px" height="92.667px" viewBox="0 0 94.309 92.667" enable-background="new 0 0 94.309 92.667" xml:space="preserve">
<path fill="#FFFFFF" stroke="#6F7072" stroke-width="3" d="M91.881,78.115c0,5.975-4.842,10.816-10.814,10.816H14.238
	c-5.973,0-10.816-4.844-10.816-10.816v-63.52c0-5.975,4.843-10.816,10.816-10.816h66.829c5.979,0,10.814,4.844,10.814,10.816V78.115
	L91.881,78.115z"/>
<g>
	<g>
		<path fill="#6F7072" d="M74.159,26.169v-6.02h-5.854v-4.114h5.854v-6.022h4.616v6.02h5.853v4.116h-5.853v6.02L74.159,26.169
			L74.159,26.169z"/>
	</g>
	<path fill="#FFFFFF" stroke="#6F7072" stroke-width="4" d="M63.359,73.059c0,1.043-0.845,1.889-1.886,1.889H29.089
		c-1.041,0-1.887-0.848-1.887-1.889V23.595c0-1.041,0.846-1.886,1.887-1.886h32.384c1.041,0,1.886,0.846,1.886,1.887V73.059z"/>
	<g>
		<polygon fill="#6F7072" points="58.257,33.085 32.968,33.085 32.968,28.523 58.257,28.523 58.257,33.085 		"/>
	</g>
	<g>
		<polygon fill="#6F7072" points="58.257,41.514 32.968,41.514 32.968,36.952 58.257,36.952 58.257,41.514 		"/>
	</g>
	<g>
		<polygon fill="#6F7072" points="52.282,49.5 32.968,49.5 32.968,44.937 52.282,44.937 52.282,49.5 		"/>
	</g>
	<polygon fill="#6F7072" points="43.166,58.172 32.968,58.153 32.968,53.59 47.726,53.558 45.051,55.52 	"/>
	<polygon fill="#6F7072" points="38.07,65.992 32.968,65.915 32.968,61.351 41.142,61.383 	"/>
	<path fill="#6F7072" d="M80.402,41.241l-0.276-0.324c-0.482-0.45-1.411-1.244-2.233-1.503c-0.147-0.047-0.29-0.079-0.416-0.093
		c-0.827-0.106-1.167-0.15-28.949,16.899l-0.379,0.233L37.956,71.525l17.391-1.875l29.085-18.93v-3.575L80.402,41.241z
		 M52.714,58.239c5.172-3.165,11.425-6.975,16.395-9.965l3.248,6.037L56.102,64.538L52.714,58.239z M49.699,60.923l2.679,4.979
		l-6.521,0.703L49.699,60.923z M75.688,52.215l-3.208-5.962c2.058-1.226,3.67-2.171,4.551-2.66c0.125,0.097,0.258,0.207,0.381,0.315
		l1.942,2.901l1.238,2.318L75.688,52.215z"/>
	<polygon fill="#FFFFFF" points="52.714,58.239 56.102,64.538 72.356,54.311 69.108,48.274 	"/>
</g>
</svg>
