<?xml version="1.0" encoding="utf-8"?>
<!-- Generator: Adobe Illustrator 14.0.0, SVG Export Plug-In . SVG Version: 6.00 Build 43363)  -->
<!DOCTYPE svg PUBLIC "-//W3C//DTD SVG 1.1//EN" "http://www.w3.org/Graphics/SVG/1.1/DTD/svg11.dtd">
<svg version="1.1" id="Calque_1" xmlns="http://www.w3.org/2000/svg" xmlns:xlink="http://www.w3.org/1999/xlink" x="0px" y="0px"
	 width="94.309px" height="92.667px" viewBox="0 0 94.309 92.667" enable-background="new 0 0 94.309 92.667" xml:space="preserve">
<path fill="none" stroke="#95C02F" stroke-width="6" d="M91.881,78.115c0,5.975-4.842,10.816-10.814,10.816H14.238
	c-5.973,0-10.816-4.844-10.816-10.816v-63.52c0-5.975,4.843-10.816,10.816-10.816h66.829c5.979,0,10.814,4.844,10.814,10.816V78.115
	L91.881,78.115z"/>
<g>
	<path fill="#95C02F" d="M23.601,50.074l0.828,5.492c0,0-3.752-0.56-3.963-5.655c-0.108,0-3.815-0.107-3.815-0.107
		s0.191,3.733,2.275,6.861c1.964,2.951,6.261,2.85,6.261,2.85l3.123,13.531c0,0,0.412,5.048,3.659,5.419
		c5.594,0.639,32.412,0,32.412,0s3.504,0.365,4.723-4.459c1-3.947,2.084-14.733,2.084-14.733s9.145-1.941,8.684-9.47
		c0,0-3.803-0.032-3.816,0.108c-0.211,2.198-2.191,5.453-4.104,5.053c-0.064-0.015,0.705-4.848,0.705-4.848L23.601,50.074z"/>
</g>
<path fill="#95C02F" d="M49.934,35.159l-0.246-1.363l2.271-0.329l-0.65-3.631l-7.838,0.67l0.424,3.675l2.187-0.211l0.081,1.409
	c-17.63,1.785-22.751,13.63-22.751,13.63l48.27-4.89C71.682,44.12,65.504,34.994,49.934,35.159z"/>
<g>
	<path fill="#95C02F" d="M67.531,35.495V27.35H59.57v-5.565h7.961v-8.147h6.273v8.146h7.957v5.566h-7.957v8.145H67.531z"/>
</g>
</svg>
