<?xml version="1.0" encoding="utf-8"?>
<!-- Generator: Adobe Illustrator 14.0.0, SVG Export Plug-In . SVG Version: 6.00 Build 43363)  -->
<!DOCTYPE svg PUBLIC "-//W3C//DTD SVG 1.1//EN" "http://www.w3.org/Graphics/SVG/1.1/DTD/svg11.dtd">
<svg version="1.1" id="Calque_1" xmlns="http://www.w3.org/2000/svg" xmlns:xlink="http://www.w3.org/1999/xlink" x="0px" y="0px"
	 width="70.871px" height="70.871px" viewBox="0 0 70.871 70.871" enable-background="new 0 0 70.871 70.871" xml:space="preserve">
<rect fill="#FFFFFF" width="71.121" height="71.123"/>
<g>
	<path fill="#6F7072" d="M7.071,39.574l0.854,5.994c0,0-3.865-0.609-4.083-6.172c-0.111,0-3.929-0.117-3.929-0.117
		s0.196,4.074,2.343,7.488c2.023,3.221,6.45,3.108,6.45,3.108l3.215,14.771c0,0,0.424,5.509,3.77,5.914
		c5.761,0.697,33.381,0,33.381,0s3.609,0.399,4.863-4.865c1.027-4.31,2.146-16.081,2.146-16.081s9.418-2.121,8.942-10.337
		c0,0-3.914-0.034-3.93,0.119c-0.218,2.396-2.258,5.951-4.227,5.516c-0.066-0.016,0.725-5.289,0.725-5.289L7.071,39.574z"/>
</g>
<path fill="#6F7072" d="M32.798,21.843l-0.303-1.477l2.319-0.45l-0.804-3.934l-8.025,1.046l0.575,3.99l2.238-0.317l0.138,1.533
	C10.894,24.886,7.082,38.012,7.082,38.012l49.391-7.265C56.471,30.747,48.782,21.041,32.798,21.843z"/>
<g>
	<path fill="#6F7072" d="M55.355,23.931v-8.917h-8.672V8.92h8.672V0h6.836v8.919h8.67v6.094h-8.67v8.917L55.355,23.931
		L55.355,23.931z"/>
</g>
</svg>
