<?xml version="1.0" encoding="utf-8"?>
<!-- Generator: Adobe Illustrator 14.0.0, SVG Export Plug-In . SVG Version: 6.00 Build 43363)  -->
<!DOCTYPE svg PUBLIC "-//W3C//DTD SVG 1.1//EN" "http://www.w3.org/Graphics/SVG/1.1/DTD/svg11.dtd">
<svg version="1.1" id="Calque_1" xmlns="http://www.w3.org/2000/svg" xmlns:xlink="http://www.w3.org/1999/xlink" x="0px" y="0px"
	 width="70.871px" height="70.871px" viewBox="0 0 70.871 70.871" enable-background="new 0 0 70.871 70.871" xml:space="preserve">
<rect x="-0.25" fill="#6F7072" width="71.121" height="71.123"/>
<g>
	<path fill="#FFFFFF" d="M10.966,25.507v-8.324H2.871v-5.688h8.096V3.167h6.383v8.325h8.092v5.689H17.35v8.324L10.966,25.507
		L10.966,25.507z"/>
</g>
<rect x="246.75" y="10" fill="#F4A74D" width="71.121" height="71.123"/>
<g>
	<g>
		<g>
			<polygon fill="#FFFFFF" points="295.053,78.438 260.436,78.07 260.594,32.465 295.145,32.465 			"/>
			<polygon fill="#FFFFFF" points="298.413,28.7 262.546,28.588 263.439,28 298.471,28.277 			"/>
			<polygon fill="#FFFFFF" points="298.385,73.098 298.094,73.686 298.094,29.707 298.385,29.122 			"/>
			<polygon fill="#FFFFFF" points="297.768,74.542 297.475,75.126 297.475,30.649 297.768,30.064 			"/>
			<polygon fill="#FFFFFF" points="297.092,75.845 296.799,76.432 296.799,31.508 297.092,30.923 			"/>
			<polygon fill="#FFFFFF" points="296.331,77.318 296.04,77.905 296.04,32.592 296.331,32.006 			"/>
		</g>
		<g>
			<g>
				<path fill="#F4A74D" d="M268.795,50.391c0,0-4.529-0.574-5.523-6.391c-0.939-5.493,1.633-7.945,4.386-8.381
					c2.752-0.436,6.538,2.418,7.102,7.051c0.71,5.862-3.356,7.237-3.356,7.237s-0.114,1.604,0.188,3.426
					c0.439,2.642,1.334,3.526,1.334,3.526l2.622,17.005c0,0-0.354,1.323-1.536,1.44c-1.18,0.116-1.76-0.429-1.916-0.968
					c-0.154-0.537-2.586-17.151-2.586-17.151s0.292-1.722,0.168-3.394C269.553,52.12,268.795,50.391,268.795,50.391z"/>
				<path fill="#FFFFFF" d="M264.943,40.368c0,0-1.037,1.685-0.344,4.345c0.678,2.609,3.635,4.096,3.635,4.096
					s-2.096-2.603-2.582-4.643C265.167,42.125,264.943,40.368,264.943,40.368z"/>
			</g>
			<path fill="#F4A74D" d="M282.198,49.811c0,0-0.79,1.323-0.774,3.17c0.023,2.677,0.766,3.69,0.766,3.69l-0.067,17.205
				c0,0-0.56,1.254-1.742,1.185c-1.185-0.067-1.672-0.696-1.739-1.254c-0.07-0.558,0.127-17.347,0.127-17.347
				s0.558-1.653,0.695-3.326c0.141-1.67-0.751-3.219-0.751-3.219s-1.126-1.231-1.663-1.877c-0.535-0.644-1.072-1.931-1.126-2.574
				s1.234-9.495,1.234-9.495l0.644,0.053v10.516h1.127v-10.46h0.697v10.405h1.232V36.076h0.592V46.32h1.339V36.076h0.752
				c0,0,1.072,8.636,1.072,9.064c0,0.43-0.269,2.308-1.128,3.06C282.627,48.95,282.198,49.811,282.198,49.811z"/>
			<path fill="#F4A74D" d="M286.65,56.891c0,0-0.697-1.449,0.429-10.354c1.127-8.904,4.131-11.104,4.131-11.104h0.375l0.207,26.482
				l-0.067,11.869c0,0-0.56,1.252-1.742,1.184c-1.185-0.069-1.672-0.698-1.741-1.254c-0.068-0.557,0.047-11.475,0.047-11.475
				s0.616-0.724,0.562-2.669C288.743,57.802,286.65,56.891,286.65,56.891z"/>
		</g>
	</g>
	<path fill="#FFFFFF" d="M260.666,32.557c0,0-0.499-1.937,0.689-3.664c0.832-1.212,2.717-0.897,2.717-0.897l-0.316,0.569
		c0,0-0.849-0.544-1.736,0.511c-1.215,1.443-0.696,3.562-0.696,3.562L260.666,32.557z"/>
	<g>
		<polygon fill="#FFFFFF" points="297.27,29.583 262.8,29.495 263.195,29.104 298.148,29.144 297.752,29.451 		"/>
	</g>
	<g>
		<polygon fill="#FFFFFF" points="296.7,30.505 261.852,30.383 262.247,29.993 297.579,30.066 297.182,30.374 		"/>
	</g>
	<g>
		<polygon fill="#FFFFFF" points="295.883,31.266 261.363,31.178 261.758,30.788 296.762,30.827 296.366,31.134 		"/>
	</g>
	<g>
		<polygon fill="#FFFFFF" points="295.088,32.129 261.393,32.024 261.788,31.634 295.967,31.69 295.57,31.998 		"/>
	</g>
</g>
<g>
	<path fill="#FFFFFF" d="M301.299,34.431v-8.324h-8.096v-5.688h8.096v-8.327h6.383v8.325h8.092v5.689h-8.092v8.324L301.299,34.431
		L301.299,34.431z"/>
</g>
<g>
	<path fill="none" stroke="#FFFFFF" stroke-width="3.6783" d="M52.996,61.919c0,0.841-0.682,1.522-1.521,1.522H25.366
		c-0.84,0-1.522-0.683-1.522-1.522V22.04c0-0.839,0.682-1.521,1.522-1.521h26.108c0.84,0,1.521,0.682,1.521,1.521V61.919z"/>
	<line fill="none" stroke="#FFFFFF" stroke-width="3.6783" x1="28.493" y1="27.852" x2="48.882" y2="27.852"/>
	<line fill="none" stroke="#FFFFFF" stroke-width="3.6783" x1="28.493" y1="34.647" x2="48.882" y2="34.647"/>
	<line fill="none" stroke="#FFFFFF" stroke-width="3.6783" x1="28.493" y1="41.086" x2="44.064" y2="41.086"/>
	<line fill="none" stroke="#FFFFFF" stroke-width="3.6783" x1="28.493" y1="48.062" x2="41.378" y2="48.062"/>
	<line fill="none" stroke="#FFFFFF" stroke-width="3.6783" x1="28.493" y1="54.32" x2="39.385" y2="54.32"/>
	<g>
		<path fill="#6F7072" d="M35.472,59.777l5.063-15.664l0.285-0.303c20.882-22.12,21.213-22.173,22.015-22.307
			c0.122-0.021,0.265-0.033,0.416-0.033c0.843,0,1.944,0.428,2.526,0.683l0.353,0.203l2.504,2.122v9.497l-17.497,19.49
			L35.472,59.777L35.472,59.777z"/>
	</g>
	<g>
		<path fill="#FFFFFF" d="M35.472,59.777l5.063-15.664l0.285-0.303c20.882-22.12,21.213-22.173,22.015-22.307
			c0.122-0.021,0.265-0.033,0.416-0.033c0.843,0,1.944,0.428,2.526,0.683l0.353,0.203l4.345,3.19v6.043L51.137,53.465L35.472,59.777
			L35.472,59.777z M43.779,46.035l-2.389,7.392l7.564-3.049l19.678-21.317l-1.839-1.651l-2.666-1.959
			c-0.147-0.059-0.303-0.118-0.448-0.167C61.092,27.79,50.57,38.846,43.779,46.035L43.779,46.035z"/>
	</g>
	<line fill="none" stroke="#FFFFFF" stroke-width="3.6783" x1="57.934" y1="29.212" x2="64.395" y2="34.976"/>
	<line fill="none" stroke="#FFFFFF" stroke-width="3.6783" x1="43.516" y1="45.256" x2="49.975" y2="51.02"/>
</g>
</svg>
