<?xml version="1.0" encoding="utf-8"?>
<!-- Generator: Adobe Illustrator 14.0.0, SVG Export Plug-In . SVG Version: 6.00 Build 43363)  -->
<!DOCTYPE svg PUBLIC "-//W3C//DTD SVG 1.1//EN" "http://www.w3.org/Graphics/SVG/1.1/DTD/svg11.dtd" [
	<!ENTITY ns_extend "http://ns.adobe.com/Extensibility/1.0/">
	<!ENTITY ns_ai "http://ns.adobe.com/AdobeIllustrator/10.0/">
	<!ENTITY ns_graphs "http://ns.adobe.com/Graphs/1.0/">
	<!ENTITY ns_vars "http://ns.adobe.com/Variables/1.0/">
	<!ENTITY ns_imrep "http://ns.adobe.com/ImageReplacement/1.0/">
	<!ENTITY ns_sfw "http://ns.adobe.com/SaveForWeb/1.0/">
	<!ENTITY ns_custom "http://ns.adobe.com/GenericCustomNamespace/1.0/">
	<!ENTITY ns_adobe_xpath "http://ns.adobe.com/XPath/1.0/">
]>
<svg version="1.1" id="Calque_1" xmlns:x="&ns_extend;" xmlns:i="&ns_ai;" xmlns:graph="&ns_graphs;"
	 xmlns="http://www.w3.org/2000/svg" xmlns:xlink="http://www.w3.org/1999/xlink" x="0px" y="0px" width="94.309px"
	 height="92.667px" viewBox="0 0 94.309 92.667" enable-background="new 0 0 94.309 92.667" xml:space="preserve">
<metadata>
	<sfw  xmlns="&ns_sfw;">
		<slices></slices>
		<sliceSourceBounds  height="88.152" width="91.459" x="251.408" y="376.848" bottomLeftOrigin="true"></sliceSourceBounds>
	</sfw>
</metadata>
<path fill="#FFFFFF" stroke="#6F7072" stroke-width="3" d="M90.881,78.115c0,5.975-4.842,10.816-10.814,10.816H13.238
	c-5.973,0-10.816-4.844-10.816-10.816v-63.52c0-5.975,4.843-10.816,10.816-10.816h66.829c5.977,0,10.814,4.844,10.814,10.816V78.115
	L90.881,78.115z"/>
<polygon fill="#6F7072" points="70.129,19.766 21.258,69.766 70.129,69.766 "/>
<g>
	<path fill="#6F7072" d="M62.574,68.038v-9.559c-3.709,7.01-9.818,10.514-18.333,10.514c-6.547,0-11.674-2.143-15.379-6.43
		c-3.535-3.996-5.301-9.211-5.301-15.642c0-6.544,1.766-11.844,5.301-15.899c3.822-4.286,9.064-6.43,15.727-6.43
		c8.515,0,14.509,3.418,17.986,10.253V24.766h3.127v43.271H62.574z M44.154,27.459c-5.562,0-9.936,1.941-13.12,5.822
		c-2.955,3.592-4.432,8.139-4.432,13.64c0,5.563,1.447,10.081,4.344,13.556c3.186,3.768,7.588,5.648,13.208,5.648
		c5.561,0,10.049-1.881,13.467-5.648c3.301-3.59,4.953-8.109,4.953-13.556c0-5.964-1.594-10.7-4.779-14.205
		C54.607,29.212,50.061,27.459,44.154,27.459z"/>
</g>
<g>
	<g>
		<path fill="#FFFFFF" d="M30.555,60.196c3.186,3.766,7.588,5.648,13.208,5.648c5.561,0,10.049-1.883,13.467-5.648
			c3.301-3.592,4.953-8.109,4.953-13.555c0-5.965-1.203-10.419-4.389-13.924l1.949-2.326c1.102,1.233,1.617,2.56,2.439,4.173v-6.668
			l3.127-3.411v43.27h-3.127v-9.557c-3.709,7.01-9.818,10.514-18.333,10.514c-6.547,0-11.674-2.143-15.379-6.43L30.555,60.196z"/>
	</g>
</g>
</svg>
