<?xml version="1.0" encoding="utf-8"?>
<!-- Generator: Adobe Illustrator 14.0.0, SVG Export Plug-In . SVG Version: 6.00 Build 43363)  -->
<!DOCTYPE svg PUBLIC "-//W3C//DTD SVG 1.1//EN" "http://www.w3.org/Graphics/SVG/1.1/DTD/svg11.dtd" [
	<!ENTITY ns_extend "http://ns.adobe.com/Extensibility/1.0/">
	<!ENTITY ns_ai "http://ns.adobe.com/AdobeIllustrator/10.0/">
	<!ENTITY ns_graphs "http://ns.adobe.com/Graphs/1.0/">
	<!ENTITY ns_vars "http://ns.adobe.com/Variables/1.0/">
	<!ENTITY ns_imrep "http://ns.adobe.com/ImageReplacement/1.0/">
	<!ENTITY ns_sfw "http://ns.adobe.com/SaveForWeb/1.0/">
	<!ENTITY ns_custom "http://ns.adobe.com/GenericCustomNamespace/1.0/">
	<!ENTITY ns_adobe_xpath "http://ns.adobe.com/XPath/1.0/">
]>
<svg version="1.1" id="Calque_1" xmlns:x="&ns_extend;" xmlns:i="&ns_ai;" xmlns:graph="&ns_graphs;"
	 xmlns="http://www.w3.org/2000/svg" xmlns:xlink="http://www.w3.org/1999/xlink" x="0px" y="0px" width="94.309px"
	 height="92.667px" viewBox="0 0 94.309 92.667" enable-background="new 0 0 94.309 92.667" xml:space="preserve">
<metadata>
	<sfw  xmlns="&ns_sfw;">
		<slices></slices>
		<sliceSourceBounds  height="91.152" width="94.459" x="250.908" y="375.348" bottomLeftOrigin="true"></sliceSourceBounds>
	</sfw>
</metadata>
<g>
	<path fill="#95C02F" stroke="#95C02F" stroke-width="6" d="M91.881,78.115c0,5.975-4.842,10.816-10.814,10.816H14.238
		c-5.973,0-10.816-4.844-10.816-10.816v-63.52c0-5.975,4.843-10.816,10.816-10.816h66.829c5.979,0,10.814,4.844,10.814,10.816
		V78.115L91.881,78.115z"/>
</g>
<polygon fill="#FFFFFF" points="71.59,20.114 22.719,70.115 71.59,70.115 "/>
<g>
	<path fill="#FFFFFF" d="M64.035,68.386v-9.559c-3.709,7.01-9.818,10.514-18.334,10.514c-6.547,0-11.674-2.143-15.379-6.43
		c-3.535-3.996-5.301-9.211-5.301-15.642c0-6.544,1.766-11.844,5.301-15.899c3.822-4.286,9.064-6.43,15.727-6.43
		c8.516,0,14.51,3.419,17.986,10.253V25.115h3.127v43.271H64.035z M45.615,27.808c-5.562,0-9.936,1.941-13.121,5.821
		c-2.955,3.593-4.432,8.14-4.432,13.641c0,5.563,1.447,10.081,4.344,13.556c3.186,3.768,7.588,5.648,13.209,5.648
		c5.561,0,10.049-1.881,13.467-5.648c3.301-3.59,4.953-8.109,4.953-13.556c0-5.965-1.594-10.699-4.779-14.205
		C56.068,29.561,51.521,27.808,45.615,27.808z"/>
</g>
<g>
	<path fill="#95C02F" d="M32.016,60.544c3.186,3.766,7.588,5.648,13.209,5.648c5.561,0,10.049-1.883,13.467-5.648
		c3.301-3.592,4.953-8.109,4.953-13.556c0-5.965-1.203-10.418-4.389-13.924l1.949-2.326c1.102,1.232,1.617,2.56,2.439,4.174v-6.668
		l3.127-3.412v43.271h-3.127v-9.557c-3.709,7.01-9.818,10.514-18.334,10.514c-6.547,0-11.674-2.143-15.379-6.43L32.016,60.544z"/>
</g>
</svg>
