<?xml version="1.0" encoding="utf-8"?>
<!-- Generator: Adobe Illustrator 14.0.0, SVG Export Plug-In . SVG Version: 6.00 Build 43363)  -->
<!DOCTYPE svg PUBLIC "-//W3C//DTD SVG 1.1//EN" "http://www.w3.org/Graphics/SVG/1.1/DTD/svg11.dtd" [
	<!ENTITY ns_extend "http://ns.adobe.com/Extensibility/1.0/">
	<!ENTITY ns_ai "http://ns.adobe.com/AdobeIllustrator/10.0/">
	<!ENTITY ns_graphs "http://ns.adobe.com/Graphs/1.0/">
	<!ENTITY ns_vars "http://ns.adobe.com/Variables/1.0/">
	<!ENTITY ns_imrep "http://ns.adobe.com/ImageReplacement/1.0/">
	<!ENTITY ns_sfw "http://ns.adobe.com/SaveForWeb/1.0/">
	<!ENTITY ns_custom "http://ns.adobe.com/GenericCustomNamespace/1.0/">
	<!ENTITY ns_adobe_xpath "http://ns.adobe.com/XPath/1.0/">
]>
<svg version="1.1" id="Calque_1" xmlns:x="&ns_extend;" xmlns:i="&ns_ai;" xmlns:graph="&ns_graphs;"
	 xmlns="http://www.w3.org/2000/svg" xmlns:xlink="http://www.w3.org/1999/xlink" x="0px" y="0px" width="94.309px"
	 height="92.667px" viewBox="0 0 94.309 92.667" enable-background="new 0 0 94.309 92.667" xml:space="preserve">
<metadata>
	<sfw  xmlns="&ns_sfw;">
		<slices></slices>
		<sliceSourceBounds  height="89.152" width="117.537" x="226.83" y="376.348" bottomLeftOrigin="true"></sliceSourceBounds>
	</sfw>
</metadata>
<polygon fill="#3BA6DA" points="72.652,21.333 23.781,71.333 72.652,71.333 "/>
<path fill="none" stroke="#D1D3CD" stroke-width="4" d="M91.881,78.115c0,5.975-4.842,10.816-10.814,10.816H14.238
	c-5.973,0-10.815-4.844-10.815-10.816v-63.52c0-5.975,4.843-10.816,10.815-10.816h66.829c5.979,0,10.814,4.844,10.814,10.816V78.115
	L91.881,78.115z"/>
<g>
	<g>
		<path fill="#3BA6DA" d="M65.097,69.605v-9.559c-3.708,7.01-9.818,10.514-18.333,10.514c-6.546,0-11.673-2.143-15.379-6.43
			c-3.534-3.996-5.3-9.211-5.3-15.641c0-6.544,1.766-11.845,5.3-15.9c3.823-4.286,9.065-6.43,15.727-6.43
			c8.515,0,14.51,3.418,17.986,10.253V26.334h3.128v43.271H65.097z M46.677,29.027c-5.561,0-9.936,1.941-13.121,5.822
			c-2.954,3.592-4.431,8.139-4.431,13.641c0,5.562,1.447,10.08,4.344,13.555c3.185,3.768,7.588,5.648,13.208,5.648
			c5.561,0,10.049-1.881,13.467-5.648c3.302-3.59,4.953-8.109,4.953-13.555c0-5.965-1.594-10.7-4.779-14.206
			C57.131,30.78,52.584,29.027,46.677,29.027z"/>
	</g>
</g>
<g>
	<g>
		<path fill="#FFFFFF" d="M33.079,61.763c3.185,3.767,7.588,5.648,13.208,5.648c5.561,0,10.049-1.882,13.467-5.648
			c3.302-3.591,4.953-8.109,4.953-13.555c0-5.965-1.203-10.419-4.389-13.924l1.95-2.326c1.102,1.233,1.617,2.56,2.438,4.173v-6.668
			l3.128-3.411v43.271h-3.128v-9.558c-3.708,7.01-9.818,10.514-18.333,10.514c-6.546,0-11.673-2.143-15.379-6.43L33.079,61.763z"/>
	</g>
</g>
<path fill="#FFFFFF" d="M-23.656,27.192"/>
</svg>
