<?xml version="1.0" encoding="utf-8"?>
<!-- Generator: Adobe Illustrator 14.0.0, SVG Export Plug-In . SVG Version: 6.00 Build 43363)  -->
<!DOCTYPE svg PUBLIC "-//W3C//DTD SVG 1.1//EN" "http://www.w3.org/Graphics/SVG/1.1/DTD/svg11.dtd">
<svg version="1.1" id="Calque_1" xmlns="http://www.w3.org/2000/svg" xmlns:xlink="http://www.w3.org/1999/xlink" x="0px" y="0px"
	 width="70.871px" height="70.871px" viewBox="0 0 70.871 70.871" enable-background="new 0 0 70.871 70.871" xml:space="preserve">
<rect x="-0.063" y="-0.125" fill="#707173" width="71.12" height="71.123"/>
<polyline fill="none" stroke="#FFFFFF" stroke-width="7.1534" points="22.608,24.577 10.387,24.577 10.387,62.131 60.462,62.131 
	60.462,24.316 47.943,24.316 "/>
<line fill="none" stroke="#FFFFFF" stroke-width="7.1534" x1="35.296" y1="9.168" x2="35.296" y2="28.823"/>
<polygon fill="#FFFFFF" points="27.302,13.361 43.473,13.361 35.171,3.563 "/>
<g>
	<path fill="#FFFFFF" stroke="#FFFFFF" stroke-width="0.8942" d="M41.724,34.103l-0.824,3.87c-0.794-0.793-1.949-1.188-3.465-1.188
		c-1.52,0-2.749,0.545-3.689,1.635c-0.532,0.615-0.91,1.383-1.133,2.305h7.686l-0.446,2.166h-7.518
		c-0.01,0.215-0.016,0.488-0.016,0.824c0,0.326,0.01,0.666,0.028,1.021h7.113l-0.447,2.168h-6.371
		c0.232,0.994,0.591,1.777,1.076,2.348c0.931,1.098,2.142,1.648,3.631,1.648c1.788,0,3.215-0.549,4.275-1.648v4.271
		c-1.21,0.607-2.623,0.91-4.231,0.91c-2.72,0-4.955-0.93-6.707-2.793c-1.192-1.266-1.981-2.848-2.362-4.736h-2.067l0.447-2.168
		h1.367c-0.009-0.223-0.014-0.463-0.014-0.713c0-0.428,0.009-0.803,0.028-1.133h-1.83l0.447-2.166h1.661
		c0.392-1.854,1.17-3.406,2.333-4.652c1.76-1.88,4.074-2.82,6.942-2.82C39.21,33.25,40.57,33.536,41.724,34.103z"/>
</g>
</svg>
