<?xml version="1.0" encoding="utf-8"?>
<!-- Generator: Adobe Illustrator 14.0.0, SVG Export Plug-In . SVG Version: 6.00 Build 43363)  -->
<!DOCTYPE svg PUBLIC "-//W3C//DTD SVG 1.1//EN" "http://www.w3.org/Graphics/SVG/1.1/DTD/svg11.dtd">
<svg version="1.1" id="Calque_1" xmlns="http://www.w3.org/2000/svg" xmlns:xlink="http://www.w3.org/1999/xlink" x="0px" y="0px"
	 width="94.309px" height="92.667px" viewBox="0 0 94.309 92.667" enable-background="new 0 0 94.309 92.667" xml:space="preserve">
<path fill="#FFFFFF" stroke="#6F7072" stroke-width="3" d="M88.459,77.726c0,5.975-4.842,10.816-10.813,10.816H10.816
	C4.843,88.542,0,83.699,0,77.726v-63.52C0,8.231,4.843,3.39,10.816,3.39h66.829c5.978,0,10.813,4.844,10.813,10.816V77.726
	L88.459,77.726z"/>
<g>
	<polygon fill="none" stroke="#6F7072" stroke-width="2.2822" points="61.981,28.66 61.981,38.267 28.187,38.267 28.187,19.05 
		51.547,19.05 57.34,24.712 	"/>
	<polygon fill="#6F7072" stroke="#6F7072" stroke-width="0.8151" points="61.981,29.05 51.826,28.765 51.352,20.013 	"/>
	<path fill="#6F7072" d="M72.123,59.007c0,2.979-2.41,5.395-5.384,5.395H23.202c-2.971,0-5.381-2.414-5.381-5.395V46.013
		c0-2.979,2.41-5.395,5.381-5.395h43.54c2.972,0,5.384,2.414,5.384,5.395L72.123,59.007L72.123,59.007z"/>
	<path fill="#6F7072" stroke="#FFFFFF" stroke-width="1.6302" d="M57.437,73.63H32.032h-5.383V59.521
		c0-2.979,2.41-5.393,5.383-5.393h25.403c2.975,0,5.384,2.414,5.384,5.393V73.63H57.437z"/>
	
		<line fill="none" stroke="#FFFFFF" stroke-width="2.3327" stroke-linecap="round" stroke-linejoin="round" x1="34.148" y1="61.453" x2="54.654" y2="61.453"/>
	
		<line fill="none" stroke="#FFFFFF" stroke-width="2.3327" stroke-linecap="round" stroke-linejoin="round" x1="34.148" y1="67.353" x2="54.654" y2="67.353"/>
	<circle fill="#FFFFFF" stroke="#FFFFFF" stroke-width="0.8151" cx="59.4" cy="46.409" r="1.806"/>
	<circle fill="#FFFFFF" stroke="#FFFFFF" stroke-width="0.8151" cx="66.049" cy="46.409" r="1.806"/>
</g>
</svg>
