<?xml version="1.0" encoding="utf-8"?>
<!-- Generator: Adobe Illustrator 14.0.0, SVG Export Plug-In . SVG Version: 6.00 Build 43363)  -->
<!DOCTYPE svg PUBLIC "-//W3C//DTD SVG 1.1//EN" "http://www.w3.org/Graphics/SVG/1.1/DTD/svg11.dtd">
<svg version="1.1" id="Calque_1" xmlns="http://www.w3.org/2000/svg" xmlns:xlink="http://www.w3.org/1999/xlink" x="0px" y="0px"
	 width="70.87px" height="70.871px" viewBox="0 0 70.87 70.871" enable-background="new 0 0 70.87 70.871" xml:space="preserve">
<rect x="-0.063" y="-0.125" fill="#707173" width="71.12" height="71.123"/>
<polygon fill="none" stroke="#FFFFFF" stroke-width="5.8963" points="56.751,15.096 56.751,62.637 13.919,62.637 13.919,8.544 
	49.186,8.376 "/>
<polyline fill="none" stroke="#FFFFFF" stroke-width="4" points="47.506,8.376 47.506,17.951 57.752,17.951 "/>
<g>
	<path fill="#FFFFFF" d="M27.104,22.772c2.084-0.354,5.012-0.621,9.137-0.621c4.171,0,7.142,0.798,9.138,2.395
		c1.953,1.508,3.194,3.992,3.194,6.919c0,2.928-0.932,5.456-2.75,7.097c-2.307,2.13-5.722,3.149-9.714,3.149
		c-0.888,0-1.686-0.044-2.308-0.177V52.27h-6.697V22.772z M33.801,36.346c0.577,0.133,1.243,0.177,2.263,0.177
		c3.594,0,5.812-1.818,5.812-4.834c0-2.75-1.907-4.392-5.324-4.392c-1.331,0-2.262,0.089-2.75,0.222V36.346z"/>
</g>
</svg>
