<?xml version="1.0" encoding="utf-8"?>
<!-- Generator: Adobe Illustrator 14.0.0, SVG Export Plug-In . SVG Version: 6.00 Build 43363)  -->
<!DOCTYPE svg PUBLIC "-//W3C//DTD SVG 1.1//EN" "http://www.w3.org/Graphics/SVG/1.1/DTD/svg11.dtd">
<svg version="1.1" id="Calque_1" xmlns="http://www.w3.org/2000/svg" xmlns:xlink="http://www.w3.org/1999/xlink" x="0px" y="0px"
	 width="94.309px" height="92.667px" viewBox="0 0 94.309 92.667" enable-background="new 0 0 94.309 92.667" xml:space="preserve">
<path fill="#95C02F" stroke="#95C02F" stroke-width="6" d="M90.881,78.115c0,5.975-4.842,10.816-10.814,10.816H13.238
	c-5.973,0-10.816-4.844-10.816-10.816v-63.52c0-5.975,4.843-10.816,10.816-10.816h66.829c5.977,0,10.814,4.844,10.814,10.816V78.115
	L90.881,78.115z"/>
<g>
	<g>
		<path fill="none" stroke="#FFFFFF" stroke-width="8" d="M44.305,72.029c-14.023,0.027-25.412-11.531-25.438-25.821
			c-0.025-14.29,11.322-25.897,25.346-25.926c14.022-0.028,25.411,11.533,25.436,25.822"/>
	</g>
	<polygon fill="#FFFFFF" stroke="#FFFFFF" stroke-width="3" points="58.947,43.469 80.374,43.563 69.577,62.347 	"/>
</g>
</svg>
