<?xml version="1.0" encoding="utf-8"?>
<!-- Generator: Adobe Illustrator 15.0.0, SVG Export Plug-In . SVG Version: 6.00 Build 0)  -->
<!DOCTYPE svg PUBLIC "-//W3C//DTD SVG 1.1//EN" "http://www.w3.org/Graphics/SVG/1.1/DTD/svg11.dtd">
<svg version="1.1" id="Calque_1" xmlns="http://www.w3.org/2000/svg" xmlns:xlink="http://www.w3.org/1999/xlink" x="0px" y="0px"
	 width="94.309px" height="92.667px" viewBox="0 0 94.309 92.667" enable-background="new 0 0 94.309 92.667" xml:space="preserve">
<path fill="none" stroke="#D1D3CD" stroke-width="4" d="M90.881,78.115c0,5.975-4.842,10.816-10.814,10.816H13.238
	c-5.973,0-10.815-4.844-10.815-10.816v-63.52c0-5.975,4.843-10.816,10.815-10.816h66.829c5.978,0,10.814,4.844,10.814,10.816V78.115
	L90.881,78.115z"/>
<g>
	<path fill="none" stroke="#AEE4F4" stroke-width="8.7685" d="M43.622,74.185c-15.201,0.029-27.546-12.499-27.574-27.989
		C16.021,30.707,28.32,18.125,43.522,18.093c15.201-0.03,27.544,12.502,27.573,27.99"/>
</g>
<polygon fill="#AEE4F4" points="59.494,43.227 82.72,43.33 71.017,63.69 "/>
</svg>
