<?xml version="1.0" encoding="utf-8"?>
<!-- Generator: Adobe Illustrator 14.0.0, SVG Export Plug-In . SVG Version: 6.00 Build 43363)  -->
<!DOCTYPE svg PUBLIC "-//W3C//DTD SVG 1.1//EN" "http://www.w3.org/Graphics/SVG/1.1/DTD/svg11.dtd">
<svg version="1.1" id="Calque_1" xmlns="http://www.w3.org/2000/svg" xmlns:xlink="http://www.w3.org/1999/xlink" x="0px" y="0px"
	 width="70.871px" height="70.871px" viewBox="0 0 70.871 70.871" enable-background="new 0 0 70.871 70.871" xml:space="preserve">
<rect x="-0.063" y="-0.125" fill="#FFFFFF" width="71.12" height="71.123"/>
<path fill="#6F7072" d="M40.216,13.149c0.529-0.919,0.847-2.003,0.847-3.173c0-3.273-2.396-5.927-5.354-5.927
	s-5.354,2.653-5.354,5.927c0,1.142,0.306,2.198,0.811,3.103c-18.119,0.913-20.847,15.137-20.847,15.137l50.168-0.153
	C60.488,28.062,57.709,14.604,40.216,13.149z"/>
<path fill="#6F7072" d="M64.075,29.107c-1.69,0-3.181,0.885-4.162,2.24L10.35,31.294c-0.981-1.227-2.398-2.017-3.995-2.017
	C3.397,29.277,1,31.931,1,35.205c0,3.273,2.397,5.927,5.354,5.927c1.071,0,2.063-0.356,2.9-0.957l0.502,3.499l3.491,17.756
	c0,0,0.461,6.621,4.093,7.108c6.256,0.841,36.247,0,36.247,0s3.92,0.481,5.283-5.849c1.116-5.176,2.33-19.33,2.33-19.33l0.421-3.086
	c0.738,0.426,1.564,0.688,2.454,0.688c2.957,0,5.354-2.653,5.354-5.927C69.428,31.761,67.032,29.107,64.075,29.107z"/>
</svg>
