<?xml version="1.0" encoding="utf-8"?>
<!-- Generator: Adobe Illustrator 15.0.0, SVG Export Plug-In . SVG Version: 6.00 Build 0)  -->
<!DOCTYPE svg PUBLIC "-//W3C//DTD SVG 1.1//EN" "http://www.w3.org/Graphics/SVG/1.1/DTD/svg11.dtd">
<svg version="1.1" id="Calque_1" xmlns="http://www.w3.org/2000/svg" xmlns:xlink="http://www.w3.org/1999/xlink" x="0px" y="0px"
	 width="70.871px" height="70.871px" viewBox="0 0 70.871 70.871" enable-background="new 0 0 70.871 70.871" xml:space="preserve">
<rect x="-0.052" y="0.052" fill="#707173" width="70.869" height="70.871"/>
<path fill="#FFFFFF" stroke="#FFFFFF" stroke-miterlimit="10" d="M63.02,55.788L50.326,43.073c2.121-3.288,3.357-7.201,3.357-11.405
	c0-11.64-9.437-21.076-21.076-21.076c-11.64,0-21.076,9.436-21.076,21.076c0,11.639,9.436,21.076,21.076,21.076
	c3.889,0,7.53-1.059,10.657-2.896l12.832,12.853c1.342,1.343,3.75,1.112,5.38-0.515l1.021-1.02
	C64.127,59.54,64.362,57.13,63.02,55.788z M18.5,31.668c0-7.792,6.316-14.108,14.108-14.108c7.792,0,14.108,6.316,14.108,14.108
	c0,7.792-6.316,14.108-14.108,14.108C24.815,45.776,18.5,39.459,18.5,31.668z"/>
</svg>
