<?xml version="1.0" encoding="utf-8"?>
<!-- Generator: Adobe Illustrator 14.0.0, SVG Export Plug-In . SVG Version: 6.00 Build 43363)  -->
<!DOCTYPE svg PUBLIC "-//W3C//DTD SVG 1.1//EN" "http://www.w3.org/Graphics/SVG/1.1/DTD/svg11.dtd">
<svg version="1.1" id="Calque_1" xmlns="http://www.w3.org/2000/svg" xmlns:xlink="http://www.w3.org/1999/xlink" x="0px" y="0px"
	 width="94.309px" height="92.667px" viewBox="0 0 94.309 92.667" enable-background="new 0 0 94.309 92.667" xml:space="preserve">
<path fill="none" stroke="#95C02F" stroke-width="6" d="M91.881,78.115c0,5.975-4.842,10.816-10.814,10.816H14.238
	c-5.973,0-10.816-4.844-10.816-10.816v-63.52c0-5.975,4.843-10.816,10.816-10.816h66.829c5.979,0,10.814,4.844,10.814,10.816V78.115
	L91.881,78.115z"/>
<g>
	<path fill="#95C02F" stroke="#95C02F" stroke-width="0.9933" d="M79.174,63.223c0,1.036-0.841,1.878-1.877,1.878H17.592
		c-1.037,0-1.877-0.842-1.877-1.878v-33.99c0-1.037,0.84-1.877,1.877-1.877h59.705c1.036,0,1.877,0.84,1.877,1.877V63.223z"/>
	<path fill="#FFFFFF" stroke="#95C02F" stroke-width="0.9933" d="M68.278,32.082H27.288c-0.608,3.334-3.327,5.933-6.722,6.359
		l-0.322,15.758c3.365,0.416,6.114,2.982,6.732,6.35l40.99-0.278c0.585-3.34,3.287-5.956,6.68-6.403l0.322-15.39
		C71.606,38.037,68.874,35.451,68.278,32.082z M47.665,57.375c-4.998,0-9.049-4.938-9.049-11.036c0-6.096,4.052-11.037,9.049-11.037
		c4.998,0,9.05,4.941,9.05,11.037C56.715,52.435,52.663,57.375,47.665,57.375z"/>
	<g>
		<path fill="#FFFFFF" stroke="#FFFFFF" stroke-width="1.9191" d="M44.144,41.508c0.725-0.16,1.32-0.324,1.785-0.491
			c0.464-0.167,0.948-0.383,1.454-0.649h1.634v9.813h2.271v1.656h-7.144v-1.656h2.878v-7.766c-0.838,0.319-1.799,0.524-2.878,0.614
			L44.144,41.508L44.144,41.508z"/>
	</g>
</g>
</svg>
