<?xml version="1.0" encoding="utf-8"?>
<!-- Generator: Adobe Illustrator 14.0.0, SVG Export Plug-In . SVG Version: 6.00 Build 43363)  -->
<!DOCTYPE svg PUBLIC "-//W3C//DTD SVG 1.1//EN" "http://www.w3.org/Graphics/SVG/1.1/DTD/svg11.dtd">
<svg version="1.1" id="Calque_1" xmlns="http://www.w3.org/2000/svg" xmlns:xlink="http://www.w3.org/1999/xlink" x="0px" y="0px"
	 width="283.46px" height="283.46px" viewBox="0 0 283.46 283.46" enable-background="new 0 0 283.46 283.46" xml:space="preserve">
<path fill="#C6D87D" d="M249.666,160.334L250.334,121L221,117l-6-13.667L232.334,79l-28.668-29l-24.332,17.667l-13.334-6L161.666,33
	h-38.333l-6,30.667c0,0-11.667,4-11.667,4.667l-25.333-18L51.667,79l19,23l-6,14L35,120.667V160l29,4.334l6.667,14L53,202.666
	L80.667,231l25-18.666L118,218.666l4.667,30h39.999l4.668-30l13.332-5.332l23,18.666L233,201.334l-19-23l6.334-12.668
	L249.666,160.334z M142.334,175.666c-19.514,0-35.333-15.82-35.333-35.333S122.82,105,142.334,105s35.334,15.819,35.334,35.333
	S161.848,175.666,142.334,175.666z"/>
</svg>
