<?xml version="1.0" encoding="utf-8"?>
<!-- Generator: Adobe Illustrator 14.0.0, SVG Export Plug-In . SVG Version: 6.00 Build 43363)  -->
<!DOCTYPE svg PUBLIC "-//W3C//DTD SVG 1.1//EN" "http://www.w3.org/Graphics/SVG/1.1/DTD/svg11.dtd">
<svg version="1.1" id="Calque_1" xmlns="http://www.w3.org/2000/svg" xmlns:xlink="http://www.w3.org/1999/xlink" x="0px" y="0px"
	 width="94.309px" height="92.667px" viewBox="0 0 94.309 92.667" enable-background="new 0 0 94.309 92.667" xml:space="preserve">
<path fill="#95C02F" stroke="#95C02F" stroke-width="6" d="M91.881,78.115c0,5.975-4.842,10.816-10.814,10.816H14.238
	c-5.973,0-10.816-4.844-10.816-10.816v-63.52c0-5.975,4.843-10.816,10.816-10.816h66.829c5.979,0,10.814,4.844,10.814,10.816V78.115
	L91.881,78.115z"/>
<path fill="#FFFFFF" stroke="#FFFFFF" stroke-width="1.3241" d="M70.164,51.13l0.146-8.645l-6.447-0.879l-1.317-3.003l3.812-5.348
	l-6.301-6.373l-5.349,3.882l-2.931-1.318l-0.952-6.3H42.4l-1.318,6.739c0,0-2.564,0.879-2.564,1.026l-5.568-3.956l-6.3,6.3
	l4.175,5.055l-1.318,3.077l-6.52,1.025v8.645l6.373,0.951l1.465,3.078l-3.882,5.347l6.081,6.228l5.494-4.102l2.71,1.393l1.025,6.592
	h8.792l1.025-6.592L55,62.777l5.055,4.104l6.445-6.738l-4.174-5.055l1.391-2.785L70.164,51.13z M46.576,54.5
	c-4.288,0-7.765-3.477-7.765-7.764c0-4.289,3.477-7.765,7.765-7.765c4.287,0,7.765,3.477,7.765,7.765
	C54.341,51.023,50.863,54.5,46.576,54.5z"/>
</svg>
