<?xml version="1.0" encoding="utf-8"?>
<!-- Generator: Adobe Illustrator 14.0.0, SVG Export Plug-In . SVG Version: 6.00 Build 43363)  -->
<!DOCTYPE svg PUBLIC "-//W3C//DTD SVG 1.1//EN" "http://www.w3.org/Graphics/SVG/1.1/DTD/svg11.dtd">
<svg version="1.1" id="Calque_1" xmlns="http://www.w3.org/2000/svg" xmlns:xlink="http://www.w3.org/1999/xlink" x="0px" y="0px"
	 width="70.87px" height="70.871px" viewBox="-262.205 385.51 70.87 70.871" enable-background="new -262.205 385.51 70.87 70.871"
	 xml:space="preserve">
<rect x="-262.231" y="385.485" fill="#707173" width="70.921" height="70.919"/>
<g>
	
		<rect x="-246.691" y="394.879" transform="matrix(0.9183 0.3958 -0.3958 0.9183 140.007 127.3558)" fill="#FFFFFF" width="16.151" height="16.151"/>
	
		<rect x="-230.011" y="402.363" transform="matrix(0.9183 0.3959 -0.3959 0.9183 144.3545 121.3939)" fill="#FFFFFF" width="16.15" height="16.151"/>
	
		<rect x="-254.043" y="411.819" transform="matrix(0.9183 0.3958 -0.3958 0.9183 146.1085 131.6443)" fill="#FFFFFF" width="16.151" height="16.152"/>
	
		<rect x="-237.362" y="419.305" transform="matrix(0.9183 0.396 -0.396 0.9183 150.4907 125.7256)" fill="#FFFFFF" width="16.151" height="16.15"/>
	<polyline fill="none" stroke="#FFFFFF" stroke-width="2.9042" stroke-linecap="round" stroke-linejoin="round" points="
		-220.374,438.037 -208.127,409.112 -195.88,405.627 	"/>
	
		<line fill="none" stroke="#FFFFFF" stroke-width="2.9042" stroke-linecap="round" stroke-linejoin="round" x1="-257.608" y1="428.38" x2="-228.285" y2="441.054"/>
	
		<circle fill="none" stroke="#FFFFFF" stroke-width="2.9042" stroke-linecap="round" stroke-linejoin="round" cx="-222.877" cy="443.393" r="5.915"/>
</g>
</svg>
