<?xml version="1.0" encoding="utf-8"?>
<!-- Generator: Adobe Illustrator 14.0.0, SVG Export Plug-In . SVG Version: 6.00 Build 43363)  -->
<!DOCTYPE svg PUBLIC "-//W3C//DTD SVG 1.1//EN" "http://www.w3.org/Graphics/SVG/1.1/DTD/svg11.dtd">
<svg version="1.1" id="Calque_1" xmlns="http://www.w3.org/2000/svg" xmlns:xlink="http://www.w3.org/1999/xlink" x="0px" y="0px"
	 width="94.309px" height="92.667px" viewBox="0 0 94.309 92.667" enable-background="new 0 0 94.309 92.667" xml:space="preserve">
<path fill="#FFFFFF" stroke="#6F7072" stroke-width="3" d="M91.395,76.726c0,5.975-4.842,10.816-10.813,10.816H13.752
	c-5.973,0-10.816-4.844-10.816-10.816v-63.52c0-5.976,4.843-10.816,10.816-10.816h66.829c5.976,0,10.813,4.844,10.813,10.816V76.726
	L91.395,76.726z"/>
<g>
	<polygon fill="#6F7072" points="65.307,27.892 61.573,23.162 50.868,23.162 50.868,20.908 43.897,20.908 43.897,23.162 
		32.194,23.162 28.708,27.892 	"/>
	<polygon fill="#6F7072" points="26.467,33.371 26.467,36.962 29.016,36.962 31.694,71.46 62.07,71.46 64.973,36.962 67.301,36.962 
		67.301,33.369 65.07,33.369 65.307,30.382 28.708,30.38 28.926,33.371 	"/>
	
		<line fill="none" stroke="#FFFFFF" stroke-width="2.177" stroke-linecap="round" stroke-linejoin="round" x1="38.17" y1="35.861" x2="38.17" y2="66.482"/>
	
		<line fill="none" stroke="#FFFFFF" stroke-width="2.177" stroke-linecap="round" stroke-linejoin="round" x1="43.897" y1="35.861" x2="43.897" y2="66.482"/>
	
		<line fill="none" stroke="#FFFFFF" stroke-width="2.177" stroke-linecap="round" stroke-linejoin="round" x1="49.872" y1="35.861" x2="49.872" y2="66.482"/>
	
		<line fill="none" stroke="#FFFFFF" stroke-width="2.177" stroke-linecap="round" stroke-linejoin="round" x1="55.596" y1="35.861" x2="55.596" y2="66.482"/>
</g>
</svg>
