<?xml version="1.0" encoding="utf-8"?>
<!-- Generator: Adobe Illustrator 14.0.0, SVG Export Plug-In . SVG Version: 6.00 Build 43363)  -->
<!DOCTYPE svg PUBLIC "-//W3C//DTD SVG 1.1//EN" "http://www.w3.org/Graphics/SVG/1.1/DTD/svg11.dtd">
<svg version="1.1" id="Calque_1" xmlns="http://www.w3.org/2000/svg" xmlns:xlink="http://www.w3.org/1999/xlink" x="0px" y="0px"
	 width="94.309px" height="92.667px" viewBox="0 0 94.309 92.667" enable-background="new 0 0 94.309 92.667" xml:space="preserve">
<rect x="20.33" y="21.642" fill="none" width="51.609" height="51.611"/>
<g>
	<polygon fill="#9A75AD" stroke="#9A75AD" stroke-width="2" points="64.57,27.542 60.838,22.812 50.132,22.812 50.132,20.559 
		43.161,20.559 43.161,22.812 31.458,22.812 27.973,27.542 	"/>
	<polygon fill="#9A75AD" stroke="#9A75AD" stroke-width="3" points="25.731,35.021 25.731,38.614 28.28,38.614 30.959,73.115 
		61.335,73.115 64.236,38.614 66.564,38.614 66.564,35.021 64.335,35.021 64.57,32.034 27.973,32.033 28.19,35.021 	"/>
	
		<line fill="none" stroke="#FFFFFF" stroke-width="2.177" stroke-linecap="round" stroke-linejoin="round" x1="37.435" y1="37.512" x2="37.435" y2="68.134"/>
	
		<line fill="none" stroke="#FFFFFF" stroke-width="2.177" stroke-linecap="round" stroke-linejoin="round" x1="43.161" y1="37.512" x2="43.161" y2="68.134"/>
	
		<line fill="none" stroke="#FFFFFF" stroke-width="2.177" stroke-linecap="round" stroke-linejoin="round" x1="49.137" y1="37.512" x2="49.137" y2="68.134"/>
	
		<line fill="none" stroke="#FFFFFF" stroke-width="2.177" stroke-linecap="round" stroke-linejoin="round" x1="54.861" y1="37.512" x2="54.861" y2="68.134"/>
</g>
<path fill="none" stroke="#D1D3CD" stroke-width="4" d="M90.363,78.094c0,5.975-4.842,10.815-10.814,10.815H12.72
	c-5.973,0-10.814-4.844-10.814-10.815V14.574c0-5.975,4.843-10.815,10.814-10.815h66.829c5.98,0,10.814,4.844,10.814,10.815V78.094
	L90.363,78.094z"/>
</svg>
