<?xml version="1.0" encoding="utf-8"?>
<!-- Generator: Adobe Illustrator 15.0.0, SVG Export Plug-In . SVG Version: 6.00 Build 0)  -->
<!DOCTYPE svg PUBLIC "-//W3C//DTD SVG 1.1//EN" "http://www.w3.org/Graphics/SVG/1.1/DTD/svg11.dtd">
<svg version="1.1" id="Calque_1" xmlns="http://www.w3.org/2000/svg" xmlns:xlink="http://www.w3.org/1999/xlink" x="0px" y="0px"
	 width="164.822px" height="92.667px" viewBox="0 0 164.822 92.667" enable-background="new 0 0 164.822 92.667"
	 xml:space="preserve">
<path fill="none" stroke="#D1D3CD" stroke-width="4" d="M83.483,3.778h66.828c5.979,0,10.813,4.844,10.813,10.816v63.521l0,0
	c0,5.975-4.842,10.815-10.813,10.815H83.483h-2.417H14.238c-5.973,0-10.816-4.845-10.816-10.815V14.594
	c0-5.975,4.844-10.816,10.816-10.816h66.829H83.483z"/>
<path fill="#FFFFFF" stroke="#6F7072" stroke-width="3" d="M91.881,78.115"/>
<g>
	<g>
		<path fill="none" stroke="#EFD259" stroke-width="6" d="M66.75,34.271v36.71c0,1.167-0.947,2.116-2.116,2.116H22.979
			c-1.168,0-2.116-0.949-2.116-2.116V19.285c0-1.167,0.948-2.117,2.116-2.117h27.313c0.198-0.003,3.29-0.027,4.354,0.944
			c1.062,0.968,9.468,9.678,10.559,10.769c0.535,0.534,1.507,1.927,1.507,2.94C66.711,32.345,66.75,34.271,66.75,34.271z"/>
		<path fill="none" stroke="#EFD259" stroke-width="6" d="M52.041,17.371c0,0-0.064,14.67-0.026,15.281
			c0.053,0.845,0.368,1.691,1.107,1.716c0.739,0.026,15.006-0.07,15.006-0.07"/>
	</g>
	<g>
		<path fill="#EFD259" d="M46.36,42.188c-1.424,0-2.598,0.414-3.521,1.234c-0.92,0.822-1.515,2.015-1.784,3.578h7.054v3.08h-7.316
			l-0.037,0.612v0.823l0.037,0.576h6.213v3.117H41.09c0.597,2.834,2.47,4.25,5.619,4.25c1.667,0,3.273-0.33,4.812-0.998v4.479
			c-1.354,0.688-3.063,1.035-5.126,1.035c-2.861,0-5.213-0.773-7.057-2.327c-1.842-1.552-3.003-3.698-3.482-6.438h-2.398v-3.114
			h2.066c-0.047-0.271-0.07-0.636-0.07-1.087l0.035-0.928h-2.031V47h2.328c0.432-2.818,1.593-5.055,3.483-6.689
			c1.89-1.639,4.253-2.459,7.088-2.459c2.193,0,4.248,0.479,6.161,1.436l-1.716,4.061c-0.806-0.359-1.558-0.643-2.257-0.85
			C47.85,42.291,47.12,42.188,46.36,42.188z"/>
	</g>
</g>
<polygon fill="#EFD259" points="80.843,13.483 80.843,36.418 98.363,24.632 "/>
<g>
	<path fill="#EFD259" stroke="#EFD259" stroke-width="2" d="M142.78,68.486c-2.529,1.715-6.854,3.346-12.158,3.346
		c-6.607,0-12.564-2.528-16.564-7.263c-3.102-3.427-5.143-8.159-5.875-14.036h-5.061v-4.08h4.65c0-0.408,0-0.815,0-1.224
		c0-1.225,0.081-2.448,0.163-3.591h-4.813v-4.08h5.385c0.979-5.712,3.349-10.445,6.691-13.791c4.08-4.325,9.467-6.773,16.076-6.773
		c4.896,0,8.647,1.388,10.936,2.611l-1.633,5.386c-2.121-1.224-5.468-2.285-9.14-2.285c-4.407,0-8.079,1.55-10.854,4.407
		c-2.364,2.448-3.998,6.12-4.812,10.445h22.768v4.08h-23.502c-0.162,1.061-0.162,2.203-0.162,3.428c0,0.489,0,0.897,0,1.387h23.664
		v4.08h-23.094c0.651,4.733,2.203,8.242,4.487,10.69c3.021,3.265,7.101,4.733,11.507,4.733c4.325,0,8.079-1.552,9.954-2.693
		L142.78,68.486z"/>
</g>
<line fill="none" stroke="#87897E" stroke-width="6" stroke-linecap="round" stroke-linejoin="round" x1="152.517" y1="24.951" x2="10.911" y2="73.097"/>
</svg>
