<?xml version="1.0" encoding="utf-8"?>
<!-- Generator: Adobe Illustrator 14.0.0, SVG Export Plug-In . SVG Version: 6.00 Build 43363)  -->
<!DOCTYPE svg PUBLIC "-//W3C//DTD SVG 1.1//EN" "http://www.w3.org/Graphics/SVG/1.1/DTD/svg11.dtd">
<svg version="1.1" id="Calque_1" xmlns="http://www.w3.org/2000/svg" xmlns:xlink="http://www.w3.org/1999/xlink" x="0px" y="0px"
	 width="70.87px" height="70.871px" viewBox="0 0 70.87 70.871" enable-background="new 0 0 70.87 70.871" xml:space="preserve">
<rect x="-0.052" y="0.052" fill="#707173" width="70.867" height="70.871"/>
<rect x="3.287" y="9.008" fill="#FFFFFF" width="64.798" height="53.183"/>
<g>
	<rect x="8.267" y="16.768" fill="#707173" width="16.833" height="11.333"/>
	<rect x="27.1" y="16.768" fill="#707173" width="16.833" height="11.333"/>
	<rect x="45.933" y="16.768" fill="#707173" width="16.833" height="11.333"/>
	<rect x="8.267" y="30.103" fill="#707173" width="16.833" height="11.332"/>
	<rect x="27.1" y="30.103" fill="#707173" width="16.833" height="11.332"/>
	<rect x="45.933" y="30.103" fill="#707173" width="16.833" height="11.332"/>
</g>
<g>
	<rect x="8.6" y="30.268" fill="#707173" width="16.833" height="11.333"/>
	<rect x="27.433" y="30.268" fill="#707173" width="16.833" height="11.333"/>
	<rect x="46.266" y="30.268" fill="#707173" width="16.833" height="11.333"/>
	<rect x="8.6" y="43.603" fill="#707173" width="16.833" height="11.332"/>
	<rect x="27.433" y="43.603" fill="#707173" width="16.833" height="11.332"/>
	<rect x="46.266" y="43.603" fill="#707173" width="16.833" height="11.332"/>
</g>
</svg>
