<?xml version="1.0" encoding="utf-8"?>
<!-- Generator: Adobe Illustrator 14.0.0, SVG Export Plug-In . SVG Version: 6.00 Build 43363)  -->
<!DOCTYPE svg PUBLIC "-//W3C//DTD SVG 1.1//EN" "http://www.w3.org/Graphics/SVG/1.1/DTD/svg11.dtd">
<svg version="1.1" id="Calque_1" xmlns="http://www.w3.org/2000/svg" xmlns:xlink="http://www.w3.org/1999/xlink" x="0px" y="0px"
	 width="70.871px" height="70.871px" viewBox="0 0 70.871 70.871" enable-background="new 0 0 70.871 70.871" xml:space="preserve">
<rect x="-0.063" y="-0.125" fill="#707173" width="71.12" height="71.123"/>
<g>
	<circle fill="#FFFFFF" cx="35.096" cy="20.082" r="14.643"/>
	<path fill="#FFFFFF" d="M35.62,38.909c-4.965,0-9.504-1.799-13.013-4.777c0,0-7.063,2.468-7.984,3.07
		c-0.92,0.602-1.889,1.784-2.211,3.186c0,0-3.725,12.381-2.561,20.003c0.479,3.134,1.947,5.292,3.499,6.498h22.308"/>
	<path fill="#FFFFFF" d="M35.674,66.842"/>
	<path fill="#FFFFFF" d="M35.62,38.889c4.964,0,9.504-1.799,13.013-4.777c0,0,7.065,2.469,7.985,3.07s1.888,1.785,2.211,3.186
		c0,0,3.725,12.382,2.561,20.004c-0.478,3.133-1.945,5.291-3.498,6.498l-22.21-0.02"/>
</g>
</svg>
