<?xml version="1.0" encoding="utf-8"?>
<!-- Generator: Adobe Illustrator 14.0.0, SVG Export Plug-In . SVG Version: 6.00 Build 43363)  -->
<!DOCTYPE svg PUBLIC "-//W3C//DTD SVG 1.1//EN" "http://www.w3.org/Graphics/SVG/1.1/DTD/svg11.dtd">
<svg version="1.1" id="Calque_1" xmlns="http://www.w3.org/2000/svg" xmlns:xlink="http://www.w3.org/1999/xlink" x="0px" y="0px"
	 width="70.871px" height="70.871px" viewBox="0 0 70.871 70.871" enable-background="new 0 0 70.871 70.871" xml:space="preserve">
<rect fill="#FFFFFF" width="70.871" height="70.871"/>
<path fill="#FFFFFF" stroke="#FFFFFF" stroke-width="0.7076" d="M42.682,52.448c0,0,12.946-17.323,12.948-17.322
	c0.739-0.992,0.537-2.396-0.454-3.136c-0.991-0.74-2.396-0.537-3.137,0.455l-9.429,11.97L42.682,52.448z"/>
<rect x="27.304" y="0.163" fill="#7A9997" stroke="#FFFFFF" stroke-width="2.8642" width="43.727" height="52.925"/>
<rect x="0.156" y="18.378" fill="#7A9997" stroke="#FFFFFF" stroke-width="2.8642" width="42.279" height="51.358"/>
<path fill="#FFFFFF" d="M35.25,59.739c0,1.039-0.842,1.882-1.881,1.882H9.218c-1.039,0-1.881-0.843-1.881-1.882l0,0
	c0-1.038,0.842-1.879,1.881-1.879h24.151C34.408,57.86,35.25,58.701,35.25,59.739L35.25,59.739z"/>
<path fill="#FFFFFF" d="M35.25,52.012c0,1.039-0.842,1.882-1.881,1.882H9.218c-1.039,0-1.881-0.843-1.881-1.882l0,0
	c0-1.039,0.842-1.88,1.881-1.88h24.151C34.408,50.132,35.25,50.973,35.25,52.012L35.25,52.012z"/>
<g>
	<g>
		<polygon fill="#F9F9F9" points="25.568,43.199 51.384,31.418 53.012,34.987 64.235,22.729 47.621,23.173 49.25,26.741 
			23.434,38.521 		"/>
	</g>
</g>
</svg>
