<?xml version="1.0" encoding="utf-8"?>
<!-- Generator: Adobe Illustrator 14.0.0, SVG Export Plug-In . SVG Version: 6.00 Build 43363)  -->
<!DOCTYPE svg PUBLIC "-//W3C//DTD SVG 1.1//EN" "http://www.w3.org/Graphics/SVG/1.1/DTD/svg11.dtd">
<svg version="1.1" id="Calque_1" xmlns="http://www.w3.org/2000/svg" xmlns:xlink="http://www.w3.org/1999/xlink" x="0px" y="0px"
	 width="70.871px" height="70.871px" viewBox="0 0 70.871 70.871" enable-background="new 0 0 70.871 70.871" xml:space="preserve">
<rect x="7.73" y="0.116" fill="#7A9997" stroke="#FFFFFF" stroke-width="3.6809" width="55.822" height="70.255"/>
<path fill="#FFFFFF" stroke="#FFFFFF" stroke-width="1.1977" d="M52.692,35.99c0,1.319-1.044,2.39-2.331,2.39H20.431
	c-1.286,0-2.329-1.07-2.329-2.39l0,0c0-1.32,1.043-2.388,2.329-2.388h29.931C51.65,33.603,52.692,34.67,52.692,35.99L52.692,35.99z"
	/>
<path fill="#FFFFFF" stroke="#FFFFFF" stroke-width="1.1977" d="M52.692,47.31c0,1.318-1.044,2.391-2.331,2.391H20.431
	c-1.286,0-2.329-1.072-2.329-2.391l0,0c0-1.319,1.043-2.387,2.329-2.387h29.931C51.65,44.923,52.692,45.99,52.692,47.31
	L52.692,47.31z"/>
<path fill="#FFFFFF" stroke="#FFFFFF" stroke-width="1.1977" d="M52.692,23.902c0,1.319-1.044,2.389-2.331,2.389H20.431
	c-1.286,0-2.329-1.07-2.329-2.389l0,0c0-1.319,1.043-2.387,2.329-2.387h29.931C51.65,21.515,52.692,22.583,52.692,23.902
	L52.692,23.902z"/>
</svg>
