<?xml version="1.0" encoding="utf-8"?>
<!-- Generator: Adobe Illustrator 14.0.0, SVG Export Plug-In . SVG Version: 6.00 Build 43363)  -->
<!DOCTYPE svg PUBLIC "-//W3C//DTD SVG 1.1//EN" "http://www.w3.org/Graphics/SVG/1.1/DTD/svg11.dtd">
<svg version="1.1" id="Calque_1" xmlns="http://www.w3.org/2000/svg" xmlns:xlink="http://www.w3.org/1999/xlink" x="0px" y="0px"
	 width="678px" height="275px" viewBox="0 0 678 275" enable-background="new 0 0 678 275" xml:space="preserve">
<path fill="#C9C9C9" d="M666.972,215.986c0-25.809-18.734-46.737-41.852-46.737c-4.236,0-8.322,0.71-12.176,2.017
	c0.969-4.273,1.484-8.752,1.484-13.363c0-30.033-15.412-52.942-44.825-57.156c-13.557-1.942-30.428,6.321-38.766,11.86
	c-11.946-19.234-29.444-32.621-53.628-32.621c-32.05,0-58.033,29.017-58.033,64.805c0,9.437,1.809,18.401,5.054,26.485
	c-0.078,0-0.155-0.006-0.236-0.006c-23.113,0-41.85,20.922-41.85,46.737c0,25.81,18.462,44.979,41.576,44.979
	c3.883,0,8.162-0.237,11.479,0.048h192.229c0.278,0,0.536-0.166,0.765-0.45C649.871,260.826,666.972,240.643,666.972,215.986z"/>
<g>
	<path fill="#FFFFFF" d="M541.505,173.68c-3.673,4.355-12.141,7.11-18.154,7.11c-5.734,0-13.984-2.506-17.639-6.521
		c-14.971,6.463-18.562,21.976-18.562,40.099c0,8.278,1.736,16.021,4.951,22.599c6.064,12.426,57.314,13.174,63.562,1.696
		c3.772-6.929,5.826-15.293,5.826-24.295C561.489,195.675,557.228,179.75,541.505,173.68z"/>
	<path fill="#FFFFFF" d="M523.026,133.114c-11.066,0-20.042,9.32-20.042,20.814c0,5.539,2.088,10.57,5.483,14.299
		c3.652,4.012,8.819,6.521,14.558,6.521c6.015,0,11.404-2.755,15.078-7.11c3.088-3.662,4.962-8.457,4.962-13.707
		C543.066,142.434,534.094,133.114,523.026,133.114z"/>
</g>
<path fill="#C5DD87" stroke="#C5DD87" stroke-width="21" d="M180.965,249.613c0,1.3-1.053,2.354-2.352,2.354H22.317
	c-1.299,0-2.353-1.054-2.353-2.354V93.33c0-1.299,1.054-2.352,2.353-2.352h156.296c1.299,0,2.352,1.053,2.352,2.352V249.613z"/>
<g>
	<rect x="106.965" y="-211.076" fill="none" width="187" height="39.307"/>
</g>
<g>
	<g>
		<polygon fill="#C9C9C9" points="368.972,225.477 299.169,225.477 299.169,207.665 205.969,237.328 299.169,266.992 
			299.169,249.182 368.972,249.182 		"/>
	</g>
</g>
<polyline fill="none" stroke="#FFFFFF" stroke-width="25" stroke-linecap="round" stroke-linejoin="round" points="48.969,165.984 
	95.483,216.5 148.506,104.754 "/>
<g>
	<g>
		<polygon fill="#C5DD87" stroke="#A5D8A0" points="213.968,125.081 286.766,125.081 286.766,142.879 383.972,113.234 
			286.766,83.585 286.766,101.387 213.968,101.387 		"/>
	</g>
</g>
</svg>
