<?xml version="1.0" encoding="utf-8"?>
<!-- Generator: Adobe Illustrator 14.0.0, SVG Export Plug-In . SVG Version: 6.00 Build 43363)  -->
<!DOCTYPE svg PUBLIC "-//W3C//DTD SVG 1.1//EN" "http://www.w3.org/Graphics/SVG/1.1/DTD/svg11.dtd">
<svg version="1.1" id="Calque_1" xmlns="http://www.w3.org/2000/svg" xmlns:xlink="http://www.w3.org/1999/xlink" x="0px" y="0px"
	 width="678px" height="275px" viewBox="0 0 678 275" enable-background="new 0 0 678 275" xml:space="preserve">
<path fill="#C9C9C9" d="M667.971,216.987c0-25.809-18.734-46.737-41.852-46.737c-4.236,0-8.322,0.71-12.177,2.017
	c0.97-4.272,1.484-8.752,1.484-13.363c0-30.034-15.412-52.941-44.825-57.155c-13.557-1.942-30.428,6.321-38.766,11.86
	c-11.946-19.234-29.444-32.621-53.628-32.621c-32.05,0-58.033,29.017-58.033,64.804c0,9.437,1.809,18.401,5.054,26.485
	c-0.078,0-0.154-0.006-0.235-0.006c-23.113,0-41.851,20.922-41.851,46.736c0,25.811,18.462,44.979,41.576,44.979
	c3.883,0,8.162-0.236,11.479,0.049h192.229c0.278,0,0.536-0.166,0.765-0.45C650.87,261.827,667.971,241.644,667.971,216.987z"/>
<g>
	<path fill="#FFFFFF" d="M542.504,174.681c-3.673,4.355-12.142,7.11-18.154,7.11c-5.734,0-13.984-2.506-17.639-6.521
		c-14.971,6.463-18.562,21.976-18.562,40.099c0,8.278,1.736,16.021,4.951,22.599c6.064,12.426,57.314,13.174,63.562,1.696
		c3.771-6.929,5.825-15.293,5.825-24.295C562.487,196.676,558.227,180.751,542.504,174.681z"/>
	<path fill="#FFFFFF" d="M524.024,134.114c-11.065,0-20.042,9.32-20.042,20.814c0,5.539,2.088,10.57,5.483,14.299
		c3.651,4.012,8.819,6.521,14.558,6.521c6.016,0,11.404-2.755,15.078-7.11c3.088-3.662,4.962-8.457,4.962-13.707
		C544.064,143.435,535.094,134.114,524.024,134.114z"/>
</g>
<path fill="#C9C9C9" stroke="#C9C9C9" stroke-width="21" d="M181.964,250.614c0,1.3-1.053,2.354-2.352,2.354H23.317
	c-1.299,0-2.354-1.054-2.354-2.354V94.331c0-1.299,1.055-2.352,2.354-2.352h156.296c1.299,0,2.352,1.053,2.352,2.352
	L181.964,250.614L181.964,250.614z"/>
<g>
	<rect x="106.965" y="-211.076" fill="none" width="187" height="39.307"/>
</g>
<g>
	<g>
		<polygon fill="#C9C9C9" points="369.971,226.478 300.168,226.478 300.168,208.666 206.968,238.329 300.168,267.993 
			300.168,250.183 369.971,250.183 		"/>
	</g>
</g>
<polyline fill="none" stroke="#FFFFFF" stroke-width="25" stroke-linecap="round" stroke-linejoin="round" points="49.968,166.985 
	96.483,217.501 149.506,105.756 "/>
<g>
	<g>
		<polygon fill="#C9C9C9" points="214.967,126.081 287.765,126.081 287.765,143.88 384.971,114.236 287.765,84.587 287.765,102.389 
			214.967,102.389 		"/>
	</g>
</g>
</svg>
