<?xml version="1.0" encoding="utf-8"?>
<!-- Generator: Adobe Illustrator 14.0.0, SVG Export Plug-In . SVG Version: 6.00 Build 43363)  -->
<!DOCTYPE svg PUBLIC "-//W3C//DTD SVG 1.1//EN" "http://www.w3.org/Graphics/SVG/1.1/DTD/svg11.dtd">
<svg version="1.1" id="Calque_1" xmlns="http://www.w3.org/2000/svg" xmlns:xlink="http://www.w3.org/1999/xlink" x="0px" y="0px"
	 width="678px" height="275px" viewBox="0 0 678 275" enable-background="new 0 0 678 275" xml:space="preserve">
<g>
	<rect x="106.965" y="-211.076" fill="none" width="187" height="39.307"/>
</g>
<path fill="#AADCE8" d="M668.968,216.987c0-25.809-18.734-46.737-41.852-46.737c-4.236,0-8.322,0.71-12.176,2.017
	c0.969-4.273,1.484-8.752,1.484-13.363c0-30.034-15.412-52.942-44.825-57.156c-13.557-1.942-30.428,6.321-38.766,11.86
	c-11.946-19.234-29.444-32.621-53.628-32.621c-32.05,0-58.033,29.017-58.033,64.805c0,9.437,1.809,18.401,5.054,26.485
	c-0.078,0-0.155-0.006-0.236-0.006c-23.113,0-41.85,20.922-41.85,46.737c0,25.81,18.462,44.979,41.576,44.979
	c3.883,0,8.162-0.237,11.479,0.048h192.229c0.278,0,0.536-0.166,0.765-0.45C651.866,261.827,668.968,241.644,668.968,216.987z"/>
<g>
	<path fill="#FFFFFF" d="M543.5,174.681c-3.673,4.355-12.141,7.11-18.154,7.11c-5.734,0-13.984-2.506-17.639-6.521
		c-14.971,6.463-18.562,21.976-18.562,40.099c0,8.278,1.736,16.021,4.951,22.599c6.064,12.426,57.314,13.174,63.562,1.696
		c3.772-6.929,5.826-15.293,5.826-24.295C563.484,196.676,559.223,180.751,543.5,174.681z"/>
	<path fill="#FFFFFF" d="M525.021,134.114c-11.066,0-20.042,9.32-20.042,20.814c0,5.539,2.088,10.57,5.483,14.299
		c3.652,4.012,8.819,6.521,14.558,6.521c6.015,0,11.404-2.755,15.078-7.11c3.088-3.662,4.962-8.457,4.962-13.707
		C545.061,143.435,536.09,134.114,525.021,134.114z"/>
</g>
<path fill="#C5DD87" stroke="#C5DD87" stroke-width="21" d="M182.962,250.614c0,1.3-1.053,2.354-2.352,2.354H24.315
	c-1.299,0-2.353-1.054-2.353-2.354V94.33c0-1.299,1.054-2.352,2.353-2.352h156.296c1.299,0,2.352,1.053,2.352,2.352V250.614z"/>
<g>
	<g>
		<polygon fill="#AADCE8" points="370.968,226.478 301.166,226.478 301.166,208.666 207.966,238.329 301.166,267.993 
			301.166,250.183 370.968,250.183 		"/>
	</g>
</g>
<polyline fill="none" stroke="#FFFFFF" stroke-width="25" stroke-linecap="round" stroke-linejoin="round" points="50.966,166.985 
	97.481,217.501 150.504,105.755 "/>
<g>
	<g>
		<polygon fill="#C5DD87" stroke="#C5DD87" points="215.965,126.081 288.764,126.081 288.764,143.88 385.968,114.235 
			288.764,84.586 288.764,102.388 215.965,102.388 		"/>
	</g>
</g>
</svg>
