<?xml version="1.0" encoding="utf-8"?>
<!-- Generator: Adobe Illustrator 14.0.0, SVG Export Plug-In . SVG Version: 6.00 Build 43363)  -->
<!DOCTYPE svg PUBLIC "-//W3C//DTD SVG 1.1//EN" "http://www.w3.org/Graphics/SVG/1.1/DTD/svg11.dtd">
<svg version="1.1" id="Calque_1" xmlns="http://www.w3.org/2000/svg" xmlns:xlink="http://www.w3.org/1999/xlink" x="0px" y="0px"
	 width="247.667px" height="141.333px" viewBox="0 0 247.667 141.333" enable-background="new 0 0 247.667 141.333"
	 xml:space="preserve">
<g>
	<path fill="#1A171B" d="M57.58,86.786h-31.7V18.984h33c6.2,0,11.266,1.334,15.2,4c4.466,3.067,6.699,7.567,6.699,13.5
		c0,7.067-4.233,12-12.699,14.801c9.933,2.134,14.899,7.799,14.899,17c0,6.467-2.767,11.334-8.3,14.6
		C70.28,85.484,64.58,86.786,57.58,86.786z M58.68,22.285h-29.2v27.5H58.58c5.065,0,9.266-1.033,12.6-3.101c4-2.399,6-5.966,6-10.7
		c0-4.732-2-8.3-6-10.699C67.913,23.285,63.746,22.285,58.68,22.285z M58.38,53.084h-28.9v30.4h29.3c5.601,0,10.267-1.101,14-3.299
		c4.466-2.666,6.7-6.603,6.7-11.801c0-5.466-2.3-9.5-6.899-12.1C68.98,54.152,64.246,53.084,58.38,53.084z"/>
	<path fill="#1A171B" d="M113.581,86.786H90.88V18.984h26.5c10.934,0,19.201,3.035,24.801,9.1c5.465,5.801,8.199,14.101,8.199,24.9
		c0,11.067-3.435,19.535-10.299,25.399C133.613,83.984,124.78,86.786,113.581,86.786z M139.581,30.484
		c-5-5.465-12.437-8.199-22.302-8.199h-22.8v61.199h19.399c10.266,0,18.315-2.582,24.149-7.75c5.833-5.166,8.75-12.75,8.75-22.75
		C146.78,43.119,144.379,35.619,139.581,30.484z"/>
	<path fill="#1A171B" d="M214.581,81.186c-6,4.199-13.201,6.299-21.603,6.299c-11.134,0-19.934-2.932-26.398-8.799
		c-6.667-6.066-10-14.602-10-25.602c0-10.732,3.199-19.215,9.6-25.449c6.4-6.232,15.101-9.35,26.101-9.35c8.199,0,15,1.666,20.4,5
		c6.133,3.799,10.033,9.767,11.699,17.899h-3.699c-2.936-13.065-12.367-19.601-28.301-19.601c-9.936,0-17.784,2.801-23.55,8.4
		c-5.769,5.6-8.65,13.268-8.65,23c0,9.935,2.916,17.617,8.75,23.051c5.833,5.434,13.851,8.15,24.05,8.15c7.801,0,14.4-2,19.801-6
		c6.066-4.4,9.101-10.367,9.101-17.9v-2.601h-29.101v-3.3h32.5c0.199,1.867,0.302,3.467,0.302,4.8
		C225.581,68.719,221.913,76.053,214.581,81.186z"/>
</g>
<rect x="40.014" y="31.783" fill="#9EC104" width="17" height="17"/>
<rect x="40.014" y="54.348" fill="#9EC104" width="17" height="17"/>
<rect x="110.015" y="42.793" fill="#FFD808" width="17" height="17"/>
<rect x="183.014" y="42.793" fill="#D95696" width="17" height="17"/>
<line fill="none" stroke="#1A171B" stroke-width="2" x1="24.88" y1="99.651" x2="225.581" y2="99.651"/>
<g enable-background="new    ">
	<path fill="#1A171B" d="M26.498,109.417c0.912-0.216,2.376-0.36,3.816-0.36c2.088,0,3.432,0.36,4.416,1.177
		c0.84,0.624,1.368,1.584,1.368,2.856c0,1.584-1.056,2.952-2.736,3.552v0.072c1.536,0.36,3.336,1.632,3.336,4.032
		c0,1.393-0.552,2.473-1.392,3.24c-1.104,1.032-2.928,1.512-5.568,1.512c-1.44,0-2.544-0.096-3.24-0.191V109.417z M28.586,116.042
		h1.896c2.184,0,3.48-1.177,3.48-2.736c0-1.872-1.416-2.641-3.528-2.641c-0.96,0-1.512,0.072-1.848,0.145V116.042z M28.586,123.77
		c0.432,0.072,1.008,0.096,1.752,0.096c2.16,0,4.152-0.792,4.152-3.145c0-2.184-1.896-3.12-4.176-3.12h-1.729V123.77z"/>
	<path fill="#1A171B" d="M50.211,122.162c0,1.225,0.024,2.28,0.096,3.192h-1.872l-0.12-1.896h-0.048
		c-0.528,0.937-1.776,2.16-3.84,2.16c-1.824,0-4.008-1.032-4.008-5.088v-6.793h2.112v6.409c0,2.208,0.696,3.72,2.592,3.72
		c1.416,0,2.4-0.984,2.784-1.944c0.12-0.288,0.192-0.672,0.192-1.08v-7.104h2.112V122.162z"/>
	<path fill="#1A171B" d="M54.769,117.361c0-1.367-0.024-2.544-0.096-3.624h1.848l0.096,2.305h0.072
		c0.528-1.561,1.824-2.545,3.24-2.545c0.216,0,0.384,0.024,0.576,0.049v1.992c-0.216-0.049-0.432-0.049-0.72-0.049
		c-1.488,0-2.544,1.104-2.832,2.688c-0.048,0.288-0.072,0.648-0.072,0.984v6.192h-2.112V117.361z"/>
	<path fill="#1A171B" d="M64.61,119.929c0.048,2.856,1.848,4.032,3.984,4.032c1.512,0,2.448-0.264,3.216-0.6l0.384,1.512
		c-0.744,0.337-2.04,0.744-3.888,0.744c-3.576,0-5.712-2.376-5.712-5.88c0-3.505,2.064-6.241,5.448-6.241
		c3.816,0,4.801,3.312,4.801,5.449c0,0.432-0.024,0.744-0.072,0.983H64.61z M70.802,118.417c0.024-1.32-0.552-3.408-2.928-3.408
		c-2.16,0-3.072,1.944-3.24,3.408H70.802z"/>
	<path fill="#1A171B" d="M84.674,122.57c0,1.008,0.048,1.992,0.168,2.784h-1.896l-0.168-1.464h-0.072
		c-0.648,0.912-1.896,1.728-3.552,1.728c-2.353,0-3.553-1.656-3.553-3.336c0-2.809,2.497-4.345,6.985-4.32v-0.24
		c0-0.936-0.264-2.688-2.64-2.664c-1.104,0-2.232,0.312-3.048,0.864l-0.48-1.416c0.96-0.601,2.376-1.009,3.84-1.009
		c3.552,0,4.417,2.425,4.417,4.729V122.57z M82.634,119.425c-2.304-0.048-4.92,0.36-4.92,2.616c0,1.393,0.912,2.017,1.968,2.017
		c1.536,0,2.52-0.96,2.856-1.944c0.072-0.24,0.096-0.48,0.096-0.672V119.425z"/>
	<path fill="#1A171B" d="M98.858,122.162c0,1.225,0.024,2.28,0.096,3.192h-1.872l-0.12-1.896h-0.048
		c-0.528,0.937-1.776,2.16-3.84,2.16c-1.824,0-4.008-1.032-4.008-5.088v-6.793h2.112v6.409c0,2.208,0.696,3.72,2.592,3.72
		c1.416,0,2.4-0.984,2.784-1.944c0.12-0.288,0.192-0.672,0.192-1.08v-7.104h2.112V122.162z"/>
	<path fill="#1A171B" d="M119.57,108.313v14.041c0,1.032,0.048,2.208,0.096,3h-1.872l-0.096-2.017h-0.072
		c-0.624,1.297-2.016,2.28-3.913,2.28c-2.808,0-4.992-2.376-4.992-5.904c-0.024-3.864,2.4-6.217,5.208-6.217
		c1.8,0,2.976,0.841,3.504,1.753h0.048v-6.937H119.57z M117.482,118.465c0-0.264-0.024-0.624-0.096-0.888
		c-0.312-1.32-1.464-2.425-3.048-2.425c-2.184,0-3.48,1.921-3.48,4.465c0,2.352,1.176,4.296,3.432,4.296
		c1.416,0,2.712-0.96,3.096-2.52c0.072-0.288,0.096-0.576,0.096-0.912V118.465z"/>
	<path fill="#1A171B" d="M125.329,119.929c0.047,2.856,1.848,4.032,3.984,4.032c1.512,0,2.447-0.264,3.216-0.6l0.384,1.512
		c-0.744,0.337-2.04,0.744-3.889,0.744c-3.576,0-5.712-2.376-5.712-5.88c0-3.505,2.063-6.241,5.448-6.241
		c3.816,0,4.801,3.312,4.801,5.449c0,0.432-0.024,0.744-0.072,0.983H125.329z M131.521,118.417c0.025-1.32-0.551-3.408-2.928-3.408
		c-2.16,0-3.072,1.944-3.24,3.408H131.521z"/>
	<path fill="#1A171B" d="M155.785,124.634c-0.937,0.359-2.808,0.888-4.992,0.888c-2.448,0-4.464-0.624-6.049-2.136
		c-1.392-1.345-2.256-3.505-2.256-6.025c0-4.824,3.336-8.353,8.761-8.353c1.872,0,3.36,0.408,4.057,0.744l-0.528,1.704
		c-0.864-0.408-1.944-0.695-3.577-0.695c-3.936,0-6.504,2.447-6.504,6.504c0,4.104,2.448,6.528,6.24,6.528
		c1.369,0,2.305-0.191,2.785-0.432v-4.824h-3.265v-1.681h5.328V124.634z"/>
	<path fill="#1A171B" d="M161.232,119.929c0.049,2.856,1.849,4.032,3.984,4.032c1.513,0,2.449-0.264,3.217-0.6l0.384,1.512
		c-0.743,0.337-2.04,0.744-3.888,0.744c-3.576,0-5.713-2.376-5.713-5.88c0-3.505,2.064-6.241,5.448-6.241
		c3.816,0,4.801,3.312,4.801,5.449c0,0.432-0.024,0.744-0.072,0.983H161.232z M167.425,118.417c0.023-1.32-0.553-3.408-2.929-3.408
		c-2.16,0-3.072,1.944-3.24,3.408H167.425z"/>
	<path fill="#1A171B" d="M172.848,123.218c0.647,0.384,1.752,0.815,2.808,0.815c1.513,0,2.232-0.744,2.232-1.728
		c0-1.009-0.6-1.536-2.137-2.112c-2.111-0.769-3.096-1.896-3.096-3.288c0-1.873,1.536-3.409,4.008-3.409
		c1.177,0,2.209,0.312,2.833,0.721l-0.504,1.536c-0.456-0.288-1.296-0.696-2.376-0.696c-1.248,0-1.92,0.72-1.92,1.584
		c0,0.96,0.672,1.393,2.184,1.992c1.992,0.744,3.049,1.752,3.049,3.48c0,2.064-1.609,3.504-4.321,3.504
		c-1.272,0-2.448-0.336-3.265-0.815L172.848,123.218z"/>
	<path fill="#1A171B" d="M186.24,110.953v2.784h3.025v1.608h-3.025v6.265c0,1.44,0.408,2.256,1.584,2.256
		c0.576,0,0.912-0.048,1.225-0.144l0.096,1.607c-0.408,0.145-1.056,0.288-1.871,0.288c-0.984,0-1.777-0.336-2.281-0.888
		c-0.576-0.648-0.815-1.68-0.815-3.048v-6.337h-1.8v-1.608h1.8v-2.16L186.24,110.953z"/>
	<path fill="#1A171B" d="M195.048,110.473c0,0.72-0.505,1.296-1.345,1.296c-0.769,0-1.272-0.576-1.272-1.296
		c0-0.721,0.528-1.32,1.32-1.32C194.519,109.153,195.048,109.729,195.048,110.473z M192.695,125.354v-11.617h2.113v11.617H192.695z"
		/>
	<path fill="#1A171B" d="M209.88,119.45c0,4.296-3,6.168-5.785,6.168c-3.119,0-5.568-2.304-5.568-5.977
		c0-3.864,2.568-6.145,5.761-6.145C207.624,113.497,209.88,115.921,209.88,119.45z M200.687,119.57c0,2.544,1.44,4.464,3.505,4.464
		c2.017,0,3.528-1.896,3.528-4.512c0-1.969-0.984-4.44-3.48-4.44C201.767,115.082,200.687,117.385,200.687,119.57z"/>
	<path fill="#1A171B" d="M213.599,116.881c0-1.225-0.023-2.185-0.096-3.145h1.872l0.12,1.92h0.048c0.576-1.08,1.921-2.16,3.841-2.16
		c1.607,0,4.104,0.961,4.104,4.944v6.913h-2.111v-6.696c0-1.872-0.696-3.433-2.688-3.433c-1.368,0-2.448,0.984-2.833,2.16
		c-0.096,0.264-0.144,0.624-0.144,0.984v6.984h-2.112V116.881z"/>
</g>
</svg>
