<?xml version="1.0" encoding="UTF-8" standalone="no"?>
<!-- Generator: Adobe Illustrator 14.0.0, SVG Export Plug-In . SVG Version: 6.00 Build 43363)  -->

<svg
   xmlns:dc="http://purl.org/dc/elements/1.1/"
   xmlns:cc="http://creativecommons.org/ns#"
   xmlns:rdf="http://www.w3.org/1999/02/22-rdf-syntax-ns#"
   xmlns:svg="http://www.w3.org/2000/svg"
   xmlns="http://www.w3.org/2000/svg"
   xmlns:sodipodi="http://sodipodi.sourceforge.net/DTD/sodipodi-0.dtd"
   xmlns:inkscape="http://www.inkscape.org/namespaces/inkscape"
   version="1.1"
   id="Calque_1"
   x="0px"
   y="0px"
   width="94.308998"
   height="92.667"
   viewBox="0 0 94.308998 92.667"
   enable-background="new 0 0 678 275"
   xml:space="preserve"
   sodipodi:docname="espace-client.svg"
   inkscape:version="0.92.3 (2405546, 2018-03-11)"><metadata
   id="metadata35"><rdf:RDF><cc:Work
       rdf:about=""><dc:format>image/svg+xml</dc:format><dc:type
         rdf:resource="http://purl.org/dc/dcmitype/StillImage" /><dc:title></dc:title></cc:Work></rdf:RDF></metadata><defs
   id="defs33" /><sodipodi:namedview
   pagecolor="#ffffff"
   bordercolor="#666666"
   borderopacity="1"
   objecttolerance="10"
   gridtolerance="10"
   guidetolerance="10"
   inkscape:pageopacity="0"
   inkscape:pageshadow="2"
   inkscape:window-width="1166"
   inkscape:window-height="599"
   id="namedview31"
   showgrid="false"
   inkscape:zoom="2.55"
   inkscape:cx="80.358553"
   inkscape:cy="74.146997"
   inkscape:window-x="698"
   inkscape:window-y="266"
   inkscape:window-maximized="0"
   inkscape:current-layer="Calque_1" />
<g
   id="g4"
   transform="translate(0,-182.333)">
	<rect
   x="106.965"
   y="-211.076"
   width="187"
   height="39.306999"
   id="rect2"
   style="fill:none" />
</g>
<path
   d="m 91.658729,56.607401 c 0,-7.834991 -5.859993,-14.188228 -13.091298,-14.188228 -1.325015,0 -2.603114,0.21554 -3.808648,0.612313 0.303102,-1.29718 0.464199,-2.656896 0.464199,-4.056685 0,-9.1176 -4.820871,-16.071916 -14.021248,-17.351186 -4.240631,-0.589544 -9.517874,1.918905 -12.125997,3.600412 -3.736706,-5.83898 -9.210077,-9.902951 -16.774825,-9.902951 -10.025234,0 -18.152705,8.808862 -18.152705,19.673237 0,2.864846 0.565851,5.586101 1.58089,8.040209 -0.0244,0 -0.04849,-0.0018 -0.07385,-0.0018 -7.2297362,0 -13.0906659,6.351416 -13.0906659,14.188229 0,7.835294 5.7749048,13.65454 13.0049609,13.65454 1.214598,0 2.553071,-0.07194 3.590627,0.01457 H 79.28935 c 0.08696,0 0.167659,-0.05039 0.239289,-0.136608 C 86.309204,70.219779 91.6587,64.092705 91.6587,56.607434 Z"
   id="path6"
   inkscape:connector-curvature="0"
   style="fill:#aadce8;stroke-width:0.30815327" />
<g
   id="g12"
   transform="matrix(0.31279973,0,0,0.30357591,-117.59429,-9.2646262)">
	<path
   d="m 543.5,174.681 c -3.673,4.355 -12.141,7.11 -18.154,7.11 -5.734,0 -13.984,-2.506 -17.639,-6.521 -14.971,6.463 -18.562,21.976 -18.562,40.099 0,8.278 1.736,16.021 4.951,22.599 6.064,12.426 57.314,13.174 63.562,1.696 3.772,-6.929 5.826,-15.293 5.826,-24.295 0,-18.693 -4.261,-34.618 -19.984,-40.688 z"
   id="path8"
   inkscape:connector-curvature="0"
   style="fill:#ffffff" />
	<path
   d="m 525.021,134.114 c -11.066,0 -20.042,9.32 -20.042,20.814 0,5.539 2.088,10.57 5.483,14.299 3.652,4.012 8.819,6.521 14.558,6.521 6.015,0 11.404,-2.755 15.078,-7.11 3.088,-3.662 4.962,-8.457 4.962,-13.707 0.001,-11.496 -8.97,-20.817 -20.039,-20.817 z"
   id="path10"
   inkscape:connector-curvature="0"
   style="fill:#ffffff" />
</g>




</svg>