<?xml version="1.0" encoding="utf-8"?>
<!-- Generator: Adobe Illustrator 14.0.0, SVG Export Plug-In . SVG Version: 6.00 Build 43363)  -->
<!DOCTYPE svg PUBLIC "-//W3C//DTD SVG 1.1//EN" "http://www.w3.org/Graphics/SVG/1.1/DTD/svg11.dtd">
<svg version="1.1" id="Calque_1" xmlns="http://www.w3.org/2000/svg" xmlns:xlink="http://www.w3.org/1999/xlink" x="0px" y="0px"
	 width="289.018px" height="93.555px" viewBox="0 0 289.018 93.555" enable-background="new 0 0 289.018 93.555"
	 xml:space="preserve">
<g>
	<g enable-background="new    ">
		<path fill="#3BA6D9" d="M66.6,65.496h-4.954V54.488c-0.955,1.285-2,2.515-3.137,3.688c-5.908,5.908-13.045,8.861-21.411,8.861
			c-8.33,0-15.449-2.953-21.356-8.861C9.834,52.268,6.881,45.15,6.881,36.82c0-8.366,2.953-15.503,8.861-21.411
			c5.908-5.907,13.026-8.861,21.356-8.861c8.366,0,15.503,2.954,21.411,8.861c1.137,1.175,2.183,2.403,3.137,3.688v-7.65H66.6
			V65.496z M61.647,41.718v-9.797c-0.917-4.844-3.211-9.101-6.88-12.77c-4.881-4.88-10.771-7.321-17.668-7.321
			c-6.899,0-12.789,2.441-17.668,7.321c-4.881,4.88-7.32,10.77-7.32,17.668c0,6.899,2.439,12.779,7.32,17.641
			c4.88,4.863,10.769,7.293,17.668,7.293c6.898,0,12.788-2.439,17.668-7.32C58.435,50.764,60.729,46.526,61.647,41.718z"/>
	</g>
	<g>
		<path d="M85.541,6.091v56.25h-3.164V6.091H85.541z"/>
		<path d="M99.252,6.091v56.25h-3.164V6.091H99.252z"/>
		<path d="M114.315,16.497c0.621,0.609,0.933,1.349,0.933,2.215c0,0.892-0.312,1.642-0.933,2.25c-0.621,0.61-1.365,0.914-2.23,0.914
			c-0.867,0-1.612-0.304-2.232-0.914c-0.621-0.608-0.932-1.358-0.932-2.25c0-0.866,0.311-1.604,0.932-2.215
			c0.621-0.608,1.365-0.914,2.232-0.914C112.95,15.583,113.695,15.888,114.315,16.497z M113.665,27.817V62.34h-3.163V27.817H113.665
			z"/>
		<path d="M162.18,62.341h-3.164v-7.03c-0.608,0.82-1.277,1.604-2.003,2.354c-3.774,3.773-8.332,5.66-13.676,5.66
			c-5.321,0-9.867-1.887-13.643-5.66c-3.772-3.772-5.659-8.319-5.659-13.642c0-5.345,1.887-9.9,5.659-13.677
			c3.773-3.771,8.32-5.66,13.643-5.66c5.344,0,9.9,1.888,13.676,5.66c0.726,0.752,1.395,1.534,2.003,2.354v-4.888h3.164V62.341z
			 M159.016,47.153v-6.259c-0.585-3.095-2.051-5.812-4.395-8.156c-3.117-3.115-6.879-4.675-11.285-4.675
			c-4.407,0-8.168,1.56-11.285,4.675c-3.117,3.117-4.676,6.881-4.676,11.286c0,4.407,1.559,8.162,4.676,11.269
			c3.117,3.105,6.878,4.658,11.285,4.658c4.405,0,8.168-1.561,11.285-4.677C156.967,52.932,158.431,50.225,159.016,47.153z"/>
		<path d="M175.891,35.516V62.34h-3.164V27.817h3.164v2.216c2.883-2.859,6.234-4.289,10.055-4.289c4.078,0,7.396,1.277,9.949,3.832
			c2.556,2.555,3.867,5.776,3.938,9.668v23.098h-3.164V39.526c0-2.931-1.062-5.433-3.185-7.507s-4.635-3.109-7.541-3.109
			c-2.903,0-5.414,1.021-7.521,3.06C177.274,33.113,176.43,34.299,175.891,35.516z"/>
		<path d="M239.982,54.044l3.34,1.195c-0.606,0.844-1.301,1.65-2.072,2.426c-3.772,3.773-8.331,5.66-13.679,5.66
			c-5.317,0-9.866-1.887-13.641-5.66c-3.772-3.772-5.66-8.332-5.66-13.676c0-5.32,1.888-9.866,5.66-13.643
			c3.772-3.771,8.32-5.66,13.641-5.66c5.348,0,9.903,1.888,13.679,5.66c0.771,0.772,1.466,1.569,2.072,2.391l-3.34,1.229
			c-0.352-0.422-0.727-0.844-1.125-1.266c-3.116-3.095-6.879-4.642-11.286-4.642c-4.383,0-8.133,1.553-11.25,4.658
			c-3.116,3.106-4.676,6.86-4.676,11.269c0,4.407,1.56,8.17,4.676,11.286c3.117,3.115,6.867,4.677,11.25,4.677
			c4.407,0,8.17-1.562,11.286-4.677C239.257,54.876,239.632,54.466,239.982,54.044z"/>
		<path d="M258.335,55.872c2.977,2.72,6.516,4.078,10.615,4.078c4.405,0,8.168-1.561,11.284-4.677
			c0.398-0.397,0.773-0.811,1.125-1.229l3.341,1.195c-0.607,0.844-1.302,1.65-2.072,2.426c-3.773,3.773-8.332,5.66-13.678,5.66
			c-5.318,0-9.865-1.887-13.642-5.66c-3.771-3.772-5.66-8.332-5.66-13.676c0-5.32,1.889-9.866,5.66-13.643
			c3.773-3.771,8.32-5.66,13.642-5.66c4.569,0,8.565,1.371,11.987,4.112c0.562,0.47,1.125,0.984,1.688,1.548
			c0.211,0.211,0.408,0.422,0.598,0.633l-2.391,2.393L258.335,55.872z M278.513,31.228c-2.742-2.108-5.93-3.165-9.562-3.165
			c-4.384,0-8.134,1.554-11.25,4.659c-3.115,3.104-4.677,6.859-4.677,11.269c0,3.634,1.057,6.819,3.164,9.562L278.513,31.228z"/>
	</g>
	<polygon fill="#3BA6D9" points="72.857,70.002 3.855,70.002 72.857,1.001 	"/>
	<g>
		<path fill="#FFFFFF" d="M58.51,15.408c1.137,1.175,2.183,2.403,3.138,3.688v-7.65H66.6v54.052h-4.953V54.49
			c-0.955,1.282-2.001,2.514-3.138,3.688c-5.909,5.908-13.045,8.861-21.411,8.861c-8.33,0-15.448-2.953-21.354-8.861 M19.429,54.461
			c4.879,4.861,10.771,7.293,17.668,7.293s12.787-2.438,17.668-7.32c3.669-3.669,5.963-7.907,6.881-12.714v-9.799
			c-0.918-4.844-3.212-9.101-6.881-12.771"/>
	</g>
	<rect x="4.016" y="75.668" width="285" height="15.836"/>
	<g>
		<path fill="#FFFFFF" d="M37.135,88.669V78.649h3.247c1.229,0,2.033,0.051,2.405,0.148c0.573,0.15,1.056,0.479,1.441,0.98
			c0.388,0.504,0.581,1.153,0.581,1.95c0,0.614-0.111,1.134-0.335,1.554c-0.223,0.419-0.507,0.749-0.851,0.985
			c-0.346,0.239-0.694,0.397-1.05,0.478c-0.482,0.096-1.184,0.145-2.1,0.145h-1.319v3.779L37.135,88.669L37.135,88.669z
			 M39.159,80.343v2.845h1.106c0.797,0,1.331-0.053,1.601-0.155c0.27-0.105,0.479-0.271,0.632-0.492
			c0.152-0.222,0.229-0.481,0.229-0.779c0-0.364-0.106-0.666-0.321-0.9c-0.214-0.235-0.483-0.386-0.812-0.443
			c-0.242-0.046-0.728-0.067-1.456-0.067h-0.979V80.343z"/>
		<path fill="#FFFFFF" d="M67.071,88.669h-2.2l-0.875-2.275h-4.007l-0.826,2.275h-2.146l3.903-10.021h2.14L67.071,88.669z
			 M63.346,84.704l-1.381-3.72l-1.354,3.72H63.346z"/>
		<path fill="#FFFFFF" d="M80.752,88.669V78.649h4.259c1.07,0,1.849,0.091,2.334,0.271c0.484,0.181,0.874,0.5,1.166,0.96
			s0.438,0.987,0.438,1.579c0,0.752-0.222,1.373-0.663,1.863c-0.441,0.487-1.104,0.799-1.981,0.926
			c0.438,0.256,0.799,0.535,1.083,0.841c0.284,0.307,0.669,0.849,1.151,1.627l1.225,1.955h-2.42L85.88,86.49
			c-0.521-0.779-0.875-1.271-1.066-1.475c-0.19-0.203-0.394-0.343-0.607-0.418c-0.214-0.073-0.555-0.111-1.02-0.111h-0.41v4.185
			L80.752,88.669L80.752,88.669z M82.775,82.887h1.497c0.972,0,1.577-0.041,1.818-0.123c0.24-0.082,0.431-0.225,0.566-0.425
			c0.137-0.199,0.204-0.45,0.204-0.752c0-0.337-0.09-0.608-0.27-0.816c-0.181-0.207-0.435-0.338-0.763-0.394
			c-0.163-0.022-0.655-0.034-1.478-0.034h-1.579L82.775,82.887L82.775,82.887z"/>
		<path fill="#FFFFFF" d="M105.711,88.669v-8.326h-2.976V78.65h7.965v1.693h-2.968v8.326H105.711z"/>
		<path fill="#FFFFFF" d="M124.606,88.669V78.649h7.432v1.693h-5.406v2.224h5.03v1.688h-5.03v2.729h5.599v1.688h-7.624V88.669z"/>
		<path fill="#FFFFFF" d="M146.565,88.669V78.649h1.97l4.103,6.69v-6.69h1.88V88.67h-2.03l-4.04-6.535v6.535L146.565,88.669
			L146.565,88.669z"/>
		<path fill="#FFFFFF" d="M178.293,88.669h-2.201l-0.875-2.275h-4.006l-0.827,2.275h-2.146l3.903-10.021h2.141L178.293,88.669z
			 M174.566,84.704l-1.381-3.72l-1.354,3.72H174.566z"/>
		<path fill="#FFFFFF" d="M191.972,88.669V78.649h4.259c1.071,0,1.851,0.091,2.335,0.271s0.873,0.5,1.165,0.96
			s0.438,0.987,0.438,1.579c0,0.752-0.224,1.373-0.663,1.863c-0.442,0.487-1.104,0.799-1.982,0.926
			c0.438,0.256,0.8,0.535,1.084,0.841c0.284,0.307,0.668,0.849,1.151,1.627l1.224,1.955h-2.42L197.1,86.49
			c-0.521-0.779-0.875-1.271-1.065-1.475c-0.189-0.203-0.396-0.343-0.606-0.418c-0.214-0.073-0.554-0.111-1.021-0.111h-0.41v4.185
			L191.972,88.669L191.972,88.669z M193.995,82.887h1.497c0.973,0,1.576-0.041,1.817-0.123s0.432-0.225,0.567-0.425
			c0.136-0.199,0.204-0.45,0.204-0.752c0-0.337-0.092-0.608-0.271-0.816c-0.181-0.207-0.435-0.338-0.763-0.394
			c-0.164-0.022-0.656-0.034-1.479-0.034h-1.579v2.544H193.995z"/>
		<path fill="#FFFFFF" d="M214.614,88.669V78.649h2.023V88.67L214.614,88.669L214.614,88.669z"/>
		<path fill="#FFFFFF" d="M240.204,88.669h-2.2l-0.875-2.275h-4.007l-0.826,2.275h-2.146l3.903-10.021h2.14L240.204,88.669z
			 M236.477,84.704l-1.381-3.72l-1.354,3.72H236.477z"/>
		<path fill="#FFFFFF" d="M255.093,88.669v-8.326h-2.976V78.65h7.965v1.693h-2.967v8.326H255.093z"/>
	</g>
</g>
</svg>
