<?xml version="1.0" encoding="utf-8"?>
<!-- Generator: Adobe Illustrator 14.0.0, SVG Export Plug-In . SVG Version: 6.00 Build 43363)  -->
<!DOCTYPE svg PUBLIC "-//W3C//DTD SVG 1.1//EN" "http://www.w3.org/Graphics/SVG/1.1/DTD/svg11.dtd">
<svg version="1.1" id="Calque_1" xmlns="http://www.w3.org/2000/svg" xmlns:xlink="http://www.w3.org/1999/xlink" x="0px" y="0px"
	 width="285px" height="167.585px" viewBox="0 0 285 167.585" enable-background="new 0 0 285 167.585" xml:space="preserve">
<g>
	<path fill="#5F8FFF" d="M239.792,54.31c-2.849-20.523-16.147-37.695-34.348-45.993c-28.2,1.828-33.379,18.847-38,25.278
		c0.222,0.006,0.428,0.009,0.657,0.018l-0.721,0.073c0.021-0.028,0.042-0.062,0.062-0.091c-7.335-0.207-8.277,0.871-7.991,0.091
		c6.415-17.486,24.691-26.985,39.794-27.792c-5.823-1.899-12.038-2.933-18.496-2.933c-25.239,0-46.814,15.685-55.512,37.837
		c-6.146-2.022-12.712-3.121-19.533-3.121c-26.669,0-49.429,16.727-58.367,40.26c-2.767-0.643-5.649-0.984-8.612-0.984
		c-20.917,0-37.873,16.957-37.873,37.873c0,20.918,16.956,37.873,37.873,37.873c8.788,0,16.875-2.992,23.3-8.016
		c11.26,11.029,26.675,17.834,43.681,17.834c13.054,0,25.171-4.012,35.188-10.859c9.773,8.098,22.32,12.967,36.004,12.967
		c16.284,0,30.957-6.897,41.263-17.928c5.17,1.912,10.759,2.961,16.594,2.961c26.402,0,47.806-21.404,47.806-47.807
		C282.56,77.151,263.827,56.828,239.792,54.31z"/>
	<g>
		<path fill="#ADF70D" d="M36.78,115.402c0,5.701-3.97,8.553-11.904,8.553c-2.897,0-5.471-0.332-7.721-0.994l0.809-3.629
			c2.589,0.896,5.046,1.34,7.374,1.34c5.24,0,7.859-1.479,7.859-4.438c0-1.494-0.68-2.773-2.034-3.838
			c-0.909-0.709-2.697-1.656-5.363-2.844c-2.805-1.248-4.77-2.396-5.894-3.443c-1.559-1.447-2.337-3.268-2.337-5.455
			c0-2.281,0.796-4.139,2.383-5.57c1.771-1.604,4.274-2.403,7.513-2.403c3.667,0,6.18,0.237,7.536,0.717l-0.557,3.675
			c-2.342-0.738-4.829-1.109-7.466-1.109c-3.96,0-5.939,1.326-5.939,3.979c0,1.279,0.568,2.35,1.71,3.213
			c0.74,0.539,2.373,1.355,4.898,2.449c2.884,1.248,4.962,2.436,6.242,3.561C35.816,110.855,36.78,112.935,36.78,115.402z"/>
		<path fill="#FFFFFF" d="M72.487,105.932c0,5.847-1.678,10.405-5.032,13.683c-3.356,3.276-7.308,4.914-11.851,4.914
			c-4.246,0-7.894-1.449-10.939-4.351c-3.048-2.897-4.572-6.986-4.572-12.261c0-5.891,1.683-10.489,5.051-13.801
			c3.367-3.311,7.323-4.967,11.866-4.967c4.247,0,7.888,1.469,10.924,4.4C70.969,96.486,72.487,100.613,72.487,105.932z
			 M66.563,107.13c0-3.561-0.896-6.729-2.688-9.504c-1.792-2.772-4.344-4.16-7.654-4.16c-3.288,0-5.814,1.314-7.585,3.939
			c-1.77,2.625-2.654,5.674-2.654,9.143c0,3.586,0.896,6.761,2.688,9.521c1.792,2.764,4.354,4.145,7.688,4.145
			c3.288,0,5.812-1.317,7.568-3.955C65.684,113.621,66.563,110.578,66.563,107.13z"/>
		<path fill="#FFFFFF" d="M83.501,123.191h-6.575c0.411-7.533,0.617-16.049,0.617-25.547c0-9.225-0.332-16.77-0.993-22.639
			l6.952-0.342c-0.436,6.211-0.65,13.871-0.65,22.979C82.85,107.027,83.066,115.544,83.501,123.191z"/>
		<path fill="#FFFFFF" d="M111.191,113.912c0,6.666-4.258,10-12.771,10c-3.77,0-7.283-0.377-10.548-1.131l1.062-5.033
			c2.968,1.142,6.188,1.711,9.657,1.711c4.978,0,7.466-1.414,7.466-4.246c0-1.368-0.554-2.459-1.661-3.271
			c-1.105-0.812-2.938-1.717-5.497-2.723c-3.239-1.277-5.594-2.513-7.054-3.699c-2.146-1.758-3.219-3.881-3.219-6.369
			c0-2.603,0.979-4.834,2.943-6.694c1.966-1.859,4.954-2.791,8.975-2.791c3.927,0,7.077,0.332,9.452,0.994l-1.062,4.932
			c-2.466-0.98-5.319-1.473-8.562-1.473c-4.385,0-6.575,1.266-6.575,3.801c0,1.279,0.491,2.312,1.472,3.1
			c0.981,0.789,2.899,1.74,5.753,2.859c3.082,1.211,5.365,2.396,6.851,3.562C110.085,109.242,111.191,111.4,111.191,113.912z"/>
		<path fill="#FFFFFF" d="M139.911,117.285l-0.515,5.564c-2.255,0.826-4.381,1.24-6.378,1.24c-5.137,0-8.646-1.307-10.529-3.918
			c-1.886-2.609-2.825-7.283-2.825-14.02c0-4.365,0.026-10.061,0.085-17.08c-1.6,0-3.953,0.086-7.063,0.258l0.257-6.207
			c2.711,0.172,5.139,0.256,7.277,0.256c0-1.711,0.142-5.778,0.428-12.199l6.723-0.686c-0.486,5.994-0.729,10.289-0.729,12.885
			c2.796,0,6.906-0.143,12.329-0.428l-0.3,6.379c-5.137-0.172-9.261-0.258-12.372-0.258c-0.057,4.311-0.085,9.161-0.085,14.555
			c0,5.879,0.621,9.77,1.862,11.666c1.239,1.897,3.545,2.848,6.911,2.848C136.1,118.141,137.742,117.855,139.911,117.285z"/>
		<path fill="#FFFFFF" d="M176.75,82.525c0,1.826-2.154,7.646-6.464,17.465c-4.938,11.217-8.005,19.121-9.203,23.715
			c-1.969,7.449-3.796,12.187-5.479,14.213c-2.283,2.797-6.351,4.195-12.2,4.195l-0.342-5.994c3.566,0,6.535-1.213,8.903-3.639
			c2.369-2.426,3.554-5.465,3.554-9.117c0-3.168-2.627-10.701-7.877-22.604c-5.251-11.899-7.876-17.979-7.876-18.234h8.861
			c0,0.771,1.798,5.965,5.394,15.58c3.598,9.619,5.396,15.539,5.396,17.768h0.428c0-1.854,1.521-7.233,4.559-16.141
			c3.039-8.902,4.562-14.639,4.562-17.207H176.75L176.75,82.525z"/>
		<path fill="#FFFFFF" d="M218.376,115.332l-0.516,6.885c-2.771,1.574-6.488,2.363-11.146,2.363c-8.87,0-15.651-2.449-20.343-7.348
			c-4.692-4.896-7.037-10.805-7.037-17.723c0-7.328,2.466-13.631,7.396-18.904c4.933-5.273,11.455-7.91,19.571-7.91
			c4.075,0,7.397,0.41,9.965,1.232l-1.387,8.064c-3.596-1.334-7.242-2.002-10.941-2.002c-4.861,0-8.73,1.694-11.607,5.084
			c-2.877,3.391-4.314,7.639-4.314,12.739c0,5.548,1.712,10.171,5.139,13.869c3.424,3.698,8.27,5.549,14.535,5.549
			C210.26,117.232,213.822,116.6,218.376,115.332z"/>
		<path fill="#FFFFFF" d="M257.259,98.062c0,1.199-0.058,2.854-0.171,4.967l-29.409,0.514c0.285,4.168,1.897,7.656,4.838,10.468
			c2.938,2.812,6.834,4.217,11.688,4.217c4.338,0,8.402-0.526,12.198-1.584l-0.728,6.035c-2.798,1.112-6.835,1.67-12.114,1.67
			c-7.421,0-13.078-2.024-16.973-6.078c-3.896-4.054-5.844-8.989-5.844-14.812c0-6.223,1.774-11.58,5.329-16.073
			c3.554-4.496,8.324-6.743,14.317-6.743c5.507,0,9.695,1.625,12.564,4.879C255.825,88.773,257.259,92.957,257.259,98.062z
			 M250.109,98.148c0-8.02-3.354-12.027-10.06-12.027c-6.849,0-10.888,4.168-12.114,12.5L250.109,98.148z"/>
	</g>
</g>
</svg>
