<?xml version="1.0" encoding="utf-8"?>
<!-- Generator: Adobe Illustrator 14.0.0, SVG Export Plug-In . SVG Version: 6.00 Build 43363)  -->
<!DOCTYPE svg PUBLIC "-//W3C//DTD SVG 1.1//EN" "http://www.w3.org/Graphics/SVG/1.1/DTD/svg11.dtd">
<svg version="1.1" id="Calque_1" xmlns="http://www.w3.org/2000/svg" xmlns:xlink="http://www.w3.org/1999/xlink" x="0px" y="0px"
	 width="287.896px" height="80.539px" viewBox="0 0 287.896 80.539" enable-background="new 0 0 287.896 80.539"
	 xml:space="preserve">
<rect x="-3.966" y="0" fill="#4DA7BC" width="50.204" height="68.521"/>
<g>
	
		<radialGradient id="SVGID_1_" cx="2202.5522" cy="6186.5259" r="203.624" gradientTransform="matrix(0.0892 0 0 0.0892 -129.029 -514.2403)" gradientUnits="userSpaceOnUse">
		<stop  offset="0" style="stop-color:#FFFFFF"/>
		<stop  offset="0.0849" style="stop-color:#F6F6F6"/>
		<stop  offset="0.2266" style="stop-color:#DCDCDC"/>
		<stop  offset="0.4074" style="stop-color:#B2B2B2"/>
		<stop  offset="0.6204" style="stop-color:#787878"/>
		<stop  offset="0.8576" style="stop-color:#2F2F2F"/>
		<stop  offset="1" style="stop-color:#000000"/>
	</radialGradient>
	<circle fill="url(#SVGID_1_)" cx="67.538" cy="41.212" r="18.171"/>
	
		<linearGradient id="SVGID_2_" gradientUnits="userSpaceOnUse" x1="83.8755" y1="551.3394" x2="78.9985" y2="556.6403" gradientTransform="matrix(1 0 0 1 -16.7197 -507)">
		<stop  offset="0" style="stop-color:#FFFFFF"/>
		<stop  offset="1" style="stop-color:#F8B21D"/>
	</linearGradient>
	<path fill="url(#SVGID_2_)" d="M73.528,58.517c0,0-3.912,1.022-6.023,1.022c-9.633,0-17.516-7.496-18.132-16.974
		c0,0,4.702-3.102,10.051-3.379c4.564-0.236,5.785-0.893,5.785-0.893S58.245,50.279,73.528,58.517z"/>
	
		<radialGradient id="SVGID_3_" cx="2178.2485" cy="6129.9233" r="124.0244" gradientTransform="matrix(0.0892 0 0 0.0892 -129.029 -514.2403)" gradientUnits="userSpaceOnUse">
		<stop  offset="0.1104" style="stop-color:#FFFFFF"/>
		<stop  offset="0.1946" style="stop-color:#E3ECFF"/>
		<stop  offset="0.4141" style="stop-color:#9EBEFF"/>
		<stop  offset="0.6122" style="stop-color:#679AFF"/>
		<stop  offset="0.7821" style="stop-color:#4080FF"/>
		<stop  offset="0.917" style="stop-color:#2870FF"/>
		<stop  offset="1" style="stop-color:#1F6AFF"/>
	</radialGradient>
	<path fill="url(#SVGID_3_)" d="M72.43,23.609c-1.708-0.531-3.002-0.698-4.885-0.698c-10.035,0-18.171,8.137-18.171,18.173
		c0,0,2.349-2.984,10.059-3.607c7.711-0.621,14.87-4.566,15.359-8.644C75.352,24.169,72.43,23.609,72.43,23.609z"/>
	
		<radialGradient id="SVGID_4_" cx="2179.4995" cy="6229.3394" r="154.8106" gradientTransform="matrix(0.0892 0 0 0.0892 -129.029 -514.2403)" gradientUnits="userSpaceOnUse">
		<stop  offset="0" style="stop-color:#FFFFFF"/>
		<stop  offset="1" style="stop-color:#00B3AE"/>
	</radialGradient>
	<path fill="url(#SVGID_4_)" d="M74.98,57.794c6.335-2.84,10.746-9.197,10.746-16.59c0-7.043-4.005-13.148-9.861-16.165
		c0,0,3.97,7.946-5.395,12.092c-4.947,2.19-6.22,8.366-2.333,13.783C72.45,56.923,74.98,57.794,74.98,57.794z"/>
</g>
<g enable-background="new    ">
	<path fill="#FFFFFF" d="M44.223,14.556l-7.557,6.669c-2.653-3.692-5.354-5.539-8.104-5.539c-1.338,0-2.434,0.358-3.285,1.075
		s-1.278,1.524-1.278,2.423c0,0.899,0.304,1.749,0.913,2.551c0.827,1.069,3.321,3.365,7.482,6.887
		c3.893,3.256,6.254,5.309,7.082,6.158c2.068,2.09,3.534,4.088,4.398,5.995c0.864,1.907,1.296,3.989,1.296,6.249
		c0,4.397-1.52,8.029-4.56,10.896s-7.004,4.3-11.892,4.3c-3.818,0-7.144-0.936-9.977-2.807c-2.833-1.87-5.259-4.81-7.277-8.817
		l8.576-5.175c2.579,4.737,5.547,7.105,8.905,7.105c1.751,0,3.224-0.51,4.416-1.53s1.788-2.198,1.788-3.534
		c0-1.215-0.45-2.43-1.35-3.645c-0.901-1.214-2.884-3.072-5.95-5.575c-5.84-4.761-9.612-8.436-11.316-11.022
		s-2.555-5.168-2.555-7.743c0-3.717,1.417-6.905,4.25-9.565c2.833-2.66,6.33-3.99,10.489-3.99c2.675,0,5.223,0.619,7.643,1.858
		C38.78,9.018,41.401,11.277,44.223,14.556z"/>
</g>
<g enable-background="new    ">
	<path fill="#055560" d="M69.497,20.205c6.108,0,11.169,2.211,15.186,6.632c3.65,4.033,5.475,8.807,5.475,14.32
		c0,5.539-1.929,10.38-5.786,14.521c-3.857,4.142-8.816,6.213-14.875,6.213c-6.084,0-11.055-2.071-14.912-6.213
		c-3.857-4.142-5.786-8.982-5.786-14.521c0-5.489,1.825-10.251,5.476-14.284C58.29,22.427,63.364,20.205,69.497,20.205z
		 M69.479,25.197c-4.242,0-7.887,1.566-10.934,4.7c-3.047,3.134-4.571,6.924-4.571,11.369c0,2.867,0.694,5.539,2.084,8.017
		c1.389,2.479,3.266,4.392,5.631,5.739c2.365,1.349,4.961,2.022,7.789,2.022c2.827,0,5.423-0.674,7.789-2.022
		c2.365-1.348,4.242-3.261,5.631-5.739c1.39-2.478,2.084-5.149,2.084-8.017c0-4.445-1.53-8.235-4.589-11.369
		S73.696,25.197,69.479,25.197z"/>
</g>
<g enable-background="new    ">
	<path fill="#055560" d="M94.502,5.92h5.101v54.95h-5.101V5.92z"/>
	<path fill="#055560" d="M129.169,25.561l-3.28,3.389c-2.728-2.647-5.395-3.972-8-3.972c-1.657,0-3.076,0.547-4.256,1.64
		c-1.182,1.094-1.772,2.369-1.772,3.826c0,1.288,0.487,2.515,1.46,3.681c0.974,1.19,3.019,2.587,6.135,4.19
		c3.798,1.968,6.378,3.862,7.742,5.685c1.338,1.847,2.008,3.923,2.008,6.23c0,3.256-1.144,6.013-3.431,8.272
		c-2.287,2.259-5.146,3.389-8.576,3.389c-2.288,0-4.471-0.498-6.551-1.494s-3.801-2.368-5.164-4.118l3.207-3.644
		c2.605,2.939,5.369,4.409,8.291,4.409c2.045,0,3.786-0.656,5.223-1.968c1.437-1.312,2.155-2.854,2.155-4.628
		c0-1.457-0.475-2.757-1.424-3.898c-0.95-1.117-3.092-2.526-6.427-4.228c-3.579-1.846-6.013-3.667-7.304-5.466
		c-1.29-1.797-1.935-3.85-1.935-6.158c0-3.012,1.028-5.514,3.084-7.506s4.654-2.988,7.793-2.988
		C121.796,20.205,125.471,21.99,129.169,25.561z"/>
	<path fill="#055560" d="M141.681,6.503h5.101v14.722h8.09v4.409h-8.09v35.236h-5.101V25.634h-6.958v-4.409h6.958V6.503z"/>
	<path fill="#055560" d="M157.29,21.225h5.395l13.625,30.529l13.23-30.529h5.43l-23.65,54.148h-5.389l7.633-17.506L157.29,21.225z"
		/>
	<path fill="#055560" d="M239.073,29.46l-4.043,2.514c-3.496-4.64-8.264-6.96-14.305-6.96c-4.828,0-8.838,1.554-12.029,4.659
		c-3.191,3.106-4.785,6.879-4.785,11.319c0,2.889,0.732,5.606,2.201,8.153c1.467,2.548,3.482,4.525,6.041,5.933
		c2.561,1.408,5.43,2.111,8.607,2.111c5.824,0,10.58-2.319,14.27-6.96l4.043,2.66c-1.895,2.854-4.439,5.067-7.633,6.641
		c-3.195,1.573-6.832,2.36-10.914,2.36c-6.268,0-11.467-1.992-15.596-5.977c-4.131-3.983-6.195-8.83-6.195-14.539
		c0-3.838,0.967-7.402,2.898-10.694c1.93-3.292,4.584-5.86,7.961-7.707c3.377-1.846,7.154-2.77,11.332-2.77
		c2.625,0,5.156,0.4,7.598,1.202s4.514,1.847,6.213,3.134C236.438,25.829,237.883,27.468,239.073,29.46z"/>
	<path fill="#055560" d="M281.284,47.716l4.299,2.259c-1.41,2.77-3.039,5.005-4.887,6.705s-3.926,2.994-6.236,3.881
		s-4.924,1.33-7.842,1.33c-6.469,0-11.525-2.119-15.172-6.358c-3.648-4.239-5.471-9.031-5.471-14.376
		c0-5.028,1.543-9.511,4.631-13.445c3.914-5.005,9.154-7.507,15.719-7.507c6.76,0,12.158,2.563,16.193,7.688
		c2.869,3.62,4.328,8.139,4.377,13.556h-35.674c0.098,4.604,1.568,8.38,4.414,11.324c2.846,2.945,6.361,4.417,10.545,4.417
		c2.018,0,3.982-0.351,5.891-1.053c1.91-0.701,3.533-1.633,4.871-2.795C278.28,52.181,279.727,50.305,281.284,47.716z
		 M281.284,37.04c-0.682-2.721-1.672-4.895-2.975-6.522c-1.301-1.628-3.021-2.939-5.162-3.936s-4.391-1.494-6.748-1.494
		c-3.893,0-7.236,1.252-10.033,3.753c-2.045,1.822-3.588,4.556-4.635,8.199H281.284z"/>
</g>
</svg>
