<?xml version="1.0" encoding="utf-8"?>
<!-- Generator: Adobe Illustrator 14.0.0, SVG Export Plug-In . SVG Version: 6.00 Build 43363)  -->
<!DOCTYPE svg PUBLIC "-//W3C//DTD SVG 1.1//EN" "http://www.w3.org/Graphics/SVG/1.1/DTD/svg11.dtd">
<svg version="1.1" id="Calque_1" xmlns="http://www.w3.org/2000/svg" xmlns:xlink="http://www.w3.org/1999/xlink" x="0px" y="0px"
	 width="404px" height="236px" viewBox="120.5 15 404 236" enable-background="new 120.5 15 404 236" xml:space="preserve">
<g>
	<rect x="106.965" y="-211.076" fill="none" width="187" height="39.307"/>
</g>
<g>
	<g>
		<path fill="#E8BABA" d="M240.48,91.349l-2.455,0.829l-0.283-0.195l-1.155,0.463l-1.485,0.028l-3.512,1.148
			c-1.241,0.23-2.727,0.258-4.458,0.083l-0.239,0.045c-0.509,0.592-1.027,0.936-1.545,1.032l-0.722,0.134
			c-0.96,0.178-2.009-0.122-3.147-0.905l-2.792,1.016l-1.004-0.062l-0.917,0.418l-1.922,0.357c-0.802,0.812-1.461,1.265-1.98,1.361
			l-1.966,0.118l-0.239,0.044l-0.196,0.285l-1.334-0.498l-1.307,0.989l-1.528-0.212c-0.512,0.591-1.188,0.964-2.027,1.121
			l-0.72,0.134l-2.056-0.362c-3.201,0.595-6.278,1.414-9.229,2.459c-1.48,0.274-2.849,0.033-4.109-0.727
			c0.12,0.64-0.926,1.25-3.138,1.824l-1.484,0.028l-1.59,0.792c-2.182,0.075-3.521-0.007-4.021-0.247l-0.239,0.044l-0.195,0.286
			l-5.371,0.501c-2.039,0.38-3.261,0.938-3.661,1.674l-0.481,0.09l-1.094-0.542l-1.352,0.748l-0.283-0.194l-0.721,0.133
			c-0.94,0.506-2.817,1.103-5.627,1.791l-1.86-0.649l-0.045-0.239l0.197-0.285c0.595-0.359,0.872-0.659,0.827-0.899l-0.045-0.239
			l-0.854-0.586l0.168-1.77l-0.045-0.242c-0.06-0.319-0.329-0.435-0.81-0.346l-0.179-0.96l0.648-1.859
			c1.841-0.342,3.486-0.4,4.936-0.173c1.84-0.342,2.981-0.884,3.423-1.629l1.2-0.223l4.216-0.04l0.72-0.134l2.508-1.209
			c3.498-0.112,5.588-0.004,6.269,0.324l0.961-0.178c0.799-0.149,1.234-0.478,1.307-0.987l0.24-0.045l0.284,0.196l0.961-0.179
			c-0.061-0.32,1.705-1.062,5.298-2.227l1.484-0.027l0.24-0.044l0.196-0.285c0.682,0.121,1.049,0.301,1.093,0.541l1.636-0.552
			l1.68-0.311l6.466,0.04l2.223-1.407l0.045,0.24c1.52-0.282,2.916-0.79,4.188-1.522l2.488,0.033
			c3.04-0.565,5.302-1.315,6.784-2.254c3.408,0.527,5.675,0.684,6.795,0.476l1.2-0.223c1.803-0.997,3.568-1.738,5.299-2.227
			l0.854,0.586l0.72-0.134l-0.089-0.479l0.72-0.134c0.088,0.48,0.532,0.646,1.334,0.497l0.479-0.089l0.196-0.285l1.335,0.497
			l0.719-0.134c0.26-0.379,0.871-0.659,1.83-0.837l0.098-0.142l1.251,6.724L240.48,91.349z M260.878,201.121l-0.181,0.032
			l-7.218,2.583l-3.779-0.29l-3.753,1.192l-2.97,0.057l-1.635,0.553l-0.285-0.195l-0.24,0.046l-0.917,0.417l-0.764-0.106
			l-0.675,0.374l-7.336,0.617l-2.115,0.643l-0.962,0.178l-0.196,0.285l-0.283-0.196l-2.402,0.446l-2.745,1.257l-3.539-0.337
			l-2.117,0.639l-0.24,0.047l-3.494-0.094l-2.026,1.119l-2.399,0.445l-2.553,0.973l-3.209,0.1l-0.96,0.177l-1.397,0.508
			l-1.245-0.017l-0.48,0.09l-0.195,0.283l-0.284-0.195l-0.962,0.179l-3.901,1.72c-4.839,0.691-7.314,0.737-7.426,0.138l-0.872,0.659
			l-0.285-0.197l-0.239,0.047c-0.22,0.371-1.856,0.926-4.906,1.656c-1.311,0.08-2.07-0.443-2.276-1.563l-0.18-0.96l0.345-0.811
			l-0.133-0.721l-0.836-1.831l-0.091-0.479l0.391-0.569l1.681-0.312c1.592-0.338,2.364-0.645,2.312-0.928l1.966-0.115l4.518-1.088
			l4.979,0.068l3.183-1.585l3.69-0.189l0.195-0.285l0.24-0.044l2.054,0.363l3.948-1.479l1.77,0.17l0.195-0.285l0.24-0.045
			l1.77,0.168l4.862-1.898l1.814,0.406l2.642-0.488c1.716-0.568,2.536-1.052,2.461-1.453c1.472-0.108,2.235-0.004,2.295,0.317
			c1.57-0.454,2.487-0.874,2.747-1.255c3.39-0.465,5.116-0.536,5.176-0.217l0.63-0.613l1.531,0.214l0.719-0.134l0.632-0.615
			l1.2-0.225l2.596-0.729l0.285,0.194l0.24-0.043l2.116-0.643l1.92-0.356l4.26,0.204c2.21-0.578,3.242-1.266,3.093-2.066
			l1.528,0.214l0.677-0.376l1.528,0.213l1.396-0.508c1.676-0.105,2.682-0.045,3.015,0.184l0.659-0.123l1.205,6.486H260.878z"/>
		<path fill="#E8BABA" d="M344.959,185.809l-0.888-0.086l-6.541,2.21l-0.284-0.194l-1.155,0.463l-1.486,0.029l-3.512,1.147
			c-1.24,0.231-2.726,0.259-4.456,0.085l-0.239,0.043c-0.512,0.592-1.028,0.937-1.547,1.031l-0.719,0.135
			c-0.961,0.178-2.01-0.123-3.149-0.904l-2.791,1.014l-1.006-0.062l-0.915,0.42l-1.921,0.356c-0.804,0.81-1.463,1.267-1.982,1.362
			l-1.966,0.117l-0.24,0.045l-0.195,0.285l-1.334-0.498l-1.307,0.988l-1.528-0.211c-0.512,0.589-1.188,0.965-2.028,1.119
			l-0.72,0.135l-2.055-0.363c-3.202,0.596-6.278,1.415-9.229,2.461c-1.481,0.275-2.852,0.031-4.11-0.73
			c0.119,0.643-0.927,1.252-3.137,1.828l-1.485,0.025l-1.592,0.793c-2.18,0.073-3.519-0.009-4.019-0.246l-0.24,0.043l-0.196,0.285
			l-5.37,0.502c-2.04,0.38-3.261,0.938-3.663,1.676l-0.48,0.088l-1.093-0.54l-1.353,0.747l-0.284-0.194l-0.721,0.134
			c-0.941,0.502-2.816,1.101-5.627,1.79l-1.859-0.649l-0.045-0.24l0.195-0.285c0.597-0.359,0.872-0.658,0.826-0.898l-0.043-0.239
			l-0.854-0.587l0.168-1.768l-0.044-0.24c-0.06-0.321-0.33-0.437-0.809-0.346l-0.18-0.961l0.648-1.861
			c1.843-0.343,3.486-0.398,4.936-0.172c1.84-0.342,2.98-0.887,3.423-1.629l1.201-0.225l4.214-0.039l0.72-0.132l2.508-1.212
			c3.495-0.111,5.588-0.002,6.269,0.326l0.961-0.178c0.799-0.148,1.235-0.479,1.306-0.987l0.24-0.044l0.284,0.195l0.961-0.18
			c-0.061-0.32,1.706-1.063,5.299-2.227l1.485-0.027l0.24-0.043l0.194-0.285c0.684,0.118,1.05,0.301,1.094,0.539l1.636-0.553
			l1.682-0.311l6.463,0.041l2.224-1.406l0.045,0.236c1.52-0.282,2.916-0.788,4.187-1.52l2.49,0.035
			c3.04-0.567,5.302-1.318,6.783-2.258c3.41,0.525,5.674,0.688,6.796,0.479l1.201-0.223c1.8-1,3.565-1.74,5.296-2.229l0.854,0.585
			l0.721-0.134l-0.089-0.479l0.72-0.135c0.089,0.482,0.532,0.647,1.334,0.499l0.481-0.091l0.195-0.283l1.334,0.496l0.72-0.135
			c0.258-0.379,0.871-0.658,1.831-0.837l0.977-1.423l4.151,0.283L344.959,185.809L344.959,185.809z M324.46,75.495
			c-0.975-0.107-1.478-0.262-1.515-0.462l-1.831,0.836l-0.286-0.196l-0.236,0.044l-1.354,0.748l-2.687,0.251l-6.934,2.778
			l-6.135,0.395l-3.556,0.91l-0.285-0.195l-0.916,0.418l-2.882,0.536l-3.299-0.38l-1.92,0.357l-2.267,1.167l-0.239,0.045
			c-2.122,0.394-3.607,0.421-4.456,0.083l-1.592,0.792l-4.891,0.413c0.045,0.24-1.032,0.688-3.227,1.345l-2.206,0.161l-2.88,0.535
			c-4.201,0.781-6.464,1.533-6.784,2.254l-1.201,0.224l-7.424,0.137l-1.397,0.507l-2.729,0.011L245.1,90.49l-0.96,0.179l-3.424,1.63
			c-1.759,0.327-2.998-0.104-3.717-1.297c0.58-1.35,0.74-2.703,0.487-4.064l-0.419-0.917c-0.208-1.12,0.809-1.888,3.049-2.304
			l5.175-0.217c0.511-0.591,1.187-0.965,2.026-1.121l0.962-0.178c0.8-0.149,1.323,0.001,1.573,0.451l6.588-1.968l5.31,0.503
			l3.619-1.914l0.044,0.239l2.986-1.299l1.484-0.027l0.917-0.418l0.853,0.585l0.721-0.134l0.585-0.853l2.25,0.078l3.513-1.149
			c0.649,0.375,1.909,0.472,3.78,0.291l1.067-0.941l1.334,0.496l1.155-0.463l1.005,0.061l1.636-0.552l3.931-0.233l3.903-1.719
			l3.449-0.145l1.395-0.507l3.844-0.714l2.025-1.121l1.771,0.167l0.673-0.374l1.771,0.167l0.24-0.044l0.195-0.284l3.495,0.094
			l0.916-0.418l2.49,0.034l2.747-1.255l0.72-0.133l0.945,0.072L324.46,75.495L324.46,75.495z"/>
		<path fill="#E8BABA" d="M367.558,67.86l-1.452,1.201c-2.871,0.369-4.836,0.486-5.896,0.351l-0.721,0.133l-0.196,0.285
			l-1.527-0.212l-0.827,0.898l-0.479,0.09c-0.641-0.544-1.979-0.627-4.02-0.248l-5.192,1.462l-0.284-0.196l-0.24,0.045
			c-0.38,0.403-1.603,0.96-3.662,1.674l-1.77-0.168l-1.396,0.508c-2.271,0.257-3.466,0.065-3.584-0.575
			c-0.901,1.16-2.094,1.878-3.572,2.153c-3.132,0.085-6.298,0.426-9.497,1.021l-0.554,0.351l-1.238-6.662l4.971-1.979l1.681-0.312
			l1.726-0.073c-0.045-0.241,0.23-0.54,0.826-0.897l0.284,0.194l0.239-0.044l1.397-0.507c3.769-0.205,5.685-0.145,5.744,0.174
			l0.962-0.179l0.193-0.284l0.241-0.045c0.249,0.45,0.773,0.602,1.574,0.453l0.961-0.179c0.518-0.552,2.429-1.403,5.733-2.556
			l2.775,0.229l0.721-0.134l3.945-1.479l1.201-0.223c0.72,0.528,1.979,0.625,3.779,0.292c1.271-0.733,2.826-1.27,4.669-1.613
			l0.237,0.266c0.064-0.094,0.156-0.153,0.276-0.176l0.24-0.045l1.485-0.027l2.506-1.21c0.053,0.281,1.284,0.218,3.691-0.189
			c0.799-0.149,1.235-0.478,1.305-0.987l0.285,0.195l1.878-0.597c0.518-0.096,1.14,0.12,1.859,0.648l0.239-0.044l-0.089-0.479
			l0.24-0.044l0.853,0.585l0.48-0.089c1.271-1.394,2.287-2.163,3.047-2.304c1.789,0.496,3.064,0.672,3.826,0.531l3.99-1.238
			l1.77,0.168l3.36-0.625l4.386-1.808l0.718-0.134c0.519-0.096,1.456,0.143,2.805,0.72l1.376,7.073l-1.941,0.236l-0.676,0.374
			c-1.809-0.16-3.297-0.132-4.456,0.083l-1.199,0.223l-1.83,0.837l-0.721,0.133l-4.454,0.083l-1.353,0.748l-0.24,0.044l-0.284-0.194
			l-3.317,0.864l-0.72,0.134l-1.246-0.016l-0.195,0.284l-1.964,0.117l-0.675,0.374l-1.005-0.062
			c-0.563,0.768-1.593,1.455-3.094,2.064c-0.683-0.328-1.783-0.454-3.301-0.38l0.044,0.24l-1.965,0.117
			c-0.479,0.088-0.689,0.294-0.631,0.613l-2.248-0.078C368.081,67.886,367.813,67.896,367.558,67.86z M387.907,177.703l-0.292,0.426
			l-1.681,0.313c-1.594,0.335-2.365,0.644-2.312,0.924l-1.965,0.116l-4.517,1.09l-4.979-0.07l-3.184,1.587l-3.69,0.188l-0.195,0.283
			l-0.24,0.045l-2.054-0.363l-3.945,1.479l-1.771-0.168l-0.196,0.286l-0.239,0.043l-1.77-0.168l-4.862,1.9l-1.814-0.409
			l-2.642,0.491c-1.364,0.461-2.157,0.854-2.385,1.189l-1.416-7.625l0.348-0.127l3.538,0.337l2.118-0.644l0.237-0.043l3.495,0.097
			l2.025-1.124l2.402-0.442l2.551-0.974l3.211-0.098l0.962-0.182l1.396-0.507l1.243,0.017l0.48-0.088l0.196-0.285l0.284,0.195
			l0.96-0.18l3.903-1.719c4.837-0.693,7.312-0.737,7.424-0.135l0.872-0.66l0.285,0.195l0.239-0.045
			c0.222-0.371,1.855-0.926,4.909-1.656c0.284-0.012,0.559-0.002,0.812,0.035c0.266-0.34,0.694-0.606,1.28-0.797
			c3.108-0.413,4.835-0.484,5.174-0.217l0.241-0.045l0.194-0.285l1.05,0.301c-0.112-0.6,2.215-1.445,6.979-2.537l4.259,0.202
			l0.961-0.179l0.194-0.285l0.285,0.195l0.48-0.088l1.157-0.464l1.484-0.029l0.962-0.179l3.029-1.057l2.73-0.012l2.4-0.445
			l2.297,0.318l3.226-1.346l0.24-0.045l0.982-0.06l1.198,6.112l-0.3,0.057l-1.548,1.031l-5.221-0.025l-1.591,0.795l-0.24,0.045
			l-0.284-0.195l-1.592,0.793l-4.213,0.037l-1.786,1.078l-0.24,0.043l-0.285-0.196l-3.513,1.149l-3.539-0.336l-4.623,1.854
			l-4.606,0.607L391,177.625c-0.052-0.282-0.883-0.291-2.489-0.033L387.907,177.703z"/>
		<path fill="#E8BABA" d="M498.45,157.781l-1.592,0.793l-0.763-0.107l-1.591,0.791l-2.296-0.318l-3.84,0.715l-1.486,0.027
			l-3.271,1.105l-4.262-0.203l-3.75,1.195l-1.725,0.072l-0.916,0.417l-1.246-0.017l-1.066,0.943l-1.335-0.498
			c-1.812,0.501-2.953,1.046-3.423,1.631l-3.689,0.189l-2.072,0.881l-0.854-0.586l-0.718,0.135l-0.587,0.853l-1.004-0.062
			l-1.398,0.508l-3.254-0.14l0.044,0.241l-4.063-0.488l-4.774,2.375l-6.855,0.531c-0.072,0.511-0.507,0.84-1.307,0.988l-0.96,0.178
			c-0.839,0.158-1.604,0.051-2.294-0.318l-4.908,1.656c-2.241,0.418-3.466,0.064-3.674-1.053l0.062-1.009
			c-0.254-1.36-0.892-2.567-1.915-3.616c0.241-1.373,1.243-2.22,3.003-2.547l3.78,0.293l0.96-0.178l4.412-0.322l2.553-0.973
			l1.483-0.027l6.98-2.541l1.198-0.223c0.56,0.557,2.94,0.448,7.142-0.332l2.882-0.537l2.115-0.639
			c2.284-0.176,3.451-0.146,3.496,0.096l4.71-1.374l1.771,0.169c0.67-0.623,2.065-1.129,4.188-1.523l0.241-0.044l2.533,0.274
			l1.921-0.357l2.941-1.543l2.881-0.535l1.006,0.062l0.194-0.283l3.647-0.431l5.866-1.836l3.483,0.038l1.395,7.502H498.45z
			 M425.041,50.412 M422.475,59.331c-0.759,0.141-1.985-0.21-3.673-1.056l-0.481,0.089l-0.584,0.854l-0.241,0.044l-0.089-0.479
			l-0.24,0.045c-0.48,0.751-0.981,1.176-1.501,1.273l-1.966,0.117l-0.196,0.285c-0.248-0.451-0.773-0.601-1.573-0.453
			c-2.391,0.487-3.563,0.871-3.512,1.15l-2.775-0.229l-1.395,0.508l-0.24,0.044c-0.481,0.089-0.993-0.892-1.541-2.942l-0.239,0.045
			c-0.345-2.751,0.283-4.274,1.882-4.572l2.072-0.881c0.06,0.32,0.329,0.435,0.809,0.345l1.876-0.597l0.045,0.24
			c1.441-0.474,2.424-0.987,2.94-1.54c1.623,0.03,2.831,0.302,3.63,0.816l0.916-0.419l0.765,0.106l1.877-0.597l0.284,0.195
			l1.156-0.463l0.718-0.133l3.406-0.385 M464.028,44.718c0.748-1.546,2.018-2.63,3.805-3.253l2.819,0.47l3.033-1.061l1.964-0.116
			l1.124-0.643l1.382,7.443l-1.78-0.229c-0.842,0.819-2.223,1.406-4.145,1.763l-2.249-0.078c-1.121,0.208-1.971,0.532-2.553,0.97
			l-2.607-1.005L464.028,44.718L464.028,44.718z"/>
	</g>
	<g>
		<path fill="#E0B0AD" d="M189.056,112.769c3.432-1.381,7.191-2.576,11.278-3.582c4.085-1.006,8.146-1.885,12.184-2.635
			c4.316-0.802,8.773-1.259,13.365-1.37c4.592-0.11,8.898,0.453,12.915,1.688c4.017,1.234,7.485,3.313,10.408,6.237
			c2.924,2.924,4.867,6.979,5.83,12.166c0.949,5.106,0.669,9.616-0.836,13.529c-1.508,3.912-3.84,7.295-6.999,10.152
			c-3.161,2.859-6.952,5.191-11.372,7.004c-4.423,1.812-9.075,3.172-13.955,4.078c-0.472,0.09-1.245,0.232-2.324,0.432
			c-1.08,0.201-2.21,0.391-3.39,0.568c-1.183,0.181-2.342,0.332-3.484,0.463c-1.14,0.131-1.955,0.197-2.438,0.205l5.916,31.836
			l-11.687,2.172L189.056,112.769z M214.401,115.117c-2.442,0.454-4.779,0.931-7.019,1.428c-2.238,0.5-3.983,1.032-5.238,1.593
			l6.448,34.708c0.499,0.075,1.267,0.036,2.31-0.118c1.04-0.15,2.127-0.313,3.26-0.482c1.134-0.168,2.218-0.351,3.251-0.543
			c1.031-0.189,1.781-0.329,2.253-0.417c3.19-0.594,6.31-1.44,9.36-2.546c3.047-1.1,5.713-2.566,7.996-4.395
			c2.282-1.826,3.968-4.121,5.057-6.882c1.091-2.761,1.278-6.058,0.567-9.887c-0.608-3.272-1.844-5.868-3.706-7.793
			c-1.865-1.924-4.114-3.323-6.751-4.194c-2.641-0.871-5.513-1.307-8.621-1.308C220.46,114.281,217.405,114.558,214.401,115.117z"/>
		<path fill="#E0B0AD" d="M316.796,150.816l-36.15,6.717l-5.49,25.043l-11.688,2.172l21.502-92.03l5.35-0.995l53.27,78.136
			l-12.393,2.301L316.796,150.816z M282.829,148.215l28.862-5.364l-15.666-23.462l-5.86-12.036l-0.142,0.026l-1.1,13.577
			L282.829,148.215z"/>
		<path fill="#E0B0AD" d="M362.611,131.903L320.698,87.44l13.658-2.539l29.9,32.333l3.793,6.847l0.145-0.026l1.18-8.021
			l15.394-40.501l12.392-2.303l-22.882,56.379l6.204,33.393l-11.688,2.172L362.611,131.903z"/>
		<path fill="#E0B0AD" d="M410.113,70.824l53.648-9.97l1.646,8.857l-41.961,7.797l5.095,27.409l38.438-7.143l1.646,8.856
			l-38.44,7.143l5.538,29.8l42.665-7.928l1.646,8.856l-54.352,10.101L410.113,70.824z M440.831,44.067l16.052-2.982l0.468,2.513
			l-20.796,15.875l-9.716,1.806L440.831,44.067z"/>
	</g>
</g>
</svg>
