<?xml version="1.0" encoding="utf-8"?>
<!-- Generator: Adobe Illustrator 14.0.0, SVG Export Plug-In . SVG Version: 6.00 Build 43363)  -->
<!DOCTYPE svg PUBLIC "-//W3C//DTD SVG 1.1//EN" "http://www.w3.org/Graphics/SVG/1.1/DTD/svg11.dtd">
<svg version="1.1" id="Calque_1" xmlns="http://www.w3.org/2000/svg" xmlns:xlink="http://www.w3.org/1999/xlink" x="0px" y="0px"
	 width="70.871px" height="70.871px" viewBox="0 0 70.871 70.871" enable-background="new 0 0 70.871 70.871" xml:space="preserve">
<path fill="#4488A2" d="M61.908,58.462V38.061c0-0.257-0.053-0.504-0.146-0.726c-0.086-4.537-3.463-8.266-7.844-8.9
	c-0.139-0.034-0.285-0.053-0.436-0.053h-0.01c-0.076-0.007-0.156-0.012-0.234-0.017v-8.216c0-9.906-8.059-17.964-17.963-17.964
	c-9.905,0-17.963,8.058-17.963,17.964v8.348c-4.877,0.214-8.765,4.232-8.765,9.163c0,0.157,0.003,0.312,0.011,0.466
	c-0.004,0.015-0.008,0.026-0.011,0.039v19.23c-0.094,0.526-0.146,1.065-0.146,1.62c0,5.064,4.106,9.171,9.172,9.171
	c0.254,0,0.505-0.013,0.754-0.033c0.224,0.096,0.471,0.147,0.729,0.147h34.425c0.238,0,0.465-0.046,0.674-0.127
	c4.404-0.673,7.775-4.476,7.775-9.066C61.931,58.889,61.924,58.675,61.908,58.462z M35.275,10.39c5.381,0,9.758,4.377,9.758,9.759
	v8.233H25.514v-8.233C25.514,14.767,29.893,10.39,35.275,10.39z M37.183,50.202c0.082,0.21,0.129,0.438,0.129,0.678v6.701
	c0,1.027-0.834,1.86-1.861,1.86H34.69c-1.027,0-1.859-0.833-1.859-1.86V50.88c0-0.261,0.053-0.508,0.149-0.733
	c-1.444-0.772-2.427-2.292-2.427-4.046c0-2.534,2.053-4.584,4.586-4.584c2.533,0,4.585,2.05,4.585,4.584
	C39.724,47.898,38.689,49.45,37.183,50.202z"/>
</svg>
