/* XPM */
/* c:\Program Files\LGR\Epicea\Epicea2.exe */
static char *icon[] = {
"72 72 23 2",
"08 c #C0DCC0",
"23 c #5D3F00",
"25 c #9B6900",
"27 c #D99300",
"28 c #F0AA00",
"2D c #FFE6B4",
"31 c #9B9B00",
"3C c #547C00",
"52 c #003E00",
"6C c #007C54",
"83 c #003F5D",
"85 c #00699B",
"8D c #B4E6FF",
"8F c #001E5D",
"A2 c #4848FF",
"A5 c #B4B4FF",
"BF c #5D005D",
"E8 c #525252",
"EA c #6C6C6C",
"ED c #929292",
"EF c #ABABAB",
"FF c #FFFFFF",
"   c None",
"                                                                                    28282828                                                    ",
"                                                                                  282828282828                                                  ",
"                                                                                  282828282828                                                  ",
"                                                                                282828282828                                                    ",
"                                                                    28282828    282828282828    28282828                                        ",
"                                                                  2828282828    282828282828  2828282828                                        ",
"                                                                  2828282828    2828282828    2828282828                                        ",
"                                                                282828282828  282828282828  282828282828                                        ",
"                                                                282828282828  282828282828  282828282828                                        ",
"                                                              832828282828E852282828282828  2828282828                                          ",
"                                                      EF8383E8E82828282828E8E82828282828  282828282828                                          ",
"                                                  28318323BF8325282828282883252828282828E8282828282828                                          ",
"                                              282828E8E8838383282828282825832828282828E8832828282828                                            ",
"                                          28282828288F838323E8282828282883E82828282828E8E82828282828                                            ",
"                                        2828282828E852E8E883EA282828282883EA282828282883ED28282828EDE8                                          ",
"                                    2828282828282883E883528328282828282883282828282828832828282828EA6CE88D                                      ",
"                                  2828282828282828E883E883E8282828282823E82828282828E8E82828282828E8E8A2E8A5                                    ",
"                                  282828282828283C8383238FEA282828282883E8282828282883ED2828282828EAE8E8E8E8                                    ",
"                                2828282828282828E883E8838328282828282583282828282828832828282828EDE8EAE8EDE8E8                                  ",
"                              28282828282828282883E88323832828282828E8832828282828E8E82828282828EDEDE8EFE8EAE8E8                                ",
"                            282828282828282828288352E883E82828282828E8E82828282828E8EA2828282828EFEDEFE8EFE8EDE8EF                              ",
"                          282828282828282828282883E8838325282828282883252828282828E8ED2828282828EFEFEFEFEDEDEAE8E8A5                            ",
"                          28282828282828282828288FE8838328282828283C83282828282825852828282828EFEF8DEFEFEFEDE8E8EAE8                            ",
"                        2828282828282828282828288352E8232828282828E8232828282828E8EA2828282828EF8D2D8DEFEFEDEDEAE8E8A5                          ",
"                        28282828282828282828282883E883E8282828282883EA28282828286CEA282828282808FFFFFFEFEFEFE8EFE885E8                          ",
"                      282828282828282828282828288F83E82828282828EA83272828282828832828282828EFEF8D2D8DEFEFEDEDE8E8E8E8EF                        ",
"                      2828282828282828282828282883E8522828282828E8522728282828E8E82828282828EFEFEFEFEFEFEFEDEDE8EAE8E8EA                        ",
"                    28282828282828282828282828288383E8282828282883EA282828282883EA2828282828EDEFEDEFEFEDEDEDE8EAE8E86CE8                        ",
"                    282828282828282828282828282852E828282828282883252828282828E8ED28282828EDEDEDEFEDEDEFEAE8EAE86CE8E86CEF                      ",
"                    2828282828282828282828282828838328282828283C832828282828E8832828282828E8EDE8EFE8EDEAE8E8E8E8E8E883E8ED                      ",
"                    2828282828282828282828282828E8E82828282828E83C2828282828E8E82828282828EAE8E8EAE8E8E8EAE8EAE8E883E8E8E8                      ",
"                  28282828282828282828282828282828E8282828282883EA28282828278328282828282883E8EAE8EAE8EA6CE8E8E86CE8E88383                      ",
"                  282828282828282828282828282828282828282828E8832828282828EA832828282828EAE8E86CE8E8E8E8E8E86CE8E883E88323                      ",
"                  282828282828282828282828282828282828282828E8E8282828282883E82828282828E883E8E8E86CE8E883E8E883E883E883E88D                    ",
"                  282828282828282828282828282828282828282828832828282828288325282828282883E8E883E8E8E883E8E86CE8832383E8832D                    ",
"                  2828282828282828282828282828282828282828EA832828282828288328282828282883E883E883E883E883E883E883E8832383A5                    ",
"                  2828282828282828282828282828282828282828E8522828282828E8232828282828E8E883E852E883E852E883E883E883E8838F2D                    ",
"                  282828282828282828282828282828282828282883EA282828282883EA28282828288383E883E883E883E8E852E883E852E883238D                    ",
"                  2828282828282828282828282828282828282828832528282828288328282828282583E852E883E883E88383E8832383E883E883                      ",
"                  2828282828282828282828282828282828282828832828282828EA832828282828E883E883E883E852E852E88383E8E883832383                      ",
"                    28282828282828282828282828282828282828E8282828282883E8282828282883E852E88352E883E883E88323838352E883E8                      ",
"                    28282828282828282828282828282828282828282828282828832528282828288383E883E883E8838FE883E883E883E8E883EF                      ",
"                    282828282828282828282828282828282828282828282828EA832828282828E852E8832383E852E852E852832383E852838FEF                      ",
"                    28282828282828282828282828282828282828282828282823832828282828E883E88383E883E883E883BF83E88383E88323                        ",
"                      282828282828282828282828282828282828282828282883EA28282828288383BF52E85283E85283E852E88F2383238FED                        ",
"                      28282828282828282828282828282828282828282828288327282828282883E883E88FE883E88FE88383E88383E883E808                        ",
"                        28282828282828282828282828282828282828282828282828282828E88F238383E88352E883832383E852E883BF6C                          ",
"                        282828282828282828282828282828282828282828282828282828288383E8832383E883E852E883E883E88352832D                          ",
"                          282828282828282828282828282828282828282828282828282828838383E883E852E883E883E88F2383E883E8                            ",
"                          2828282828282828282828282828282828282828282828282828282828288F8383838F838383838383838325                              ",
"                            28282828282828282828282828282828282828282828282828282828282828282828282828282828282828                              ",
"                            282828282828282828282828282828282828282828282828282828282828282828282828282828282828                                ",
"                              28282828282828282828282828282828282828282828282828282828282828282828282828282828                                  ",
"                                2828282828282828282828282828282828282828282828282828282828282828282828282828                                    ",
"                                  282828282828282828282828282828282828282828282828282828282828282828282828                                      ",
"                                    28282828282828282828282828282828282828282828282828282828282828282828                                        ",
"                                    282828282828282828282828282828282828282828282828282828282828282828                                          ",
"                                    2828282828282828282828282828282828282828282828282828282828282828                                            ",
"                                  28282828282828282828282828282828282828282828282828282828282828                                                ",
"                                  282828282828  28282828282828282828282828282828282828282828                                                    ",
"                                  2828282828    28282828282828282828282828282828282828                                                          ",
"                                282828282828  282828282828  2828282828282828                                                                    ",
"                                282828282828  282828282828  282828282828                                                                        ",
"                                2828282828    282828282828  2828282828                                                                          ",
"                                2828282828  282828282828  282828282828                                                                          ",
"                                28282828    282828282828    28282828                                                                            ",
"                                  2828      282828282828      2828                                                                              ",
"                                          282828282828                                                                                          ",
"                                          282828282828                                                                                          ",
"                                          282828282828                                                                                          ",
"                                            282828                                                                                              ",
"                                                                                                                                                "};
